<?xml version="1.0" ?>
<!DOCTYPE svg  PUBLIC '-//W3C//DTD SVG 1.1//EN'  'http://www.w3.org/Graphics/SVG/1.1/DTD/svg11.dtd'>
<!-- Uploaded to: SVG Repo, www.svgrepo.com, Generator: SVG Repo Mixer Tools -->
<svg fill="#000000" width="800px" height="800px" viewBox="0 0 64 64" enable-background="new 0 0 64 64" version="1.1" xml:space="preserve" xmlns="http://www.w3.org/2000/svg" xmlns:xlink="http://www.w3.org/1999/xlink">
<g id="Layer_1"/>
<g id="Layer_2"/>
<g id="Layer_4"/>
<g id="Layer_5">
<path d="M45.832,35.445l-2-3C43.646,32.167,43.334,32,43,32h-1v-9.978c0-5.556-4.486-10.076-10-10.076s-10,4.52-10,10.076V32h-1   c-0.334,0-0.646,0.167-0.832,0.445l-2,3C18.059,35.609,18,35.803,18,36v15c0,0.552,0.448,1,1,1h9.969c0.552,0,1-0.448,1-1   c0-1.12,0.911-2.031,2.031-2.031S34.031,49.88,34.031,51c0,0.552,0.448,1,1,1H45c0.552,0,1-0.448,1-1V36   C46,35.803,45.941,35.609,45.832,35.445z M24,22.022c0-4.453,3.589-8.076,8-8.076s8,3.623,8,8.076V32H24V22.022z M44,50h-8.095   c-0.446-1.74-2.028-3.031-3.905-3.031S28.541,48.26,28.095,50H20V36.303L21.535,34h20.93L44,36.303V50z"/>
<g>
<path d="M32,46c-1.654,0-3-1.346-3-3s1.346-3,3-3s3,1.346,3,3S33.654,46,32,46z M32,42c-0.551,0-1,0.449-1,1s0.449,1,1,1    s1-0.449,1-1S32.551,42,32,42z"/>
</g>
</g>
</svg>