<?xml version="1.0" ?>
<!DOCTYPE svg  PUBLIC '-//W3C//DTD SVG 1.1//EN'  'http://www.w3.org/Graphics/SVG/1.1/DTD/svg11.dtd'>
<!-- Uploaded to: SVG Repo, www.svgrepo.com, Generator: SVG Repo Mixer Tools -->
<svg fill="#000000" width="800px" height="800px" viewBox="0 0 64 64" enable-background="new 0 0 64 64" version="1.1" xml:space="preserve" xmlns="http://www.w3.org/2000/svg" xmlns:xlink="http://www.w3.org/1999/xlink">
<g id="Layer_1"/>
<g id="Layer_2"/>
<g id="Layer_4"/>
<g id="Layer_5">
<path d="M50.465,43.928c-0.001-0.073-0.003-0.143-0.02-0.212c-0.014-0.061-0.034-0.115-0.059-0.172   c-0.025-0.06-0.052-0.116-0.089-0.169c-0.037-0.055-0.081-0.102-0.128-0.148c-0.043-0.042-0.085-0.081-0.135-0.114   c-0.061-0.042-0.127-0.07-0.196-0.098c-0.034-0.013-0.062-0.039-0.098-0.048C49.305,42.85,49,42.452,49,42   c0-0.452,0.304-0.849,0.739-0.966c0.038-0.01,0.066-0.037,0.103-0.051c0.068-0.027,0.132-0.055,0.191-0.095   c0.05-0.034,0.091-0.073,0.134-0.114c0.049-0.047,0.093-0.095,0.131-0.151c0.035-0.051,0.06-0.104,0.085-0.162   c0.025-0.06,0.049-0.118,0.063-0.183c0.015-0.065,0.017-0.129,0.018-0.197c0-0.042,0.016-0.081,0.011-0.123   c-0.167-1.489-0.608-3.507-1.767-4.666C48.52,35.105,48.266,35,48,35h-4v-8.822c0-6.641-5.383-12.043-12-12.043   c-6.617,0-12,5.403-12,12.043V35h-4c-0.265,0-0.52,0.105-0.707,0.293c-2.445,2.444-2.445,10.97,0,13.414   C15.48,48.895,15.735,49,16,49h10c0,0.552,0.448,1,1,1h10c0.553,0,1-0.448,1-1h10c0.266,0,0.52-0.105,0.707-0.293   c1.159-1.159,1.601-3.178,1.768-4.667C50.479,44.001,50.465,43.966,50.465,43.928z M22,26.178c0-5.538,4.486-10.043,10-10.043   c5.514,0,10,4.505,10,10.043V35h-4c0-0.552-0.447-1-1-1H27c-0.552,0-1,0.448-1,1h-4V26.178z M28,43h8v1h-8V43z M36,41h-8v-1h8V41z    M28,47v-1h8v1H28z M36,38h-8v-1h8V38z M16.474,47c-0.599-0.913-1.007-2.854-1.02-4.96c-0.013-2.165,0.386-4.104,1.016-5.04h1.91   c0.496,0.609,1.443,1,2.62,1s2.124-0.391,2.62-1H26v10H16.474z M47.534,47H38V37h2.38c0.496,0.609,1.443,1,2.62,1   s2.124-0.391,2.62-1h1.914c0.375,0.542,0.665,1.414,0.846,2.481C47.54,40.022,47,40.961,47,42c0,1.04,0.54,1.979,1.38,2.52   C48.2,45.586,47.91,46.458,47.534,47z"/>
<path d="M23,44h-4c-0.552,0-1,0.448-1,1s0.448,1,1,1h4c0.552,0,1-0.448,1-1S23.552,44,23,44z"/>
<path d="M45,44h-4c-0.553,0-1,0.448-1,1s0.447,1,1,1h4c0.553,0,1-0.448,1-1S45.553,44,45,44z"/>
</g>
</svg>