<?xml version="1.0" ?>
<!-- Uploaded to: SVG Repo, www.svgrepo.com, Generator: SVG Repo Mixer Tools -->
<svg width="800px" height="800px" viewBox="0 0 64 64" xmlns="http://www.w3.org/2000/svg">
<defs>
<style>.cls-1{fill:#f5d96d;}.cls-2{fill:#f5c160;}.cls-3{fill:#f0f4f7;}.cls-4{fill:#e5936b;}.cls-5{fill:#e0e9ee;}.cls-6{fill:#f6e782;}.cls-7{fill:#252b48;}</style>
</defs>
<g data-name="Sofa Chair" id="Sofa_Chair-5">
<path class="cls-1" d="M52,32.18V23A12.33,12.33,0,0,0,39.6,10.65H24.4A12.33,12.33,0,0,0,12.05,23V43.38l4.74,5.44H48.5Z" id="rect82872-3"/>
<path class="cls-2" d="M35.69,10.65A12.32,12.32,0,0,1,48,23v9.18L44.6,48.82h3.9L52,32.18V23A12.33,12.33,0,0,0,39.6,10.65Z" id="path285148"/>
<path class="cls-3" d="M45.26,41.38a4,4,0,0,0-4-4H22.73a4,4,0,0,0-4,4l-3.28,3.28,2.15,4.79H49.46l-.59-5Z" id="path81114-10"/>
<path class="cls-4" d="M25.6,18.92a2.08,2.08,0,1,1-2.07-2.08A2.07,2.07,0,0,1,25.6,18.92Z" id="path84472-0"/>
<path class="cls-4" d="M42.55,18.92a2.08,2.08,0,1,1-2.08-2.08A2.07,2.07,0,0,1,42.55,18.92Z" id="path84577-44"/>
<path class="cls-4" d="M25.6,28.07A2.08,2.08,0,1,1,23.53,26,2.08,2.08,0,0,1,25.6,28.07Z" id="path84897-4"/>
<path class="cls-4" d="M42.55,28.07A2.08,2.08,0,1,1,40.47,26,2.08,2.08,0,0,1,42.55,28.07Z" id="path84899-4"/>
<path class="cls-5" d="M40.4,37.39v8H15.77l1.84,4.08H49.46l-.59-5-3.61-3a4,4,0,0,0-4-4Z" id="path270807"/>
<path class="cls-6" d="M13.37,32A5.35,5.35,0,0,0,8,37.39v14a2,2,0,0,0,2,2H54a2,2,0,0,0,2-2v-14a5.37,5.37,0,0,0-10.74,0v8H18.74v-8A5.36,5.36,0,0,0,13.37,32Z" id="rect78566-98"/>
<path class="cls-1" d="M50.63,32a5.43,5.43,0,0,0-1.77.3,5.36,5.36,0,0,1,3.59,5.07v14a2,2,0,0,1-2,2H54a2,2,0,0,0,2-2v-14A5.35,5.35,0,0,0,50.63,32Z" id="path281748"/>
<path class="cls-4" d="M13.37,35.49a1.89,1.89,0,0,1,1.9,1.9v3.42a1.9,1.9,0,0,1-3.8,0V37.39A1.89,1.89,0,0,1,13.37,35.49Z" id="rect79843-4"/>
<path class="cls-4" d="M50.63,35.49a1.89,1.89,0,0,1,1.9,1.9v3.42a1.9,1.9,0,1,1-3.8,0V37.39A1.89,1.89,0,0,1,50.63,35.49Z" id="path80646-8"/>
<path class="cls-7" d="M53,31.46V23A13.37,13.37,0,0,0,39.6,9.65H24.4A13.37,13.37,0,0,0,11.05,23v8.46A6.37,6.37,0,0,0,7,37.39v14a3,3,0,0,0,3,3H54a3,3,0,0,0,3-3v-14A6.37,6.37,0,0,0,53,31.46ZM13.05,23A11.36,11.36,0,0,1,24.4,11.65H39.6A11.36,11.36,0,0,1,51,23v8h-.32a6.38,6.38,0,0,0-6.37,6.37v0a4.93,4.93,0,0,0-3-1H22.73a4.93,4.93,0,0,0-3,1v0A6.38,6.38,0,0,0,13.37,31h-.32Zm6.69,18.38a3,3,0,0,1,3-3H41.27a3,3,0,0,1,3,3v3H19.74ZM55,51.35a1,1,0,0,1-1,1H10a1,1,0,0,1-1-1v-14a4.37,4.37,0,0,1,8.74,0v7h-.8a1,1,0,0,0,0,2H47.06a1,1,0,0,0,0-2h-.8v-7a4.37,4.37,0,0,1,8.74,0Z"/>
<path class="cls-7" d="M16.27,37.39a2.9,2.9,0,0,0-5.8,0v3.42a2.9,2.9,0,0,0,5.8,0Zm-2,3.42a.9.9,0,1,1-1.8,0V37.39a.9.9,0,0,1,1.8,0Z"/>
<path class="cls-7" d="M50.63,34.49a2.9,2.9,0,0,0-2.9,2.9v3.42a2.9,2.9,0,1,0,5.8,0V37.39A2.9,2.9,0,0,0,50.63,34.49Zm.9,6.32a.9.9,0,0,1-1.8,0V37.39a.9.9,0,1,1,1.8,0Z"/>
<path class="cls-7" d="M23.53,22a3.08,3.08,0,1,0-3.08-3.08A3.09,3.09,0,0,0,23.53,22Zm0-4.16a1.08,1.08,0,1,1-1.08,1.08A1.07,1.07,0,0,1,23.53,17.84Z"/>
<path class="cls-7" d="M40.47,22a3.08,3.08,0,1,0-3.07-3.08A3.09,3.09,0,0,0,40.47,22Zm0-4.16a1.08,1.08,0,1,1-1.07,1.08A1.08,1.08,0,0,1,40.47,17.84Z"/>
<path class="cls-7" d="M23.53,31.15a3.08,3.08,0,1,0-3.08-3.08A3.08,3.08,0,0,0,23.53,31.15Zm0-4.15a1.08,1.08,0,1,1-1.08,1.07A1.07,1.07,0,0,1,23.53,27Z"/>
<path class="cls-7" d="M40.47,31.15a3.08,3.08,0,1,0-3.07-3.08A3.08,3.08,0,0,0,40.47,31.15Zm0-4.15a1.08,1.08,0,1,1-1.07,1.07A1.07,1.07,0,0,1,40.47,27Z"/>
</g>
</svg>