<?xml version="1.0" ?>
<!-- Uploaded to: SVG Repo, www.svgrepo.com, Generator: SVG Repo Mixer Tools -->
<svg fill="#000000" width="800px" height="800px" viewBox="0 0 100 100" version="1.1" xml:space="preserve" xmlns="http://www.w3.org/2000/svg" xmlns:xlink="http://www.w3.org/1999/xlink">
<style type="text/css">
	.st0{display:none;}
	.st1{display:inline;fill:none;}
</style>
<g class="st0" id="bounding_squares">
<rect class="st1" height="100" id="XMLID_25_" width="100"/>
</g>
<g id="icons">
<path d="M75,66.75c-1.7353516,0-3.4731445-0.4101563-5.0253906-1.1865234l-13.4733276-6.7366333l1.1627808-1.1627808   c0.78125-0.78125,0.78125-2.046875,0-2.828125c-0.7802734-0.78125-2.0478516-0.78125-2.828125,0l-2.1054688,2.1054688   l-8.729187-4.364563l1.1627808-1.1627808c0.1135254-0.1135254,0.2055664-0.2393188,0.2861328-0.3703613   C46.8449707,51.6552124,48.3821411,52,50,52c6.2719727,0,11.375-5.1025391,11.375-11.375S56.2719727,29.25,50,29.25   s-11.375,5.1025391-11.375,11.375c0,3.2116089,1.3433228,6.1106567,3.4909058,8.1809692l-2.9049683,2.9049683   C34.8027344,56.1191406,32.375,61.9794922,32.375,68.2138672V75c0,0.5529175,0.2245483,1.0533447,0.5872192,1.4153442   L45.1713867,88.625H25c-1.1044922,0-2,0.8955078-2,2s0.8955078,2,2,2h25c0.809082,0,1.5380859-0.4873047,1.8476563-1.234375   c0.3095703-0.7480469,0.1386719-1.6074219-0.4335938-2.1796875L36.375,74.171875v-5.9580078   c0-4.2005615,1.3501587-8.1843262,3.810791-11.4946899l4.9001465,9.800354   c0.2875977,0.5751953,0.8339844,0.9765625,1.46875,1.0800781C46.6616211,67.6162109,46.7685547,67.625,46.875,67.625   c0.5258789,0,1.0361328-0.2080078,1.4140625-0.5859375l5.2304688-5.2304688l14.6660156,7.3330078   C70.2905273,70.1933594,72.6469727,70.75,75,70.75c1.1044922,0,2-0.8955078,2-2S76.1044922,66.75,75,66.75z M50,33.25   c4.0664063,0,7.375,3.3085938,7.375,7.375S54.0664063,48,50,48s-7.375-3.3085938-7.375-7.375S45.9335938,33.25,50,33.25z    M47.4228516,62.2490234L45.09729,57.5974731l4.6514282,2.3256836L47.4228516,62.2490234z"/>
</g>
</svg>