<?xml version="1.0" ?>
<!-- Uploaded to: SVG Repo, www.svgrepo.com, Generator: SVG Repo Mixer Tools -->
<svg fill="#000000" width="800px" height="800px" viewBox="0 0 100 100" version="1.1" xml:space="preserve" xmlns="http://www.w3.org/2000/svg" xmlns:xlink="http://www.w3.org/1999/xlink">
<style type="text/css">
	.st0{display:none;}
	.st1{display:inline;fill:none;}
</style>
<g class="st0" id="bounding_squares">
<rect class="st1" height="100" id="XMLID_1_" width="100"/>
</g>
<g id="icons">
<path d="M76.4140625,70.4609375L46.578125,40.625l0.7410278-0.7410278C49.3895264,42.0316162,52.2885742,43.375,55.5,43.375   c6.2719727,0,11.375-5.1030273,11.375-11.375S61.7719727,20.625,55.5,20.625S44.125,25.7280273,44.125,32   c0,1.595459,0.333252,3.1135864,0.928894,4.492981l-2.383728,2.383728l-18.3024902,6.1008301   C23.5507813,45.25,23,46.0141602,23,46.875v18.75c0,1.1044922,0.8955078,2,2,2s2-0.8955078,2-2V48.3164063l10.1898804-3.3965454   C32.0402832,51.7579956,29.25,60.038208,29.25,68.75c0,0.8708496,0.5600586,1.604187,1.3369751,1.8786621   c0.0112305,0.0048218,0.0188599,0.0148315,0.0307007,0.0187988l15.6798096,5.2266235L39.5449829,82.62677l-8.9273071,2.975769   C29.8007813,85.875,29.25,86.6391602,29.25,87.5v6.25c0,1.1044922,0.8955078,2,2,2s2-0.8955078,2-2v-4.8085938l2.25-0.75V90.625   c0,2.8261719,2.2988281,5.125,5.125,5.125c1.1044922,0,2-0.8955078,2-2s-0.8955078-2-2-2c-0.6201172,0-1.125-0.5048828-1.125-1.125   v-2.2963867l2.2056274-2.2056885l18.3016968-6.1004639C60.8242188,79.75,61.375,78.9858398,61.375,78.125   s-0.5507813-1.625-1.3676758-1.8974609l-6.3049927-2.1016846l3.961731-3.961792   c0.5722656-0.5717773,0.7431641-1.4321289,0.4335938-2.1791992C57.7880859,67.2373047,57.059082,66.75,56.25,66.75H33.3046875   c0.4819336-8.7900391,4.1347656-16.9858398,10.4077148-23.2592773L43.75,43.453125l29.8359375,29.8359375   C73.9760742,73.6796875,74.4882813,73.875,75,73.875s1.0239258-0.1953125,1.4140625-0.5859375   C77.1953125,72.5083008,77.1953125,71.2416992,76.4140625,70.4609375z M55.5,24.625c4.0664063,0,7.375,3.3085938,7.375,7.375   s-3.3085938,7.375-7.375,7.375S48.125,36.0664063,48.125,32S51.4335938,24.625,55.5,24.625z M53.050293,78.125   l-5.0203857,1.6734619l2.5101318-2.5101929L53.050293,78.125z M49.4597778,72.7116699L43.574707,70.75h7.8466797   L49.4597778,72.7116699z"/>
</g>
</svg>