<?xml version="1.0" ?>
<!-- Uploaded to: SVG Repo, www.svgrepo.com, Generator: SVG Repo Mixer Tools -->
<svg fill="#000000" width="800px" height="800px" viewBox="0 0 100 100" version="1.1" xml:space="preserve" xmlns="http://www.w3.org/2000/svg" xmlns:xlink="http://www.w3.org/1999/xlink">
<style type="text/css">
	.st0{display:none;}
	.st1{display:inline;fill:none;}
</style>
<g class="st0" id="bounding_squares">
<rect class="st1" height="100" id="XMLID_17_" width="100"/>
</g>
<g id="icons">
<path d="M52,27.3261108v-0.5133057c5.3198853-0.9492798,9.375-5.5992432,9.375-11.1878052   C61.375,9.3530273,56.2719727,4.25,50,4.25S38.625,9.3530273,38.625,15.625c0,5.588562,4.0551147,10.2385254,9.375,11.1878052   v0.4840698L32.9609375,42.3359375c-0.78125,0.78125-0.78125,2.046875,0,2.828125l9.375,9.375   C42.7260742,54.9296875,43.2382813,55.125,43.75,55.125s1.0239258-0.1953125,1.4140625-0.5859375   c0.78125-0.78125,0.78125-2.046875,0-2.828125L37.2036133,43.75L48,32.9532471v22.4978638   c-4.0339966,4.3314819-6.25,9.9376221-6.25,15.8877563V93.75c0,1.1044922,0.8955078,2,2,2s2-0.8955078,2-2V71.3388672   c0-4.4550781,1.4956055-8.6787109,4.25-12.0996094c2.7543945,3.4208984,4.25,7.6445313,4.25,12.0996094V93.75   c0,1.1044922,0.8955078,2,2,2s2-0.8955078,2-2V71.3388672c0-5.9501343-2.2160034-11.5562744-6.25-15.8877563V33.4266968   c5.5057983,7.0929565,8.5,15.7519531,8.5,24.8760376V62.5c0,1.1044922,0.8955078,2,2,2s2-0.8955078,2-2v-4.1972656   C64.5,46.6533813,60.06073,35.6917725,52,27.3261108z M42.625,15.625c0-4.0664063,3.3085938-7.375,7.375-7.375   s7.375,3.3085938,7.375,7.375S54.0664063,23,50,23S42.625,19.6914063,42.625,15.625z"/>
</g>
</svg>