<?xml version="1.0" ?>
<!-- Uploaded to: SVG Repo, www.svgrepo.com, Generator: SVG Repo Mixer Tools -->
<svg fill="#000000" width="800px" height="800px" viewBox="0 0 100 100" version="1.1" xml:space="preserve" xmlns="http://www.w3.org/2000/svg" xmlns:xlink="http://www.w3.org/1999/xlink">
<style type="text/css">
	.st0{display:none;}
	.st1{display:inline;fill:none;}
</style>
<g class="st0" id="bounding_squares">
<rect class="st1" height="100" id="XMLID_16_" width="100"/>
</g>
<g id="icons">
<path d="M67.0390625,45.1640625c0.78125-0.78125,0.78125-2.046875,0-2.828125L52,27.296875v-0.4840698   c5.3198853-0.9492798,9.375-5.5992432,9.375-11.1878052C61.375,9.3530273,56.2719727,4.25,50,4.25S38.625,9.3530273,38.625,15.625   c0,5.588562,4.0551147,10.2385254,9.375,11.1878052v0.4840698L32.9609375,42.3359375c-0.78125,0.78125-0.78125,2.046875,0,2.828125   l12.5,12.5C45.8510742,58.0546875,46.3632813,58.25,46.875,58.25c0.3937988,0,0.786499-0.1183472,1.125-0.3496704V93.75   c0,1.1044922,0.8955078,2,2,2s2-0.8955078,2-2V64.722229l5.375,10.7494507V93.75c0,1.1044922,0.8955078,2,2,2s2-0.8955078,2-2V75   c0-0.3105469-0.0722656-0.6171875-0.2109375-0.8945313l-7.9328003-15.8656616   c0.475708-0.0252686,0.9447632-0.2122803,1.3078003-0.5757446L67.0390625,45.1640625z M52,54.546875V32.9532471L62.7963867,43.75   L52,54.546875z M42.625,15.625c0-4.0664063,3.3085938-7.375,7.375-7.375s7.375,3.3085938,7.375,7.375S54.0664063,23,50,23   S42.625,19.6914063,42.625,15.625z M37.2036133,43.75L48,32.9532471V54.546875L37.2036133,43.75z"/>
</g>
</svg>