<?xml version="1.0" encoding="utf-8"?><!-- Uploaded to: SVG Repo, www.svgrepo.com, Generator: SVG Repo Mixer Tools -->
<svg fill="#000000" width="800px" height="800px" viewBox="0 0 24 24" id="moon-alt-2" xmlns="http://www.w3.org/2000/svg" class="icon multi-color"><title style="stroke-width: 2;">moon alt 2</title><path id="secondary-fill" d="M15,11.66a14,14,0,0,1-2.81,8.41,8,8,0,0,1-1.95.49A9,9,0,0,1,11.71,3.09a3.86,3.86,0,0,1,.48.16A14,14,0,0,1,15,11.66Z" style="fill: rgb(44, 169, 188); stroke-width: 2;"></path><path id="primary-stroke" d="M19,12a14,14,0,0,1-2.81,8.41A8.9,8.9,0,0,1,13,21a8.72,8.72,0,0,1-2.76-.44A9,9,0,0,1,11.71,3.09,9.11,9.11,0,0,1,13,3a8.9,8.9,0,0,1,3.19.59A14,14,0,0,1,19,12Z" style="fill: none; stroke: rgb(0, 0, 0); stroke-linecap: round; stroke-linejoin: round; stroke-width: 2;"></path></svg>