<?xml version="1.0" encoding="utf-8"?><!-- Uploaded to: SVG Repo, www.svgrepo.com, Generator: SVG Repo Mixer Tools -->
<svg fill="#000000" width="800px" height="800px" viewBox="0 0 24 24" id="moon-alt-6" xmlns="http://www.w3.org/2000/svg" class="icon multi-color"><title style="stroke-width: 2;">moon alt 6</title><path id="secondary-fill" d="M20,12a9,9,0,0,1-6.08,8.51A8.69,8.69,0,0,1,11.81,20a14,14,0,0,1,0-16.82l.3-.1A9,9,0,0,1,20,12Z" style="fill: rgb(44, 169, 188); stroke-width: 2;"></path><path id="primary-stroke" d="M20,12a9,9,0,0,1-6.08,8.51,8.93,8.93,0,0,1-6.11-.1,14,14,0,0,1,0-16.82A8.9,8.9,0,0,1,11,3a8.07,8.07,0,0,1,1.11.07A9,9,0,0,1,20,12Z" style="fill: none; stroke: rgb(0, 0, 0); stroke-linecap: round; stroke-linejoin: round; stroke-width: 2;"></path></svg>