<?xml version="1.0" ?>
<!DOCTYPE svg  PUBLIC '-//W3C//DTD SVG 1.1//EN'  'http://www.w3.org/Graphics/SVG/1.1/DTD/svg11.dtd'>
<!-- Uploaded to: SVG Repo, www.svgrepo.com, Generator: SVG Repo Mixer Tools -->
<svg width="800px" height="800px" viewBox="0 0 32 32" enable-background="new 0 0 32 32" version="1.1" xml:space="preserve" xmlns="http://www.w3.org/2000/svg" xmlns:xlink="http://www.w3.org/1999/xlink">
<g id="Smart_Watch41"/>
<g id="Smart_Watch40"/>
<g id="Smart_Watch39"/>
<g id="Smart_Watch38"/>
<g id="Smart_Watch37"/>
<g id="Smart_Watch36"/>
<g id="Smart_Watch35"/>
<g id="Smart_Watch34"/>
<g id="Smart_Watch33"/>
<g id="Smart_Watch32"/>
<g id="Smart_Watch31"/>
<g id="Smart_Watch30"/>
<g id="Smart_Watch29"/>
<g id="Smart_Watch28"/>
<g id="Smart_Watch27"/>
<g id="Smart_Watch26"/>
<g id="Smart_Watch25"/>
<g id="Smart_Watch24"/>
<g id="Smart_Watch23"/>
<g id="Smart_Watch22"/>
<g id="Smart_Watch21"/>
<g id="Smart_Watch20"/>
<g id="Smart_Watch19"/>
<g id="Smart_Watch18"/>
<g id="Smart_Watch17"/>
<g id="Smart_Watch16"/>
<g id="Smart_Watch15"/>
<g id="Smart_Watch14"/>
<g id="Smart_Watch13"/>
<g id="Smart_Watch12"/>
<g id="Smart_Watch11"/>
<g id="Smart_Watch10"/>
<g id="Smart_Watch09"/>
<g id="Smart_Watch08"/>
<g id="Smart_Watch07"/>
<g id="Smart_Watch06"/>
<g id="Smart_Watch05"/>
<g id="Smart_Watch04"/>
<g id="Smart_Watch03">
<path d="M28,14v4c0,0.55-0.45,1-1,1h-1v4c0,1.65-1.35,3-3,3h-1.18l-0.84,4.2C20.89,30.66,20.48,31,20,31h-8   c-0.48,0-0.89-0.34-0.98-0.8L10.18,26H9c-1.65,0-3-1.35-3-3V9c0-1.65,1.35-3,3-3h1.18l0.84-4.2C11.11,1.34,11.52,1,12,1h8   c0.48,0,0.89,0.34,0.98,0.8L21.82,6H23c1.65,0,3,1.35,3,3v4h1C27.55,13,28,13.45,28,14z" fill="#3FC1C9"/>
<path d="M19.4064,15.79L16,19.5271l-3.4064-3.737c-0.7915-0.8616-0.7915-2.3143,0-3.186   c0.3607-0.3907,0.8316-0.6111,1.3325-0.6111s0.9719,0.2204,1.3325,0.6111c0.3807,0.4208,1.102,0.4208,1.4828,0   c0.7214-0.7915,1.9436-0.7915,2.665,0C20.1979,13.4757,20.1979,14.9284,19.4064,15.79z" fill="#FFFFFF"/>
<g>
<polygon fill="#FFFFFF" points="12.6349,29.0873 19.3651,29.0873 20,25.9127 12,25.9127   "/>
<polygon fill="#FFFFFF" points="19.3651,2.9127 12.6349,2.9127 12,6.0873 20,6.0873   "/>
</g>
<path d="M27,13h-1V9c0-1.6543-1.3457-3-3-3h-1.1803l-0.8392-4.1963C20.8872,1.3364,20.4766,1,20,1h-8   c-0.4766,0-0.8872,0.3364-0.9805,0.8037L10.1803,6H9C7.3457,6,6,7.3457,6,9v14c0,1.6543,1.3457,3,3,3h1.1803l0.8392,4.1963   C11.1128,30.6636,11.5234,31,12,31h8c0.4766,0,0.8872-0.3364,0.9805-0.8037L21.8197,26H23c1.6543,0,3-1.3457,3-3v-4h1   c0.5522,0,1-0.4478,1-1v-4C28,13.4478,27.5522,13,27,13z M12.8198,3h6.3604l0.6001,3h-7.5605L12.8198,3z M19.1802,29h-6.3604   l-0.6001-3h7.5605L19.1802,29z M24,23c0,0.5513-0.4487,1-1,1h-2H11H9c-0.5513,0-1-0.4487-1-1V9c0-0.5513,0.4487-1,1-1h2h10h0.02H23   c0.5513,0,1,0.4487,1,1v5v4V23z" fill="#364F6B"/>
<path d="M20.88,11.26C20.14,10.45,19.14,10,18.07,10c-0.74,0-1.45,0.22-2.07,0.63C15.38,10.22,14.67,10,13.93,10   c-1.07,0-2.07,0.45-2.81,1.26c-1.48,1.62-1.48,4.26,0,5.88l4.14,4.53C15.45,21.88,15.72,22,16,22s0.55-0.12,0.74-0.33l4.14-4.53   C22.36,15.52,22.36,12.88,20.88,11.26z M19.4,15.79L16,19.52l-3.4-3.73c-0.79-0.86-0.79-2.31,0-3.18c0.36-0.39,0.83-0.61,1.33-0.61   s0.97,0.22,1.33,0.61c0.38,0.42,1.1,0.42,1.48,0c0.72-0.79,1.94-0.79,2.66,0C20.19,13.48,20.19,14.93,19.4,15.79z" fill="#364F6B"/>
</g>
<g id="Smart_Watch02"/>
</svg>