<?xml version="1.0" ?>
<!DOCTYPE svg  PUBLIC '-//W3C//DTD SVG 1.1//EN'  'http://www.w3.org/Graphics/SVG/1.1/DTD/svg11.dtd'>
<!-- Uploaded to: SVG Repo, www.svgrepo.com, Generator: SVG Repo Mixer Tools -->
<svg width="800px" height="800px" viewBox="0 0 32 32" enable-background="new 0 0 32 32" version="1.1" xml:space="preserve" xmlns="http://www.w3.org/2000/svg" xmlns:xlink="http://www.w3.org/1999/xlink">
<g id="Smart_Watch41"/>
<g id="Smart_Watch40"/>
<g id="Smart_Watch39"/>
<g id="Smart_Watch38"/>
<g id="Smart_Watch37"/>
<g id="Smart_Watch36"/>
<g id="Smart_Watch35">
<path d="M28,14v4c0,0.55-0.45,1-1,1h-1v4c0,1.65-1.35,3-3,3h-1.18l-0.84,4.2C20.89,30.66,20.48,31,20,31h-8   c-0.48,0-0.89-0.34-0.98-0.8L10.18,26H9c-1.65,0-3-1.35-3-3V9c0-1.65,1.35-3,3-3h1.18l0.84-4.2C11.11,1.34,11.52,1,12,1h8   c0.48,0,0.89,0.34,0.98,0.8L21.82,6H23c1.65,0,3,1.35,3,3v4h1C27.55,13,28,13.45,28,14z" fill="#3FC1C9"/>
<g>
<polygon fill="#FFFFFF" points="12.6349,29.0873 19.3651,29.0873 20,25.9127 12,25.9127   "/>
<polygon fill="#FFFFFF" points="19.3651,2.9127 12.6349,2.9127 12,6.0873 20,6.0873   "/>
</g>
<g>
<path d="M27,13h-1V9c0-1.6543-1.3457-3-3-3h-1.1803l-0.8392-4.1963C20.8867,1.3369,20.4766,1,20,1h-8    c-0.4766,0-0.8867,0.3369-0.9805,0.8037L10.1803,6H9C7.3457,6,6,7.3457,6,9v14c0,1.6543,1.3457,3,3,3h1.1803l0.8392,4.1963    C11.1133,30.6631,11.5234,31,12,31h8c0.4766,0,0.8867-0.3369,0.9805-0.8037L21.8197,26H23c1.6543,0,3-1.3457,3-3v-4h1    c0.5527,0,1-0.4473,1-1v-4C28,13.4473,27.5527,13,27,13z M12.8193,3h6.3613l0.5996,3h-7.5605L12.8193,3z M19.1807,29h-6.3613    l-0.5996-3h7.5605L19.1807,29z M24,23c0,0.5518-0.4482,1-1,1h-2H11H9c-0.5518,0-1-0.4482-1-1V9c0-0.5518,0.4482-1,1-1h2h10h0.0195    H23c0.5518,0,1,0.4482,1,1v5v4V23z" fill="#364F6B"/>
<path d="M20.5,14.9294c0,0.8887-0.3487,1.7437-0.9787,2.385c-0.4388,0.4275-0.9787,0.7312-1.5525,0.8775    c-0.495,0.1238-0.8438,0.5738-0.8438,1.0913v0.2925l-1.6313-1.08c-0.18-0.1237-0.3937-0.1912-0.6187-0.1912    c-1.8563,0-3.375-1.5188-3.375-3.375c0-0.8888,0.3487-1.7437,0.9787-2.385c0.6525-0.6413,1.5075-0.99,2.3963-0.99h2.25    C18.9813,11.5544,20.5,13.0731,20.5,14.9294z" fill="#FFFFFF"/>
<path d="M17,10h-2c-1.32,0-2.58,0.52-3.54,1.47C10.52,12.42,10,13.68,10,15c0,2.65,2.07,4.83,4.68,4.99l2.77,1.84    C17.61,21.94,17.81,22,18,22c0.16,0,0.32-0.04,0.47-0.12C18.8,21.71,19,21.37,19,21v-1.42c0.56-0.25,1.09-0.6,1.54-1.05    C21.48,17.58,22,16.32,22,15C22,12.24,19.76,10,17,10z M19.13,17.12c-0.39,0.38-0.87,0.65-1.38,0.78    C17.31,18.01,17,18.41,17,18.87v0.26l-1.45-0.96C15.39,18.06,15.2,18,15,18c-1.65,0-3-1.35-3-3c0-0.79,0.31-1.55,0.87-2.12    C13.45,12.31,14.21,12,15,12h2c1.65,0,3,1.35,3,3C20,15.79,19.69,16.55,19.13,17.12z" fill="#364F6B"/>
</g>
</g>
<g id="Smart_Watch34"/>
<g id="Smart_Watch33"/>
<g id="Smart_Watch32"/>
<g id="Smart_Watch31"/>
<g id="Smart_Watch30"/>
<g id="Smart_Watch29"/>
<g id="Smart_Watch28"/>
<g id="Smart_Watch27"/>
<g id="Smart_Watch26"/>
<g id="Smart_Watch25"/>
<g id="Smart_Watch24"/>
<g id="Smart_Watch23"/>
<g id="Smart_Watch22"/>
<g id="Smart_Watch21"/>
<g id="Smart_Watch20"/>
<g id="Smart_Watch19"/>
<g id="Smart_Watch18"/>
<g id="Smart_Watch17"/>
<g id="Smart_Watch16"/>
<g id="Smart_Watch15"/>
<g id="Smart_Watch14"/>
<g id="Smart_Watch13"/>
<g id="Smart_Watch12"/>
<g id="Smart_Watch11"/>
<g id="Smart_Watch10"/>
<g id="Smart_Watch09"/>
<g id="Smart_Watch08"/>
<g id="Smart_Watch07"/>
<g id="Smart_Watch06"/>
<g id="Smart_Watch05"/>
<g id="Smart_Watch04"/>
<g id="Smart_Watch03"/>
<g id="Smart_Watch02"/>
</svg>