<?xml version="1.0" ?>
<!DOCTYPE svg  PUBLIC '-//W3C//DTD SVG 1.1//EN'  'http://www.w3.org/Graphics/SVG/1.1/DTD/svg11.dtd'>
<!-- Uploaded to: SVG Repo, www.svgrepo.com, Generator: SVG Repo Mixer Tools -->
<svg width="800px" height="800px" viewBox="0 0 32 32" enable-background="new 0 0 32 32" version="1.1" xml:space="preserve" xmlns="http://www.w3.org/2000/svg" xmlns:xlink="http://www.w3.org/1999/xlink">
<g id="Smart_Watch41"/>
<g id="Smart_Watch40"/>
<g id="Smart_Watch39"/>
<g id="Smart_Watch38"/>
<g id="Smart_Watch37"/>
<g id="Smart_Watch36"/>
<g id="Smart_Watch35"/>
<g id="Smart_Watch34"/>
<g id="Smart_Watch33"/>
<g id="Smart_Watch32"/>
<g id="Smart_Watch31"/>
<g id="Smart_Watch30"/>
<g id="Smart_Watch29"/>
<g id="Smart_Watch28"/>
<g id="Smart_Watch27"/>
<g id="Smart_Watch26"/>
<g id="Smart_Watch25"/>
<g id="Smart_Watch24"/>
<g id="Smart_Watch23"/>
<g id="Smart_Watch22"/>
<g id="Smart_Watch21"/>
<g id="Smart_Watch20"/>
<g id="Smart_Watch19"/>
<g id="Smart_Watch18">
<path d="M28,14v4c0,0.55-0.45,1-1,1h-1v4c0,1.65-1.35,3-3,3h-1.18l-0.84,4.2C20.89,30.66,20.48,31,20,31h-8   c-0.48,0-0.89-0.34-0.98-0.8L10.18,26H9c-1.65,0-3-1.35-3-3V9c0-1.65,1.35-3,3-3h1.18l0.84-4.2C11.11,1.34,11.52,1,12,1h8   c0.48,0,0.89,0.34,0.98,0.8L21.82,6H23c1.65,0,3,1.35,3,3v4h1C27.55,13,28,13.45,28,14z" fill="#3FC1C9"/>
<g>
<polygon fill="#FFFFFF" points="12.6349,29.0873 19.3651,29.0873 20,25.9127 12,25.9127   "/>
<polygon fill="#FFFFFF" points="19.3651,2.9127 12.6349,2.9127 12,6.0873 20,6.0873   "/>
</g>
<g>
<path d="M27,13h-1V9c0-1.6543-1.3457-3-3-3h-1.1803l-0.8392-4.1963C20.8872,1.3364,20.4766,1,20,1h-8    c-0.4766,0-0.8872,0.3364-0.9805,0.8037L10.1803,6H9C7.3457,6,6,7.3457,6,9v14c0,1.6543,1.3457,3,3,3h1.1803l0.8392,4.1963    C11.1128,30.6636,11.5234,31,12,31h8c0.4766,0,0.8872-0.3364,0.9805-0.8037L21.8197,26H23c1.6543,0,3-1.3457,3-3v-4h1    c0.5522,0,1-0.4478,1-1v-4C28,13.4478,27.5522,13,27,13z M12.8198,3h6.3604l0.6001,3h-7.5605L12.8198,3z M19.1802,29h-6.3604    l-0.6001-3h7.5605L19.1802,29z M24,23c0,0.5513-0.4487,1-1,1h-2H11H9c-0.5513,0-1-0.4487-1-1V9c0-0.5513,0.4487-1,1-1h2h10h0.02    H23c0.5513,0,1,0.4487,1,1v5v4V23z" fill="#364F6B"/>
<path d="M18.5,18.1513h-5l0.2836-0.5777c0.0735-0.1471,0.1155-0.3047,0.1155-0.4727v-3.1513    c0-1.1555,0.9454-2.1008,2.1008-2.1008s2.1008,0.9453,2.1008,2.1008v3.1513c0,0.168,0.042,0.3256,0.1155,0.4727L18.5,18.1513z" fill="#FFFFFF"/>
<path d="M20.89,18.55L20,16.76V14c0-2.21-1.79-4-4-4s-4,1.79-4,4v2.76l-0.89,1.79c-0.16,0.31-0.14,0.68,0.04,0.98    C11.33,19.82,11.65,20,12,20h2c0,1.1,0.9,2,2,2s2-0.9,2-2h2c0.35,0,0.67-0.18,0.85-0.47C21.03,19.23,21.05,18.86,20.89,18.55z     M13.62,18l0.27-0.55C13.96,17.31,14,17.16,14,17v-3c0-1.1,0.9-2,2-2s2,0.9,2,2v3c0,0.16,0.04,0.31,0.11,0.45L18.38,18H13.62z" fill="#364F6B"/>
</g>
</g>
<g id="Smart_Watch17"/>
<g id="Smart_Watch16"/>
<g id="Smart_Watch15"/>
<g id="Smart_Watch14"/>
<g id="Smart_Watch13"/>
<g id="Smart_Watch12"/>
<g id="Smart_Watch11"/>
<g id="Smart_Watch10"/>
<g id="Smart_Watch09"/>
<g id="Smart_Watch08"/>
<g id="Smart_Watch07"/>
<g id="Smart_Watch06"/>
<g id="Smart_Watch05"/>
<g id="Smart_Watch04"/>
<g id="Smart_Watch03"/>
<g id="Smart_Watch02"/>
</svg>