<?xml version="1.0" ?>
<!DOCTYPE svg  PUBLIC '-//W3C//DTD SVG 1.1//EN'  'http://www.w3.org/Graphics/SVG/1.1/DTD/svg11.dtd'>
<!-- Uploaded to: SVG Repo, www.svgrepo.com, Generator: SVG Repo Mixer Tools -->
<svg width="800px" height="800px" viewBox="0 0 32 32" enable-background="new 0 0 32 32" version="1.1" xml:space="preserve" xmlns="http://www.w3.org/2000/svg" xmlns:xlink="http://www.w3.org/1999/xlink">
<g id="Smart_Watch41"/>
<g id="Smart_Watch40"/>
<g id="Smart_Watch39"/>
<g id="Smart_Watch38"/>
<g id="Smart_Watch37"/>
<g id="Smart_Watch36"/>
<g id="Smart_Watch35"/>
<g id="Smart_Watch34"/>
<g id="Smart_Watch33"/>
<g id="Smart_Watch32"/>
<g id="Smart_Watch31"/>
<g id="Smart_Watch30"/>
<g id="Smart_Watch29"/>
<g id="Smart_Watch28"/>
<g id="Smart_Watch27"/>
<g id="Smart_Watch26"/>
<g id="Smart_Watch25"/>
<g id="Smart_Watch24"/>
<g id="Smart_Watch23"/>
<g id="Smart_Watch22"/>
<g id="Smart_Watch21"/>
<g id="Smart_Watch20">
<path d="M28,14v4c0,0.55-0.45,1-1,1h-1v4c0,1.65-1.35,3-3,3h-1.18l-0.84,4.2C20.89,30.66,20.48,31,20,31h-8   c-0.48,0-0.89-0.34-0.98-0.8L10.18,26H9c-1.65,0-3-1.35-3-3V9c0-1.65,1.35-3,3-3h1.18l0.84-4.2C11.11,1.34,11.52,1,12,1h8   c0.48,0,0.89,0.34,0.98,0.8L21.82,6H23c1.65,0,3,1.35,3,3v4h1C27.55,13,28,13.45,28,14z" fill="#3FC1C9"/>
<g>
<polygon fill="#FFFFFF" points="12.6349,29.0873 19.3651,29.0873 20,25.9127 12,25.9127   "/>
<polygon fill="#FFFFFF" points="19.3651,2.9127 12.6349,2.9127 12,6.0873 20,6.0873   "/>
</g>
<g>
<path d="M27,13h-1V9c0-1.6543-1.3457-3-3-3h-1.1803l-0.8392-4.1963C20.8867,1.3364,20.4766,1,20,1h-8    c-0.4766,0-0.8867,0.3364-0.9805,0.8037L10.1803,6H9C7.3457,6,6,7.3457,6,9v14c0,1.6543,1.3457,3,3,3h1.1803l0.8392,4.1963    C11.1133,30.6636,11.5234,31,12,31h8c0.4766,0,0.8867-0.3364,0.9805-0.8037L21.8197,26H23c1.6543,0,3-1.3457,3-3v-4h1    c0.5527,0,1-0.4478,1-1v-4C28,13.4478,27.5527,13,27,13z M12.8193,3h6.3613l0.5996,3h-7.5605L12.8193,3z M19.1807,29h-6.3613    l-0.5996-3h7.5605L19.1807,29z M24,23c0,0.5513-0.4482,1-1,1h-2H11H9c-0.5518,0-1-0.4487-1-1V9c0-0.5513,0.4482-1,1-1h2h10h0.0195    H23c0.5518,0,1,0.4487,1,1v5v4V23z" fill="#364F6B"/>
<path d="M20.5,15c0,1.925-1.575,3.5-3.5,3.5s-3.5-1.575-3.5-3.5c0-1.925,1.575-3.5,3.5-3.5S20.5,13.075,20.5,15z" fill="#FFFFFF"/>
<path d="M17,10c-2.76,0-5,2.24-5,5c0,1.02,0.31,1.96,0.83,2.75l-2.54,2.54c-0.39,0.39-0.39,1.03,0,1.42    C10.49,21.9,10.74,22,11,22s0.51-0.1,0.71-0.29l2.54-2.54C15.04,19.69,15.98,20,17,20c2.76,0,5-2.24,5-5S19.76,10,17,10z M17,18    c-1.65,0-3-1.35-3-3c0-1.65,1.35-3,3-3s3,1.35,3,3C20,16.65,18.65,18,17,18z" fill="#364F6B"/>
</g>
</g>
<g id="Smart_Watch19"/>
<g id="Smart_Watch18"/>
<g id="Smart_Watch17"/>
<g id="Smart_Watch16"/>
<g id="Smart_Watch15"/>
<g id="Smart_Watch14"/>
<g id="Smart_Watch13"/>
<g id="Smart_Watch12"/>
<g id="Smart_Watch11"/>
<g id="Smart_Watch10"/>
<g id="Smart_Watch09"/>
<g id="Smart_Watch08"/>
<g id="Smart_Watch07"/>
<g id="Smart_Watch06"/>
<g id="Smart_Watch05"/>
<g id="Smart_Watch04"/>
<g id="Smart_Watch03"/>
<g id="Smart_Watch02"/>
</svg>