<?xml version="1.0" ?>
<!DOCTYPE svg  PUBLIC '-//W3C//DTD SVG 1.1//EN'  'http://www.w3.org/Graphics/SVG/1.1/DTD/svg11.dtd'>
<!-- Uploaded to: SVG Repo, www.svgrepo.com, Generator: SVG Repo Mixer Tools -->
<svg width="800px" height="800px" viewBox="0 0 32 32" enable-background="new 0 0 32 32" version="1.1" xml:space="preserve" xmlns="http://www.w3.org/2000/svg" xmlns:xlink="http://www.w3.org/1999/xlink">
<g id="Smart_Watch41"/>
<g id="Smart_Watch40"/>
<g id="Smart_Watch39"/>
<g id="Smart_Watch38"/>
<g id="Smart_Watch37"/>
<g id="Smart_Watch36"/>
<g id="Smart_Watch35"/>
<g id="Smart_Watch34">
<path d="M28,14v4c0,0.55-0.45,1-1,1h-1v4c0,1.65-1.35,3-3,3h-1.18l-0.84,4.2C20.89,30.66,20.48,31,20,31h-8   c-0.48,0-0.89-0.34-0.98-0.8L10.18,26H9c-1.65,0-3-1.35-3-3V9c0-1.65,1.35-3,3-3h1.18l0.84-4.2C11.11,1.34,11.52,1,12,1h8   c0.48,0,0.89,0.34,0.98,0.8L21.82,6H23c1.65,0,3,1.35,3,3v4h1C27.55,13,28,13.45,28,14z" fill="#3FC1C9"/>
<g>
<polygon fill="#FFFFFF" points="12.6349,29.0873 19.3651,29.0873 20,25.9127 12,25.9127   "/>
<polygon fill="#FFFFFF" points="19.3651,2.9127 12.6349,2.9127 12,6.0873 20,6.0873   "/>
</g>
<g>
<path d="M27,13h-1V9c0-1.6543-1.3457-3-3-3h-1.1803l-0.8392-4.1963C20.8867,1.3369,20.4766,1,20,1h-8    c-0.4766,0-0.8872,0.3369-0.9805,0.8037L10.1803,6H9C7.3457,6,6,7.3457,6,9v14c0,1.6543,1.3457,3,3,3h1.1803l0.8392,4.1963    C11.1128,30.6631,11.5234,31,12,31h8c0.4766,0,0.8867-0.3369,0.9805-0.8037L21.8197,26H23c1.6543,0,3-1.3457,3-3v-4h1    c0.5527,0,1-0.4473,1-1v-4C28,13.4473,27.5527,13,27,13z M12.8198,3h6.3608l0.5996,3h-7.5605L12.8198,3z M19.1807,29h-6.3608    l-0.6001-3h7.5605L19.1807,29z M24,23c0,0.5518-0.4482,1-1,1h-2H11H9c-0.5513,0-1-0.4482-1-1V9c0-0.5518,0.4487-1,1-1h2h10h0.0195    H23c0.5518,0,1,0.4482,1,1v5v4V23z" fill="#364F6B"/>
<path d="M15.707,13.293l-1.9993-1.9993c-0.0923-0.0925-0.2031-0.1658-0.3258-0.2166    c-0.2443-0.101-0.5195-0.101-0.7638,0c-0.1227,0.0508-0.2335,0.1241-0.3258,0.2166L10.293,13.293    c-0.3906,0.3906-0.3906,1.0234,0,1.4141s1.0234,0.3906,1.4141,0L12,14.4141V20c0,0.5527,0.4478,1,1,1s1-0.4473,1-1v-5.5859    l0.293,0.293C14.4883,14.9023,14.7441,15,15,15s0.5117-0.0977,0.707-0.293C16.0977,14.3164,16.0977,13.6836,15.707,13.293z" fill="#364F6B"/>
<path d="M20.293,17.293L20,17.5859V12c0-0.5527-0.4473-1-1-1s-1,0.4473-1,1v5.5859l-0.293-0.293    c-0.3906-0.3906-1.0234-0.3906-1.4141,0s-0.3906,1.0234,0,1.4141l1.9987,1.9987c0.0924,0.0928,0.2034,0.1664,0.3264,0.2172    C18.7402,20.9735,18.8699,21,19,21s0.2597-0.0265,0.3819-0.077c0.123-0.0509,0.234-0.1245,0.3264-0.2172l1.9987-1.9987    c0.3906-0.3906,0.3906-1.0234,0-1.4141S20.6836,16.9023,20.293,17.293z" fill="#364F6B"/>
</g>
</g>
<g id="Smart_Watch33"/>
<g id="Smart_Watch32"/>
<g id="Smart_Watch31"/>
<g id="Smart_Watch30"/>
<g id="Smart_Watch29"/>
<g id="Smart_Watch28"/>
<g id="Smart_Watch27"/>
<g id="Smart_Watch26"/>
<g id="Smart_Watch25"/>
<g id="Smart_Watch24"/>
<g id="Smart_Watch23"/>
<g id="Smart_Watch22"/>
<g id="Smart_Watch21"/>
<g id="Smart_Watch20"/>
<g id="Smart_Watch19"/>
<g id="Smart_Watch18"/>
<g id="Smart_Watch17"/>
<g id="Smart_Watch16"/>
<g id="Smart_Watch15"/>
<g id="Smart_Watch14"/>
<g id="Smart_Watch13"/>
<g id="Smart_Watch12"/>
<g id="Smart_Watch11"/>
<g id="Smart_Watch10"/>
<g id="Smart_Watch09"/>
<g id="Smart_Watch08"/>
<g id="Smart_Watch07"/>
<g id="Smart_Watch06"/>
<g id="Smart_Watch05"/>
<g id="Smart_Watch04"/>
<g id="Smart_Watch03"/>
<g id="Smart_Watch02"/>
</svg>