<?xml version="1.0" encoding="utf-8"?>
<!-- Uploaded to: SVG Repo, www.svgrepo.com, Generator: SVG Repo Mixer Tools -->
<svg width="800px" height="800px" viewBox="0 0 1024 1024" class="icon"  version="1.1" xmlns="http://www.w3.org/2000/svg"><path d="M163.84 773.12c15.872 1.536 31.744 6.656 46.592 9.216 2.048 0.512 24.064 5.632 26.112 3.584-2.56-5.632-5.632-11.264-8.192-16.896h-5.12c-8.704-2.56-25.6 1.536-34.816 2.56-7.68 0.512-16.384 1.024-24.576 1.536z m687.104-168.448c-11.776 14.336-32.768 31.232-48.64 11.776-10.752-13.312-7.168-47.616-12.288-70.144-2.56 4.608-5.632 8.192-9.728 11.776-17.408 13.824-38.4 10.24-43.008 37.376-5.632 32.256 7.168 70.656-30.72 88.064-7.68 3.584-16.384 2.048-20.992-5.632-8.192-13.312-9.216-26.112-12.288-40.448-0.512-4.096-2.048-8.192-3.584-12.288-8.704 2.56-16.896 5.632-25.6 8.192-6.656 6.144-8.192 23.552-10.24 32.256-7.168 31.232-12.8 65.536-39.936 86.016-16.896 12.8-47.616 20.992-60.928-1.536-16.384-27.136 18.944-58.368 24.064-83.968 4.608-20.992 3.584-42.496 2.56-63.488-0.512-14.336-4.096-32.768 0-47.104 8.704-28.16 34.816-16.896 55.808-12.8 12.288 2.56 38.4 5.632 39.936-13.824 0.512-5.632-8.192-15.872-9.728-22.016-3.072-10.24-4.608-20.992 0-31.232 8.192-17.92 30.72-20.992 51.712-21.504-3.584-3.072-7.168-6.144-8.704-8.192-5.12-8.192-6.144-16.896-4.096-26.112 5.12-22.528 54.784-54.272 43.52-78.848-10.752 14.336-21.504 30.72-40.96 31.232-8.192 0.512-15.36-2.048-20.48-6.144-20.992 22.528-41.472 45.056-62.464 67.072-13.312 14.336-24.576 24.064-44.032 14.336-40.96-20.48-62.976-66.56-32.256-104.448 22.528-28.16 44.032-53.76 57.856-87.552 7.168-17.408 15.872-34.304 1.024-49.152-5.12-5.12-12.288-5.632-16.384-13.312-8.704-15.872 1.536-34.304 11.264-47.104 17.92-23.04 45.056-54.272 34.304-84.48-19.456 20.48-38.4 40.96-57.856 61.44-15.872 16.384-36.864 47.104-58.368 56.32-14.336 6.144-28.672-0.512-35.84-13.312-5.12-8.192-4.608-16.896-4.096-26.112 0.512-6.144 0.512-11.776 0.512-17.408-8.192 9.728-17.408 17.408-20.992 30.208-3.072 10.752 0 22.016-2.56 32.768-8.192 35.84-38.4 33.792-62.464 19.968 0 9.728 0 19.456 1.024 28.672 2.56 21.504 15.36 31.232 25.088 48.64 15.36 26.624 16.896 58.368 30.208 85.504 10.24 22.528 27.648 43.008 22.016 69.632-3.584 16.384-17.408 32.768-35.84 29.696-23.04-4.096-36.352-38.912-44.032-57.344-6.656-15.36-9.728-31.744-14.848-47.616-0.512-2.56-1.536-5.12-2.048-7.68-3.072-9.728-6.656-10.24-10.24-2.56-2.56 1.024-9.216 10.24-10.752 11.264-17.408 13.824-39.936 14.848-58.88 5.12-17.92-9.216-30.72-15.36-51.2-8.704-22.528 7.168-10.752 2.56 5.12 7.68 35.84 11.776 56.832 53.76 43.008 89.6-5.12 12.8-19.456 22.528-23.04 35.328-9.728 35.84 27.648 35.328 47.104 36.864 24.064 2.048 48.64 0.512 70.656 12.8 23.04 12.8 44.032 35.328 61.952 53.76 16.384 16.896 17.408 31.744 18.432 54.784 1.024 31.232 1.536 62.464-2.56 93.696-2.56 19.456-5.12 47.616-19.456 62.976-31.232 33.28-72.192-26.112-84.48-50.688-11.776-24.064-15.872-50.688-16.896-77.312 0-2.56-0.512-11.776-1.024-20.992-1.024 1.536-1.536 3.072-2.048 3.584-19.968 33.28-61.952 28.672-74.24-7.68-4.096-12.288-3.072-25.6-3.584-37.888 4.096-11.776 1.024-17.408-8.192-16.384-2.048-0.512-4.608-0.512-6.656-1.024-1.024 1.024 1.536 14.336 1.536 16.896 0 14.336-3.584 33.28-20.48 35.328-20.992 2.56-22.016-21.504-29.696-34.816-2.048-3.584-29.184-43.52-31.232-44.032 2.048 0.512-20.992 18.432-23.552 19.456-15.872 6.656-33.28 3.584-26.624 28.16 8.192 30.208 52.224 36.864 76.8 49.152 14.848 7.68 35.84 20.992 31.744 40.96-3.584 18.944-23.552 17.92-38.912 17.92-9.728 0-30.208-7.168-16.384 6.656 8.192 8.192 10.24 6.656 21.504 6.144 14.848-1.024 29.696-2.56 44.544-3.072 19.968-1.024 40.96-0.512 54.784 15.872 31.744 36.864-17.408 64.512-50.688 60.416-16.384-2.048-32.768-6.144-49.152-9.216-3.584-0.512-18.944-4.608-20.992-3.072 2.56 6.144 5.632 12.8 8.192 18.944 5.12 0.512 10.24 1.536 15.36 2.048 32.256 3.072 64.512 1.536 96.256-3.584 31.232-5.12 102.4-2.56 94.72 48.64-2.56 16.384-16.384 23.552-31.232 25.6-28.672 4.096-60.416-0.512-89.6-2.048-6.144 7.168-8.704 14.848-7.68 22.528 26.112 4.608 52.224 4.608 78.336-0.512 24.064-4.608 43.52-18.432 66.56-24.576 29.696-8.192 56.832 22.016 67.584 46.08 4.096 9.216 6.656 18.432 8.192 28.16 1.024 7.68-2.56 18.432 3.072 13.824 14.336-11.264 10.752-51.2 11.776-66.56 2.048-25.6-2.048-69.12 29.184-78.848 37.888-12.288 35.328 33.28 49.152 52.736 12.288 16.896 29.696 35.328 45.568 48.64 12.288 10.24 26.112 11.264 41.472 12.8 9.216 0.512 11.264 0.512 14.848-2.56 3.072-2.56 4.608-8.704 8.192-12.288 2.56-2.048 11.264-3.584 12.8-6.144 3.072-4.608-1.536 1.024-6.656-0.512-2.56-1.024-5.12-2.56-7.68-3.584-7.68-3.072-15.36-9.216-20.992-14.848-18.944-18.432-37.376-54.272-27.648-81.408 10.24-28.672 40.448-8.192 59.904-5.632 20.992 3.072 35.328 13.824 51.712 26.112 10.24 7.68 31.232 29.696 47.616 35.328 2.048-22.016 8.192-34.816 39.936-31.744 13.824 6.656 18.432 4.096 13.824-7.168 1.536-11.264-4.608-14.848-17.92-11.264-5.632-0.512-11.264-1.024-16.896-2.048-10.24-2.048-20.48-6.656-30.208-10.752-19.456-8.704-45.568-20.48-55.296-40.448-9.728-18.944 0.512-39.424 20.48-45.568 18.432-5.632 41.472-2.048 60.416-1.536 27.136 0.512 54.272 2.048 81.408 4.608 5.12 0.512 25.6 5.12 30.72 3.072 11.776-10.24 11.776-17.92-1.024-24.064-4.096 0.512-7.68 1.024-11.776 1.024-12.8-1.536-25.6-0.512-36.864-9.216-22.016-16.384-17.408-45.568 2.56-60.928 13.824-10.752 29.184-11.264 46.08-12.8 16.896-1.536 32.256-3.584 41.984-18.432 7.68-11.776 11.776-37.376 4.096-52.736-22.016 10.752-33.792 43.008-65.536 31.744-4.608-1.536-9.728-4.608-12.8-8.192l-1.536-1.536c0 0.512-0.512 1.024-0.512 1.536-2.56 8.704-6.656 15.36-11.264 20.992zM148.992 772.608c-22.016-1.536-41.472-9.216-46.08-34.304-6.144-34.304 30.208-43.52 57.344-39.936-5.632-2.56-10.752-5.12-16.896-7.68l-23.04-9.216c-15.872-7.168-31.232-16.384-41.984-30.208-17.92-23.04-18.944-59.392 6.144-78.336 6.144-4.608 12.288-5.632 19.456-8.192 13.312-4.096 17.92-10.24 28.672-17.408 9.216-6.144 20.48-9.216 30.72-3.072 14.336 8.192 18.944 29.184 29.184 41.984 1.536 1.536 2.56 3.584 4.096 5.632 0.512-4.096 1.536-8.192 2.56-10.24 3.584-9.216 11.264-16.896 20.48-19.968 8.192-2.56 16.384-1.536 23.552 1.536 9.728 4.096 17.92 12.288 23.04 22.016 7.168 15.36 5.12 30.72 6.656 47.104 2.56 29.696 16.896 18.432 26.112-0.512 2.048-4.096 2.56-8.704 5.12-12.288 10.24-15.36 32.256-20.48 44.544-4.608 15.36 19.968 3.584 61.44 6.656 84.992 1.536 14.336 22.528 94.208 49.664 81.92 10.24-4.608 10.752-61.952 11.264-70.144 0.512-16.384 0.512-32.256 0-48.64-0.512-22.016-2.56-34.816-17.92-51.712-11.264-12.8-26.624-27.136-40.96-36.864-24.064-16.384-75.776-9.216-110.592-19.968-18.432-5.632-32.256-15.872-35.328-37.376-4.608-32.256 25.6-46.08 32.256-73.728 5.12-20.992-8.704-38.912-27.648-45.568-10.752-3.584-22.016-2.56-30.72-10.24-45.568-37.888 38.4-65.536 66.56-61.952 13.824 1.536 22.016 10.752 34.304 15.872 26.112 10.752 30.72-8.192 46.08-19.456 15.36-10.752 31.744-5.632 43.008 8.192 19.968 24.064 12.8 63.488 33.792 87.552 22.528 26.112 4.096-14.848-1.536-25.088-6.656-12.8-11.776-25.6-16.384-39.424-5.12-16.896-8.192-34.816-15.872-51.2-6.656-13.824-19.456-23.04-26.112-36.352-12.288-25.088-6.656-63.488-6.656-91.136 0-9.216 7.168-14.336 14.336-14.848 4.608-1.536 9.728-0.512 13.824 4.608 9.728 11.264 8.192 13.824 23.552 8.192 16.896-6.144 10.24-8.192 12.288-22.016 1.024-7.168 3.072-13.824 6.656-20.48 9.728-17.92 35.84-32.768 35.84-54.784 0-14.336 22.016-22.016 28.672-7.68 6.656 14.336 11.776 29.184 12.8 45.056 0.512 5.632-3.072 18.944-1.024 23.552 6.144 13.312 15.36-5.12 21.504-10.752 32.768-32.768 64.512-66.56 95.744-100.352 5.12-5.632 16.384-6.144 21.504 0 29.184 34.816 21.504 78.848-3.072 114.176-6.656 9.216-21.504 20.992-24.064 31.232-2.56 11.264 2.048 7.168 11.264 15.36 11.776 10.752 13.824 27.136 12.288 41.984-2.56 23.552-14.848 48.64-26.112 69.12-13.312 24.064-35.328 42.496-48.64 65.536-9.728 17.408-4.608 43.008 16.384 51.712 4.096 1.536 5.632 2.56 6.656 3.584 0.512-0.512 1.536-1.536 4.608-3.072 5.12-2.048 11.264-12.288 15.36-16.384 21.504-23.552 43.008-46.592 65.024-69.632 9.728-10.24 25.6-1.536 26.112 10.752 0 4.096 18.944-17.92 19.968-19.456 4.096-5.12 7.68-9.216 12.288-13.824 4.608-4.608 13.312-6.656 18.432-2.56 27.648 20.48 31.744 53.248 12.8 81.92-11.264 17.408-40.448 30.72-23.552 52.736 8.704 11.264 15.872 14.336 16.896 30.208 0.512 8.704-7.68 14.848-15.36 15.36-9.728 0.512-21.504-0.512-30.72 2.048-8.192-2.048-12.8 0.512-14.336 8.192-5.632 4.608-5.632 9.728-0.512 14.848 1.024 9.216 6.656 16.896 5.632 27.136-3.072 22.528-23.552 36.864-45.056 39.424-12.8 1.536-26.112-1.536-38.4-5.12-4.096-1.024-11.776-5.12-13.824-2.56-2.048 2.048 1.024 26.624 1.024 29.184 1.024 30.208 2.048 61.44-7.168 90.112-2.56 7.168-5.632 14.336-9.216 20.992-4.096 7.168-12.8 12.288-6.656 18.432 12.8 12.288 29.696-37.888 31.744-45.056 7.168-27.648 9.216-61.44 32.256-81.408 15.872-13.824 39.936-16.384 56.832-2.048 12.8 11.264 13.824 26.624 17.408 41.984 7.168-20.48 0-53.248 8.192-71.168 3.584-8.192 9.216-14.848 16.384-20.48 8.192-5.632 25.088-7.168 31.232-14.336 11.264-12.288 1.536-38.912 28.16-36.864 23.04 1.536 29.184 36.352 31.744 53.248 2.048 11.776 0 34.304 6.656 45.056-4.096-10.24 9.216-30.208 15.36-38.912 8.192-11.776 18.944-17.408 32.256-9.728 12.288 7.168 9.216 19.456 25.6 12.288 10.752-5.12 16.384-17.408 26.112-23.552 14.336-9.216 30.208-10.752 41.472 4.096 26.624 36.352 7.168 100.352-32.768 117.248-14.336 6.144-30.208 2.048-44.544 6.656-12.288 4.096-28.16 16.896-7.68 20.992 4.096 1.024 11.264-1.536 15.36-1.536 19.968-0.512 34.304 7.168 38.912 27.648 4.096 17.408 2.048 40.448-13.824 51.2-18.432 12.8-46.08 4.096-66.56 2.56-20.992-1.536-42.496-2.56-64-3.072-13.824-0.512-38.912-5.12-52.224 0-10.24 3.584-9.216 0-1.536 8.704 6.144 7.168 18.432 12.8 27.136 16.896 32.256 15.872 87.552 7.68 102.4 46.592 6.656 18.432-0.512 36.864-18.432 45.056-6.656 3.072-14.848 4.096-22.016 4.096-5.12 0-14.336-3.072-19.456-0.512-8.192 4.608-5.12 4.608-5.632 15.36-0.512 6.656-4.608 13.312-11.264 14.848-30.72 6.656-53.76-18.432-76.8-35.84-7.168-5.632-14.336-12.288-22.528-16.896-12.288-6.656-21.504-6.656-34.816-9.216-2.56-0.512-9.216-3.584-15.36-6.144 0 26.624 26.624 44.032 47.616 56.32 10.752 6.144 19.968 14.848 19.968 28.16 0 11.776-7.68 17.92-16.896 23.552-3.072 3.072-5.632 3.072-7.68 0 0 2.048-0.512 4.096-1.024 6.144-3.072 3.584-3.072 7.68-7.68 11.264-23.04 17.92-71.68 6.144-92.672-9.728-17.92-13.312-32.768-31.744-47.104-48.64-7.168-8.192-14.336-15.872-18.432-26.624-3.072-8.192 0-21.504-7.168-13.312s-4.608 28.16-5.632 38.4c-1.024 13.824-1.536 27.648-3.584 40.96-2.048 15.36-4.608 30.72-13.824 43.008-13.824 18.432-43.008 26.624-54.784 2.048-9.216-18.432-1.024-38.912-13.824-58.368-19.456-29.696-34.304-14.848-59.904-5.632-44.032 16.384-90.624 17.92-136.192 8.704-5.12-1.024-9.216-5.632-10.752-10.752-8.192-27.648-6.656-57.856 23.04-69.12 1.536-1.024 4.096-1.536 6.656-1.536h4.608c17.92 1.536 81.92 8.192 84.48-1.024 5.632-22.016-70.144-6.656-84.992-5.632-35.84 3.072-106.496 10.24-127.488-27.648-15.36-24.064 2.048-50.176 30.208-52.224z" fill="#056137" /><path d="M474.112 911.872c-1.024 15.36 2.56 55.296-11.776 66.56-6.144 4.608-2.048-6.144-3.072-13.824-1.024-9.728-4.096-18.944-8.192-28.16-10.752-24.576-37.888-54.784-67.584-46.08-23.04 6.656-42.496 19.968-66.56 24.576-26.112 5.12-52.224 5.12-78.336 0.512-1.024-7.68 1.536-15.36 7.68-22.528 29.184 1.536 60.928 6.144 89.6 2.048 15.36-2.048 29.184-9.216 31.232-25.6 7.168-51.2-63.488-53.248-94.72-48.64-32.256 5.12-64 6.656-96.256 3.584-5.12-0.512-10.24-1.536-15.36-2.048-2.56-6.656-5.632-12.8-8.192-18.944 1.536-1.536 17.408 2.56 20.992 3.072 16.384 2.56 32.768 7.168 49.152 9.216 33.28 4.096 81.92-23.552 50.688-60.416-13.824-16.384-35.328-16.896-54.784-15.872-14.848 0.512-29.696 2.048-44.544 3.072-11.264 0.512-13.312 2.56-21.504-6.144-13.824-13.312 6.656-6.656 16.384-6.656 15.36 0 34.816 1.024 38.912-17.92 4.096-19.968-17.408-33.28-31.744-40.96-24.576-12.288-68.608-18.944-76.8-49.152-6.656-24.576 11.264-21.504 26.624-28.16 2.56-1.024 25.6-18.944 23.552-19.456 1.536 0.512 28.672 40.448 31.232 44.032 7.68 12.8 8.704 36.864 29.696 34.816 16.896-2.048 20.48-20.992 20.48-35.328 0-2.56-2.56-15.872-1.536-16.896 2.048 0.512 4.608 0.512 6.656 1.024 9.216-1.024 12.288 4.608 8.192 16.384 0.512 12.8-0.512 25.6 3.584 37.888 12.8 36.352 54.272 40.96 74.24 7.68 0.512-0.512 1.024-2.048 2.048-3.584 0 9.216 1.024 18.432 1.024 20.992 1.024 26.624 5.12 53.248 16.896 77.312 11.776 24.576 53.248 83.456 84.48 50.688 14.336-15.36 16.896-43.52 19.456-62.976 4.096-31.232 3.584-62.464 2.56-93.696-1.024-23.552-1.536-37.888-18.432-54.784-18.432-18.944-38.912-40.96-61.952-53.76-22.016-12.288-46.592-10.752-70.656-12.8-19.456-1.536-57.344-1.024-47.104-36.864 3.584-12.288 17.92-22.528 23.04-35.328 13.824-35.328-6.656-77.824-43.008-89.6-15.36-5.12-27.648-1.024-5.12-7.68 20.992-6.144 33.28-0.512 51.2 8.704 19.456 9.728 41.984 9.216 58.88-5.12 1.536-1.024 8.192-10.24 10.752-11.264 3.584-8.192 7.168-7.168 10.24 2.56 0.512 2.56 1.536 5.12 2.048 7.68 5.632 15.872 8.192 32.256 14.848 47.616C380.928 430.08 394.24 464.896 417.28 468.992c18.432 3.072 32.256-13.312 35.84-29.696 6.144-26.624-11.264-47.104-22.016-69.632-12.8-27.648-14.848-58.88-30.208-85.504-9.728-17.408-23.04-26.624-25.088-48.64-1.024-9.216-1.024-18.944-1.024-28.672 24.576 13.824 54.784 15.872 62.464-19.968 2.56-10.752 0-22.016 2.56-32.768 3.584-12.8 12.288-20.48 20.992-30.208 0 5.632 0 11.264-0.512 17.408-0.512 9.728-1.024 17.92 4.096 26.112 7.68 12.8 21.504 19.456 35.84 13.312 21.504-9.216 41.984-39.936 58.368-56.32 19.456-20.48 38.912-40.96 57.856-61.44 11.264 30.208-16.384 61.44-34.304 84.48-9.728 12.8-19.968 30.72-11.264 47.104 4.096 7.68 11.264 8.192 16.384 13.312 14.848 14.848 6.144 31.744-1.024 49.152-13.824 33.792-35.328 59.392-57.856 87.552-30.208 37.888-8.192 83.968 32.256 104.448 19.456 9.728 30.208 0 44.032-14.336 20.992-22.016 41.472-44.544 62.464-67.072 5.632 4.096 12.288 6.656 20.48 6.144 19.456-1.024 30.208-16.896 40.96-31.232 11.264 24.576-38.912 56.32-43.52 78.848-2.048 9.216-0.512 17.92 4.096 26.112 1.536 2.56 4.608 5.632 8.704 8.192-20.992 0.512-43.52 3.584-51.712 21.504-4.608 9.728-3.072 20.992 0 31.232 1.536 6.144 10.24 16.384 9.728 22.016-1.536 19.968-27.648 16.384-39.936 13.824-20.992-4.096-47.104-15.872-55.808 12.8-4.608 14.336-0.512 32.768 0 47.104 1.024 20.992 1.536 43.008-2.56 63.488-5.632 25.6-40.448 56.832-24.064 83.968 13.824 22.528 44.032 14.336 60.928 1.536 27.136-20.992 32.768-54.784 39.936-86.016 2.048-9.216 3.584-26.112 10.24-32.256 8.704-2.56 16.896-5.632 25.6-8.192 1.536 4.096 3.072 8.192 3.584 12.288 3.584 14.848 4.608 27.648 12.288 40.448 4.608 7.68 13.312 9.216 20.992 5.632 38.4-17.408 25.088-55.296 30.72-88.064 5.12-27.136 26.112-23.552 43.008-37.376 4.096-3.584 7.68-7.168 9.728-11.776 5.12 22.528 1.536 56.832 12.288 70.144 15.872 19.456 36.352 2.56 48.64-11.776 4.608-5.632 8.704-12.288 12.288-18.944 0-0.512 0.512-1.024 0.512-1.536l1.536 1.536c3.072 3.584 8.192 6.656 12.8 8.192 31.744 11.264 43.52-20.992 65.536-31.744 7.68 14.848 3.584 40.96-4.096 52.736-9.728 15.36-25.088 16.896-41.984 18.432-16.384 1.536-31.744 2.048-46.08 12.8-19.968 15.36-25.088 45.056-2.56 60.928 11.264 8.192 23.552 7.168 36.864 9.216 4.096 0 7.68-0.512 11.776-1.024 12.8 6.144 12.8 14.336 1.024 24.064-5.12 2.56-25.6-2.56-30.72-3.072-27.136-2.56-54.272-4.096-81.408-4.608-18.944-0.512-41.984-3.584-60.416 1.536-19.968 5.632-30.208 26.112-20.48 45.568 10.24 20.48 35.84 32.256 55.296 40.448 9.728 4.096 19.968 8.192 30.208 10.752 5.632 1.024 11.264 1.536 16.896 2.048 13.312-3.584 19.456 0.512 17.92 11.264 4.608 11.264 0 13.824-13.824 7.168-31.744-3.072-37.888 9.216-39.936 31.744-16.384-5.632-37.376-27.648-47.616-35.328-16.384-12.288-31.232-23.04-51.712-26.112-19.456-3.072-49.664-23.04-59.904 5.632-9.728 27.136 8.704 62.976 27.648 81.408 5.632 5.632 13.824 11.776 20.992 14.848 2.56 1.024 5.12 2.56 7.68 3.584 5.632 1.536 9.728-4.096 6.656 0.512-1.536 2.048-10.24 4.096-12.8 6.144-3.584 3.072-5.12 9.216-8.192 12.288-3.584 3.072-5.632 3.072-14.848 2.56-15.36-1.024-29.184-2.56-41.472-12.8-15.872-13.824-33.28-31.744-45.568-48.64-13.824-19.456-11.264-65.536-49.152-52.736-32.256 7.68-28.16 51.2-30.208 76.8z" fill="#3B9548" /></svg>