<?xml version="1.0" encoding="utf-8"?>
<!-- Uploaded to: SVG Repo, www.svgrepo.com, Generator: SVG Repo Mixer Tools -->
<svg width="800px" height="800px" viewBox="0 0 1024 1024" class="icon"  version="1.1" xmlns="http://www.w3.org/2000/svg"><path d="M682.496 717.824c-1.024 2.56-2.048 5.12-3.584 7.168C640 810.496 588.8 875.52 561.664 907.776l-0.512-88.576c18.944-12.288 78.848-52.736 121.344-101.376z" fill="#4EA3A9" /><path d="M559.616 640.512l5.632 13.824c-2.56 1.024-4.096 1.536-5.632 2.048h-14.848l-0.512-37.888h14.848l0.512 22.016zM377.856 547.84l-14.336 1.024c-1.024-14.336-1.536-28.672-1.536-43.008h14.336c0 14.336 0.512 28.16 1.536 41.984z" fill="#1D535C" /><path d="M556.544 240.64c13.312-4.096 40.448-17.408 68.096-64-36.864-65.024-57.856-99.84-69.632-118.784l1.536 182.784z m-174.08 351.744c17.92 117.248 72.704 227.84 164.352 330.752l-1.536-175.616c-67.584-15.36-133.632-109.568-162.816-155.136z m179.712 315.392c27.648-31.744 78.336-97.28 117.248-182.784 1.024-2.56 2.048-5.12 3.584-7.168-43.008 48.64-102.4 89.088-121.344 101.376l0.512 88.576zM404.992 318.464c13.312 25.6 68.608 123.904 138.24 142.848l-0.512-117.248c-52.224-7.68-91.648-73.728-108.544-105.984-10.752 25.088-20.48 51.712-29.184 80.384z m139.776 284.672l-1.024-125.952c-68.608-16.384-122.368-99.328-144.384-138.24-8.192 31.232-14.336 62.464-18.432 93.184 5.632 9.216 85.504 148.992 163.84 171.008z m-68.096-451.072c-11.264 20.48-23.04 43.008-34.304 68.096 10.24 21.504 50.176 98.816 100.352 108.544l-0.512-99.84c-32.768-13.312-55.296-54.784-65.536-76.8z m80.896 214.016c23.04-12.288 108.032-60.416 112.128-108.544-13.312-24.576-25.6-46.08-36.352-65.536-31.232 48.64-61.44 60.928-76.288 64.512l0.512 109.568z m0 14.848l1.024 152.064c27.648-11.776 137.728-62.464 161.28-150.016C711.68 348.16 698.88 312.32 680.448 276.48c-22.528 56.32-117.248 103.424-121.856 105.472l-1.024-1.024z m-17.408-326.144c-12.288 16.384-32.768 44.032-54.784 81.408 5.632 12.8 26.112 59.392 55.808 75.776l-1.024-157.184z m207.872 459.264c-3.072 71.168-22.016 144.384-55.296 217.6-45.568 99.84-107.52 173.056-130.56 198.144l0.512 71.68H547.84l-0.512-56.32-5.12-5.632c-92.672-101.376-150.016-212.48-171.008-329.728-3.584-19.968-6.144-40.448-7.68-60.928l14.336-1.024c0.512 4.608 0.512 8.704 1.024 13.312l2.048-1.024c1.024 1.536 83.968 150.528 164.864 172.032l-0.512-75.776h14.848l1.024 144.896c33.28-22.528 118.272-83.968 145.408-145.408 11.264-34.816 20.48-73.728 24.576-114.688-40.96 60.928-136.704 101.376-165.376 112.64l-5.632-13.824c31.744-12.288 158.208-67.072 173.568-140.8 0.512-28.672-1.536-58.88-7.168-89.088-39.424 87.552-152.576 133.12-166.912 138.24l0.512 69.12h-14.848c-71.68-15.872-140.8-118.272-166.912-160.768-1.536 16.384-2.048 32.768-2.048 49.152h-14.336c0-60.928 9.216-123.392 27.648-185.856-0.512-0.512-0.512-1.024-0.512-1.024l1.024-0.512c0-0.512 0-0.512 0.512-1.024 50.176-169.984 151.04-287.232 152.064-288.256l5.632-6.656 5.632 6.656c1.024 1.024 23.552 27.648 134.144 229.376 43.52 80.384 64 166.4 59.904 255.488z" fill="#1D535C" /><path d="M720.384 382.976c-23.552 87.552-133.632 138.752-161.28 150.016l-1.024-152.064 0.512 1.536c4.608-2.048 99.328-49.152 121.856-105.472 18.432 35.328 31.232 71.168 39.936 105.984zM542.72 344.064l1.024 117.248c-69.632-18.944-124.928-117.76-138.24-142.848 8.704-28.16 18.432-55.296 29.184-80.384 16.384 32.256 55.808 97.792 108.032 105.984zM545.792 747.008l1.536 175.616c-91.648-102.912-146.944-213.504-164.352-330.752 28.672 46.08 94.72 140.288 162.816 155.136z" fill="#4EA3A9" /><path d="M669.696 257.024c-4.096 48.128-89.088 96.256-112.128 108.544l-0.512-109.568c14.848-3.072 45.568-15.872 76.288-64.512 10.752 19.456 23.04 41.472 36.352 65.536zM545.28 656.384l0.512 75.776c-80.896-21.504-163.84-170.496-164.864-172.032l-2.048 1.024c-0.512-4.608-0.512-8.704-1.024-13.312-1.024-13.824-1.536-27.648-1.536-41.472 0-16.384 0.512-32.768 2.048-49.152 26.112 42.496 95.232 144.896 166.4 161.28l0.512 37.888zM540.16 54.784l1.024 157.696c-29.696-16.896-50.688-62.976-55.808-75.776 22.528-37.888 42.496-65.536 54.784-81.92z" fill="#4EA3A9" /><path d="M543.744 476.672l1.024 125.952c-78.336-21.504-158.208-161.28-163.328-171.008 3.584-30.72 9.728-61.44 18.432-93.184 21.504 39.424 75.264 122.368 143.872 138.24zM730.624 541.184c-4.096 40.96-13.312 79.36-24.576 114.688-27.136 61.44-112.128 122.88-145.408 145.408l-1.024-144.896c1.536-0.512 3.072-1.024 5.632-2.048 29.184-11.264 124.416-52.224 165.376-113.152z" fill="#4EA3A9" /><path d="M726.016 410.624c5.632 30.208 7.68 60.416 7.168 89.088-15.36 73.728-141.824 128-173.568 140.8v-22.016l-0.512-69.12c14.336-6.144 127.488-51.2 166.912-138.752zM625.152 176.64c-27.648 46.08-54.784 59.904-68.096 64l-1.536-182.272c11.776 18.432 32.768 53.248 69.632 118.272zM541.696 228.864l0.512 99.84c-50.688-9.728-90.112-87.04-100.352-108.544 11.264-24.576 23.04-47.616 34.304-68.096 10.752 22.016 33.28 63.488 65.536 76.8z" fill="#4EA3A9" /></svg>