<?xml version="1.0" encoding="utf-8"?>
<!-- Uploaded to: SVG Repo, www.svgrepo.com, Generator: SVG Repo Mixer Tools -->
<svg width="800px" height="800px" viewBox="0 0 1024 1024" class="icon"  version="1.1" xmlns="http://www.w3.org/2000/svg"><path d="M498.688 779.264c-19.968 3.072-39.424 8.192-60.416 7.168-26.112-1.024-49.664-5.12-68.096-24.576-15.36-15.872-31.232-33.28-40.96-53.248-5.12-9.728-6.656-20.48-11.264-30.72-3.584-7.68-9.216-13.824-13.824-20.992 42.496-2.048 82.944 0 117.76 28.16 30.208 25.088 60.928 57.856 76.8 94.208zM501.248 395.776c0.512 48.128 1.024 95.744 1.024 143.872-36.352-22.016-65.024-56.832-84.992-93.696-10.24-18.432-18.432-38.4-23.552-58.88-6.144-25.6-6.656-51.712-7.68-77.824-2.048-54.272-2.56-110.592 19.456-161.28 18.432-43.008 54.784-71.168 90.112-99.84 2.56 109.056 4.096 218.112 5.12 327.168-34.816-30.72-57.344-73.728-62.464-119.808-1.024-10.24-16.896-10.24-15.872 0 6.144 55.808 34.304 105.984 78.848 140.288z" fill="#3B9548" /><path d="M386.048 308.736c1.024 26.112 1.024 52.736 7.68 77.824 5.12 20.48 13.312 40.448 23.552 58.88 20.48 37.376 48.64 72.192 85.504 93.696-0.512-48.128-0.512-95.744-1.024-143.872-44.544-34.816-72.704-84.48-78.848-140.8-1.024-10.24 14.848-10.24 15.872 0 5.12 46.592 27.648 89.6 62.464 119.808-1.024-109.056-3.072-218.112-5.12-327.168-35.328 28.672-71.68 57.344-90.112 99.84-22.528 51.712-22.016 108.032-19.968 161.792zM404.48 456.192c-25.088-45.056-32.256-89.6-34.304-140.8-2.048-57.344-3.072-116.736 19.456-170.496 20.992-51.2 63.488-82.432 104.448-116.224 1.536-4.608 7.68-7.68 12.8-4.608 1.536 0.512 3.072 2.048 4.096 3.072 38.912 33.28 74.24 71.168 102.4 113.664 30.208 45.568 43.008 98.816 43.008 153.088 0 28.672-0.512 58.88-4.096 87.552-3.072 24.576-6.656 47.616-20.992 68.608-28.672 41.472-73.728 69.632-112.128 100.864 0.512 68.608 0.512 137.728 0 206.336 18.944-33.28 47.104-62.976 76.288-86.016 39.936-31.232 86.528-32.256 135.168-29.184 2.048 0 3.584 1.024 5.12 2.048 4.096 1.024 7.168 4.608 5.12 9.216-4.608 10.752-12.288 17.92-17.92 28.16-6.144 11.776-8.192 25.6-14.848 37.888-11.264 21.504-28.672 41.472-46.08 57.856-17.92 16.896-40.448 23.04-64.512 25.088-27.648 2.048-51.712-4.608-78.336-7.68-0.512 66.56-0.512 133.12-1.536 199.168 0 10.24-16.384 10.24-15.872 0l1.536-199.168c-26.624 3.584-50.688 9.728-78.336 7.168-23.04-2.048-44.544-8.192-61.952-24.576-17.92-17.408-35.84-37.888-47.104-60.416-5.632-11.264-7.68-24.576-13.312-35.84-5.12-10.24-13.312-17.408-17.92-28.16-2.048-4.608 1.024-8.192 5.12-9.216 1.024-1.024 3.072-2.048 5.12-2.048 48.64-3.072 95.232-2.56 135.168 29.184 28.16 22.016 54.784 50.176 73.728 81.92V557.056c-1.536 0-3.072 0-4.608-1.024-40.96-23.04-72.704-59.904-94.72-99.84z m33.792 330.24c20.992 0.512 40.448-4.096 60.416-7.168-15.872-36.352-46.592-69.12-76.8-93.696-34.816-28.672-75.264-30.208-117.76-28.16 4.608 7.168 10.752 13.312 13.824 20.992 4.608 10.24 6.144 20.48 11.264 30.72 9.728 19.968 25.6 37.376 40.96 53.248 18.432 18.944 42.496 23.04 68.096 24.064z m281.6-129.024c-42.496-2.048-82.944 0-117.76 28.16-30.208 24.576-60.416 57.344-76.8 93.696 19.968 3.072 39.424 8.192 60.416 7.168 26.112-1.024 49.664-5.12 68.096-24.576 15.36-15.872 30.72-33.28 40.96-53.248 5.632-10.752 7.168-22.528 12.288-33.28 3.584-6.144 8.704-11.776 12.8-17.92z m-79.872-363.52c0-53.76-13.312-104.96-44.032-149.504-24.064-34.816-53.248-66.56-84.48-95.232 1.536 69.632 3.072 138.752 4.096 208.384 0.512 21.504 0.512 43.008 1.024 64.512 13.824-11.264 25.6-24.576 37.888-37.888 15.872-17.92 28.672-34.816 30.72-58.88 1.024-10.24 16.896-10.24 15.872 0-2.048 24.576-12.288 43.52-28.16 61.952-17.408 19.968-35.328 39.424-56.32 55.296 0.512 62.976 1.536 125.44 1.536 188.416C551.936 504.32 588.8 479.744 614.4 445.44c15.36-20.992 19.968-44.544 22.528-70.144 2.56-26.624 3.072-54.272 3.072-81.408z" fill="#056137" /><path d="M596.48 144.384c30.72 44.544 44.032 95.744 44.032 149.504 0 27.136-0.512 54.784-3.584 81.408-2.56 25.6-7.168 49.152-22.528 70.144-25.6 34.304-61.952 58.88-95.744 84.992l-1.536-188.416c20.992-15.872 38.912-35.328 56.32-55.296 15.872-18.432 26.112-37.376 28.16-61.952 1.024-10.24-15.36-10.24-15.872 0-2.048 24.576-14.848 41.472-30.72 58.88-11.776 13.312-24.064 26.624-37.888 37.888-0.512-21.504-0.512-43.008-1.024-64.512-1.024-69.632-2.56-138.752-4.096-208.384 31.232 29.184 60.416 60.928 84.48 95.744zM602.112 685.568c34.816-28.672 75.264-30.208 117.76-28.16-4.096 6.144-9.216 11.776-12.8 18.432-5.12 10.752-7.168 22.528-12.288 33.28-10.24 19.968-25.6 37.376-40.96 53.248-18.432 19.456-42.496 23.552-68.096 24.576-20.992 0.512-40.448-4.096-60.416-7.168 15.872-36.864 46.592-69.12 76.8-94.208z" fill="#3B9548" /></svg>