<?xml version="1.0" encoding="utf-8"?>
<!-- Uploaded to: SVG Repo, www.svgrepo.com, Generator: SVG Repo Mixer Tools -->
<svg width="800px" height="800px" viewBox="0 0 1024 1024" class="icon"  version="1.1" xmlns="http://www.w3.org/2000/svg"><path d="M483.84 66.048l1.024 147.456c-31.744-7.168-58.88-70.656-69.12-102.912 2.048-1.024 4.096-1.536 5.632-2.56 20.48-10.24 47.104-30.208 62.464-41.984zM720.896 257.024c2.048 9.728 3.584 19.456 4.608 29.696-2.56 7.68-26.112 39.424-70.656 71.68-35.84 25.6-90.624 56.32-154.112 58.88l-0.512-93.184c40.448-4.096 86.016-30.208 125.952-72.704 11.264-12.288 21.504-25.088 30.208-37.376 9.728-14.336 16.896-27.648 21.504-39.424 0.512-1.536 1.024-3.072 1.536-4.096 16.896 18.432 31.744 45.056 41.472 86.528z" fill="#4EA3A9" /><path d="M677.376 175.104c-4.096 11.776-11.776 25.088-21.504 39.424l-11.776-9.216c8.704-12.8 14.848-24.064 18.432-33.28l14.848 3.072z" fill="#1D535C" /><path d="M484.864 228.864l0.512 80.896c-75.264-5.12-146.432-125.44-161.28-152.576 26.624-20.992 56.832-32.768 77.824-40.96 8.192 27.136 37.888 106.496 82.944 112.64z" fill="#4EA3A9" /><path d="M501.76 626.176c68.608-4.608 131.072-32.768 147.968-67.072 18.432-36.352 35.84-75.776 49.664-115.2-13.312 13.312-31.232 27.136-51.712 39.936-45.056 27.648-97.792 46.08-146.432 51.712l0.512 90.624z m43.008-443.392c22.016-24.064 35.84-52.736 37.888-66.56-13.312-6.144-26.624-13.824-39.424-23.552-24.576-19.456-37.888-28.672-45.056-32.768l1.024 153.6c14.848-3.584 30.72-13.824 45.568-30.72z m-276.992 114.688c4.096 33.792 16.896 77.312 34.304 124.416 8.704 10.24 87.552 104.448 184.32 99.328l-0.512-88.576c-101.376-3.072-184.832-93.696-218.112-135.168z m210.944 239.104c-70.656 0-130.048-45.568-162.816-77.312 12.288 30.72 25.6 62.464 39.424 93.184 7.168 8.704 65.024 73.728 131.584 74.24l-0.512-90.624c-2.56 0.512-5.12 0.512-7.68 0.512z m5.12 326.144c-1.024-24.064-29.184-76.288-39.936-94.72v-0.512c-7.68-14.336-186.88-351.744-192-485.888-4.608-121.344 101.376-162.304 146.432-180.224 6.656-2.56 12.8-5.12 16.384-6.656 24.576-12.288 59.392-39.936 69.12-47.616 0.512-1.536 1.536-3.072 2.56-4.096 5.632-4.608 12.8-0.512 20.48 4.096 10.24 6.144 25.6 17.408 45.568 33.28 18.944 14.848 39.936 24.064 60.416 32.256 48.64 20.48 98.816 41.984 122.368 140.288 10.24 43.008 5.632 92.16-6.656 142.336-0.512 1.536-1.024 3.072-1.536 5.12-32.256 124.416-113.664 254.464-151.04 314.88-8.704 14.336-16.384 26.624-17.408 29.696-3.072 7.68-14.336 35.84-26.112 62.976l-13.824-5.12c10.752-24.576 20.992-50.176 26.112-62.976 1.536-4.096 7.168-12.8 18.944-32.256 15.36-24.576 38.4-61.44 61.952-104.448-30.72 19.968-75.776 33.792-123.904 37.376l1.024 197.632 12.8 7.168c-1.536 3.072-2.56 5.632-4.096 7.68-3.072 6.144-6.144 10.752-8.704 14.336l0.512 114.688h-14.848l-0.512-109.568c-2.048-1.024-4.096-4.096-4.096-9.728z m242.176-549.888c-13.824 16.896-35.84 38.4-62.976 57.856-37.376 27.136-95.232 58.88-162.816 61.952l0.512 87.04c105.984-12.8 204.8-84.992 212.992-126.976 7.68-27.136 11.776-53.76 12.288-79.872z m-242.176-246.784c-15.36 11.776-41.984 31.744-62.464 41.984-1.536 1.024-3.584 1.536-5.632 2.56 10.24 32.256 37.376 95.744 69.12 102.912l-1.024-147.456z m1.536 244.224l-0.512-80.896c-45.056-6.144-74.24-85.504-82.944-112.64-20.992 8.192-51.2 20.48-77.824 40.96 14.848 26.624 86.016 147.456 161.28 152.576z m111.616-187.904c-4.608 19.456-20.992 48.128-40.96 70.144-13.312 14.336-33.28 31.744-56.32 35.84l0.512 80.896c36.352-4.096 77.824-28.16 115.2-68.096 11.776-12.288 21.504-25.088 29.184-36.352l11.776 9.216c-8.704 12.288-18.944 25.088-30.208 37.376-39.936 43.008-85.504 69.12-125.952 72.704l0.512 93.184c63.488-3.072 118.272-33.28 154.112-58.88 45.056-32.256 68.608-64 70.656-71.68-1.024-10.24-2.048-19.968-4.608-29.696-9.728-41.472-24.576-68.096-41.984-86.528-0.512 1.536-1.024 2.56-1.536 4.096l-14.336-3.072c2.048-5.12 3.072-9.216 3.584-12.8-17.92-14.848-38.4-23.04-58.88-31.744l-10.752-4.608zM486.912 641.536c-46.592 0-87.552-27.648-114.176-50.688 42.496 91.648 81.92 165.888 83.968 169.984 1.536 3.072 19.456 33.28 31.232 62.464l-1.024-181.76z m-1.536-316.416c-81.408-4.608-154.112-124.416-173.056-157.696-25.088 23.552-45.056 56.32-45.568 103.424 12.288 16.896 105.984 143.36 219.136 147.456l-0.512-93.184z" fill="#1D535C" /><path d="M625.664 603.648c-23.552 43.008-46.592 79.872-61.952 104.448-11.776 19.456-17.408 28.16-18.944 32.256-4.608 12.8-15.36 38.4-26.112 62.976-5.632 12.8-11.264 25.088-16.384 35.328l-0.512-197.632c48.128-3.072 93.184-17.408 123.904-37.376zM486.4 536.064l0.512 90.112c-66.048-0.512-124.416-65.536-131.584-74.24-13.824-30.72-27.136-62.464-39.424-93.184 32.768 31.744 91.648 77.312 162.816 77.312 2.56 0.512 5.12 0.512 7.68 0zM583.168 116.224c-2.048 13.824-16.384 42.496-37.888 66.56-15.36 16.896-31.232 27.136-45.568 30.72l-1.024-153.6c7.168 4.096 19.968 13.312 45.056 32.768 12.288 9.728 26.112 17.408 39.424 23.552zM486.912 641.536l1.024 181.76c-11.776-29.184-29.696-59.392-31.232-62.464-2.048-4.096-41.472-78.336-83.968-169.984 26.624 23.04 67.584 50.176 114.176 50.688zM485.376 325.12l0.512 93.184c-113.664-4.096-207.36-130.56-219.136-147.456 1.024-47.104 20.48-79.872 45.568-103.424 18.432 33.28 91.136 153.088 173.056 157.696z" fill="#4EA3A9" /><path d="M485.888 432.64l0.512 88.576c-96.768 4.608-175.616-89.088-184.32-99.328-17.408-47.104-30.208-91.136-34.304-124.416 33.28 41.472 116.736 132.096 218.112 135.168zM663.552 370.688c26.624-19.456 49.152-40.96 62.976-57.856-0.512 25.6-5.12 52.736-11.776 80.384-8.704 41.984-108.032 114.176-213.504 126.976l-0.512-87.04c67.072-3.072 125.44-35.328 162.816-62.464z" fill="#4EA3A9" /><path d="M699.392 443.392c-13.824 39.424-31.232 78.848-49.664 115.2-16.384 34.304-78.848 62.464-147.968 67.072l-0.512-91.136c48.64-5.632 101.376-24.064 146.432-51.712 20.48-12.288 37.888-26.112 51.712-39.424z" fill="#4EA3A9" /><path d="M530.432 814.08c-5.632 12.8-10.752 23.552-14.848 31.744l-12.8-7.168c5.12-9.728 10.752-22.528 16.384-35.328l13.824 5.12c-0.512 2.048-1.536 4.096-2.56 5.632z" fill="#1D535C" /><path d="M666.624 159.232c-0.512 3.584-1.536 7.68-3.584 12.8-3.584 9.216-9.728 20.992-18.432 33.28-8.192 11.776-17.92 24.064-29.184 36.352-37.376 39.936-78.848 64-115.2 68.096l-0.512-80.896c23.04-4.096 43.008-20.992 56.32-35.84 19.968-22.016 36.352-50.688 40.96-70.144 3.584 1.536 7.168 3.072 10.24 4.608 20.992 8.192 41.472 16.896 59.392 31.744z" fill="#4EA3A9" /></svg>