<?xml version="1.0" encoding="utf-8"?>
<!-- Uploaded to: SVG Repo, www.svgrepo.com, Generator: SVG Repo Mixer Tools -->
<svg width="800px" height="800px" viewBox="0 0 1024 1024" class="icon"  version="1.1" xmlns="http://www.w3.org/2000/svg"><path d="M849.92 612.352c0 80.384-59.392 100.864-62.464 101.888l-13.824 4.608 28.16 19.456C733.696 797.696 655.36 814.08 601.088 817.152c-32.256 2.048-60.416-0.512-79.872-3.072-5.12-31.232-9.728-65.024-14.336-100.864 236.032-33.28 290.304-141.312 305.152-238.592 17.92 28.672 27.136 56.32 27.136 81.92 0 30.208-13.312 47.104-13.312 47.616l-12.288 15.36 36.352-7.168zM413.696 288.768l67.072-159.232c-17.408 112.128-17.408 240.64-10.24 359.424-25.6-2.048-46.08-12.8-59.904-31.232-37.888-50.176-24.064-145.408-19.456-168.96h22.528zM486.4 667.136c1.536 11.776 2.56 23.04 4.096 33.792-98.816 11.264-182.272-18.944-248.32-89.088-45.568-48.128-67.072-100.352-71.168-111.616 3.584-11.776 7.68-23.04 12.288-32.768 6.144-14.336 12.8-26.624 18.432-35.84 3.072-5.12 6.144-9.728 8.192-12.8l30.208 26.624 1.024-14.336c0.512-6.656 7.168-16.896 16.896-28.672 2.56 19.968 9.728 62.464 32.256 105.984 27.136 53.248 82.944 117.248 192.512 122.368 1.024 11.776 2.048 24.064 3.584 36.352z" fill="#4EA3A9" /><path d="M492.544 808.448h-1.024c-142.848 6.656-216.576-16.384-252.928-36.864-29.184-16.384-39.424-33.28-43.008-40.96l26.624-19.968-14.336-4.096c-41.472-11.264-57.344-88.064-60.928-107.52l19.456-12.288-1.024-5.12c-4.608-19.456-4.096-39.424-0.512-58.368 10.752 23.04 31.744 60.928 66.048 97.28 43.008 45.568 114.176 96.256 220.672 96.256 12.8 0 26.112-1.024 39.936-2.56 4.608 34.304 9.216 66.56 13.824 96.256-7.68-1.536-12.288-2.56-12.288-2.56l-0.512 0.512z" fill="#4EA3A9" /><path d="M169.472 461.824l13.312 5.632c-4.608 10.24-8.704 21.504-12.288 32.768l-14.336-2.56c3.584-12.8 8.192-25.088 13.312-35.84z" fill="#1D535C" /><path d="M799.744 457.216C788.48 552.96 743.936 665.6 504.832 698.88c-1.536-11.264-2.56-22.528-4.096-33.792-1.536-11.264-2.56-23.04-4.096-34.816 74.24 0 133.12-24.064 174.592-71.68 44.544-50.176 59.392-116.224 59.904-159.232 10.752 13.824 19.968 28.16 25.6 35.84l5.12 7.68 13.824-15.36c9.216 10.24 16.896 19.968 24.064 29.696z" fill="#4EA3A9" /><path d="M188.416 424.448l12.8 7.168c-5.632 9.216-12.288 21.504-18.432 35.84l-13.312-5.632c6.144-14.848 13.312-27.648 18.944-37.376z" fill="#1D535C" /><path d="M596.48 320c-1.024-1.024-28.672-29.696-54.784-76.288-17.92-32.256-37.888-78.336-43.52-131.584-20.48 115.712-20.992 252.416-13.312 377.856 35.84 0 64.512-10.24 84.992-30.72 30.208-30.208 44.544-82.432 42.496-155.136l-6.656 25.088-9.216-9.216z m-365.056 301.056c-34.304-36.864-55.296-74.752-66.048-97.28-3.584 18.944-4.096 38.912 0.512 58.368l1.024 5.12-19.456 12.288c3.584 19.456 19.456 96.256 60.928 107.52l14.336 4.096-26.624 19.968c3.584 7.68 13.824 24.576 43.008 40.96 36.352 20.48 109.568 43.52 252.928 36.864h1.024l1.024 0.512s4.608 1.024 12.288 2.56c-4.608-29.696-9.216-62.464-13.824-96.256-13.824 1.536-27.136 2.56-39.936 2.56-107.008-1.024-178.176-51.2-221.184-97.28zM731.648 399.36c-0.512 43.008-15.872 109.056-59.904 159.232-41.984 47.616-100.352 71.68-174.592 71.68 1.024 11.776 2.56 23.552 4.096 34.816 1.536 11.264 2.56 22.528 4.096 33.792C743.936 665.6 788.48 552.96 799.744 457.216c-7.168-9.728-15.36-19.456-24.064-29.184l-13.824 15.36-5.12-7.68c-5.12-8.192-14.848-22.016-25.088-36.352z m-33.28-36.352l-17.408 8.704-3.584-4.608c-0.512-0.512-28.672-35.84-50.688-60.928 1.536 75.264-13.824 130.048-46.592 162.816-23.04 23.04-54.784 34.816-94.208 34.816 2.56 38.4 5.632 76.288 9.216 111.616 70.656 0 126.464-22.016 165.376-66.56 51.2-57.856 59.392-137.216 55.296-168.448-6.144-7.168-12.288-13.312-17.408-17.408z m-307.2-74.24c-4.608 24.064-18.432 118.784 19.456 168.96 14.336 18.944 34.304 29.184 59.904 31.232-7.168-118.784-7.168-247.296 10.24-359.424l-67.072 159.232h-22.528z m-240.64 291.328c-5.12-28.16-1.536-56.832 5.632-82.432l14.336 2.56c4.096 11.264 26.112 63.488 71.168 111.616 66.048 70.144 150.016 100.352 248.32 89.088-1.536-11.264-2.56-22.528-4.096-33.792-1.536-11.776-2.56-24.064-4.096-36.864-109.568-4.608-164.864-68.608-192.512-122.368-22.016-43.52-29.696-86.016-32.256-105.984-9.728 11.776-16.384 22.528-16.896 28.672l-1.024 14.336-30.208-26.624c-2.048 3.072-5.12 7.68-8.192 12.8l-12.8-7.168c7.168-12.288 12.8-19.968 13.824-20.992l4.608-6.144 23.04 19.968c13.824-28.672 61.44-71.168 72.192-80.384l6.656-5.632 4.096 7.68c2.56 4.608 5.632 9.216 8.192 13.312 4.096-6.656 12.288-17.92 27.648-37.888 14.848-18.944 30.208-36.864 30.208-37.376l2.048-2.56h22.528L514.56 10.24l-4.096 45.056c-10.24 117.248 61.44 214.528 86.528 244.224l9.216-33.792 8.704 7.68c15.36 13.824 56.32 63.488 68.608 79.36l14.336-7.168 3.584 2.048c18.944 10.752 48.64 52.736 60.928 71.168l11.776-13.312 5.632 5.632c49.152 51.2 73.728 99.84 72.704 145.408 0 17.92-4.096 31.232-8.192 40.96l18.432-3.584 0.512 8.192c3.584 73.728-38.4 107.008-59.904 118.784l20.992 14.848-6.656 6.144c-73.216 67.072-158.72 85.504-217.6 88.576-8.192 0.512-16.384 0.512-23.552 0.512-20.992 0-39.424-1.536-53.76-3.584 16.896 105.472 32.768 175.616 32.768 176.64l-13.824 3.072c0-1.024-16.384-73.728-33.792-181.76-9.216-1.536-14.848-3.072-17.408-3.584-16.384 0.512-32.256 1.024-47.104 1.024-241.152 0-262.656-90.624-263.68-94.72l-1.024-4.608 12.8-9.728c-46.08-26.112-59.392-114.688-59.904-118.784l-0.512-4.608 19.456-10.24z m688.64-23.552c0-25.6-9.216-53.248-27.136-81.92-14.848 97.28-69.632 205.312-305.152 238.592 4.608 35.84 9.728 69.632 14.336 100.864 19.456 2.56 47.104 5.12 79.872 3.072 54.784-3.072 133.12-19.456 201.216-78.848l-28.16-19.456 13.824-4.608c2.56-1.024 62.464-21.504 62.464-101.888l-36.864 6.656 12.288-15.36s13.312-16.896 13.312-47.104zM302.592 501.76c36.864 71.68 96.768 110.08 177.664 113.664-3.584-35.328-6.656-72.704-9.216-111.616-30.72-2.048-55.296-14.848-72.192-37.376-34.304-45.568-30.72-120.32-25.6-160.256-21.504 26.112-39.936 50.688-41.984 56.832 0 5.12-3.072 7.68-6.144 8.192-3.584 1.024-7.68 2.048-20.48-18.432-11.776 10.24-25.088 23.04-36.352 35.84h2.56c0 1.024 3.584 57.344 31.744 113.152z" fill="#1D535C" /><path d="M716.288 380.416c3.584 31.744-4.608 111.104-55.808 168.96-39.424 44.544-94.72 67.072-165.376 66.56-3.584-35.328-6.656-72.704-9.216-111.616 39.424 0 71.168-11.776 94.208-34.816 32.768-32.768 48.64-87.552 46.592-162.816 22.016 25.088 50.688 60.416 50.688 60.928l3.584 4.608 17.408-8.704c5.12 3.584 11.264 9.728 17.92 16.896z" fill="#4EA3A9" /><path d="M612.352 304.128c2.048 72.704-12.288 124.928-42.496 155.136-20.48 20.48-49.152 30.72-84.992 30.72-7.68-125.44-7.168-262.144 13.312-377.856 6.144 53.248 25.6 99.328 43.52 131.584 26.112 47.104 53.248 75.264 54.784 76.288l8.704 9.216 7.168-25.088zM471.552 503.808c2.56 38.912 5.632 76.288 9.216 111.616C399.36 611.328 339.456 573.44 302.592 501.76c-28.672-55.808-31.744-112.128-31.744-112.64h-2.56c11.776-12.8 25.088-25.6 36.352-35.84 12.8 20.48 16.384 19.456 20.48 18.432 2.56-0.512 5.632-3.072 6.144-8.192 2.048-6.144 20.48-30.72 41.984-56.832-5.12 39.936-9.216 114.688 25.6 160.256 17.408 22.528 41.472 34.816 72.704 36.864z" fill="#4EA3A9" /></svg>