<?xml version="1.0" encoding="utf-8"?>
<!-- Uploaded to: SVG Repo, www.svgrepo.com, Generator: SVG Repo Mixer Tools -->
<svg width="800px" height="800px" viewBox="0 0 1024 1024" class="icon"  version="1.1" xmlns="http://www.w3.org/2000/svg"><path d="M744.96 406.016c15.872 65.536 11.776 146.432 11.264 149.504v2.048l-1.024 2.048c-10.24 19.456-43.008 38.912-70.144 52.224l60.416 2.048-1.536 10.752c-16.896 110.08-54.272 184.832-110.08 222.72-19.968 13.312-39.424 19.968-55.808 23.04 1.536 60.416 1.536 105.472 0 123.392l-18.944-2.048c2.048-16.896 1.536-60.416 0-119.296h-5.632c-9.728 0-16.896-1.024-19.456-1.536-95.744-5.12-145.408-55.296-169.984-96.768-26.624-44.544-30.72-87.04-30.72-89.088l-1.024-11.776 11.776 1.536c44.032 6.144 71.168 4.096 87.552 0-59.904-10.24-108.032-46.08-110.08-48.128l-2.048-1.536-1.024-2.56c-14.848-40.96-1.024-153.088-0.512-157.696l2.048-15.36 12.8 8.192c25.6 16.384 57.344 12.288 78.336 6.656-31.232-17.408-77.824-50.688-89.088-59.392l-5.12-3.584 27.648-135.68 11.264 6.144c22.016 12.288 46.592 10.24 63.488 6.656-31.744-16.384-61.952-36.352-61.952-51.712 0-17.92 45.568-115.2 59.392-144.896l2.048-4.096 190.464-49.664 3.584 2.56c54.272 37.888 76.8 121.856 77.824 125.44l0.512 1.024v1.024c0 13.824-21.504 38.912-40.96 58.368 15.872-2.56 35.84-6.656 54.784-10.752l5.12-1.024 3.584 3.584c2.56 2.048 8.704 8.192 31.232 133.12l0.512 1.536v1.024c-2.56 28.16-46.592 55.296-76.288 70.656 18.944-1.536 46.08-9.216 65.024-16.896l10.24-4.096 0.512 12.288zM737.28 552.448c0.512-12.8 2.56-76.288-8.704-131.584-24.064 9.216-76.288 25.088-96.256 5.12l-9.728-9.728 12.8-5.632c35.328-15.36 85.504-45.056 89.088-65.536-8.704-47.616-19.456-99.84-24.576-117.248-33.792 6.656-72.192 14.336-79.872 12.8l-18.432-3.584 13.824-12.8c28.16-26.112 53.248-54.272 55.296-63.488-3.072-11.264-24.064-78.336-66.56-110.592l-173.056 45.056c-27.136 57.344-54.784 120.832-55.808 132.096 3.072 7.68 36.352 28.672 72.192 45.568L465.92 281.6l-18.432 8.704c-2.048 1.024-47.104 21.504-90.112 5.12l-19.968 99.328c35.84 26.112 88.064 60.928 99.84 62.464l30.72 4.608L440.32 475.136c-2.56 1.024-57.856 27.136-105.472 6.144-3.584 36.864-8.192 103.936 0 132.608 11.776 8.192 68.096 45.568 128.512 45.568h15.36l-6.656 13.824c-3.072 5.632-22.016 33.28-118.272 22.528 3.072 14.848 9.728 42.496 26.624 69.632 32.768 53.76 84.992 82.944 155.136 87.04l1.536 0.512s8.192 1.536 21.504 1.024c-7.168-250.368-33.792-734.208-34.304-740.352l18.944-1.024c1.536 25.088 27.136 491.52 34.304 738.816 13.824-3.072 29.696-8.704 46.08-19.968 49.152-33.792 82.944-100.352 99.84-199.168l-124.416-4.096 41.472-16.896c23.04-9.216 83.456-36.864 96.768-58.88z" fill="#056137" /><path d="M729.088 421.376c11.264 54.784 9.216 118.784 8.704 131.584-13.824 22.016-74.24 49.664-96.768 58.88l-41.472 16.896 124.416 4.608c-16.896 98.816-50.176 165.376-99.84 199.168-16.384 11.264-32.256 16.896-46.08 19.968-7.68-248.32-33.28-714.752-34.816-739.84l-18.944 1.024c0.512 6.144 27.136 489.984 34.304 740.352-12.8 0.512-20.992-1.024-21.504-1.024l-1.536-0.512c-70.656-3.584-122.88-32.768-155.136-87.04-16.896-27.648-23.552-54.784-26.624-69.632 96.256 10.752 115.2-16.896 118.272-22.528l6.656-13.824h-15.36c-60.416 0-116.736-36.864-128.512-45.568-8.704-28.672-4.096-95.744 0-132.608 47.616 20.48 102.912-5.12 105.472-6.144l27.648-13.312-30.72-4.608c-12.288-1.536-64-36.352-100.352-62.464l19.968-99.328c43.008 16.384 88.064-4.096 90.112-5.12l18.432-8.704-18.432-8.704c-35.328-16.384-68.608-37.888-72.192-45.568 1.024-11.264 28.672-74.752 55.808-132.096l173.056-45.056c42.496 32.256 63.488 99.328 66.56 110.592-2.048 8.704-26.624 37.376-55.296 63.488l-13.824 12.8 18.432 3.584c7.68 1.536 46.08-5.632 79.872-12.8 5.12 17.408 15.872 69.632 24.576 117.248-3.584 19.968-53.76 50.176-89.088 65.536l-12.8 5.632 9.728 9.728c20.992 19.968 72.704 4.096 97.28-4.608z" fill="#3B9548" /></svg>