<?xml version="1.0" ?>
<!DOCTYPE svg  PUBLIC '-//W3C//DTD SVG 1.1//EN'  'http://www.w3.org/Graphics/SVG/1.1/DTD/svg11.dtd'>
<!-- Uploaded to: SVG Repo, www.svgrepo.com, Generator: SVG Repo Mixer Tools -->
<svg width="800px" height="800px" viewBox="0 0 512 512" version="1.1" xml:space="preserve" xmlns="http://www.w3.org/2000/svg" xmlns:xlink="http://www.w3.org/1999/xlink">
<g id="email_x2C__mail__x2C__letter__x2C__internet__x2C__envelope__x2C__chat__x2C___minus__x2C_">
<g>
<path d="M396.169,265.385c-43.862,0-79.354,35.493-79.354,79.354    s35.492,79.354,79.354,79.354c43.779,0,79.367-35.493,79.367-79.354S439.948,265.385,396.169,265.385L396.169,265.385z" style="fill-rule:evenodd;clip-rule:evenodd;fill:#FBCD64;"/>
<path d="M438.185,338.039c3.689,0,6.687,2.998,6.687,6.7c0,3.689-2.997,6.686-6.687,6.686H354.07    c-3.703,0-6.7-2.996-6.7-6.686c0-3.702,2.997-6.7,6.7-6.7H438.185z" style="fill:#4A374F;"/>
<path d="M396.169,272.071c-20.087,0-38.314,8.11-51.43,21.226c-13.128,13.21-21.226,31.356-21.226,51.442    c0,20.073,8.098,38.22,21.226,51.348c13.115,13.116,31.343,21.307,51.43,21.307c19.991,0,38.219-8.19,51.348-21.307    c13.129-13.128,21.238-31.274,21.238-51.348c0-20.086-8.109-38.232-21.238-51.442C434.388,280.182,416.16,272.071,396.169,272.071    L396.169,272.071z M335.313,283.871c15.583-15.583,37.08-25.186,60.855-25.186c23.694,0,45.271,9.603,60.773,25.186    c15.583,15.597,25.28,37.08,25.28,60.868c0,23.775-9.697,45.271-25.28,60.854c-15.502,15.503-37.079,25.187-60.773,25.187    c-23.775,0-45.272-9.684-60.855-25.187c-15.597-15.583-25.186-37.16-25.186-60.854    C310.128,320.951,319.717,299.468,335.313,283.871L335.313,283.871z" style="fill:#4A374F;"/>
<path d="M438.361,254.102V123.224c0-9.766-3.974-18.581-10.308-25.01    l-131.761,131.76l-25.632,25.633c-9.249,9.155-21.225,13.916-33.202,13.916c-12.07,0-24.046-4.761-33.201-13.916l-25.714-25.633    l-54.969,54.603l-76.71,76.276c6.348,6.347,15.326,10.388,24.928,10.388h227.931c-2.292-8.449-3.526-17.346-3.526-26.501    c0-27.653,11.19-52.677,29.241-70.729c18.065-18.051,43.075-29.24,70.729-29.24C411.236,244.771,425.504,248.12,438.361,254.102    L438.361,254.102z" style="fill-rule:evenodd;clip-rule:evenodd;fill:#7CCACB;"/>
<path d="M123.576,284.576l54.969-54.603L46.866,98.214    c-6.428,6.429-10.389,15.244-10.389,25.01v212.7c0,9.697,3.96,18.58,10.389,24.929L123.576,284.576z" style="fill-rule:evenodd;clip-rule:evenodd;fill:#7CCACB;"/>
<path d="M178.544,229.974l25.714,25.633    c9.155,9.155,21.131,13.916,33.201,13.916c11.977,0,23.953-4.761,33.202-13.916l25.632-25.633l131.761-131.76    c-6.428-6.333-15.325-10.308-25.009-10.308H71.794c-9.603,0-18.581,3.974-24.928,10.308L178.544,229.974z" style="fill-rule:evenodd;clip-rule:evenodd;fill:#7CCACB;"/>
<path d="M301.841,377.94H71.794c-5.547,0-11.013-1.139-16.031-3.255c-5.113-2.115-9.779-5.208-13.658-9.073    l9.426-9.521c2.645,2.646,5.818,4.856,9.344,6.253c3.431,1.411,7.134,2.211,10.918,2.211h226.345    C299.021,369.125,300.255,373.627,301.841,377.94L301.841,377.94z" style="fill:#4A374F;"/>
<path d="M51.626,102.974c-2.739,2.645-4.842,5.805-6.252,9.331c-1.411,3.255-2.211,6.958-2.211,10.919    v212.7c0,3.879,0.8,7.581,2.211,10.931c0.529,1.397,1.234,2.727,2.021,4.042l126.471-125.683l9.425,9.425L46.866,370.278    l-4.76-4.666c-3.865-3.879-6.958-8.464-9.06-13.658c-2.115-4.923-3.268-10.388-3.268-16.03v-212.7    c0-5.629,1.153-11.095,3.268-16.113c2.103-5.113,5.195-9.778,9.06-13.658L51.626,102.974z" style="fill:#4A374F;"/>
<path d="M301.055,225.214l37.432,37.784l-0.176,0.177h-0.095l-0.082,0.095l-0.176,0.082l-0.176,0.176    l-0.177,0.096l-0.177,0.176l-0.176,0.081l0,0l-0.095,0.095l-0.177,0.177l-0.177,0.081l-0.176,0.177l-0.176,0.095l-0.176,0.081    v0.095l-0.178,0.082l-0.176,0.096l-0.177,0.176l-0.176,0.081l-0.177,0.176l0,0l-0.081,0.095l-0.177,0.177l-0.176,0.082    l-0.177,0.177l-0.799,0.623l-0.178,0.081l-0.176,0.177l-0.177,0.095l0,0l-0.176,0.176l-0.177,0.082l-0.176,0.177l-0.082,0.081    l-0.176,0.176l-0.082,0.095h-0.095l-0.177,0.177l-0.176,0.095l-0.176,0.177l-0.095,0.082l-0.692,0.609l-0.095,0.096l-0.176,0.176    l-0.177,0.081l0,0l-0.177,0.177l-0.176,0.095l-0.177,0.177l-0.081,0.176l-0.177,0.081l-0.176,0.095v0.082l-0.176,0.095    l-0.095,0.177l-0.177,0.082l-0.177,0.176l-0.177,0.176l-0.081,0.095l0,0l-0.176,0.177l-0.177,0.082l-0.177,0.176l-0.095,0.176    l-0.176,0.095l-36.552-36.822L301.055,225.214z M431.756,251.294l-0.095-128.071c0-3.961-0.786-7.664-2.115-10.919    c-1.492-3.526-3.608-6.686-6.252-9.331l9.425-9.521c3.879,3.879,7.054,8.544,9.155,13.658c2.034,5.018,3.173,10.483,3.173,16.113    v134.322l-0.176-0.176l-0.176-0.095l-0.258-0.081l-0.177-0.097l-0.177-0.175l-0.176-0.082h-0.095l-0.176-0.095l-0.177-0.081    l-0.177-0.176l-0.258-0.095l-0.176-0.082l-0.096-0.095h-0.081l-0.271-0.082l-0.177-0.176l-0.177-0.095l-0.258-0.082l-0.176-0.095    l0,0l-0.176-0.082l-0.177-0.176l-0.271-0.095l-0.176-0.082l-0.177-0.095h-0.081l-0.177-0.081l-0.176-0.095l-0.258-0.176    l-0.176-0.081l-0.178-0.095H439.5l-0.176-0.082l-0.176-0.095l-0.177-0.081l-0.258-0.095l-0.177-0.176h-0.176v-0.082l-0.271-0.095    l-0.176-0.082l-0.258-0.095l-0.176-0.081l-0.178-0.095l0,0l-0.881-0.339l-0.177-0.095l-0.095-0.083h-0.176l-0.177-0.189    l-0.176-0.081l-0.258-0.095l-0.176-0.081h-0.096l-0.177-0.081l-0.176-0.095l-0.258-0.082l-0.177-0.095l-0.176-0.081h-0.177    l-0.095-0.095L433.683,252l-0.258-0.095l-0.177-0.082l-0.257-0.095l-0.178-0.081l0,0l-0.271-0.095h-0.176l-0.177-0.081    l-0.258-0.095L431.756,251.294z" style="fill:#4A374F;"/>
<path d="M432.719,102.974l-157.392,157.38c-5.1,5.113-10.999,9.073-17.429,11.718    c-6.523,2.74-13.48,4.137-20.439,4.137c-6.957,0-13.915-1.396-20.52-4.137c-6.348-2.645-12.328-6.604-17.441-11.718L37.44,98.214    l4.666-4.666c3.879-3.879,8.544-7.053,13.658-9.155c5.018-2.035,10.484-3.174,16.031-3.174h331.251    c5.629,0,11.094,1.139,16.018,3.174c5.112,2.102,9.778,5.275,13.656,9.155l4.762,4.666L432.719,102.974z M265.914,250.847    L418.018,98.837c-1.329-0.8-2.644-1.505-4.055-2.115c-3.35-1.33-7.053-2.116-10.918-2.116H71.794    c-3.784,0-7.487,0.786-10.918,2.116c-1.329,0.61-2.74,1.315-3.974,2.115l152.104,152.009c3.878,3.96,8.368,6.876,13.047,8.896    c4.923,2.021,10.118,3.079,15.407,3.079c5.195,0,10.484-1.058,15.326-3.079C257.547,257.723,262.036,254.807,265.914,250.847    L265.914,250.847z" style="fill:#4A374F;"/>
</g>
</g>
<g id="Layer_1"/>
</svg>