<?xml version="1.0" ?>
<!DOCTYPE svg  PUBLIC '-//W3C//DTD SVG 1.1//EN'  'http://www.w3.org/Graphics/SVG/1.1/DTD/svg11.dtd'>
<!-- Uploaded to: SVG Repo, www.svgrepo.com, Generator: SVG Repo Mixer Tools -->
<svg width="800px" height="800px" viewBox="0 0 512 512" version="1.1" xml:space="preserve" xmlns="http://www.w3.org/2000/svg" xmlns:xlink="http://www.w3.org/1999/xlink">
<g id="email_x2C__mail__x2C__letter__x2C__internet__x2C__envelope__x2C__chat__x2C___like__x2C_">
<g>
<path d="M396.188,265.414c-43.858,0-79.438,35.442-79.438,79.302    c0,43.839,35.58,79.439,79.438,79.439c43.84,0,79.303-35.601,79.303-79.439C475.49,300.856,440.027,265.414,396.188,265.414    L396.188,265.414z" style="fill-rule:evenodd;clip-rule:evenodd;fill:#FBCD64;"/>
<path d="M396.188,272.146c-20.08,0-38.261,8.141-51.354,21.214c-13.21,13.095-21.353,31.276-21.353,51.355    c0,20.08,8.143,38.262,21.353,51.472c13.094,13.094,31.274,21.215,51.354,21.215c20.081,0,38.262-8.121,51.336-21.215    c13.229-13.21,21.352-31.392,21.352-51.472c0-20.079-8.122-38.261-21.352-51.355C434.449,280.287,416.269,272.146,396.188,272.146    L396.188,272.146z M335.302,283.967c15.639-15.638,37.127-25.306,60.886-25.306c23.76,0,45.248,9.668,60.867,25.306    c15.52,15.5,25.168,36.989,25.168,60.749s-9.648,45.366-25.168,60.866c-15.619,15.637-37.107,25.169-60.867,25.169    c-23.759,0-45.247-9.532-60.886-25.169c-15.5-15.5-25.148-37.106-25.148-60.866S319.802,299.467,335.302,283.967L335.302,283.967z    " style="fill:#4A374F;"/>
<path d="M438.383,254.102V123.19c0-9.667-3.934-18.553-10.293-24.914    L296.297,229.951l-25.678,25.677c-9.158,9.277-21.098,13.974-33.173,13.974c-11.938,0-24.014-4.696-33.173-13.974l-25.678-25.677    l-55.034,54.642l-76.758,76.27c6.361,6.478,15.383,10.412,25.032,10.412h227.886c-2.29-8.377-3.562-17.281-3.562-26.559    c0-27.575,11.194-52.627,29.356-70.672c18.045-18.044,43.097-29.218,70.671-29.218    C411.316,244.826,425.544,248.132,438.383,254.102L438.383,254.102z" style="fill-rule:evenodd;clip-rule:evenodd;fill:#7A707F;"/>
<path d="M123.562,284.593l55.034-54.642L46.804,98.276    c-6.36,6.361-10.294,15.247-10.294,24.914v212.758c0,9.785,3.934,18.554,10.294,25.031L123.562,284.593z" style="fill-rule:evenodd;clip-rule:evenodd;fill:#7A707F;"/>
<path d="M51.638,102.974c-2.661,2.681-4.834,5.851-6.223,9.296c-1.409,3.424-2.172,7.104-2.172,10.92    v212.758c0,3.934,0.763,7.613,2.172,10.921c0.509,1.409,1.272,2.799,2.036,4.071l126.449-125.687l9.414,9.531L46.804,370.394    l-4.697-4.718c-3.816-3.934-6.987-8.512-9.159-13.719c-2.036-4.951-3.17-10.294-3.17-16.009V123.19    c0-5.598,1.134-11.058,3.17-16.009c2.172-5.226,5.343-9.786,9.159-13.602L51.638,102.974z" style="fill:#4A374F;"/>
<path d="M178.596,229.951l25.678,25.677    c9.159,9.277,21.235,13.974,33.173,13.974c12.075,0,24.015-4.696,33.173-13.974l25.678-25.677L428.09,98.276    c-6.362-6.36-15.384-10.411-25.032-10.411H71.835c-9.648,0-18.671,4.051-25.032,10.411L178.596,229.951z" style="fill-rule:evenodd;clip-rule:evenodd;fill:#FBCD64;"/>
<path d="M301.874,378.006H71.835c-5.578,0-11.058-1.135-16.009-3.307    c-5.206-2.016-9.785-5.206-13.719-9.023l9.395-9.53c2.681,2.681,5.851,4.834,9.414,6.242c3.307,1.391,6.986,2.153,10.92,2.153    h226.361C299.096,369.121,300.348,373.7,301.874,378.006L301.874,378.006z" style="fill:#4A374F;"/>
<path d="M301.111,225.253l37.381,37.871h-0.138l-0.116,0.117l0,0l-0.255,0.138l-0.138,0.117l-0.117,0.137    l-0.254,0.118l-0.137,0.136l0,0l-0.255,0.117l-0.117,0.137l-0.137,0.119l-0.118,0.136l-0.254,0.117l-0.138,0.138l0,0l-0.116,0.117    l-0.255,0.138l-0.138,0.117l-0.117,0.137l-0.255,0.117v0.138h-0.137l-0.117,0.118l-0.254,0.136l-0.137,0.117l-0.765,0.646    l-0.253,0.116l-0.119,0.139l-0.137,0.116l0,0l-0.253,0.138l-0.118,0.116l-0.137,0.256l-0.118,0.137l-0.254,0.117h-0.138v0.137    l-0.117,0.118l-0.254,0.137l-0.118,0.117l-0.137,0.136l-0.646,0.511l-0.117,0.116l-0.255,0.138l-0.118,0.118l0,0l-0.136,0.137    l-0.117,0.253l-0.256,0.118l-0.137,0.117l-0.116,0.138l-0.138,0.118l0,0l-0.255,0.136l-0.116,0.117l-0.139,0.138l-0.117,0.117    l-0.137,0.137l-0.118,0.118l-0.136,0.136l-0.117,0.118l-0.137,0.138l-0.118,0.117l-0.254,0.137l-0.138,0.116l-36.48-36.852    L301.111,225.253z M431.768,251.303V123.19c0-3.816-0.881-7.496-2.152-10.92c-1.525-3.445-3.699-6.615-6.36-9.296l9.531-9.394    c3.816,3.816,6.986,8.376,9.159,13.602c2.035,4.951,3.17,10.411,3.17,16.009v134.336l-0.254-0.117l-0.118-0.137h-0.254    l-0.136-0.118l-0.256-0.137l-0.254-0.117l0,0l-0.117-0.137l-0.254-0.118l-0.138-0.138l-0.254-0.118h-0.119l-0.137-0.136h-0.117    l-0.254-0.117L442.317,256l-0.255-0.117l-0.255-0.137h-0.116l0,0l-0.256-0.118l-0.136-0.137l-0.255-0.118l-0.254-0.137h-0.118    v-0.117h-0.254l-0.138-0.137l-0.254-0.117l-0.255-0.138h-0.117l-0.137-0.118H439.4l-0.254-0.136l-0.137-0.117l-0.254-0.137H438.5    l-0.117-0.117l0,0l-0.254-0.137l-0.138-0.117h-0.254l-0.255-0.136l-0.117-0.118l0,0l-0.88-0.392l-0.255-0.117l0,0h-0.137    l-0.255-0.137l-0.254-0.118h-0.118l-0.254-0.137l-0.137-0.118h-0.118l-0.137-0.136h-0.254l-0.255-0.117l-0.118-0.138h-0.254l0,0    l-0.254-0.117l-0.254-0.136h-0.138l-0.255-0.118l-0.254-0.137l0,0h-0.118l-0.254-0.117l-0.254-0.138h-0.138L431.768,251.303z" style="fill:#4A374F;"/>
<path d="M428.09,98.276L270.619,255.628    c-9.158,9.14-21.098,13.974-33.173,13.974c-11.938,0-24.014-4.834-33.173-13.974L46.804,98.276    c6.361-6.36,15.383-10.411,25.032-10.411h331.222C412.706,87.865,421.728,91.916,428.09,98.276L428.09,98.276z" style="fill-rule:evenodd;clip-rule:evenodd;fill:#7A707F;"/>
<path d="M432.786,102.974L275.454,260.325c-5.225,5.207-11.195,9.158-17.537,11.821    c-6.497,2.661-13.483,4.07-20.471,4.07c-6.987,0-13.973-1.409-20.471-4.07c-6.341-2.663-12.311-6.614-17.399-11.821L37.41,98.276    l4.697-4.696c3.816-3.934,8.514-6.987,13.719-9.16c4.952-2.035,10.431-3.171,16.009-3.171h331.222    c5.715,0,11.058,1.136,16.126,3.171c5.089,2.172,9.786,5.226,13.603,9.16l4.696,4.696L432.786,102.974z M265.922,250.911    L418.049,98.785c-1.272-0.763-2.661-1.389-4.07-2.035c-3.309-1.389-6.987-2.153-10.921-2.153H71.835    c-3.934,0-7.613,0.764-10.92,2.153c-1.41,0.646-2.798,1.272-4.071,2.035L208.97,250.911c3.954,3.954,8.396,6.869,13.093,8.905    c4.952,2.035,10.177,3.053,15.383,3.053c5.206,0,10.412-1.018,15.383-3.053C257.526,257.78,262.106,254.865,265.922,250.911    L265.922,250.911z" style="fill:#4A374F;"/>
<path d="M359.453,389.063h14.11v-59.085h-14.11V389.063z M374.327,397.069h-15.754    c-2.174,0-3.955-0.882-5.344-2.408c-1.135-1.389-1.781-3.308-1.781-5.205v-59.731c0-1.918,0.509-3.563,1.526-4.971l0.255-0.255    c1.389-1.644,3.17-2.545,5.344-2.545h15.754c2.153,0,4.07,0.901,5.343,2.545c1.135,1.271,1.898,3.19,1.898,5.226v59.731    c0,1.897-0.764,3.816-1.898,5.205C378.397,396.188,376.48,397.069,374.327,397.069L374.327,397.069z" style="fill:#4A374F;"/>
<path d="M377.889,392c-2.172,0-3.953-1.781-3.953-4.071c0-2.172,1.781-4.07,3.953-4.07h54.525    c0.763,0,1.526-0.255,2.035-0.763l0.118-0.118c0.391-0.509,0.646-1.155,0.646-1.919c0-0.763-0.255-1.524-0.764-2.035l-0.137-0.116    c-0.509-0.393-1.136-0.765-1.898-0.765l0,0v-8.004h5.068c0.9,0,1.527-0.255,2.173-0.764c0.509-0.646,0.764-1.272,0.764-2.035    c0-0.9-0.255-1.526-0.764-2.035s-1.272-0.901-2.036-0.901h-0.137v-8.004h5.226c0.765,0,1.527-0.372,2.035-0.881    c0.51-0.508,0.882-1.272,0.882-2.035c0-0.762-0.255-1.272-0.51-1.526c-0.509-0.508-1.643-0.764-2.915-1.017    c-0.765-0.118-1.664-0.118-2.545-0.255h-3.816v-8.123h5.206c0.763,0,1.409-0.254,2.036-0.763c0.508-0.51,0.763-1.272,0.763-2.035    c0-0.764-0.255-1.526-0.763-2.036l-0.119-0.138c-0.508-0.371-1.271-0.762-1.917-0.762h-26.93c-2.172,0-4.07-1.781-4.07-3.934    c0-0.372,0.117-0.763,0.253-1.136l1.646-7.632c0.508-2.545,0.763-5.207,0.763-7.888c0-3.308-0.255-6.733-0.627-9.396    c-0.391-1.917-1.409-4.207-2.936-5.732c-1.135-1.254-2.407-2.016-3.424-2.016h-0.372c-0.255,0-0.529,0.116-0.782,0.508    c-0.627,1.135-0.882,3.288-0.882,5.715c0,32.019-17.79,31.51-17.79,31.51h-8.005c-2.172,0-3.953-1.781-3.953-3.934    c0-2.291,1.781-4.072,3.953-4.072h8.005c0,0,9.786,0.392,9.786-23.504c0-3.68,0.508-6.987,1.897-9.531    c1.664-3.054,4.071-4.835,7.771-4.835h0.372c3.562,0,6.731,1.899,9.275,4.697c2.546,2.799,4.443,6.616,4.952,10.04    c0.51,2.936,0.764,6.733,0.764,10.55c0,3.19-0.372,6.479-1.019,9.53l-0.627,3.053h21.979c2.799,0,5.479,1.155,7.379,2.937    l0.254,0.234c2.035,2.035,3.171,4.717,3.171,7.771c0,2.151-0.627,4.188-1.645,5.969l0.116,0.117    c2.036,1.781,3.309,4.208,3.309,7.633c0,3.054-1.272,5.715-3.17,7.75c-0.9,0.764-1.781,1.527-2.8,2.036    c0.51,1.271,0.765,2.544,0.765,4.07c0,2.917-1.154,5.715-3.171,7.612c-0.764,0.765-1.78,1.528-2.799,2.036    c0.508,1.272,0.881,2.682,0.881,4.07c0,2.8-1.135,5.462-3.054,7.496l-0.117,0.255c-2.035,1.919-4.835,3.19-7.75,3.19H377.889z" style="fill:#4A374F;"/>
<path d="M362.761,373.563c0-2.289,1.898-3.934,4.071-3.934c2.289,0.117,3.933,2.035,3.933,4.188    l-0.371,8.513c0,2.153-1.919,3.935-4.072,3.816c-2.289,0-3.933-1.897-3.933-4.07L362.761,373.563z" style="fill:#4A374F;"/>
</g>
</g>
<g id="Layer_1"/>
</svg>