<?xml version="1.0" ?>
<!DOCTYPE svg  PUBLIC '-//W3C//DTD SVG 1.1//EN'  'http://www.w3.org/Graphics/SVG/1.1/DTD/svg11.dtd'>
<!-- Uploaded to: SVG Repo, www.svgrepo.com, Generator: SVG Repo Mixer Tools -->
<svg width="800px" height="800px" viewBox="0 0 512 512" version="1.1" xml:space="preserve" xmlns="http://www.w3.org/2000/svg" xmlns:xlink="http://www.w3.org/1999/xlink">
<g id="email_x2C__mail__x2C__letter__x2C__internet__x2C__envelope__x2C__chat__x2C___down__x2C_">
<g>
<path d="M438.392,254.029V123.208c0-9.779-3.983-18.623-10.327-24.966    L296.329,230l-25.747,25.615c-9.108,9.25-21.123,13.864-33.138,13.864c-12.014,0-24.029-4.614-33.279-13.864L178.57,230    l-54.931,54.523l-76.846,76.439c6.343,6.342,15.329,10.307,24.965,10.307h227.987c-2.359-8.457-3.537-17.301-3.537-26.55    c0-27.588,11.221-52.533,29.273-70.625c18.094-18.215,43.059-29.315,70.666-29.315    C411.314,244.779,425.585,248.092,438.392,254.029L438.392,254.029z" style="fill-rule:evenodd;clip-rule:evenodd;fill:#FBCD64;"/>
<path d="M123.639,284.522L178.57,230L46.793,98.243    c-6.322,6.343-10.287,15.187-10.287,24.966v212.667c0,9.778,3.964,18.623,10.287,25.087L123.639,284.522z" style="fill-rule:evenodd;clip-rule:evenodd;fill:#FBCD64;"/>
<path d="M396.147,265.393c-43.83,0-79.366,35.496-79.366,79.326    s35.536,79.347,79.366,79.347c43.831,0,79.327-35.517,79.327-79.347S439.979,265.393,396.147,265.393L396.147,265.393z" style="fill-rule:evenodd;clip-rule:evenodd;fill:#F36360;"/>
<path d="M396.147,272.122c-20.086,0-38.301,8.05-51.352,21.245c-13.215,13.07-21.266,31.286-21.266,51.352    c0,20.085,8.051,38.3,21.266,51.352c13.051,13.214,31.266,21.389,51.352,21.389c20.045,0,38.261-8.175,51.353-21.389    c13.175-13.052,21.388-31.267,21.388-51.352c0-20.065-8.213-38.281-21.388-51.352    C434.408,280.172,416.192,272.122,396.147,272.122L396.147,272.122z M335.281,283.872c15.572-15.594,37.081-25.229,60.866-25.229    c23.745,0,45.255,9.636,60.827,25.229c15.612,15.571,25.248,37.101,25.248,60.847c0,23.765-9.636,45.294-25.248,60.867    c-15.572,15.571-37.082,25.207-60.827,25.207c-23.785,0-45.294-9.636-60.866-25.207c-15.573-15.573-25.209-37.103-25.209-60.867    C310.072,320.973,319.708,299.443,335.281,283.872L335.281,283.872z" style="fill:#4A374F;"/>
<path d="M178.57,230l25.595,25.615    c9.25,9.25,21.265,13.864,33.279,13.864c12.015,0,24.029-4.614,33.138-13.864L296.329,230L428.064,98.243    c-6.342-6.343-15.286-10.428-24.924-10.428H71.758c-9.636,0-18.622,4.085-24.965,10.428L178.57,230z" style="fill-rule:evenodd;clip-rule:evenodd;fill:#FBCD64;"/>
<path d="M301.858,377.998h-230.1c-5.55,0-11.1-1.199-15.979-3.293c-5.144-2.114-9.758-5.164-13.723-9.128    l9.495-9.373c2.643,2.644,5.814,4.758,9.25,6.2c3.436,1.343,7.136,2.136,10.958,2.136h226.4    C299.095,369.154,300.272,373.647,301.858,377.998L301.858,377.998z" style="fill:#4A374F;"/>
<path d="M301.086,225.262l37.366,37.753l-0.162,0.12l0,0l-0.122,0.144l-0.123,0.122l-0.284,0.143    l-0.122,0.122l-0.121,0.142l-0.285,0.123l0,0l-0.122,0.12l-0.122,0.144l-0.122,0.141l-0.285,0.123h-0.121l-0.122,0.123l0,0    l-0.284,0.141l-0.122,0.144l-0.123,0.121l-0.162,0.144l-0.243,0.12v0.144h-0.122l-0.122,0.123l-0.163,0.142l-0.244,0.122    l-0.813,0.669l-0.123,0.123l-0.121,0.122l-0.285,0.142l0,0l-0.122,0.123l-0.121,0.142l-0.163,0.122l-0.245,0.142l-0.121,0.123    l-0.121,0.144l0,0l-0.163,0.12l-0.122,0.144l-0.244,0.121l-0.162,0.143l-0.651,0.528l-0.121,0.122l-0.123,0.142l-0.161,0.123    h-0.124l-0.121,0.142l-0.122,0.122l-0.162,0.143l-0.122,0.122l-0.122,0.264h-0.123l-0.161,0.144l-0.123,0.121l-0.121,0.143    l-0.122,0.121l-0.163,0.144l-0.122,0.122h-0.121l-0.123,0.142l-0.162,0.122l-0.122,0.143l-0.122,0.122l-0.122,0.142l-0.163,0.123    l-36.552-36.837L301.086,225.262z M431.765,251.264V123.208c-0.122-3.964-0.772-7.665-2.236-10.958    c-1.464-3.436-3.577-6.606-6.221-9.25l9.516-9.515c3.82,3.842,6.87,8.458,9.106,13.601c1.992,5.022,3.172,10.429,3.172,16.123    v134.255h-0.244l-0.163-0.142l-0.244-0.123l-0.121-0.142l-0.285-0.123l-0.122-0.143H443.8h-0.121l-0.163-0.121l-0.244-0.144    l-0.121-0.122l-0.285-0.122h-0.122l0,0l-0.284-0.143l-0.123-0.122l-0.285-0.143l-0.243-0.123h-0.122v-0.142h-0.283l-0.123-0.122    l-0.244-0.143l-0.162-0.123h-0.244v-0.142h-0.123l-0.284-0.123l-0.243-0.142l-0.163-0.144h-0.244v-0.121h-0.122l-0.284-0.143    l-0.122-0.123h-0.285l-0.242-0.142l-0.124-0.122l0,0h-0.284l-0.121-0.143l-0.285-0.123l-0.244-0.122h-0.122l0,0l-0.935-0.407    l-0.122-0.123l0,0l-0.285-0.142h-0.122l-0.284-0.123l-0.245-0.142h-0.121l-0.162-0.123h-0.121l-0.123-0.142h-0.285l-0.243-0.123    l-0.122-0.142h-0.163h-0.122l-0.122-0.123l-0.243-0.142h-0.286l-0.121-0.123l-0.283-0.143l0,0h-0.244l-0.123-0.122l-0.284-0.143    h-0.284L431.765,251.264z" style="fill:#4A374F;"/>
<path d="M432.823,103L275.339,260.371c-5.164,5.145-11.101,9.107-17.442,11.751    c-6.587,2.765-13.458,4.085-20.452,4.085s-13.987-1.32-20.472-4.085c-6.465-2.644-12.401-6.606-17.545-11.751L37.3,98.243    l4.756-4.757c3.965-3.822,8.58-6.993,13.723-9.107c4.879-2.094,10.429-3.171,15.979-3.171h331.382    c5.53,0,10.938,1.077,15.979,3.171c5.123,2.115,9.759,5.286,13.58,9.107l4.757,4.757L432.823,103z M265.967,250.857    L418.063,98.772c-1.341-0.793-2.643-1.444-4.106-1.973c-3.293-1.463-6.993-2.256-10.815-2.256H71.758    c-3.822,0-7.522,0.793-10.958,2.256c-1.321,0.528-2.643,1.179-3.964,1.973l152.085,152.085c3.964,3.965,8.458,6.871,13.214,8.843    c4.879,2.114,10.022,3.171,15.309,3.171c5.286,0,10.429-1.057,15.308-3.171C257.51,257.728,262.003,254.822,265.967,250.857    L265.967,250.857z" style="fill:#4A374F;"/>
<path d="M389.521,294.566c0-3.7,2.927-6.75,6.627-6.75s6.709,2.906,6.709,6.606l0.528,84.754l18.338-17.951    c2.643-2.501,6.871-2.501,9.392,0.143c2.643,2.644,2.643,6.851-0.122,9.493l-29.438,28.787c-2.521,2.501-6.626,2.644-9.392,0.123    l-30.21-28.116c-2.806-2.501-2.928-6.729-0.407-9.372c2.521-2.765,6.709-2.907,9.515-0.387l18.988,17.688L389.521,294.566z" style="fill:#4A374F;"/>
<path d="M51.551,103c-2.643,2.644-4.757,5.814-6.2,9.25c-1.444,3.293-2.237,6.994-2.237,10.958v212.667    c0,3.965,0.793,7.665,2.237,10.958c0.528,1.464,1.199,2.785,1.972,4.106l126.491-125.678l9.494,9.494L46.793,370.333l-4.737-4.756    c-3.841-3.822-7.013-8.437-9.108-13.58c-2.114-5.022-3.171-10.431-3.171-16.122V123.208c0-5.693,1.057-11.1,3.171-16.123    c2.095-5.143,5.267-9.758,9.108-13.601L51.551,103z" style="fill:#4A374F;"/>
</g>
</g>
<g id="Layer_1"/>
</svg>