<?xml version="1.0" ?>
<!DOCTYPE svg  PUBLIC '-//W3C//DTD SVG 1.1//EN'  'http://www.w3.org/Graphics/SVG/1.1/DTD/svg11.dtd'>
<!-- Uploaded to: SVG Repo, www.svgrepo.com, Generator: SVG Repo Mixer Tools -->
<svg width="800px" height="800px" viewBox="0 0 512 512" version="1.1" xml:space="preserve" xmlns="http://www.w3.org/2000/svg" xmlns:xlink="http://www.w3.org/1999/xlink">
<g id="email_x2C__mail__x2C__letter__x2C__internet__x2C__envelope__x2C__chat__x2C___delete__x2C__bin__x2C_">
<g>
<path d="M339.182,274.974l-39.359-39.087l-25.794,25.781    c-9.294,9.224-21.345,14.015-33.409,14.015c-12.133,0-24.197-4.791-33.41-14.015l-25.875-25.781l-55.3,54.945l-77.205,76.754    c6.387,6.387,15.422,10.454,25.084,10.454h247.54l6.196-5.132l-8.325-84.915h-7.097c-3.63,0-6.55-2.839-6.55-6.47    c0-3.712,2.92-6.55,6.55-6.55h12.938h0.096H339.182z" style="fill-rule:evenodd;clip-rule:evenodd;fill:#FBCD64;"/>
<path d="M438.44,268.136c2.743-2.375,7.003-2.116,9.391,0.71c2.483,2.852,2.129,7.097-0.615,9.484    l-121.34,104.76c-1.324,1.064-2.825,1.691-4.423,1.691H73.913c-5.663,0-11.082-1.159-16.131-3.274    c-7.97-2.484-24.634-11.178-13.729-18.616c2.661-2.661,6.906-2.661,9.485-0.096c2.647,2.661,5.841,4.791,9.389,6.292    c3.371,1.42,7.179,2.211,10.986,2.211H318.97L438.44,268.136z" style="fill:#4A374F;"/>
<path d="M312.228,274.974c-3.63,0-6.55,2.838-6.55,6.55    c0,3.631,2.92,6.47,6.55,6.47h7.097l11.164,113.712c1.243,9.936,9.566,17.373,19.584,17.373h81.013    c10.017,0,18.342-7.438,19.584-17.373v-0.178l11.165-113.534h7.096c3.631,0,6.551-2.839,6.551-6.47c0-3.712-2.92-6.55-6.551-6.55    h-12.938h-0.095H339.182h-13.92h-0.096H312.228z" style="fill-rule:evenodd;clip-rule:evenodd;fill:#F36360;"/>
<path d="M299.822,235.887l39.359,39.087h101.647l1.953-1.693V128.466    c0-9.833-3.986-18.697-10.374-25.166L299.822,235.887z" style="fill-rule:evenodd;clip-rule:evenodd;fill:#FBCD64;"/>
<path d="M309.403,235.887l32.521,32.344h94.114V128.466c0-3.985-0.792-7.711-2.115-11.074    c-0.628-1.331-1.338-2.75-2.129-3.992L309.403,235.887z M334.474,279.75l-39.428-39.168c-2.579-2.58-2.579-6.825,0-9.485    L427.619,98.51c2.578-2.566,6.824-2.566,9.485,0c3.902,3.992,7.096,8.598,9.225,13.743c2.034,5.05,3.18,10.454,3.18,16.213V273.28    c0,1.857-0.791,3.727-2.293,5.05l-1.596,1.42c-1.242,1.16-2.935,1.951-4.791,1.951H339.182    C337.49,281.701,335.716,280.992,334.474,279.75L334.474,279.75z" style="fill:#4A374F;"/>
<path d="M181.334,235.887l25.875,25.781    c9.212,9.224,21.276,14.015,33.41,14.015c12.064,0,24.115-4.791,33.409-14.015l25.794-25.781L432.408,103.3    c-6.469-6.38-15.421-10.372-25.165-10.372H73.913c-9.662,0-18.697,3.992-25.084,10.372L181.334,235.887z" style="fill-rule:evenodd;clip-rule:evenodd;fill:#FBCD64;"/>
<path d="M124.164,290.832l55.301-54.945L46.973,103.3    c-6.469,6.469-10.454,15.333-10.454,25.166v214.036c0,9.744,3.985,18.697,10.454,25.084L124.164,290.832z" style="fill-rule:evenodd;clip-rule:evenodd;fill:#FBCD64;"/>
<path d="M119.469,286.055l50.524-50.168L47.505,113.399c-0.792,1.331-1.501,2.661-2.129,4.081    c-1.323,3.363-2.128,7-2.128,10.985v214.036c0,3.902,0.805,7.614,2.128,11c0.628,1.404,1.338,2.729,2.129,4.066L119.469,286.055z     M186.11,231.096l25.794,25.793c3.985,3.985,8.516,6.906,13.211,8.953c4.967,2.033,10.194,3.099,15.503,3.099    c5.227,0,10.468-1.065,15.422-3.099c4.79-2.047,9.308-4.968,13.211-8.953L422.31,103.921c-1.337-0.799-2.661-1.509-4.08-2.13    c-3.371-1.418-7.084-2.127-10.986-2.127H73.913c-3.807,0-7.615,0.709-10.986,2.127c-1.419,0.622-2.743,1.331-3.985,2.13    L186.11,231.096z M202.419,266.458l-22.068-22.069c-42.444,42.104-88.272,84.902-128.683,127.974    c-2.566,2.675-6.824,2.675-9.485,0c-3.89-3.89-7.001-8.502-9.212-13.729c-2.034-4.968-3.193-10.453-3.193-16.131V128.466    c0-18.608,11.164-32.079,28.005-39.08c5.049-2.04,10.549-3.193,16.131-3.193h333.33c5.663,0,11.164,1.153,16.131,3.193    c5.049,2.122,21.618,10.809,13.73,18.697L278.736,266.458c-5.145,5.145-11.177,9.13-17.55,11.791    c-6.565,2.743-13.566,4.162-20.567,4.162s-14.002-1.419-20.649-4.162C213.597,275.588,207.565,271.603,202.419,266.458    L202.419,266.458z" style="fill:#4A374F;"/>
<path d="M419.212,307.4c0.081-3.713,3.179-6.633,6.906-6.47c3.725,0.096,6.646,3.193,6.563,6.92    l-2.757,78.788c-0.082,3.629-3.18,6.551-6.905,6.469c-3.727-0.083-6.647-3.194-6.47-6.906L419.212,307.4z" style="fill:#4A374F;"/>
<path d="M364.607,386.201c0.178,3.712-2.744,6.823-6.469,6.906c-3.712,0.082-6.824-2.84-6.906-6.469    l-2.661-78.788c-0.177-3.727,2.743-6.824,6.47-6.92c3.726-0.163,6.822,2.757,6.918,6.47L364.607,386.201z" style="fill:#4A374F;"/>
<path d="M397.32,392.929c0,3.727-3.016,6.729-6.741,6.729c-3.727,0-6.729-3.003-6.729-6.729v-91.807    c0-3.739,3.002-6.742,6.729-6.742c3.726,0,6.741,3.003,6.741,6.742V392.929z" style="fill:#4A374F;"/>
<path d="M302.838,272.134c2.389-2.388,5.76-3.903,9.39-3.903H468.93c3.713,0,7.001,1.516,9.39,3.903    c2.389,2.389,3.903,5.678,3.903,9.39c0,3.631-1.515,7.016-3.903,9.39c-2.389,2.402-5.677,3.822-9.39,3.822h-0.982    c-3.548,35.265-8.421,72.674-10.632,107.679c-0.791,6.646-3.985,12.502-8.68,16.664c-4.708,4.162-10.905,6.729-17.551,6.729    h-81.013c-6.646,0-12.842-2.566-17.537-6.729c-4.708-4.162-7.888-10.018-8.693-16.664l-10.55-107.679h-1.064    c-3.63,0-7.001-1.42-9.39-3.822c-2.389-2.374-3.902-5.759-3.902-9.39C298.936,277.812,300.449,274.522,302.838,272.134    L302.838,272.134z M321.713,281.701c2.483,0.969,4.341,3.371,4.341,6.21l11.177,113.002c0.354,3.275,1.951,6.114,4.244,8.147    c2.225,2.034,5.323,3.181,8.598,3.181h81.013c3.275,0,6.374-1.146,8.599-3.181c2.211-1.951,3.807-4.694,4.244-7.889    l11.177-113.794c0.26-2.66,2.034-4.79,4.422-5.677H321.713z" style="fill:#4A374F;"/>
</g>
</g>
<g id="Layer_1"/>
</svg>