<?xml version="1.0" ?>
<!-- Uploaded to: SVG Repo, www.svgrepo.com, Generator: SVG Repo Mixer Tools -->
<svg width="800px" height="800px" viewBox="0 0 64 64" xmlns="http://www.w3.org/2000/svg">
<defs>
<style>.cls-1{fill:#e0e9ee;}.cls-2{fill:#748a95;}.cls-3{fill:#617880;}.cls-4{fill:#d0e1e8;}.cls-5{fill:#94d8e5;}.cls-6{fill:#7bd1e0;}</style>
</defs>
<g id="Hospital">
<path class="cls-1" d="M24.9,14H18.61a2.15,2.15,0,0,0-2.16,2.16V52.41l15.43,1.73,15.67-1.73V16.12A2.15,2.15,0,0,0,45.39,14H24.9Z" id="rect26739-4"/>
<path class="cls-2" d="M27.05,8H37a2.15,2.15,0,0,1,2.15,2.16v9.15A2.15,2.15,0,0,1,37,21.46h-9.9a2.15,2.15,0,0,1-2.15-2.15V10.16A2.15,2.15,0,0,1,27.05,8Z" id="rect26930-8"/>
<path class="cls-3" d="M27.37,52.41V42.78a2.16,2.16,0,0,1,2.15-2.16h5a2.16,2.16,0,0,1,2.15,2.16v9.63l-5,1.36Z" id="rect27368-1"/>
<path class="cls-2" d="M14.8,52.41H49.2a1.8,1.8,0,1,1,0,3.59H14.8a1.8,1.8,0,1,1,0-3.59Z" id="path15921-6-5"/>
<path class="cls-4" d="M42.11,14a2.16,2.16,0,0,1,2.15,2.16V52.46l3.29-.05V16.12A2.15,2.15,0,0,0,45.39,14Z" id="path664134"/>
<path class="cls-5" d="M20.18,24.16H43.82a.56.56,0,0,1,.56.56V36.81a.56.56,0,0,1-.56.56H20.18a.56.56,0,0,1-.56-.56V24.72A.56.56,0,0,1,20.18,24.16Z" id="rect28394-7"/>
<path class="cls-6" d="M41.52,24.15a.57.57,0,0,1,.56.57V36.81a.56.56,0,0,1-.56.56h2.3a.56.56,0,0,0,.56-.56V24.72a.57.57,0,0,0-.56-.57Z" id="path672017"/>
<path class="cls-3" d="M34.22,8a2.15,2.15,0,0,1,2.15,2.15v9.16a2.15,2.15,0,0,1-2.15,2.15H37a2.15,2.15,0,0,0,2.15-2.15V10.15A2.15,2.15,0,0,0,37,8Z" id="path674434"/>
<path class="cls-3" d="M45.46,52.41a1.8,1.8,0,1,1,0,3.59H49.2a1.8,1.8,0,1,0,0-3.59Z" id="path682627"/>
<path d="M52,54.2a2.79,2.79,0,0,0-2.8-2.79h-.65V16.12A3.17,3.17,0,0,0,45.39,13H40.1v-2.8A3.16,3.16,0,0,0,37,7h-9.9a3.16,3.16,0,0,0-3.15,3.16V13H18.61a3.17,3.17,0,0,0-3.16,3.16V51.41H14.8a2.8,2.8,0,1,0,0,5.59H49.2A2.8,2.8,0,0,0,52,54.2ZM27.05,9H37a1.16,1.16,0,0,1,1.15,1.16v9.15A1.16,1.16,0,0,1,37,20.46h-9.9a1.16,1.16,0,0,1-1.15-1.15V10.16A1.16,1.16,0,0,1,27.05,9Zm-9.6,7.12A1.16,1.16,0,0,1,18.61,15H23.9v4.35a3.15,3.15,0,0,0,3.15,3.15H37a3.15,3.15,0,0,0,3.15-3.15V15h5.29a1.16,1.16,0,0,1,1.16,1.16V51.41H37.63V42.78a3.16,3.16,0,0,0-3.15-3.16h-5a3.16,3.16,0,0,0-3.15,3.16v8.63H17.45Zm17,25.5a1.15,1.15,0,0,1,1.15,1.16v8.63H33V41.62ZM31,51.41H28.37V42.78a1.15,1.15,0,0,1,1.15-1.16H31ZM14,54.2a.79.79,0,0,1,.8-.79H49.2a.79.79,0,0,1,.8.79.8.8,0,0,1-.8.8H14.8A.8.8,0,0,1,14,54.2Z"/>
<circle cx="12.39" cy="33.46" r="1.25"/>
<circle cx="51.75" cy="35.65" r="1.25"/>
<path d="M54.8,17.72l-.28-.15a1,1,0,0,0-1,1.73l.27.16a1,1,0,0,0,.5.13,1,1,0,0,0,.86-.5A1,1,0,0,0,54.8,17.72Z"/>
<path d="M50.51,15.25a1,1,0,1,0-1,1.73l.27.16a1,1,0,0,0,.5.13,1,1,0,0,0,.5-1.86Z"/>
<path d="M50,19.59a1,1,0,0,0,.5-.13l.27-.16a1,1,0,0,0-1-1.73l-.27.16a1,1,0,0,0-.37,1.36A1,1,0,0,0,50,19.59Z"/>
<path d="M53.8,15.25l-.27.16a1,1,0,0,0,.5,1.86,1,1,0,0,0,.49-.13L54.8,17a1,1,0,0,0-1-1.73Z"/>
<path d="M53.15,19.52a1,1,0,0,0-2,0v.31a1,1,0,0,0,2,0Z"/>
<path d="M53.15,14.88a1,1,0,0,0-2,0v.31a1,1,0,0,0,2,0Z"/>
<path d="M13.32,13.74l.28.16A1,1,0,0,0,15,13.53a1,1,0,0,0-.36-1.37L14.32,12a1,1,0,0,0-1,1.74Z"/>
<path d="M10.2,9.63a1,1,0,0,0-1,1.73l.28.16a1,1,0,0,0,.5.13,1,1,0,0,0,.86-.49,1,1,0,0,0-.36-1.37Z"/>
<path d="M8.84,13.53a1,1,0,0,0,.86.5,1,1,0,0,0,.5-.13l.28-.16a1,1,0,0,0-1-1.74l-.28.16A1,1,0,0,0,8.84,13.53Z"/>
<path d="M13,11.15a1,1,0,0,0,1.37.37l.28-.16A1,1,0,0,0,15,10a1,1,0,0,0-1.36-.37l-.28.16A1,1,0,0,0,13,11.15Z"/>
<path d="M10.9,14.3a1,1,0,0,0,1,1h0a1,1,0,0,0,1-1V14a1,1,0,0,0-1-1h0a1,1,0,0,0-1,1Z"/>
<path d="M11.9,10.55h0a1,1,0,0,0,1-1V9.22a1,1,0,0,0-1-1h0a1,1,0,0,0-1,1v.32A1,1,0,0,0,11.9,10.55Z"/>
<path d="M30,16.21h1v1a1,1,0,0,0,2,0v-1h1a1,1,0,0,0,0-2H33v-1a1,1,0,0,0-2,0v1H30a1,1,0,0,0,0,2Z"/>
<path d="M43.82,38.37a1.56,1.56,0,0,0,1.56-1.56V24.72a1.56,1.56,0,0,0-1.56-1.56H20.18a1.56,1.56,0,0,0-1.56,1.56V36.81a1.56,1.56,0,0,0,1.56,1.56Zm-23.2-9h2.95v2.72H20.62Zm4.95,0h2.95v2.72H25.57Zm17.81,2.72h-3V29.4h3Zm-5,0h-3V29.4h3Zm-5,2v2.25h-3V34.12Zm-3-2V29.4h3v2.72Zm5,2h3v2.25h-3Zm0-6.72V25.16h3V27.4Zm-2,0h-3V25.16h3Zm-5,0H25.57V25.16h2.95Zm0,6.72v2.25H25.57V34.12Zm11.91,2.25V34.12h3v2.25Zm3-9h-3V25.16h3ZM23.57,25.16V27.4H20.62V25.16Zm-2.95,9h2.95v2.25H20.62Z"/>
</g>
</svg>