<?xml version="1.0" ?>
<!-- Uploaded to: SVG Repo, www.svgrepo.com, Generator: SVG Repo Mixer Tools -->
<svg width="800px" height="800px" viewBox="0 0 64 64" xmlns="http://www.w3.org/2000/svg">
<defs>
<style>.cls-1{fill:#d0e1e8;}.cls-2{fill:#748a95;}.cls-3{fill:#e0e9ee;}.cls-4{fill:#617880;}.cls-5{fill:#94d8e5;}.cls-6{fill:#f0f4f7;}</style>
</defs>
<g id="Townhouse">
<path class="cls-1" d="M41.27,43H22.73l-4.08,5.38L22.07,54H41.81l2.54-5.45Z" id="path231505-7"/>
<path class="cls-2" d="M9.76,52.05a1.77,1.77,0,0,0,0,3.53H54.24a1.77,1.77,0,0,0,0-3.53Z" id="path208729-6-6"/>
<path class="cls-3" d="M10.64,33.93V52.05H22.73V33.93l-.83-5.06L16.63,26.1,12.55,29Z" id="rect226432-5"/>
<path class="cls-4" d="M14.84,52.46V47.7a1.85,1.85,0,1,1,3.7,0v4.76Z" id="rect229709-7"/>
<path class="cls-5" d="M16.79,36h-.1a2.69,2.69,0,1,0,2.6,2Z" id="path230120-6"/>
<path class="cls-3" d="M32.08,26l-4.56,2.76L26,33.93V52.05h12.1V33.93l-.55-3.76Z" id="path216327"/>
<path class="cls-4" d="M30.15,52.46V47.7a1.85,1.85,0,0,1,3.7,0v4.76Z" id="path230693-9"/>
<path class="cls-5" d="M34.68,37.36A2.68,2.68,0,1,1,32,34.68,2.68,2.68,0,0,1,34.68,37.36Z" id="path230695-3"/>
<path class="cls-3" d="M41.27,33.93V52.05H53.36V33.93l-.2-5-5.1-3.22-5.75,2.59Z" id="path230697-7"/>
<path class="cls-4" d="M45.46,52.46V47.7a1.85,1.85,0,1,1,3.7,0v4.76Z" id="path230701-5"/>
<path class="cls-5" d="M50,38.71A2.69,2.69,0,1,1,47.31,36,2.68,2.68,0,0,1,50,38.71Z" id="path230703-2"/>
<path class="cls-6" d="M20,28.14v8.57a1.62,1.62,0,1,1-3.23,0V28.2a1.55,1.55,0,0,1,0-.31l1.64-.73Z" id="path232139-4"/>
<path class="cls-2" d="M16.69,24.66A7.67,7.67,0,0,0,9,32.32a1.61,1.61,0,1,0,3.22,0,4.44,4.44,0,1,1,8.87,0,1.61,1.61,0,0,0,3.22,0A7.67,7.67,0,0,0,16.69,24.66Z" id="path226596-4"/>
<path class="cls-2" d="M32,24.66a7.68,7.68,0,0,0-7.66,7.66,1.61,1.61,0,0,0,3.22,0,4.44,4.44,0,1,1,8.88,0,1.61,1.61,0,1,0,3.22,0A7.68,7.68,0,0,0,32,24.66Z" id="path230691-6"/>
<path class="cls-2" d="M47.31,24.66a7.67,7.67,0,0,0-7.65,7.66,1.61,1.61,0,1,0,3.22,0,4.44,4.44,0,1,1,8.87,0,1.61,1.61,0,1,0,3.22,0A7.67,7.67,0,0,0,47.31,24.66Z" id="path230699-4"/>
<path class="cls-4" d="M50.12,52.05a1.77,1.77,0,0,1,0,3.53h4.12a1.77,1.77,0,0,0,0-3.53Z" id="path231457"/>
<path d="M27.3,20.5l.31.18A1,1,0,0,0,29,20.31,1,1,0,0,0,28.61,19l-.31-.18a1,1,0,1,0-1,1.73Z"/>
<path d="M23.06,18.06a1,1,0,0,0,1.37-.37,1,1,0,0,0-.36-1.36l-.31-.18a1,1,0,0,0-1.37.36,1,1,0,0,0,.37,1.37Z"/>
<path d="M22.39,20.31a1,1,0,0,0,1.37.37l.3-.18a1,1,0,0,0,.37-1.36,1,1,0,0,0-1.37-.37l-.3.18A1,1,0,0,0,22.39,20.31Z"/>
<path d="M27.8,18.19a1,1,0,0,0,.5-.13l.31-.18a1,1,0,1,0-1-1.73l-.3.18a1,1,0,0,0-.37,1.36A1,1,0,0,0,27.8,18.19Z"/>
<path d="M24.68,21.21a1,1,0,0,0,2,0v-.35a1,1,0,0,0-2,0Z"/>
<path d="M25.68,17a1,1,0,0,0,1-1v-.35a1,1,0,1,0-2,0V16A1,1,0,0,0,25.68,17Z"/>
<path d="M43,13.31l.31.18a1,1,0,0,0,.5.13,1,1,0,0,0,.5-1.86L44,11.58a1,1,0,0,0-1.36.36A1,1,0,0,0,43,13.31Z"/>
<path d="M38.47,10.69l.31.17a.9.9,0,0,0,.5.14,1,1,0,0,0,.5-1.87L39.47,9a1,1,0,0,0-1.36.36A1,1,0,0,0,38.47,10.69Z"/>
<path d="M38.11,13.12a1,1,0,0,0,1.36.37l.31-.18a1,1,0,0,0-1-1.73l-.31.17A1,1,0,0,0,38.11,13.12Z"/>
<path d="M43.51,11a.9.9,0,0,0,.5-.14l.31-.17a1,1,0,0,0,.36-1.37A1,1,0,0,0,43.32,9L43,9.13a1,1,0,0,0-.36,1.37A1,1,0,0,0,43.51,11Z"/>
<path d="M41.39,15h0a1,1,0,0,0,1-1v-.35a1,1,0,0,0-1-1h0a1,1,0,0,0-1,1V14A1,1,0,0,0,41.39,15Z"/>
<path d="M41.4,9.78h0a1,1,0,0,0,1-1V8.42a1,1,0,0,0-1-1h0a1,1,0,0,0-1,1v.35A1,1,0,0,0,41.4,9.78Z"/>
<path d="M54.36,51.07V34.73A2.62,2.62,0,0,0,56,32.32a8.65,8.65,0,0,0-16.31-4,8.65,8.65,0,0,0-15.32,0A8.65,8.65,0,0,0,8,32.32a2.62,2.62,0,0,0,1.61,2.41V51.07a2.76,2.76,0,0,0,.12,5.51H54.24a2.76,2.76,0,0,0,.12-5.51Zm-7.9,0V47.7a.86.86,0,0,1,.85-.85.85.85,0,0,1,.86.85v3.35Zm.85-6.2a2.85,2.85,0,0,0-2.85,2.85v3.35H42.27V34.73a2.63,2.63,0,0,0,1.61-2.41,3.44,3.44,0,1,1,6.87,0,2.63,2.63,0,0,0,1.61,2.41V51.05H50.17V47.7A2.85,2.85,0,0,0,47.31,44.85Zm-8.26,6.2V44h1.22v7.06Zm-7.9,0V47.7a.85.85,0,0,1,1.7,0v3.35Zm.85-6.2a2.85,2.85,0,0,0-2.85,2.85v3.35H27V34.73a2.62,2.62,0,0,0,1.61-2.41,3.44,3.44,0,1,1,6.88,0,2.62,2.62,0,0,0,1.61,2.41V51.05h-2.2V47.7A2.85,2.85,0,0,0,32,44.85Zm-8.27,6.2V44H25v7.06Zm-7.9,0V47.7a.85.85,0,0,1,.86-.85.86.86,0,0,1,.85.85v3.35Zm.86-6.2a2.85,2.85,0,0,0-2.86,2.85v3.35H11.64V34.73a2.63,2.63,0,0,0,1.61-2.41A3.38,3.38,0,0,1,15.79,29v6.14a3.68,3.68,0,1,0,4.58,3.56c0-.08,0-.17,0-.25A2.58,2.58,0,0,0,21,36.71V34.27a2.55,2.55,0,0,0,.71.46V51.05H19.54V47.7A2.85,2.85,0,0,0,16.69,44.85ZM19,29.79v6.92a.62.62,0,1,1-1.23,0V29.07A3.53,3.53,0,0,1,19,29.79Zm-3.17,7.47a2.62,2.62,0,0,0,2.4,2.06,1.68,1.68,0,1,1-2.4-2.06Zm8.49-2.91a3,3,0,0,0,.61.38V42H23.73V34.73A2.72,2.72,0,0,0,24.34,34.35Zm15.32,0a2.72,2.72,0,0,0,.61.38V42H39.05V34.73A3,3,0,0,0,39.66,34.35Zm7.65-8.69A6.66,6.66,0,0,1,54,32.32a.61.61,0,1,1-1.22,0,5.44,5.44,0,1,0-10.87,0,.61.61,0,0,1-1.22,0A6.66,6.66,0,0,1,47.31,25.66ZM32,25.66a6.67,6.67,0,0,1,6.66,6.66.62.62,0,0,1-.61.61.61.61,0,0,1-.61-.61,5.44,5.44,0,1,0-10.88,0,.61.61,0,0,1-.61.61.62.62,0,0,1-.61-.61A6.67,6.67,0,0,1,32,25.66Zm-15.31,0a6.66,6.66,0,0,1,6.65,6.66.61.61,0,0,1-1.22,0,5.44,5.44,0,0,0-5.43-5.44,5.38,5.38,0,0,0-5.44,5.44.61.61,0,1,1-1.22,0A6.66,6.66,0,0,1,16.69,25.66ZM54.24,54.58H9.76A.75.75,0,0,1,9,53.82a.77.77,0,0,1,.76-.77H54.24a.77.77,0,0,1,.76.77A.75.75,0,0,1,54.24,54.58Z"/>
<circle cx="17.38" cy="21.08" r="1.25"/>
<circle cx="32.63" cy="12.45" r="1.25"/>
<circle cx="45.25" cy="19.2" r="1.25"/>
<path d="M32,33.68a3.68,3.68,0,1,0,3.68,3.68A3.68,3.68,0,0,0,32,33.68ZM32,39a1.68,1.68,0,1,1,1.68-1.68A1.68,1.68,0,0,1,32,39Z"/>
<path d="M47.31,35A3.68,3.68,0,1,0,51,38.71,3.68,3.68,0,0,0,47.31,35Zm0,5.36A1.68,1.68,0,1,1,49,38.71,1.68,1.68,0,0,1,47.31,40.39Z"/>
</g>
</svg>