<?xml version="1.0" ?>
<!-- Uploaded to: SVG Repo, www.svgrepo.com, Generator: SVG Repo Mixer Tools -->
<svg width="800px" height="800px" viewBox="0 0 64 64" xmlns="http://www.w3.org/2000/svg">
<defs>
<style>.cls-1{fill:#e0e9ee;}.cls-2{fill:#d0e1e8;}.cls-3{fill:#f0f4f7;}.cls-4{fill:#617880;}.cls-5{fill:#748a95;}</style>
</defs>
<g id="Motel">
<path class="cls-1" d="M15.44,13V10.36A2.35,2.35,0,0,1,17.8,8H46.2a2.35,2.35,0,0,1,2.36,2.36V13L30.22,14.85Z" id="rect209866-1"/>
<path class="cls-1" d="M50.56,49,31,50.37,13.44,49V16.53L31.29,15.4l19.27,1.13Z" id="path204813-5"/>
<path class="cls-2" d="M18.43,22.46a1.05,1.05,0,0,0-1.06,1.06v2.55a1.06,1.06,0,0,0,1.06,1.06H20.7l1.09-2.5L20.7,22.46Z" id="rect213925-3"/>
<path class="cls-3" d="M20.7,16.53v10.6a1.44,1.44,0,0,0,2.87,0V23.52a1.44,1.44,0,1,1,2.87,0,1.44,1.44,0,0,0,2.87,0v-7l-3.94-1.45Z" id="path128784-6-0-2-4-7-1-6-4-3"/>
<path class="cls-2" d="M48,16.54V49h2.61V16.54Z" id="path164473"/>
<path class="cls-4" d="M29.31,49V41.49a1.05,1.05,0,0,1,1.06-1.06h3.87a1.06,1.06,0,0,1,1.06,1.06V49L32,49.46Z" id="rect213505-0"/>
<path class="cls-4" d="M29.31,31V23.52a1.05,1.05,0,0,1,1.06-1.06h3.87a1.06,1.06,0,0,1,1.06,1.06V31L32,31.74Z" id="path213629-6"/>
<path class="cls-2" d="M41,40.43,39.14,42v2A1.06,1.06,0,0,0,40.2,45.1h6a1.06,1.06,0,0,0,1-1.06V41.49a1.05,1.05,0,0,0-1-1.06Z" id="path206665"/>
<path class="cls-2" d="M18.43,40.43a1.05,1.05,0,0,0-1.06,1.06V44a1.06,1.06,0,0,0,1.06,1.06h6A1.06,1.06,0,0,0,25.46,44V41.49a1.05,1.05,0,0,0-1.06-1.06Z" id="path206663"/>
<path class="cls-2" d="M40.2,22.46a1.05,1.05,0,0,0-1.06,1.06v2.55a1.06,1.06,0,0,0,1.06,1.06h6a1.06,1.06,0,0,0,1-1.06V22.66l-2.9-.2Z" id="path206661"/>
<path class="cls-3" d="M47.24,16.53v6.13a1.46,1.46,0,1,1-2.91,0V16.53l1.23-1.6Z" id="rect216509-1"/>
<path class="cls-3" d="M41,34.51v6.12a1.46,1.46,0,1,1-2.91,0V34.51Z" id="path218275-5"/>
<path class="cls-5" d="M13.44,31a1.77,1.77,0,0,0,0,3.53H50.56a1.77,1.77,0,0,0,0-3.53Z" id="path200780-8"/>
<path class="cls-5" d="M11.68,52.48V50.72A1.76,1.76,0,0,1,13.44,49H50.56a1.76,1.76,0,0,1,1.76,1.77v1.76L34.1,53.53Z" id="path208590-0"/>
<path class="cls-5" d="M9.76,52.48a1.76,1.76,0,1,0,0,3.52H54.24a1.76,1.76,0,0,0,0-3.52Z" id="path208729-3"/>
<path class="cls-2" d="M48.56,13V10.36A2.35,2.35,0,0,0,46.2,8H41.27a2.35,2.35,0,0,1,2.36,2.36V13Z" id="path180804"/>
<path class="cls-5" d="M13.44,13a1.76,1.76,0,1,0,0,3.52H50.56a1.76,1.76,0,0,0,0-3.52Z" id="rect200427-7"/>
<path class="cls-5" d="M13.44,13a1.77,1.77,0,0,0,0,3.53H50.56a1.77,1.77,0,0,0,0-3.53Zm0,18a1.77,1.77,0,0,0,0,3.53H50.56a1.77,1.77,0,0,0,0-3.53Z" id="path184457"/>
<path class="cls-4" d="M46.14,31a1.77,1.77,0,0,1,0,3.53h4.42a1.77,1.77,0,0,0,0-3.53Z" id="path184469"/>
<path class="cls-4" d="M46.14,13a1.77,1.77,0,0,1,0,3.53h4.42a1.77,1.77,0,0,0,0-3.53Z" id="path184462"/>
<path class="cls-4" d="M46.32,49a1.76,1.76,0,0,1,1.76,1.76v1.77h4.24V50.71A1.76,1.76,0,0,0,50.56,49Z" id="path187580"/>
<path class="cls-4" d="M49.52,52.48a1.76,1.76,0,1,1,0,3.52h4.72a1.76,1.76,0,0,0,0-3.52Z" id="path192456"/>
<path d="M54.24,51.48h-.92v-.77a2.74,2.74,0,0,0-1.76-2.56V35.31a2.75,2.75,0,0,0,0-5.13V17.34a2.76,2.76,0,0,0-1-5.33h-1V10.36A3.37,3.37,0,0,0,46.2,7H17.8a3.37,3.37,0,0,0-3.36,3.36V12h-1a2.76,2.76,0,0,0-1,5.33V30.18a2.75,2.75,0,0,0,0,5.13V48.15a2.74,2.74,0,0,0-1.76,2.56v.77H9.76a2.76,2.76,0,1,0,0,5.52H54.24a2.76,2.76,0,0,0,0-5.52ZM30.32,48l.05-6.52,3.92.06V48Zm3.92-8.52H30.37a2.06,2.06,0,0,0-2.06,2.06V48H14.44V35.51H37.11v5.12a2.46,2.46,0,0,0,1,2V44A2.07,2.07,0,0,0,40.2,46.1h6A2.07,2.07,0,0,0,48.24,44V41.49a2.06,2.06,0,0,0-2.06-2.06H42V35.51h7.54V48H36.29V41.49A2.05,2.05,0,0,0,34.24,39.43ZM12.68,32.74a.76.76,0,0,1,.76-.76H50.56a.77.77,0,0,1,0,1.53H13.44A.76.76,0,0,1,12.68,32.74Zm1.76-15.2H19.7v3.92H18.43a2.06,2.06,0,0,0-2.06,2.06v2.55a2.06,2.06,0,0,0,2.06,2.06h1.49a2.43,2.43,0,0,0,4.65-1V23.52a.44.44,0,1,1,.87,0A2.43,2.43,0,0,0,27.88,26a3,3,0,0,0,.43,0V30H14.44Zm13.87,0v6a.44.44,0,0,1-.87,0,2.44,2.44,0,1,0-4.87,0v3.61a.44.44,0,0,1-.87,0V17.54Zm15,0v3.92H40.2a2.06,2.06,0,0,0-2.06,2.06v2.55a2.07,2.07,0,0,0,2.06,2.06h6a2.07,2.07,0,0,0,2.06-2.06V17.54h1.32V30H36.29V23.52a2.05,2.05,0,0,0-2-2.06H30.31V17.54Zm2.91,0v5.12a.46.46,0,1,1-.91,0V17.54Zm-2.77,5.92a2.45,2.45,0,0,0,2.31,1.66,1.84,1.84,0,0,0,.41-.05v1.06l-6-.06.06-2.61ZM30.32,30l.05-6.52,3.92.06V30ZM18.37,26.07l.06-2.61H19.7V26.1ZM40.14,43a2.46,2.46,0,0,0,1.73-1.57l4.37.05-.06,2.61-6-.06ZM40,40.63a.46.46,0,1,1-.91,0V35.51H40ZM16.44,10.36A1.36,1.36,0,0,1,17.8,9H46.2a1.36,1.36,0,0,1,1.36,1.36V12H16.44Zm-3,3.65H50.56a.77.77,0,0,1,0,1.53H13.44a.77.77,0,0,1,0-1.53Zm-.76,36.7a.76.76,0,0,1,.76-.76H50.56a.76.76,0,0,1,.76.76v.77H12.68ZM54.24,55H9.76a.76.76,0,0,1,0-1.52H54.24a.76.76,0,1,1,0,1.52Z"/>
<path d="M24.4,39.43h-6a2.06,2.06,0,0,0-2.06,2.06V44a2.06,2.06,0,0,0,2.06,2.06h6A2.06,2.06,0,0,0,26.46,44V41.49A2.06,2.06,0,0,0,24.4,39.43Zm0,4.67-6-.06V41.49a.06.06,0,0,1,.06-.06l6,.06Z"/>
<circle cx="8" cy="40.71" r="1.25"/>
<circle cx="56" cy="21.92" r="1.25"/>
</g>
</svg>