<?xml version="1.0" ?>
<!-- Uploaded to: SVG Repo, www.svgrepo.com, Generator: SVG Repo Mixer Tools -->
<svg width="800px" height="800px" viewBox="0 0 64 64" xmlns="http://www.w3.org/2000/svg">
<defs>
<style>.cls-1{fill:#748a95;}.cls-2{fill:#efc89d;}.cls-3{fill:#e5936b;}.cls-4{fill:#e17c46;}.cls-5{fill:#ebb87f;}.cls-6{fill:#252b48;}</style>
</defs>
<g data-name="Cabinet" id="Cabinet-11">
<path class="cls-1" d="M8,40.57V48a2.17,2.17,0,0,0,2.18,2.18c1.21,0,1.68-1.09,2.19-2.18l2.54-5.44-.56-6Z" id="path20636-3-6"/>
<path class="cls-1" d="M56,40.57V48a2.17,2.17,0,0,1-2.18,2.18c-1.21,0-1.68-1.09-2.19-2.18l-2.54-5.44,2.55-5.91Z" id="path20719-7-2"/>
<path class="cls-2" d="M10,13.81H54a2,2,0,0,1,2,2V42.57H8V15.81A2,2,0,0,1,10,13.81Z" id="rect9132-5"/>
<path class="cls-3" d="M11.38,31.66v7.52H34.7V31.66Z" id="path11878-3"/>
<path class="cls-3" d="M11.38,17.19v7.53H34.7V17.19Z" id="rect9947-5"/>
<path class="cls-3" d="M38.08,24.29h1.66A1.65,1.65,0,0,1,41.39,26v4.47a1.65,1.65,0,0,1-1.65,1.66H38.08Z" id="path30081-36-67"/>
<path class="cls-4" d="M31.82,31.66v7.52H34.7V31.66Z" id="path14396"/>
<path class="cls-4" d="M31.82,17.19v7.53H34.7V17.19Z" id="path14383"/>
<path class="cls-5" d="M50,13.81a2,2,0,0,1,2,2V42.57h4V15.81a2,2,0,0,0-2-2Z" id="path16094"/>
<path class="cls-6" d="M54,12.81H10a3,3,0,0,0-3,3V48a3.19,3.19,0,0,0,3.18,3.18c1.81,0,2.52-1.53,3-2.64l2.33-5h32.9l2.33,5c.52,1.11,1.23,2.64,3,2.64A3.19,3.19,0,0,0,57,48V15.81A3,3,0,0,0,54,12.81Zm1,3V41.57H39.08V33.08h.66a2.66,2.66,0,0,0,2.65-2.66V26a2.66,2.66,0,0,0-2.65-2.66h-.66V14.81H54A1,1,0,0,1,55,15.81ZM9,41.57V29.19H37.08V41.57ZM39.08,25.29h.66a.65.65,0,0,1,.65.66v4.47a.65.65,0,0,1-.65.66h-.66ZM10,14.81H37.08V27.19H9V15.81A1,1,0,0,1,10,14.81ZM11.41,47.7c-.53,1.14-.77,1.49-1.23,1.49A1.18,1.18,0,0,1,9,48V43.57h4.34Zm42.41,1.49c-.46,0-.7-.35-1.23-1.49l-1.93-4.13H55V48A1.18,1.18,0,0,1,53.82,49.19Z"/>
<path class="cls-6" d="M34.7,30.66H11.38a1,1,0,0,0-1,1v7.52a1,1,0,0,0,1,1H34.7a1,1,0,0,0,1-1V31.66A1,1,0,0,0,34.7,30.66Zm-1,7.52H12.38V32.66H33.7Z"/>
<path class="cls-6" d="M11.38,25.72H34.7a1,1,0,0,0,1-1V17.19a1,1,0,0,0-1-1H11.38a1,1,0,0,0-1,1v7.53A1,1,0,0,0,11.38,25.72Zm1-7.53H33.7v5.53H12.38Z"/>
<path class="cls-6" d="M25.71,20H20.37a1,1,0,0,0,0,2h5.34a1,1,0,0,0,0-2Z"/>
<path class="cls-6" d="M20.37,36.42h5.34a1,1,0,0,0,0-2H20.37a1,1,0,0,0,0,2Z"/>
</g>
</svg>