<?xml version="1.0" ?>
<!-- Uploaded to: SVG Repo, www.svgrepo.com, Generator: SVG Repo Mixer Tools -->
<svg width="800px" height="800px" viewBox="0 0 64 64" xmlns="http://www.w3.org/2000/svg">
<defs>
<style>.cls-1{fill:#748a95;}.cls-2{fill:#f0f4f7;}.cls-3{fill:#e5936b;}.cls-4{fill:#efc89d;}.cls-5{fill:#e17c46;}.cls-6{fill:#ebb87f;}.cls-7{fill:#e0e9ee;}.cls-8{fill:#617880;}.cls-9{fill:#252b48;}</style>
</defs>
<g data-name="Mirror" id="Mirror-2">
<path class="cls-1" d="M18.46,38.94V21.54a13.54,13.54,0,1,1,27.08,0v17.4L32,42.44Z" id="rect5546-1"/>
<path class="cls-2" d="M41.41,38.94V21.54a9.41,9.41,0,1,0-18.82,0v17.4L32,42.44Z" id="path5670-7"/>
<path class="cls-3" d="M13.09,43.28V40a1.07,1.07,0,0,1,1.07-1.07H49.84A1.07,1.07,0,0,1,50.91,40v3.27l-17.4,2.66Z" id="rect30191-6-3-3-3-3-7-7"/>
<path class="cls-1" d="M18.53,50l-2,4.29c-.4.86-.77,1.72-1.72,1.72a1.72,1.72,0,0,1-1.72-1.72V50l3.66-2.75Z" id="path20636-9-8-8-6-5-1"/>
<path class="cls-1" d="M45.47,50l2,4.29c.4.86.77,1.72,1.72,1.72a1.72,1.72,0,0,0,1.72-1.72V50l-3.55-3.36Z" id="path20719-22-9-8-2-9-1"/>
<path class="cls-4" d="M13.09,43.28H50.91V50H13.09Z" id="rect43007-8-8-5-2-5"/>
<path class="cls-5" d="M47.08,38.94A1.07,1.07,0,0,1,48.15,40v3.27h2.76V40a1.06,1.06,0,0,0-1.07-1.07Z" id="path45446-2-9"/>
<path class="cls-6" d="M48.15,43.28V50h2.76V43.28Z" id="path45448-8-7"/>
<path class="cls-7" d="M41.41,38.94V21.54A9.3,9.3,0,0,0,32,12.13a10.47,10.47,0,0,0-1.39.09,9.3,9.3,0,0,1,8,9.32v17.4Z" id="path260873"/>
<path class="cls-8" d="M45.54,38.94V21.54A13.51,13.51,0,0,0,32,8a12.44,12.44,0,0,0-1.37.07A13.5,13.5,0,0,1,42.8,21.54v17.4Z" id="path264172"/>
<path class="cls-9" d="M19,47.58h5.06a1,1,0,0,0,0-2H19a1,1,0,1,0,0,2Z"/>
<path class="cls-9" d="M39.92,47.58H45a1,1,0,1,0,0-2H39.92a1,1,0,0,0,0,2Z"/>
<path class="cls-9" d="M32,7A14.55,14.55,0,0,0,17.46,21.54v16.4h-3.3A2.07,2.07,0,0,0,12.09,40V54.28A2.72,2.72,0,0,0,14.81,57c1.56,0,2.17-1.33,2.58-2.21L19.17,51H44.83l1.78,3.8c.41.88,1,2.21,2.58,2.21a2.72,2.72,0,0,0,2.72-2.72V40a2.07,2.07,0,0,0-2.07-2.07h-3.3V21.54A14.55,14.55,0,0,0,32,7ZM19.46,21.54a12.54,12.54,0,1,1,25.08,0v16.4H42.41V21.54a10.41,10.41,0,1,0-20.82,0v16.4H19.46Zm4.13,16.4V21.54a8.41,8.41,0,1,1,16.82,0v16.4Zm26.32,6.34V49H33V44.28ZM31,49H14.09V44.28H31ZM15.58,54c-.39.84-.54,1-.77,1a.71.71,0,0,1-.72-.72V51H17Zm33.61,1c-.23,0-.38-.21-.77-1L47,51h2.87v3.29A.71.71,0,0,1,49.19,55Zm.72-15v2.27H14.09V40a.07.07,0,0,1,.07-.07H49.84A.07.07,0,0,1,49.91,40Z"/>
</g>
</svg>