<?xml version="1.0" ?>
<!-- Uploaded to: SVG Repo, www.svgrepo.com, Generator: SVG Repo Mixer Tools -->
<svg width="800px" height="800px" viewBox="0 0 64 64" xmlns="http://www.w3.org/2000/svg">
<defs>
<style>.cls-1{fill:#efc89d;}.cls-2{fill:#748a95;}.cls-3{fill:#ebb87f;}.cls-4{fill:#252b48;}</style>
</defs>
<g data-name="Cupboard" id="Cupboard-7">
<path class="cls-1" d="M14.05,8H50a2,2,0,0,1,2,2V54a2,2,0,0,1-2,2H14.05a2,2,0,0,1-2-2V10A2,2,0,0,1,14.05,8Z" id="path28941-1"/>
<path class="cls-2" d="M26.6,25.28a1.66,1.66,0,0,1,1.66,1.66v4.47a1.66,1.66,0,1,1-3.31,0V26.94A1.65,1.65,0,0,1,26.6,25.28Z" id="path28957-79"/>
<path class="cls-2" d="M37.4,25.28a1.66,1.66,0,0,0-1.66,1.66v4.47a1.66,1.66,0,1,0,3.31,0V26.94A1.65,1.65,0,0,0,37.4,25.28Z" id="path30081-2"/>
<path class="cls-3" d="M47,8a2,2,0,0,1,2,2V54a2,2,0,0,1-2,2h3a2,2,0,0,0,2-2V10a2,2,0,0,0-2-2Z" id="path38599-4"/>
<path class="cls-4" d="M14.05,57H50a3,3,0,0,0,3-3V10a3,3,0,0,0-3-3H14.05a3,3,0,0,0-3,3V54A3,3,0,0,0,14.05,57ZM51,10V54a1,1,0,0,1-1,1H33V9H50A1,1,0,0,1,51,10Zm-37.9,0a1,1,0,0,1,1-1H31V55H14.05a1,1,0,0,1-1-1Z"/>
<circle class="cls-4" cx="26.6" cy="37.47" r="1.25"/>
<circle class="cls-4" cx="16.73" cy="12.23" r="1.25"/>
<path class="cls-4" d="M26.6,34.07a2.66,2.66,0,0,0,2.66-2.66V26.94a2.66,2.66,0,1,0-5.31,0v4.47A2.66,2.66,0,0,0,26.6,34.07ZM26,26.94a.66.66,0,1,1,1.31,0v4.47a.66.66,0,1,1-1.31,0Z"/>
<circle class="cls-4" cx="16.73" cy="16.78" r="1.25"/>
<circle class="cls-4" cx="37.4" cy="37.47" r="1.25"/>
<path class="cls-4" d="M37.4,34.07a2.66,2.66,0,0,0,2.65-2.66V26.94a2.66,2.66,0,1,0-5.31,0v4.47A2.66,2.66,0,0,0,37.4,34.07Zm-.66-7.13a.66.66,0,1,1,1.31,0v4.47a.66.66,0,1,1-1.31,0Z"/>
<circle class="cls-4" cx="47.27" cy="12.23" r="1.25"/>
<circle class="cls-4" cx="47.27" cy="16.78" r="1.25"/>
</g>
</svg>