<?xml version="1.0" ?>
<!-- Uploaded to: SVG Repo, www.svgrepo.com, Generator: SVG Repo Mixer Tools -->
<svg width="800px" height="800px" viewBox="0 0 64 64" xmlns="http://www.w3.org/2000/svg">
<defs>
<style>.cls-1{fill:#e5936b;}.cls-2{fill:#748a95;}.cls-3{fill:#efc89d;}.cls-4{fill:#e0e9ee;}.cls-5{fill:#f0f4f7;}.cls-6{fill:#e17c46;}.cls-7{fill:#ebb87f;}.cls-8{fill:#d0e1e8;}.cls-9{fill:#252b48;}</style>
</defs>
<g data-name="Cabinet" id="Cabinet-6">
<path class="cls-1" d="M8,39.85V35.71a1.36,1.36,0,0,1,1.36-1.36H54.64A1.36,1.36,0,0,1,56,35.71v4.14L33.91,43.23Z" id="rect30191-6-3-3-3-3"/>
<path class="cls-2" d="M14.91,48.37l-2.54,5.45c-.51,1.09-1,2.18-2.19,2.18A2.17,2.17,0,0,1,8,53.82V48.37l4.65-3.49Z" id="path20636-9-8-8-6"/>
<path class="cls-2" d="M49.09,48.37l2.54,5.45c.51,1.09,1,2.18,2.19,2.18A2.17,2.17,0,0,0,56,53.82V48.37l-4.51-4.26Z" id="path20719-22-9-8-2"/>
<path class="cls-3" d="M8,39.85H56v8.52H8Z" id="rect43007-8-8-5"/>
<path class="cls-2" d="M19.07,29.36,18.36,32A1.87,1.87,0,0,0,22,33l1-3.6L21,27.52Z" id="path155490-91"/>
<path class="cls-2" d="M44.93,29.36,45.64,32A1.87,1.87,0,0,1,42,33l-1-3.6L43,27.52Z" id="path155483-27"/>
<path class="cls-4" d="M48.37,24.37,32,21.51,15.63,24.37v2.81a2.17,2.17,0,0,0,2.18,2.18H46.19a2.17,2.17,0,0,0,2.18-2.18Z" id="rect155298-0"/>
<path class="cls-5" d="M17.81,8a2.17,2.17,0,0,0-2.18,2.18V24.37H48.37V10.18A2.17,2.17,0,0,0,46.19,8Z" id="path53323"/>
<path class="cls-6" d="M51.13,34.35a1.36,1.36,0,0,1,1.36,1.36v4.14H56V35.71a1.36,1.36,0,0,0-1.36-1.36Z" id="path45446"/>
<path class="cls-7" d="M52.49,39.85v8.52H56V39.85Z" id="path45448"/>
<path class="cls-8" d="M45.57,24.37v2.81a2.17,2.17,0,0,1-2.18,2.18h2.8a2.17,2.17,0,0,0,2.18-2.18V24.37Z" id="path61850"/>
<path class="cls-4" d="M43.39,8a2.17,2.17,0,0,1,2.18,2.18V24.37h2.8V10.18A2.17,2.17,0,0,0,46.19,8Z" id="path61852"/>
<path class="cls-9" d="M54.64,33.35H46.56a2.79,2.79,0,0,0,0-1.62l-.37-1.38a3.17,3.17,0,0,0,3.14-3.17v-17A3.18,3.18,0,0,0,46.19,7H17.81a3.18,3.18,0,0,0-3.18,3.18v17a3.17,3.17,0,0,0,3.14,3.17l-.37,1.38a2.79,2.79,0,0,0,0,1.62H9.36A2.36,2.36,0,0,0,7,35.71V53.82A3.19,3.19,0,0,0,10.18,57c1.81,0,2.52-1.53,3-2.64l2.33-5h32.9l2.33,5C51.3,55.47,52,57,53.82,57A3.19,3.19,0,0,0,57,53.82V35.71A2.36,2.36,0,0,0,54.64,33.35ZM9,47.37V40.85H55v6.52Zm35.16-17,.51,1.89A.87.87,0,1,1,43,32.7l-.63-2.34ZM17.81,9H46.19a1.18,1.18,0,0,1,1.18,1.18V23.37H16.63V10.18A1.18,1.18,0,0,1,17.81,9ZM16.63,27.18V25.37H47.37v1.81a1.18,1.18,0,0,1-1.18,1.18H17.81A1.18,1.18,0,0,1,16.63,27.18Zm2.7,5.07.5-1.89h1.82L21,32.7a.88.88,0,0,1-1.07.62A.87.87,0,0,1,19.33,32.25Zm4.39-1.89H40.28c.36,1.31.68,2.57.82,3H22.9C23.05,32.89,23.44,31.37,23.72,30.36ZM9,35.71a.36.36,0,0,1,.36-.36H54.64a.36.36,0,0,1,.36.36v3.14H9Zm2.41,17.8c-.53,1.14-.77,1.49-1.23,1.49A1.18,1.18,0,0,1,9,53.82V49.37h4.34ZM53.82,55c-.46,0-.7-.35-1.23-1.49l-1.93-4.14H55v4.45A1.18,1.18,0,0,1,53.82,55Z"/>
<path class="cls-9" d="M24.92,43.11H12.51a1,1,0,1,0,0,2H24.92a1,1,0,0,0,0-2Z"/>
<path class="cls-9" d="M51.49,43.11H39.09a1,1,0,0,0,0,2h12.4a1,1,0,0,0,0-2Z"/>
<circle class="cls-9" cx="32" cy="44.11" r="1.25"/>
</g>
</svg>