<?xml version="1.0" ?>
<!-- Uploaded to: SVG Repo, www.svgrepo.com, Generator: SVG Repo Mixer Tools -->
<svg width="800px" height="800px" viewBox="0 0 64 64" xmlns="http://www.w3.org/2000/svg">
<defs>
<style>.cls-1{fill:#748a95;}.cls-2{fill:#d0e1e8;}.cls-3{fill:#617880;}.cls-4{fill:#efc89d;}.cls-5{fill:#e5936b;}.cls-6{fill:#ebb87f;}.cls-7{fill:#252b48;}</style>
</defs>
<g data-name="Cabinet" id="Cabinet-3">
<path class="cls-1" d="M10,11.24a2,2,0,0,0-2,2V23.43l23.4,2.89L56,23.43V13.24a2,2,0,0,0-2-2Z" id="path121751"/>
<path class="cls-2" d="M17.21,17.34a2,2,0,1,1-2-2A2,2,0,0,1,17.21,17.34Z" id="path184435-6"/>
<path class="cls-2" d="M50.78,17.34a2,2,0,1,1-2-2A2,2,0,0,1,50.78,17.34Z" id="path184540-9"/>
<path class="cls-3" d="M51,11.24a2,2,0,0,1,2,2V23.43h3V13.24a2,2,0,0,0-2-2Z" id="path121900"/>
<path class="cls-1" d="M14.91,45.13l-2.54,5.45c-.51,1.09-1,2.18-2.19,2.18A2.17,2.17,0,0,1,8,50.58V43.13l3.69-2.43Z" id="path20636-0-4-3"/>
<path class="cls-1" d="M49.09,45.13l2.54,5.45c.51,1.09,1,2.18,2.19,2.18A2.17,2.17,0,0,0,56,50.58V43.13l-4-3.07Z" id="path20719-2-6-2"/>
<path class="cls-4" d="M56,23.43H8v21.7H56Z" id="path13490-0-6"/>
<path class="cls-5" d="M29.58,28.35a1.92,1.92,0,0,0-1.93,1.92v8a1.92,1.92,0,0,0,1.93,1.92h4.84a1.92,1.92,0,0,0,1.93-1.92v-8a1.92,1.92,0,0,0-1.93-1.92Z" id="path183450-6"/>
<path class="cls-6" d="M56,23.43H53v21.7h3Z" id="path118612"/>
<path class="cls-7" d="M54,10.24H10a3,3,0,0,0-3,3V50.58a3.19,3.19,0,0,0,3.18,3.18c1.81,0,2.52-1.53,3-2.64l2.33-5h32.9l2.33,5c.52,1.11,1.23,2.64,3,2.64A3.19,3.19,0,0,0,57,50.58V13.24A3,3,0,0,0,54,10.24ZM33,44.13V41.21h1.42a2.93,2.93,0,0,0,2.93-2.92v-8a2.93,2.93,0,0,0-2.93-2.92H33V24.43H55v19.7Zm-24,0V24.43H31v2.92H29.58a2.93,2.93,0,0,0-2.93,2.92v8a2.93,2.93,0,0,0,2.93,2.92H31v2.92Zm22-4.92H29.58a.93.93,0,0,1-.93-.92v-8a.93.93,0,0,1,.93-.92H31Zm2-9.86h1.42a.93.93,0,0,1,.93.92v8a.93.93,0,0,1-.93.92H33ZM10,12.24H54a1,1,0,0,1,1,1v9.19H9V13.24A1,1,0,0,1,10,12.24Zm1.41,38c-.53,1.14-.77,1.49-1.23,1.49A1.18,1.18,0,0,1,9,50.58V46.13h4.34Zm42.41,1.49c-.46,0-.7-.35-1.23-1.49l-1.93-4.14H55v4.45A1.18,1.18,0,0,1,53.82,51.76Z"/>
<path class="cls-7" d="M22.06,18.34H41.94a1,1,0,0,0,0-2H22.06a1,1,0,0,0,0,2Z"/>
<path class="cls-7" d="M15.22,20.33a3,3,0,1,0-3-3A3,3,0,0,0,15.22,20.33Zm0-4a1,1,0,1,1-1,1A1,1,0,0,1,15.22,16.34Z"/>
<path class="cls-7" d="M48.78,20.33a3,3,0,1,0-3-3A3,3,0,0,0,48.78,20.33Zm0-4a1,1,0,1,1,0,2,1,1,0,0,1,0-2Z"/>
</g>
</svg>