<?xml version="1.0" ?>
<!-- Uploaded to: SVG Repo, www.svgrepo.com, Generator: SVG Repo Mixer Tools -->
<svg width="800px" height="800px" viewBox="0 0 64 64" xmlns="http://www.w3.org/2000/svg">
<defs>
<style>.cls-1{fill:#92d39d;}.cls-2{fill:#aaddb4;}.cls-3{fill:#f0f4f7;}.cls-4{fill:#e0e9ee;}.cls-5{fill:#748a95;}.cls-6{fill:#e5936b;}.cls-7{fill:#efc89d;}.cls-8{fill:#94d8e5;}.cls-9{fill:#f6e782;}.cls-10{fill:#ebb87f;}.cls-11{fill:#e17c46;}.cls-12{fill:#617880;}.cls-13{fill:#252b48;}</style>
</defs>
<g data-name="Table" id="Table-2">
<path class="cls-1" d="M36.52,15a2.81,2.81,0,0,0,.71-.82c.79-1.36,1.34-4.86,0-5.64-1-.55-2.47.39-3.33,1.09H30.12c-.86-.7-2.38-1.64-3.33-1.09-1.36.78-.81,4.28,0,5.64a2.81,2.81,0,0,0,.71.82l3,2.47Z" id="path37794-0-4-1-7-0-9"/>
<path class="cls-2" d="M30.09,15a2.84,2.84,0,0,1-.93-2.1C29.16,11.31,30.43,8,32,8s2.84,3.31,2.84,4.88a2.84,2.84,0,0,1-.93,2.1l-1.17,1.69Z" id="path37442-2-5-4-1-6-3"/>
<path class="cls-3" d="M25.4,15H38.6l-2,10L32.15,26.8,27.38,25Z" id="rect36788-9-2-9-1-8-9"/>
<path class="cls-4" d="M35.37,15l-2,10h3.24l2-10Z" id="path117262-2-5-9-0"/>
<path class="cls-5" d="M15.89,35.17A6.14,6.14,0,0,0,16,37.05a4.47,4.47,0,0,1-.27,2.82,7.46,7.46,0,0,0-.94,3.66c0,2.81,1.48,4.69,1.83,5.76a1.49,1.49,0,0,1,0,1.24,6.46,6.46,0,0,1-2.08,2.26,1.79,1.79,0,1,0,2.18,2.84,9.4,9.4,0,0,0,3.21-3.73,5.44,5.44,0,0,0,.1-3.7c-.66-2.06-1.66-3.26-1.66-4.67a4.71,4.71,0,0,1,1.84-3.47A6.57,6.57,0,0,1,23.85,39h16.3a6.57,6.57,0,0,1,3.69,1.11,4.71,4.71,0,0,1,1.84,3.47c0,1.41-1,2.61-1.66,4.67a5.44,5.44,0,0,0,.1,3.7,9.44,9.44,0,0,0,3.2,3.73,1.79,1.79,0,1,0,2.19-2.84,6.46,6.46,0,0,1-2.08-2.26,1.49,1.49,0,0,1,0-1.24c.35-1.08,1.83-2.95,1.83-5.76a7.46,7.46,0,0,0-.94-3.66,4.81,4.81,0,0,1-.24-2.79,13.14,13.14,0,0,0,0-1.91l-16.7-2.66Z" id="rect27374-3-9"/>
<path class="cls-6" d="M12.79,31v2.11a2.1,2.1,0,0,0,2.11,2.11H49.1a2.1,2.1,0,0,0,2.11-2.11V31L32.09,27.07Z" id="path38864-5"/>
<path class="cls-7" d="M11,31a3,3,0,0,1,0-6H53a3,3,0,0,1,0,6Z" id="rect99147-9-6-61"/>
<path class="cls-8" d="M15.87,25H48.13L34,35.17a3.36,3.36,0,0,1-4,0Z" id="rect38303-4"/>
<path class="cls-9" d="M22.44,25H41.56L32,31.86Z" id="path38949-9"/>
<path class="cls-10" d="M48.94,25a3,3,0,0,1,0,6H53a3,3,0,0,0,0-6Z" id="path300995"/>
<path class="cls-11" d="M46.79,31v2.11a2.1,2.1,0,0,1-2.11,2.11H49.1a2.1,2.1,0,0,0,2.11-2.11V31Z" id="path303322"/>
<path class="cls-12" d="M45.63,35.17a14.87,14.87,0,0,1,0,1.91,4.73,4.73,0,0,0,.24,2.79,7.49,7.49,0,0,1,.94,3.66c0,2.81-1.49,4.68-1.83,5.76a1.49,1.49,0,0,0,0,1.24A6.35,6.35,0,0,0,47,52.79a1.79,1.79,0,0,1,.32,2.51,1.9,1.9,0,0,1-.19.21l.15.12a1.79,1.79,0,1,0,2.19-2.84,6.46,6.46,0,0,1-2.08-2.26,1.49,1.49,0,0,1,0-1.24c.35-1.08,1.83-2.95,1.83-5.76a7.49,7.49,0,0,0-.94-3.66,4.81,4.81,0,0,1-.24-2.79,13.14,13.14,0,0,0,0-1.91ZM21.37,39a6.56,6.56,0,0,0-3.68,1.11,4.68,4.68,0,0,0-1.84,3.47c0,1.41,1,2.61,1.66,4.68a5.41,5.41,0,0,1-.1,3.69,9.42,9.42,0,0,1-3.05,3.61,1.8,1.8,0,0,0,2.32.12,9.44,9.44,0,0,0,3.2-3.73,5.41,5.41,0,0,0,.1-3.69c-.66-2.07-1.66-3.27-1.66-4.68a4.71,4.71,0,0,1,1.84-3.47A6.57,6.57,0,0,1,23.85,39Z" id="path309916"/>
<path class="cls-13" d="M53,24H37.83l1.75-8.78a1,1,0,0,0-.2-.83A1,1,0,0,0,38.6,14h-.18c.72-1.82,1.18-5.23-.71-6.32-1.12-.64-2.48-.14-3.57.54A2.83,2.83,0,0,0,32,7a2.79,2.79,0,0,0-2.14,1.2c-1.1-.67-2.46-1.18-3.57-.55-1.89,1.09-1.43,4.49-.71,6.32H25.4a1,1,0,0,0-.78.37,1,1,0,0,0-.2.83L26.17,24H11a4,4,0,0,0,0,8h.79v1.11a3.12,3.12,0,0,0,3.07,3.11A5.34,5.34,0,0,0,15,37.25a3.41,3.41,0,0,1-.17,2.13,8.57,8.57,0,0,0-1.06,4.15,11,11,0,0,0,1.45,5.15,7.82,7.82,0,0,1,.42.92c.12.35.12.35,0,.55A5.38,5.38,0,0,1,13.88,52a2.79,2.79,0,0,0,1.34,5l.37,0a2.8,2.8,0,0,0,1.7-.58,10.42,10.42,0,0,0,3.51-4.14,6.41,6.41,0,0,0,.13-4.38A17.54,17.54,0,0,0,20,45.64a5.54,5.54,0,0,1-.69-2.11,3.63,3.63,0,0,1,1.49-2.71,5.75,5.75,0,0,1,3-.87h16.3a5.75,5.75,0,0,1,3,.87,3.63,3.63,0,0,1,1.49,2.71A5.54,5.54,0,0,1,44,45.64a17.54,17.54,0,0,0-.92,2.26,6.35,6.35,0,0,0,.13,4.38,10.42,10.42,0,0,0,3.51,4.14,2.84,2.84,0,0,0,2.07.56,2.8,2.8,0,0,0,1.34-5,5.41,5.41,0,0,1-1.76-1.84c-.09-.2-.09-.2,0-.55a7.14,7.14,0,0,1,.42-.92,11,11,0,0,0,1.45-5.15,8.57,8.57,0,0,0-1.06-4.15,3.77,3.77,0,0,1-.13-2.16,6.16,6.16,0,0,0,0-1,3.11,3.11,0,0,0,3.09-3.11V32H53a4,4,0,0,0,0-8ZM36.71,9.38c.16.09.38.63.32,1.68A5.19,5.19,0,0,1,36.1,14h-.44a3.66,3.66,0,0,0,.18-1.09,8.42,8.42,0,0,0-.7-3C35.49,9.7,36.4,9.21,36.71,9.38ZM32,9c.62,0,1.84,2.35,1.84,3.88A1.79,1.79,0,0,1,33.47,14H30.53a1.79,1.79,0,0,1-.37-1.09C30.16,11.35,31.38,9,32,9Zm-4.72.38c.32-.17,1.23.32,1.58.54a8.51,8.51,0,0,0-.7,3A4,4,0,0,0,28.34,14h-.43C26.85,12.84,26.73,9.7,27.28,9.38ZM26.62,16H37.38L35.8,24H28.2ZM38.47,26,32,30.63,25.53,26ZM22.12,26l9.29,6.72a1,1,0,0,0,1.18,0L41.88,26H45L33.4,34.36a2.37,2.37,0,0,1-2.8,0L19,26ZM9,28a2,2,0,0,1,2-2h4.55l5.54,4H11A2,2,0,0,1,9,28Zm4.79,5.11V32H23.85l3.07,2.22h-12A1.11,1.11,0,0,1,13.79,33.06ZM48.9,53.58a.76.76,0,0,1,.3.52.79.79,0,0,1-.16.59.72.72,0,0,1-.52.3.79.79,0,0,1-.59-.16A8.65,8.65,0,0,1,45,51.52a4.49,4.49,0,0,1-.07-3,16.42,16.42,0,0,1,.83-2,7,7,0,0,0,.88-2.95,5.6,5.6,0,0,0-2.19-4.22A7.47,7.47,0,0,0,40.15,38H23.85a7.49,7.49,0,0,0-4.34,1.36,5.6,5.6,0,0,0-2.19,4.22,7,7,0,0,0,.88,2.95,19,19,0,0,1,.83,2,4.49,4.49,0,0,1-.07,3,8.73,8.73,0,0,1-2.89,3.32.82.82,0,0,1-.59.15.72.72,0,0,1-.52-.3.79.79,0,0,1-.16-.59.76.76,0,0,1,.3-.52,7.35,7.35,0,0,0,2.39-2.67,2.42,2.42,0,0,0,0-1.92A8.76,8.76,0,0,0,17,47.78a9,9,0,0,1-1.23-4.25,6.51,6.51,0,0,1,.81-3.18,5.35,5.35,0,0,0,.38-3.51,3.45,3.45,0,0,1-.07-.67H29.74a4.31,4.31,0,0,0,4.52,0H47.12a3.81,3.81,0,0,1,0,.77,5.63,5.63,0,0,0,.36,3.41,6.51,6.51,0,0,1,.81,3.18A8.91,8.91,0,0,1,47,47.78,9.94,9.94,0,0,0,46.48,49a2.42,2.42,0,0,0,0,1.92A7.35,7.35,0,0,0,48.9,53.58Zm1.31-20.52a1.11,1.11,0,0,1-1.11,1.11h-12L40.15,32H50.21ZM53,30H42.91l5.54-4H53a2,2,0,0,1,0,4Z"/>
</g>
</svg>