<?xml version="1.0" ?>
<!-- Uploaded to: SVG Repo, www.svgrepo.com, Generator: SVG Repo Mixer Tools -->
<svg width="800px" height="800px" viewBox="0 0 64 64" xmlns="http://www.w3.org/2000/svg">
<defs>
<style>.cls-1{fill:#efc89d;}.cls-2{fill:#ebb87f;}.cls-3{fill:#617880;}.cls-4{fill:#e5936b;}.cls-5{fill:#748a95;}.cls-6{fill:#f0f4f7;}.cls-7{fill:#e0e9ee;}.cls-8{fill:#252b48;}</style>
</defs>
<g id="Cupboard">
<path class="cls-1" d="M8,35.27v14a2,2,0,0,0,2,2H54a2,2,0,0,0,2-2v-14L55.07,32,56,28.73v-14a2,2,0,0,0-2-2H10a2,2,0,0,0-2,2v14L8.93,32Z" id="rect102148-9"/>
<path class="cls-2" d="M50.37,12.72a2,2,0,0,1,2,2V49.28a2,2,0,0,1-2,2H54a2,2,0,0,0,2-2v-14L55.07,32,56,28.73v-14a2,2,0,0,0-2-2Z" id="path98131"/>
<path class="cls-3" d="M23.58,36V51.28H40.42V36L32,34.66Z" id="path102627-3"/>
<path class="cls-4" d="M8,28.73h2a1.59,1.59,0,0,1,1.59,1.6v3.34A1.59,1.59,0,0,1,10,35.27H8Z" id="path203405-2-1"/>
<path class="cls-4" d="M56,28.73H54a1.59,1.59,0,0,0-1.59,1.6v3.34A1.59,1.59,0,0,0,54,35.27h2Z" id="path103998-2"/>
<path class="cls-5" d="M23.58,12.72V36H40.42V12.72Z" id="rect102455-7"/>
<path class="cls-6" d="M27,16.16V32.61H37V16.16Z" id="rect102753-6"/>
<path class="cls-7" d="M34.18,16.16V32.61H37V16.16Z" id="path100810"/>
<path class="cls-8" d="M54,11.72H10a3,3,0,0,0-3,3V49.28a3,3,0,0,0,3,3H54a3,3,0,0,0,3-3V14.72A3,3,0,0,0,54,11.72Zm1,22.55H54a.59.59,0,0,1-.59-.6V30.33a.59.59,0,0,1,.59-.6h1ZM24.58,37H39.42v5.62H24.58ZM39.42,13.72V35H24.58V13.72ZM9,29.73h1a.59.59,0,0,1,.59.6v3.34a.59.59,0,0,1-.59.6H9ZM9,49.28v-13h1a2.59,2.59,0,0,0,2.59-2.6V30.33A2.6,2.6,0,0,0,10,27.73H9v-13a1,1,0,0,1,1-1H22.58V50.28H10A1,1,0,0,1,9,49.28Zm15.58,1V44.66H39.42v5.62Zm29.42,0H41.42V13.72H54a1,1,0,0,1,1,1v13H54a2.6,2.6,0,0,0-2.59,2.6v3.34A2.59,2.59,0,0,0,54,36.27h1v13A1,1,0,0,1,54,50.28Z"/>
<path class="cls-8" d="M27,33.61H37a1,1,0,0,0,1-1V16.16a1,1,0,0,0-1-1H27a1,1,0,0,0-1,1V32.61A1,1,0,0,0,27,33.61Zm1-16.45h8V31.61H28Z"/>
<path class="cls-8" d="M33.81,38.85H30.59a1,1,0,1,0,0,2h3.22a1,1,0,0,0,0-2Z"/>
<path class="cls-8" d="M33.81,46.47H30.59a1,1,0,0,0,0,2h3.22a1,1,0,0,0,0-2Z"/>
<circle class="cls-8" cx="19.83" cy="16.29" r="1.25"/>
<circle class="cls-8" cx="19.83" cy="20.83" r="1.25"/>
<circle class="cls-8" cx="44.18" cy="16.29" r="1.25"/>
<circle class="cls-8" cx="44.18" cy="20.83" r="1.25"/>
</g>
</svg>