<?xml version="1.0" ?>
<!-- Uploaded to: SVG Repo, www.svgrepo.com, Generator: SVG Repo Mixer Tools -->
<svg width="800px" height="800px" viewBox="0 0 64 64" xmlns="http://www.w3.org/2000/svg">
<defs>
<style>.cls-1{fill:#617880;}.cls-2{fill:#748a95;}.cls-3{fill:#f0f4f7;}.cls-4{fill:#e0e9ee;}.cls-5{fill:#252b48;}</style>
</defs>
<g id="Mirror">
<path class="cls-1" d="M18.88,24.67l-.71,1.61.71,1.6h2.88l.71-1.6-.71-1.61Z" id="rect37984-8"/>
<path class="cls-1" d="M42.24,24.67h2.88l.73,1.61-.73,1.6H42.24l-.73-1.6Z" id="path38382-6"/>
<path class="cls-2" d="M17.09,16.89a1.78,1.78,0,0,0-1.79,1.78V54.19A1.66,1.66,0,0,0,17,55.85c.92,0,1.27-.83,1.66-1.66l1.93-4.14h22.9l1.93,4.14c.39.83.74,1.66,1.66,1.66a1.66,1.66,0,0,0,1.66-1.66V18.67a1.79,1.79,0,0,0-3.58,0v27.8H18.88V18.67A1.78,1.78,0,0,0,17.09,16.89Z" id="path41472-0"/>
<path class="cls-2" d="M32,8.15A10.22,10.22,0,0,0,21.76,18.39V33.25a10.24,10.24,0,0,0,20.48,0V18.39A10.22,10.22,0,0,0,32,8.15Z" id="rect37604-7"/>
<path class="cls-3" d="M32,11.32a7,7,0,0,0-7.07,7.07V33.26a7.07,7.07,0,0,0,14.14,0V18.39A7,7,0,0,0,32,11.32Z" id="path41763-1"/>
<path class="cls-1" d="M46.91,16.89a1.78,1.78,0,0,0-.8.19,1.78,1.78,0,0,1,1,1.59V54.19a1.66,1.66,0,0,1-.79,1.41,1.2,1.2,0,0,0,.74.25,1.66,1.66,0,0,0,1.66-1.66V18.67A1.78,1.78,0,0,0,46.91,16.89Z" id="path209890"/>
<path class="cls-4" d="M32,11.32a7.77,7.77,0,0,0-1.09.08,7,7,0,0,1,6,7V33.26a7,7,0,0,1-6,7,6.51,6.51,0,0,0,1.09.08,7,7,0,0,0,7.07-7.06V18.39A7,7,0,0,0,32,11.32Z" id="path222895"/>
<path class="cls-5" d="M46.91,15.88a2.79,2.79,0,0,0-2.79,2.79v5h-.88V18.39a11.24,11.24,0,0,0-22.48,0v5.28h-.88v-5a2.79,2.79,0,1,0-5.58,0V54.19A2.66,2.66,0,0,0,17,56.85c1.53,0,2.13-1.3,2.57-2.24l1.66-3.56H42.81l1.7,3.65c.4.85,1,2.15,2.53,2.15a2.66,2.66,0,0,0,2.66-2.66V18.67A2.79,2.79,0,0,0,46.91,15.88Zm-27,13h.88v4.37a11.24,11.24,0,0,0,22.48,0V28.88h.88V45.47H19.88Zm24.24-3.21v1.21h-.88V25.67ZM32,9.15a9.25,9.25,0,0,1,9.24,9.24V33.25a9.24,9.24,0,0,1-18.48,0V27.89h0V24.67h0V18.39A9.25,9.25,0,0,1,32,9.15ZM20.76,25.67v1.21h-.88V25.67Zm-4.46-7a.79.79,0,0,1,.79-.79.8.8,0,0,1,.79.79v27.8a1,1,0,0,0,1,1H45.12a1,1,0,0,0,1-1V18.67a.79.79,0,0,1,1.58,0V49.05H16.3Zm1.37,35.18c-.36.79-.51,1-.71,1a.65.65,0,0,1-.66-.66V51.05H19Zm29.37,1c-.2,0-.35-.21-.76-1.09L45,51.05H47.7v3.14A.65.65,0,0,1,47,54.85Z"/>
<path class="cls-5" d="M32,41.32a8,8,0,0,0,8.07-8.07V18.39a8.07,8.07,0,0,0-16.14,0V33.25A8,8,0,0,0,32,41.32ZM25.93,18.39a6.07,6.07,0,0,1,12.14,0V33.25a6.07,6.07,0,0,1-12.14,0Z"/>
</g>
</svg>