<?xml version="1.0" ?>
<!-- Uploaded to: SVG Repo, www.svgrepo.com, Generator: SVG Repo Mixer Tools -->
<svg width="800px" height="800px" viewBox="0 0 64 64" xmlns="http://www.w3.org/2000/svg">
<defs>
<style>.cls-1{fill:#748a95;}.cls-2{fill:#efc89d;}.cls-3{fill:#ebb87f;}.cls-4{fill:#e5936b;}.cls-5{fill:#252b48;}</style>
</defs>
<g data-name="Cabinet" id="Cabinet-7">
<path class="cls-1" d="M8,40.61v7.44a2.17,2.17,0,0,0,2.18,2.18c1.21,0,1.68-1.09,2.19-2.18l2.54-5.44-.56-6Z" id="path20636-3-6-2-1"/>
<path class="cls-1" d="M56,40.61v7.44a2.17,2.17,0,0,1-2.18,2.18c-1.21,0-1.68-1.09-2.19-2.18l-2.54-5.44,2.55-5.91Z" id="path20719-7-2-8-9"/>
<path class="cls-2" d="M10,13.85H54a2,2,0,0,1,2,2V42.61H8V15.85A2,2,0,0,1,10,13.85Z" id="rect9132-5-9-4"/>
<path class="cls-3" d="M50,13.85a2,2,0,0,1,2,2V42.61h4V15.85a2,2,0,0,0-2-2Z" id="path16094-9-0"/>
<path class="cls-4" d="M32,32h1.66a1.65,1.65,0,0,0,1.65-1.66V25.91a1.65,1.65,0,0,0-1.65-1.66H30.34a1.65,1.65,0,0,0-1.65,1.66v4.47A1.65,1.65,0,0,0,30.34,32Z" id="path25006-7"/>
<path class="cls-5" d="M54,12.77H10a3,3,0,0,0-3,3V48a3.19,3.19,0,0,0,3.18,3.18c1.81,0,2.52-1.53,3-2.65l2.33-5h32.9l2.33,5c.52,1.12,1.23,2.65,3,2.65A3.19,3.19,0,0,0,57,48V15.77A3,3,0,0,0,54,12.77ZM41.58,41.52V33.94H55v7.58Zm0-17.17H55v7.59H41.58ZM55,15.77v6.58H41.58V14.77H54A1,1,0,0,1,55,15.77ZM31,31h-.66a.64.64,0,0,1-.65-.66V25.91a.64.64,0,0,1,.65-.66H31Zm2-5.79h.66a.64.64,0,0,1,.65.66v4.47a.64.64,0,0,1-.65.66H33ZM9,41.52V33.94H22.42v7.58Zm13.42-9.58H9V24.35H22.42ZM10,14.77H22.42v7.58H9V15.77A1,1,0,0,1,10,14.77Zm1.41,32.89c-.53,1.14-.77,1.49-1.23,1.49A1.18,1.18,0,0,1,9,48V43.52h4.34Zm13-32.89H31v8.48h-.66a2.66,2.66,0,0,0-2.65,2.66v4.47A2.66,2.66,0,0,0,30.34,33H31v8.48H24.42ZM33,41.52V33h.66a2.66,2.66,0,0,0,2.65-2.66V25.91a2.66,2.66,0,0,0-2.65-2.66H33V14.77h6.58V41.52Zm20.82,7.63c-.46,0-.7-.35-1.23-1.49l-1.93-4.14H55V48A1.18,1.18,0,0,1,53.82,49.15Z"/>
<path class="cls-5" d="M14.16,19.56h3.1a1,1,0,0,0,0-2h-3.1a1,1,0,0,0,0,2Z"/>
<path class="cls-5" d="M17.26,36.73h-3.1a1,1,0,0,0,0,2h3.1a1,1,0,0,0,0-2Z"/>
<path class="cls-5" d="M14.16,29.15h3.1a1,1,0,0,0,0-2h-3.1a1,1,0,0,0,0,2Z"/>
<path class="cls-5" d="M46.74,19.56h3.1a1,1,0,0,0,0-2h-3.1a1,1,0,0,0,0,2Z"/>
<path class="cls-5" d="M49.84,36.73h-3.1a1,1,0,0,0,0,2h3.1a1,1,0,0,0,0-2Z"/>
<path class="cls-5" d="M49.84,27.15h-3.1a1,1,0,0,0,0,2h3.1a1,1,0,0,0,0-2Z"/>
</g>
</svg>