<?xml version="1.0" ?>
<!-- Uploaded to: SVG Repo, www.svgrepo.com, Generator: SVG Repo Mixer Tools -->
<svg width="800px" height="800px" viewBox="0 0 64 64" xmlns="http://www.w3.org/2000/svg">
<defs>
<style>.cls-1{fill:#92d39d;}.cls-2{fill:#aaddb4;}.cls-3{fill:#f0f4f7;}.cls-4{fill:#e0e9ee;}.cls-5{fill:#e5936b;}.cls-6{fill:#748a95;}.cls-7{fill:#efc89d;}.cls-8{fill:#e17c46;}.cls-9{fill:#ebb87f;}.cls-10{fill:#252b48;}</style>
</defs>
<g data-name="Cabinet" id="Cabinet-5">
<path class="cls-1" d="M36.6,19.65a2.75,2.75,0,0,0,.72-.83c.8-1.38,1.36-4.94,0-5.74a1.36,1.36,0,0,0-.73-.17,5.11,5.11,0,0,0-2.66,1.28H30.09c-.88-.71-2.43-1.67-3.39-1.11-1.38.8-.82,4.36,0,5.74a2.75,2.75,0,0,0,.72.83l3.08,2.52Z" id="path37794-0-4-1-7-9"/>
<path class="cls-2" d="M30.06,19.65a2.89,2.89,0,0,1-.95-2.14c0-1.59,1.3-5,2.89-5s2.89,3.37,2.89,5a2.89,2.89,0,0,1-1,2.14l-1.19,1.72Z" id="path37442-2-5-4-1-7"/>
<path class="cls-3" d="M25.28,19.65H38.72l-2,10.15-4.55,1.87L27.31,29.8Z" id="rect36788-9-2-9-1-3"/>
<path class="cls-4" d="M35.42,19.65l-2,10.15h3.28l2-10.15Z" id="path117262-2-5-6"/>
<path class="cls-5" d="M8,35.3V31.16A1.36,1.36,0,0,1,9.36,29.8H54.64A1.36,1.36,0,0,1,56,31.16V35.3L33.91,38.68Z" id="rect30191-6-3-3-3-3-7"/>
<path class="cls-6" d="M14.91,43.82l-2.54,5.44c-.51,1.1-1,2.19-2.19,2.19A2.18,2.18,0,0,1,8,49.26V43.82l4.65-3.49Z" id="path20636-9-8-8-6-5"/>
<path class="cls-6" d="M49.09,43.82l2.54,5.44c.51,1.1,1,2.19,2.19,2.19A2.18,2.18,0,0,0,56,49.26V43.82l-4.51-4.26Z" id="path20719-22-9-8-2-9"/>
<path class="cls-7" d="M8,35.3H56v8.52H8Z" id="rect43007-8-8-5-2"/>
<path class="cls-8" d="M51.13,29.8a1.36,1.36,0,0,1,1.36,1.36V35.3H56V31.16a1.36,1.36,0,0,0-1.36-1.36Z" id="path45446-2"/>
<path class="cls-9" d="M52.49,35.3v8.52H56V35.3Z" id="path45448-8"/>
<path class="cls-10" d="M54.64,28.8H37.91l1.79-9a1,1,0,0,0-1-1.19h-.21c.73-1.85,1.21-5.33-.71-6.44a2.42,2.42,0,0,0-1.26-.3,5.11,5.11,0,0,0-2.37.86A2.84,2.84,0,0,0,32,11.55a2.81,2.81,0,0,0-2.17,1.23c-1.11-.69-2.51-1.21-3.63-.57-1.92,1.11-1.44,4.59-.71,6.44h-.21a1,1,0,0,0-1,1.19l1.79,9H9.36A2.36,2.36,0,0,0,7,31.16v18.1a3.19,3.19,0,0,0,3.18,3.19c1.81,0,2.52-1.53,3-2.65l2.33-5h32.9l2.33,5c.52,1.12,1.23,2.65,3,2.65A3.19,3.19,0,0,0,57,49.26V31.16A2.36,2.36,0,0,0,54.64,28.8ZM33,42.82V36.3H55v6.52Zm-24,0V36.3H31v6.52ZM36.8,13.94c.57.33.47,3.54-.63,4.71H35.7a4,4,0,0,0,.19-1.14,8.8,8.8,0,0,0-.71-3C35.54,14.27,36.47,13.76,36.8,13.94ZM32,13.55c.63,0,1.89,2.41,1.89,4a1.89,1.89,0,0,1-.39,1.14h-3a1.87,1.87,0,0,1-.39-1.14C30.11,16,31.37,13.55,32,13.55Zm-4.8.4c.32-.19,1.3.35,1.62.56a8.75,8.75,0,0,0-.71,3,4,4,0,0,0,.19,1.14h-.47C26.74,17.49,26.62,14.28,27.2,14Zm-.7,6.7h11L35.88,28.8H28.12ZM9,31.16a.35.35,0,0,1,.36-.36H54.64a.35.35,0,0,1,.36.36V34.3H9ZM11.41,49c-.53,1.13-.77,1.49-1.23,1.49A1.18,1.18,0,0,1,9,49.26V44.82h4.34Zm42.41,1.49c-.46,0-.7-.36-1.23-1.49l-1.93-4.14H55v4.44A1.18,1.18,0,0,1,53.82,50.45Z"/>
<path class="cls-10" d="M21.94,38.49H15.53a1,1,0,0,0,0,2h6.41a1,1,0,1,0,0-2Z"/>
<path class="cls-10" d="M48.47,38.49H42.06a1,1,0,0,0,0,2h6.41a1,1,0,0,0,0-2Z"/>
</g>
</svg>