<?xml version="1.0" ?>
<!-- Uploaded to: SVG Repo, www.svgrepo.com, Generator: SVG Repo Mixer Tools -->
<svg width="800px" height="800px" viewBox="0 0 64 64" xmlns="http://www.w3.org/2000/svg">
<defs>
<style>.cls-1{fill:#f0f4f7;}.cls-2{fill:#748a95;}.cls-3{fill:#617880;}.cls-4{fill:#e0e9ee;}.cls-5{fill:#d0e1e8;}.cls-6{fill:#252b48;}</style>
</defs>
<g data-name="Bar Chair" id="Bar_Chair-2">
<path class="cls-1" d="M30.28,52.46V24.3L32,23l1.72,1.31V52.46L32,53.77Z" id="path111226-8"/>
<path class="cls-2" d="M24.89,39.4H39.11a1.82,1.82,0,0,1,0,3.63H24.89a1.82,1.82,0,0,1,0-3.63Z" id="path10371-3"/>
<path class="cls-2" d="M21.9,52.45a1.78,1.78,0,0,0,0,3.55H42.1a1.78,1.78,0,0,0,0-3.55Z" id="rect110442-0"/>
<path class="cls-3" d="M34.78,39.4a1.82,1.82,0,1,1,0,3.63h4.33a1.82,1.82,0,0,0,0-3.63Z" id="path167561"/>
<path class="cls-3" d="M37.77,52.45a1.78,1.78,0,1,1,0,3.55H42.1a1.78,1.78,0,0,0,0-3.55Z" id="path167563"/>
<path class="cls-4" d="M24.46,13.93,24,11.12A2.91,2.91,0,0,1,26.68,8H37.32a2.91,2.91,0,0,1,2.73,3.12l-.51,2.81L32,15.2Z" id="path12091-4"/>
<path class="cls-5" d="M27.1,20.78v1.76a1.76,1.76,0,0,0,1.76,1.76h6.65a1.75,1.75,0,0,0,1.76-1.76V20.78l-5.08-1.59Z" id="rect18738-5"/>
<path class="cls-1" d="M24.81,13.93H39.19a3,3,0,0,1,3,3V19a1.75,1.75,0,0,1-1.75,1.76H23.57A1.75,1.75,0,0,1,21.82,19V16.93A3,3,0,0,1,24.81,13.93Z" id="rect11411-7"/>
<path class="cls-4" d="M36.62,13.93a3,3,0,0,1,3,3V19a1.76,1.76,0,0,1-1.76,1.76h2.57A1.75,1.75,0,0,0,42.18,19V16.93a3,3,0,0,0-3-3Z" id="path188862"/>
<path class="cls-5" d="M39.54,13.93l.5-2.81A2.9,2.9,0,0,0,37.32,8h-3a2.9,2.9,0,0,1,2.73,3.12l-.51,2.81Z" id="path192883"/>
<path class="cls-6" d="M42.1,51.46H34.72V44h4.39a2.82,2.82,0,0,0,0-5.63H34.72V25.3h.79a2.77,2.77,0,0,0,2.76-2.76v-.76h2.16A2.76,2.76,0,0,0,43.18,19v-2.1a4,4,0,0,0-2.5-3.69L41,11.29a3.55,3.55,0,0,0-.85-2.86A3.82,3.82,0,0,0,37.32,7H26.68a3.78,3.78,0,0,0-2.85,1.43A3.52,3.52,0,0,0,23,11.29l.35,1.94a4,4,0,0,0-2.5,3.69V19a2.76,2.76,0,0,0,2.75,2.76H26.1v.76a2.77,2.77,0,0,0,2.76,2.76h.42V38.4H24.89a2.82,2.82,0,0,0,0,5.63h4.39v7.43H21.9a2.77,2.77,0,0,0,0,5.54H42.1a2.77,2.77,0,0,0,0-5.54ZM25.36,9.71A1.83,1.83,0,0,1,26.68,9H37.32a1.83,1.83,0,0,1,1.32.71,1.56,1.56,0,0,1,.42,1.23l-.35,2H25.29l-.35-2A1.56,1.56,0,0,1,25.36,9.71ZM22.82,19v-2.1a2,2,0,0,1,2-2H39.19a2,2,0,0,1,2,2V19a.76.76,0,0,1-.75.76H23.57A.76.76,0,0,1,22.82,19Zm5.28,3.52v-.76h8.17v.76a.75.75,0,0,1-.76.76H28.86A.75.75,0,0,1,28.1,22.54Zm3.18,2.76h1.44V38.4H31.28Zm-7.2,15.91a.8.8,0,0,1,.81-.81H39.11a.8.8,0,0,1,.81.81.81.81,0,0,1-.81.82H24.89A.81.81,0,0,1,24.08,41.21ZM31.28,44h1.44v7.43H31.28ZM42.1,55H21.9a.77.77,0,1,1,0-1.54H42.1a.77.77,0,0,1,0,1.54Z"/>
</g>
</svg>