<?xml version="1.0" ?>
<!-- Uploaded to: SVG Repo, www.svgrepo.com, Generator: SVG Repo Mixer Tools -->
<svg width="800px" height="800px" viewBox="0 0 64 64" xmlns="http://www.w3.org/2000/svg">
<defs>
<style>.cls-1{fill:#92d39d;}.cls-2{fill:#aaddb4;}.cls-3{fill:#f0f4f7;}.cls-4{fill:#e0e9ee;}.cls-5{fill:#e5936b;}.cls-6{fill:#e17c46;}.cls-7{fill:#efc89d;}.cls-8{fill:#748a95;}.cls-9{fill:#617880;}.cls-10{fill:#ebb87f;}.cls-11{fill:#252b48;}</style>
</defs>
<g data-name="Table" id="Table-3">
<path class="cls-1" d="M36.6,16.65a2.75,2.75,0,0,0,.72-.83c.8-1.38,1.36-4.94,0-5.74a1.36,1.36,0,0,0-.73-.16,5.08,5.08,0,0,0-2.66,1.27H30.09a4.87,4.87,0,0,0-2.76-1.27,1.34,1.34,0,0,0-.63.16c-1.38.8-.82,4.36,0,5.74a2.75,2.75,0,0,0,.72.83l3.08,2.52Z" id="path37794-0-4-1-7-0"/>
<path class="cls-2" d="M30.06,16.65a2.87,2.87,0,0,1-.95-2.13c0-1.6,1.29-5,2.89-5s2.89,3.36,2.89,5a2.87,2.87,0,0,1-1,2.13l-1.19,1.72Z" id="path37442-2-5-4-1-6"/>
<path class="cls-3" d="M25.28,16.65H38.72l-2,10.15-4.54,1.88L27.3,26.8Z" id="rect36788-9-2-9-1-8"/>
<path class="cls-4" d="M35.42,16.65l-2,10.15h3.29l2-10.15Z" id="path117262-2-5-9"/>
<path class="cls-5" d="M40.69,50.36H23.31l-3.92-6.94,2.17-14.16H42.13L45,38.55Z" id="path187176-3"/>
<path class="cls-6" d="M36.62,32.31v18h4.07L45,38.55l-1.94-6.24Z" id="path158984"/>
<path class="cls-7" d="M9.36,26.8H54.64A1.36,1.36,0,0,1,56,28.16V31a1.36,1.36,0,0,1-1.36,1.36H9.36A1.36,1.36,0,0,1,8,31V28.16A1.36,1.36,0,0,1,9.36,26.8Z" id="rect30191-6-3-1-2-7-0"/>
<path class="cls-8" d="M23.31,32.31V52.44a2,2,0,0,1-2,2H11.36a2,2,0,0,1-2-2V32.31Z" id="rect54285-7-6"/>
<path class="cls-9" d="M13.07,32.31v2a1.59,1.59,0,0,0,1.59,1.6H18a1.6,1.6,0,0,0,1.6-1.6v-2Z" id="path16336-0-4-0-0-8-1"/>
<path class="cls-9" d="M13.07,39.76v2a1.59,1.59,0,0,0,1.59,1.59H18a1.6,1.6,0,0,0,1.6-1.59v-2Z" id="path55575-1-5"/>
<path class="cls-8" d="M54.64,32.31V52.44a2,2,0,0,1-2,2h-10a2,2,0,0,1-2-2V32.31Z" id="path55977-93-5"/>
<path class="cls-9" d="M44.39,32.31v2a1.6,1.6,0,0,0,1.6,1.6h3.34a1.59,1.59,0,0,0,1.6-1.6v-2Z" id="path55983-1-4"/>
<path class="cls-9" d="M44.39,39.76v2A1.6,1.6,0,0,0,46,43.37h3.34a1.59,1.59,0,0,0,1.6-1.59v-2Z" id="path55985-0-7"/>
<path class="cls-10" d="M50.64,26.8A1.36,1.36,0,0,1,52,28.16V31a1.36,1.36,0,0,1-1.36,1.36h4A1.36,1.36,0,0,0,56,31V28.16a1.36,1.36,0,0,0-1.36-1.36Z" id="path156527"/>
<path class="cls-11" d="M54.64,25.8H37.91l1.79-8.95a1,1,0,0,0-.21-.83,1,1,0,0,0-.77-.37h-.21a9.57,9.57,0,0,0,.62-2.86c.1-1.78-.36-3-1.33-3.57a2.15,2.15,0,0,0-1.26-.3,5,5,0,0,0-2.37.86A2.84,2.84,0,0,0,32,8.56a2.84,2.84,0,0,0-2.17,1.22c-1.11-.7-2.51-1.21-3.63-.56-1,.56-1.43,1.79-1.33,3.57a9.57,9.57,0,0,0,.62,2.86h-.21a1,1,0,0,0-.77.37,1,1,0,0,0-.21.83l1.79,9H9.36A2.36,2.36,0,0,0,7,28.16V31a2.36,2.36,0,0,0,1.36,2.13V52.44a3,3,0,0,0,3,3h10a3,3,0,0,0,3-3V51.36H39.69v1.08a3,3,0,0,0,3,3h10a3,3,0,0,0,3-3V33.08A2.36,2.36,0,0,0,57,31V28.16A2.36,2.36,0,0,0,54.64,25.8ZM36.8,11c.16.09.39.64.33,1.73a5.25,5.25,0,0,1-1,3H35.7a3.88,3.88,0,0,0,.19-1.13,8.8,8.8,0,0,0-.71-3C35.55,11.26,36.48,10.76,36.8,11ZM32,10.56c.63,0,1.89,2.4,1.89,4a1.84,1.84,0,0,1-.39,1.13h-3a1.84,1.84,0,0,1-.39-1.13C30.11,13,31.37,10.56,32,10.56Zm-5.13,2.12C26.81,11.59,27,11,27.2,11s1.21.29,1.62.56a8.8,8.8,0,0,0-.71,3,3.88,3.88,0,0,0,.19,1.13h-.47A5.28,5.28,0,0,1,26.87,12.68Zm-.37,5h11L35.87,25.8H28.12ZM9,28.16a.36.36,0,0,1,.36-.36H54.64a.36.36,0,0,1,.36.36V31a.36.36,0,0,1-.36.36H9.36A.36.36,0,0,1,9,31ZM53.64,38.68h-12V33.31h1.7v1a2.61,2.61,0,0,0,2.6,2.6h3.34a2.6,2.6,0,0,0,2.6-2.6v-1h1.71Zm-8.25,2h4.54v1.1a.59.59,0,0,1-.6.59H46a.59.59,0,0,1-.6-.59Zm-31.32,0h4.54v1.1a.59.59,0,0,1-.6.59H14.66a.58.58,0,0,1-.59-.59Zm-3.71-2V33.31h1.71v1a2.6,2.6,0,0,0,2.59,2.6H18a2.61,2.61,0,0,0,2.6-2.6v-1h1.7v5.37Zm8.25-5.37v1a.6.6,0,0,1-.6.6H14.66a.59.59,0,0,1-.59-.6v-1Zm5.7,0H39.69v2.76H24.31Zm25.62,0v1a.59.59,0,0,1-.6.6H46a.6.6,0,0,1-.6-.6v-1ZM22.31,52.44a1,1,0,0,1-1,1H11.36a1,1,0,0,1-1-1V40.68h1.71v1.1a2.59,2.59,0,0,0,2.59,2.59H18a2.6,2.6,0,0,0,2.6-2.59v-1.1h1.7Zm2-3.08V38.07H39.69V49.36Zm28.33,4.08h-10a1,1,0,0,1-1-1V40.68h1.7v1.1A2.6,2.6,0,0,0,46,44.37h3.34a2.59,2.59,0,0,0,2.6-2.59v-1.1h1.71V52.44A1,1,0,0,1,52.64,53.44Z"/>
</g>
</svg>