<?xml version="1.0" ?>
<!-- Uploaded to: SVG Repo, www.svgrepo.com, Generator: SVG Repo Mixer Tools -->
<svg width="800px" height="800px" viewBox="0 0 64 64" xmlns="http://www.w3.org/2000/svg">
<defs>
<style>.cls-1{fill:#92d39d;}.cls-2{fill:#aaddb4;}.cls-3{fill:#f0f4f7;}.cls-4{fill:#e0e9ee;}.cls-5{fill:#748a95;}.cls-6{fill:#617880;}.cls-7{fill:#e5936b;}.cls-8{fill:#efc89d;}.cls-9{fill:#94d8e5;}.cls-10{fill:#f6e782;}.cls-11{fill:#ebb87f;}.cls-12{fill:#e17c46;}.cls-13{fill:#252b48;}</style>
</defs>
<g id="Table">
<path class="cls-1" d="M36.52,15.66a2.81,2.81,0,0,0,.71-.82c.79-1.36,1.34-4.86,0-5.65-1-.54-2.48.4-3.33,1.1H30.12c-.87-.71-2.37-1.64-3.33-1.1-1.36.79-.81,4.29,0,5.65a2.81,2.81,0,0,0,.71.82l3,2.47Z" id="path37794-0-4-1-7-3-3"/>
<path class="cls-2" d="M30.09,15.66a2.84,2.84,0,0,1-.93-2.11c0-1.56,1.27-4.87,2.84-4.87s2.84,3.31,2.84,4.87a2.84,2.84,0,0,1-.93,2.11l-1.17,1.69Z" id="path37442-2-5-4-1-1-2"/>
<path class="cls-3" d="M25.4,15.65H38.6l-2,10-4.47,1.85-4.77-1.85Z" id="rect36788-9-2-9-1-9-0"/>
<path class="cls-4" d="M35.37,15.65l-2,10h3.24l2-10Z" id="path117262-2-5-4-6"/>
<path class="cls-5" d="M17.6,35.85,8.3,52a2.24,2.24,0,0,0,3.88,2.24l10.6-18.35L20.19,34Z" id="path59829-6"/>
<path class="cls-5" d="M46.4,35.85,55.7,52a2.24,2.24,0,1,1-3.88,2.24L41.22,35.85,43.81,34Z" id="path59836-2"/>
<path class="cls-6" d="M20.19,34,17.6,35.85l-2.25,3.91h5.17l2.26-3.91Zm23.62,0-2.59,1.88,2.26,3.91h5.17L46.4,35.85Z" id="rect14337"/>
<path class="cls-7" d="M12.79,31.63v2.11a2.1,2.1,0,0,0,2.11,2.11H49.1a2.1,2.1,0,0,0,2.11-2.11V31.63L32.09,27.75Z" id="path38864-5-3"/>
<path class="cls-8" d="M11,31.63a3,3,0,1,1,0-6H53a3,3,0,0,1,0,6Z" id="rect99147-9-6-61-6"/>
<path class="cls-9" d="M15.87,25.63H48.13L34,35.85a3.36,3.36,0,0,1-4,0Z" id="rect38303-4-7"/>
<path class="cls-10" d="M22.44,25.63H41.56L32,32.54Z" id="path38949-9-5"/>
<path class="cls-11" d="M48.94,25.63a3,3,0,0,1,0,6H53a3,3,0,0,0,0-6Z" id="path300995-3"/>
<path class="cls-12" d="M46.79,31.63v2.11a2.1,2.1,0,0,1-2.11,2.11H49.1a2.1,2.1,0,0,0,2.11-2.11V31.63Z" id="path303322-5"/>
<path class="cls-13" d="M53,24.63H37.83l1.75-8.78a1,1,0,0,0-.2-.83,1,1,0,0,0-.78-.37h-.18A9.41,9.41,0,0,0,39,11.86c.1-1.76-.36-3-1.32-3.53-1.12-.64-2.48-.14-3.57.54A2.83,2.83,0,0,0,32,7.68a2.79,2.79,0,0,0-2.14,1.2c-1.09-.67-2.47-1.19-3.57-.55S24.87,10.1,25,11.86a9.41,9.41,0,0,0,.61,2.79H25.4a1,1,0,0,0-.78.37,1,1,0,0,0-.2.83l1.74,8.78H11a4,4,0,1,0,0,8h.79v1.11a3.11,3.11,0,0,0,3.11,3.11h1L7.44,51.46a3.24,3.24,0,1,0,5.61,3.24l10.3-17.85h6.39a4.31,4.31,0,0,0,4.52,0h6.39L51,54.7a3.24,3.24,0,1,0,5.61-3.24L48.13,36.85h1a3.11,3.11,0,0,0,3.11-3.11V32.63H53a4,4,0,0,0,0-8ZM36.71,10.06c.16.09.38.63.32,1.68a5.21,5.21,0,0,1-.93,2.91h-.44a4,4,0,0,0,.18-1.1,8.47,8.47,0,0,0-.7-3C35.49,10.38,36.4,9.89,36.71,10.06ZM32,9.68c.62,0,1.84,2.35,1.84,3.87a1.8,1.8,0,0,1-.37,1.1H30.53a1.8,1.8,0,0,1-.37-1.1C30.16,12,31.38,9.68,32,9.68Zm-5,2.06c-.06-1.05.16-1.59.32-1.68.32-.18,1.21.3,1.57.54a8.47,8.47,0,0,0-.7,3,4,4,0,0,0,.18,1.1h-.43A5.12,5.12,0,0,1,27,11.74Zm-.35,4.91H37.38l-1.58,8H28.2Zm11.85,10L32,31.3l-6.47-4.67ZM9,28.63a2,2,0,0,1,2-2h4.55l5.54,4H11A2,2,0,0,1,9,28.63Zm4.79,5.11V32.63H23.85l3.07,2.22h-12A1.11,1.11,0,0,1,13.79,33.74Zm-2.47,20a1.24,1.24,0,0,1-2.15-1.24l9-15.61H21ZM30.6,35,19,26.63h3.16l9.29,6.72a1,1,0,0,0,1.18,0l9.29-6.72H45L33.4,35A2.4,2.4,0,0,1,30.6,35ZM54.83,52.46a1.22,1.22,0,0,1-.45,1.69,1.24,1.24,0,0,1-1.7-.45L43,36.85h2.86ZM50.21,33.74a1.11,1.11,0,0,1-1.11,1.11h-12l3.07-2.22H50.21ZM53,30.63H42.91l5.54-4H53a2,2,0,0,1,0,4Z"/>
</g>
</svg>