<?xml version="1.0" ?>
<!-- Uploaded to: SVG Repo, www.svgrepo.com, Generator: SVG Repo Mixer Tools -->
<svg width="800px" height="800px" viewBox="0 0 64 64" xmlns="http://www.w3.org/2000/svg">
<defs>
<style>.cls-1{fill:#92d39d;}.cls-2{fill:#aaddb4;}.cls-3{fill:#f0f4f7;}.cls-4{fill:#e0e9ee;}.cls-5{fill:#748a95;}.cls-6{fill:#617880;}.cls-7{fill:#efc89d;}.cls-8{fill:#ebb87f;}.cls-9{fill:#252b48;}</style>
</defs>
<g data-name="Table" id="Table-13">
<path class="cls-1" d="M36.11,15.2a2.69,2.69,0,0,0,.64-.74c.71-1.24,1.22-4.41,0-5.12a1.18,1.18,0,0,0-.65-.15,4.44,4.44,0,0,0-2.37,1.14H30.29a4.25,4.25,0,0,0-2.46-1.14,1.09,1.09,0,0,0-.56.15c-1.23.71-.73,3.88,0,5.12a2.69,2.69,0,0,0,.64.74l2.75,2.25Z" id="path37794-0-4"/>
<path class="cls-2" d="M30.27,15.2a2.57,2.57,0,0,1-.85-1.91c0-1.42,1.16-4.42,2.58-4.42s2.58,3,2.58,4.42a2.57,2.57,0,0,1-.85,1.91l-1.06,1.53Z" id="path37442-2-5"/>
<path class="cls-3" d="M26,15.2H38l-1.8,9.06-4,1.67-4.33-1.67Z" id="rect36788-9-2"/>
<path class="cls-4" d="M35.06,15.2l-1.81,9.06h2.94L38,15.2Z" id="path117262"/>
<path class="cls-5" d="M46.79,32.87l5.59,20.87a1.87,1.87,0,1,0,3.62-1l-5.33-19.9-1.94-1.44Z" id="path32739-6"/>
<path class="cls-5" d="M13.33,32.87,8,52.77a1.87,1.87,0,1,0,3.62,1l5.59-20.87-1.94-1.44Z" id="path32735-9"/>
<path class="cls-6" d="M15.27,31.43l-1.94,1.44-1.09,4.07h3.88l1.09-4.07Zm33.46,0-1.94,1.44,1.09,4.07h3.88l-1.09-4.07Z" id="rect124229"/>
<rect class="cls-7" height="8.61" id="rect30191-65" rx="1.36" width="48" x="8" y="24.26"/>
<path class="cls-8" d="M50.64,24.26A1.36,1.36,0,0,1,52,25.62v5.89a1.36,1.36,0,0,1-1.36,1.36h4A1.36,1.36,0,0,0,56,31.51V25.62a1.36,1.36,0,0,0-1.36-1.36Z" id="rect108980"/>
<path class="cls-9" d="M23.15,27.56h-6.3a1,1,0,0,0,0,2h6.3a1,1,0,0,0,0-2Z"/>
<path class="cls-9" d="M40.85,29.56h6.3a1,1,0,0,0,0-2h-6.3a1,1,0,0,0,0,2Z"/>
<path class="cls-9" d="M52,33.87h2.67A2.36,2.36,0,0,0,57,31.51V25.62a2.36,2.36,0,0,0-2.36-2.36H37.41L39,15.39a1,1,0,0,0-.21-.83A1,1,0,0,0,38,14.2h0a8.67,8.67,0,0,0,.51-2.44c.09-1.63-.33-2.77-1.24-3.29a2.15,2.15,0,0,0-1.18-.28A4.41,4.41,0,0,0,34,8.92a2.59,2.59,0,0,0-2-1h0a2.6,2.6,0,0,0-2,1.06,3.25,3.25,0,0,0-3.27-.46c-.91.52-1.33,1.66-1.24,3.29A8.67,8.67,0,0,0,26,14.2h0a1,1,0,0,0-.78.36,1,1,0,0,0-.21.83l1.57,7.87H9.36A2.36,2.36,0,0,0,7,25.62v5.89a2.36,2.36,0,0,0,2.36,2.36H12L7,52.51a2.88,2.88,0,0,0,2,3.52,2.64,2.64,0,0,0,.74.1A2.88,2.88,0,0,0,12.59,54L18,33.87H46L51.41,54a2.88,2.88,0,0,0,2.78,2.13,2.76,2.76,0,0,0,.75-.1,2.88,2.88,0,0,0,2-3.52Zm3-8.25v5.89a.36.36,0,0,1-.36.36H33V25.26H54.64A.36.36,0,0,1,55,25.62ZM36.23,10.2c.09.05.3.48.24,1.44A5.94,5.94,0,0,1,35.89,14a2.41,2.41,0,0,1-.21.24h-.23a4,4,0,0,0,.13-.91A7.34,7.34,0,0,0,35,10.66C35.25,10.48,36,10.09,36.23,10.2ZM32,9.87c.37,0,1.58,1.87,1.58,3.42a1.64,1.64,0,0,1-.29.91H30.71a1.54,1.54,0,0,1-.29-.91C30.42,11.93,31.54,9.87,32,9.87ZM28.12,14a5.75,5.75,0,0,1-.59-2.32c-.06-1,.15-1.39.33-1.45a2.67,2.67,0,0,1,1.18.46,7.63,7.63,0,0,0-.62,2.64,4,4,0,0,0,.13.91h-.23A1.5,1.5,0,0,1,28.12,14Zm-.9,2.24h9.56l-1.41,7.06H28.63ZM9,31.51V25.62a.36.36,0,0,1,.36-.36H31v6.61H9.36A.36.36,0,0,1,9,31.51Zm1.66,22a.88.88,0,0,1-1.08.61A.87.87,0,0,1,9,53L14.1,33.87h1.81Zm43.76.61a.88.88,0,0,1-1.08-.61L48.09,33.87H49.9L55,53A.87.87,0,0,1,54.42,54.1Z"/>
</g>
</svg>