<?xml version="1.0" ?><!-- Uploaded to: SVG Repo, www.svgrepo.com, Generator: SVG Repo Mixer Tools -->
<svg width="800px" height="800px" viewBox="0 0 64 64" id="Bookshelf" xmlns="http://www.w3.org/2000/svg"><defs><style>.cls-1{fill:#ebb87f;}.cls-2{fill:#748a95;}.cls-3{fill:#617880;}.cls-4{fill:#f6e782;}.cls-5{fill:#f5d96d;}.cls-6{fill:#f0f4f7;}.cls-7{fill:#e0e9ee;}.cls-8{fill:#94d8e5;}.cls-9{fill:#7bd1e0;}.cls-10{fill:#252b48;}</style></defs><path class="cls-1" d="M17.38,46.78l-1.93,4.14c-.39.83-.75,1.66-1.67,1.66a1.66,1.66,0,0,1-1.66-1.66V46.78L14.75,45Z" id="path63459-6-2-4"/><path class="cls-1" d="M46.62,46.78l1.93,4.14c.39.83.75,1.66,1.67,1.66a1.66,1.66,0,0,0,1.66-1.66V46.78L49.25,45Z" id="path41111-9-3"/><path class="cls-2" d="M9.79,39.91H54.21A1.79,1.79,0,0,1,56,41.7V45a1.78,1.78,0,0,1-1.79,1.79H9.79A1.78,1.78,0,0,1,8,45V41.7A1.79,1.79,0,0,1,9.79,39.91Z" id="rect45377-4"/><path class="cls-3" d="M51.06,39.91a1.79,1.79,0,0,1,1.79,1.79V45a1.78,1.78,0,0,1-1.79,1.79h3.15A1.78,1.78,0,0,0,56,45V41.7a1.79,1.79,0,0,0-1.79-1.79Z" id="path233876"/><path class="cls-4" d="M10.45,35.6v2.53a1.77,1.77,0,0,0,1.78,1.78h5.66a1.78,1.78,0,0,0,1.79-1.78V35.6L17,26l2.69-9.62V13.85a1.79,1.79,0,0,0-1.79-1.79H12.23a1.78,1.78,0,0,0-1.78,1.79v2.52L13.14,26Z" id="rect45633-9"/><path class="cls-5" d="M15.73,12.06a1.79,1.79,0,0,1,1.79,1.79v2.52L14.83,26l2.69,9.61v2.53a1.78,1.78,0,0,1-1.79,1.78h2.16a1.78,1.78,0,0,0,1.79-1.78V35.6L17,26l2.69-9.62V13.85a1.79,1.79,0,0,0-1.79-1.79Z" id="path238447"/><path class="cls-6" d="M19.68,35.6H10.45V16.37h9.23Z" id="rect45773-2"/><path class="cls-7" d="M17.52,16.37V35.6h2.16V16.37Z" id="path238449"/><path class="cls-8" d="M19.68,35.6v2.53a1.78,1.78,0,0,0,1.79,1.78h5.66a1.78,1.78,0,0,0,1.79-1.78V35.6L26.23,26l2.69-9.62V13.85a1.79,1.79,0,0,0-1.79-1.79H21.47a1.79,1.79,0,0,0-1.79,1.79v2.52L22.37,26Z" id="path247214"/><path class="cls-9" d="M25,12.06a1.78,1.78,0,0,1,1.78,1.79v2.52L24.06,26l2.69,9.61v2.53A1.77,1.77,0,0,1,25,39.91h2.16a1.78,1.78,0,0,0,1.79-1.78V35.6L26.23,26l2.69-9.62V13.85a1.79,1.79,0,0,0-1.79-1.79Z" id="path247216"/><path class="cls-6" d="M28.92,35.6H19.68V16.37h9.24Z" id="path247218"/><path class="cls-7" d="M26.75,16.37V35.6h2.17V16.37Z" id="path247220"/><path class="cls-4" d="M28.92,35.6v2.53a1.77,1.77,0,0,0,1.79,1.78h5.66a1.77,1.77,0,0,0,1.78-1.78V35.6L35.46,26l2.69-9.62V13.85a1.78,1.78,0,0,0-1.78-1.79H30.71a1.78,1.78,0,0,0-1.79,1.79v2.52L31.61,26Z" id="path256810"/><path class="cls-5" d="M34.2,12.06A1.79,1.79,0,0,1,36,13.85v2.52L33.3,26,36,35.6v2.53a1.78,1.78,0,0,1-1.79,1.78h2.17a1.77,1.77,0,0,0,1.78-1.78V35.6L35.46,26l2.69-9.62V13.85a1.78,1.78,0,0,0-1.78-1.79Z" id="path256812"/><path class="cls-6" d="M38.15,35.6H28.92V16.37h9.23Z" id="path256814"/><path class="cls-7" d="M36,16.37V35.6h2.16V16.37Z" id="path256816"/><path class="cls-8" d="M43.85,36.15l.65,2.44a1.78,1.78,0,0,0,2.19,1.26l5.47-1.46a1.78,1.78,0,0,0,1.26-2.19l-.65-2.44-5.09-8.59.11-10-.65-2.44A1.79,1.79,0,0,0,45,11.48l-5.47,1.46a1.78,1.78,0,0,0-1.26,2.19l.65,2.44L44,26.16Z" id="path247214-6"/><path class="cls-9" d="M42.86,12a1.79,1.79,0,0,1,2.19,1.26l.65,2.44-.11,10,5.09,8.59.65,2.44A1.78,1.78,0,0,1,50.07,39l2.09-.56a1.78,1.78,0,0,0,1.26-2.19l-.65-2.44-5.09-8.59.11-10-.65-2.44A1.79,1.79,0,0,0,45,11.48Z" id="path247216-6"/><path class="cls-6" d="M52.77,33.76l-8.92,2.39-5-18.58,8.92-2.39Z" id="path247218-4"/><path class="cls-7" d="M45.7,15.74l5,18.58,2.09-.56-5-18.58Z" id="path247220-9"/><circle class="cls-10" cx="15.06" cy="30.59" r="1.25"/><circle class="cls-10" cx="15.06" cy="25.99" r="1.25"/><circle class="cls-10" cx="15.06" cy="21.39" r="1.25"/><path class="cls-10" d="M54.21,38.92h-.88a2.92,2.92,0,0,0,.78-.86,2.81,2.81,0,0,0,.28-2.12c0-.1-6.72-25.08-6.29-23.45a2.78,2.78,0,0,0-3.41-2L39.22,12a3.13,3.13,0,0,0-.6.24,2.76,2.76,0,0,0-2.25-1.16H30.71a2.74,2.74,0,0,0-1.79.66,2.78,2.78,0,0,0-1.79-.66H21.47a2.78,2.78,0,0,0-1.79.66,2.74,2.74,0,0,0-1.79-.66H12.23a2.79,2.79,0,0,0-2.78,2.79V38.13a2.75,2.75,0,0,0,.13.81A2.78,2.78,0,0,0,7,41.7V45a2.79,2.79,0,0,0,2.79,2.78h1.33v3.14a2.67,2.67,0,0,0,2.67,2.66c1.52,0,2.12-1.29,2.56-2.24L18,47.78H46l1.7,3.65c.4.86,1,2.15,2.52,2.15a2.67,2.67,0,0,0,2.67-2.66V47.78h1.33A2.79,2.79,0,0,0,57,45V41.7A2.79,2.79,0,0,0,54.21,38.92Zm-2.66-5.87-7,1.88L40.09,18.28l7-1.87Zm.91,3.41a.78.78,0,0,1-.56,1l-5.47,1.47a.77.77,0,0,1-1-.56l-.4-1.47,7-1.87ZM37.15,34.6H29.92V17.37h7.23Zm-9.23,0H20.68V17.37h7.24Zm-9.24,0H11.45V17.37h7.23Zm-7.23,3.53V36.6h7.23v1.53a.78.78,0,0,1-.79.79H12.23A.78.78,0,0,1,11.45,38.13Zm9.23,0V36.6h7.24v1.53a.79.79,0,0,1-.79.79H21.47A.79.79,0,0,1,20.68,38.13Zm9.24,0V36.6h7.23v1.53a.78.78,0,0,1-.78.79H30.71A.78.78,0,0,1,29.92,38.13Zm9.23,0V22.5C44,40.56,43.46,38.58,43.56,38.92H39A3,3,0,0,0,39.15,38.13Zm.11-23.85a.79.79,0,0,1,.48-.37h0l5.47-1.46a.64.64,0,0,1,.2,0,.78.78,0,0,1,.76.58l.4,1.47-7,1.88-.4-1.47A.83.83,0,0,1,39.26,14.28Zm-8.55-1.22h5.66a.77.77,0,0,1,.78.79v1.52H29.92V13.85A.79.79,0,0,1,30.71,13.06Zm-9.24,0h5.66a.78.78,0,0,1,.79.79v1.52H20.68V13.85A.79.79,0,0,1,21.47,13.06Zm-9.24,0h5.66a.79.79,0,0,1,.79.79v1.52H11.45V13.85A.77.77,0,0,1,12.23,13.06ZM14.5,50.59c-.37.79-.52,1-.71,1a.66.66,0,0,1-.67-.66V47.78h2.69Zm36.38.33a.66.66,0,0,1-.67.66c-.19,0-.34-.2-.75-1.08l-1.27-2.72h2.69ZM55,45a.78.78,0,0,1-.79.78H9.79A.78.78,0,0,1,9,45V41.7a.78.78,0,0,1,.79-.78H54.21a.78.78,0,0,1,.79.78Z"/><circle class="cls-10" cx="24.3" cy="30.59" r="1.25"/><circle class="cls-10" cx="24.3" cy="25.99" r="1.25"/><circle class="cls-10" cx="24.3" cy="21.39" r="1.25"/><circle class="cls-10" cx="33.54" cy="30.59" r="1.25"/><circle class="cls-10" cx="33.54" cy="25.99" r="1.25"/><circle class="cls-10" cx="33.54" cy="21.39" r="1.25"/><path class="cls-10" d="M46.69,28.9a1.25,1.25,0,1,0,.64,2.42h0a1.25,1.25,0,0,0-.64-2.42Z"/><path class="cls-10" d="M44.61,26h0a1.25,1.25,0,1,0,.89-1.53A1.25,1.25,0,0,0,44.61,26Z"/><path class="cls-10" d="M43.42,21.55a1.25,1.25,0,0,0,1.53.88h0a1.25,1.25,0,0,0,.89-1.53h0a1.25,1.25,0,0,0-2.42.65Z"/></svg>