<?xml version="1.0" ?>
<!-- Uploaded to: SVG Repo, www.svgrepo.com, Generator: SVG Repo Mixer Tools -->
<svg width="800px" height="800px" viewBox="0 0 64 64" xmlns="http://www.w3.org/2000/svg">
<defs>
<style>.cls-1{fill:#748a95;}.cls-2{fill:#617880;}.cls-3{fill:#f0f4f7;}.cls-4{fill:#d0e1e8;}.cls-5{fill:#e0e9ee;}.cls-6{fill:#252b48;}</style>
</defs>
<g data-name="Cabinet" id="Cabinet-2">
<path class="cls-1" d="M8,18V13.9a1.36,1.36,0,0,1,1.36-1.36H54.64A1.36,1.36,0,0,1,56,13.9V18L33.93,21.12Z" id="rect30191-6-3-3-1-61"/>
<path class="cls-2" d="M52,12.54a1.36,1.36,0,0,1,1.36,1.36v4.5L56,18V13.9a1.36,1.36,0,0,0-1.36-1.36Z" id="path227362"/>
<path class="cls-1" d="M14.91,43.84l-2.54,5.44c-.51,1.1-1,2.18-2.19,2.18A2.17,2.17,0,0,1,8,49.28V41.84l3.69-2.43Z" id="path20636-0-4-3-4"/>
<path class="cls-1" d="M49.09,43.84l2.54,5.44c.51,1.1,1,2.18,2.19,2.18A2.17,2.17,0,0,0,56,49.28V41.84l-4-3.08Z" id="path20719-2-6-2-9"/>
<path class="cls-3" d="M56,27.67V18H8v25.8H56V34.21l-1.31-3.27Z" id="rect43007-8-1-0"/>
<path class="cls-4" d="M24,27.67H22a1.59,1.59,0,0,0-1.59,1.6v3.34A1.59,1.59,0,0,0,22,34.21h2Z" id="path55985-0-4-4"/>
<path class="cls-4" d="M40,27.67H38a1.59,1.59,0,0,0-1.59,1.6v3.34A1.59,1.59,0,0,0,38,34.21h2Z" id="path203405-7"/>
<path class="cls-5" d="M53.39,18v25.8H56V18Z" id="path221666"/>
<path class="cls-4" d="M56,27.67H54a1.59,1.59,0,0,0-1.59,1.6v3.34A1.59,1.59,0,0,0,54,34.21h2Z" id="path203407-4"/>
<path class="cls-6" d="M54.64,11.54H9.36A2.36,2.36,0,0,0,7,13.9V49.28a3.18,3.18,0,0,0,3.18,3.18c1.81,0,2.52-1.53,3-2.64l2.33-5h32.9l2.33,5c.52,1.11,1.23,2.64,3,2.64A3.18,3.18,0,0,0,57,49.28V13.9A2.36,2.36,0,0,0,54.64,11.54ZM41,42.84V19H55v7.63H54a2.59,2.59,0,0,0-2.59,2.6v3.34A2.6,2.6,0,0,0,54,35.21h1v7.63Zm-32,0V19H23v7.63H22a2.59,2.59,0,0,0-2.59,2.6v3.34A2.6,2.6,0,0,0,22,35.21h1v7.63Zm14-9.63H22a.59.59,0,0,1-.59-.6V29.27a.59.59,0,0,1,.59-.6h1ZM25,19H39v7.63H38a2.59,2.59,0,0,0-2.59,2.6v3.34A2.6,2.6,0,0,0,38,35.21h1v7.63H25ZM39,33.21H38a.59.59,0,0,1-.59-.6V29.27a.59.59,0,0,1,.59-.6h1Zm16-4.54v4.54H54a.59.59,0,0,1-.59-.6V29.27a.59.59,0,0,1,.59-.6ZM9,13.9a.35.35,0,0,1,.36-.36H54.64a.35.35,0,0,1,.36.36V17H9ZM11.41,49c-.53,1.14-.77,1.49-1.23,1.49A1.18,1.18,0,0,1,9,49.28V44.84h4.34Zm42.41,1.49c-.46,0-.7-.35-1.23-1.49l-1.93-4.13H55v4.44A1.18,1.18,0,0,1,53.82,50.46Z"/>
</g>
</svg>