<?xml version="1.0" ?>
<!-- Uploaded to: SVG Repo, www.svgrepo.com, Generator: SVG Repo Mixer Tools -->
<svg width="800px" height="800px" viewBox="0 0 64 64" xmlns="http://www.w3.org/2000/svg">
<defs>
<style>.cls-1{fill:#617880;}.cls-2{fill:#748a95;}.cls-3{fill:#f0f4f7;}.cls-4{fill:#e0e9ee;}.cls-5{fill:#252b48;}</style>
</defs>
<g data-name="Table" id="Table-5">
<path class="cls-1" d="M18,19.34,48.29,49.61A1.87,1.87,0,0,0,50.94,47L23.32,19.34l-2.65-1.76Z" id="path69905-6"/>
<path class="cls-2" d="M46,19.34,15.71,49.61A1.87,1.87,0,0,1,13.06,47L40.68,19.34l2.65-1.76Z" id="path69808-1"/>
<path class="cls-3" d="M9.36,13.84H54.64A1.36,1.36,0,0,1,56,15.2V18a1.36,1.36,0,0,1-1.36,1.36H9.36A1.36,1.36,0,0,1,8,18V15.2A1.36,1.36,0,0,1,9.36,13.84Z" id="rect30191-6-3-2-8"/>
<path class="cls-4" d="M50.9,13.84a1.36,1.36,0,0,1,1.36,1.36V18a1.36,1.36,0,0,1-1.36,1.36h3.74A1.36,1.36,0,0,0,56,18V15.2a1.36,1.36,0,0,0-1.36-1.36Z" id="path210738"/>
<path class="cls-5" d="M54.64,12.84H9.36A2.36,2.36,0,0,0,7,15.2V18a2.36,2.36,0,0,0,2.36,2.36H17.6L27.94,30.68,12.35,46.26a2.87,2.87,0,0,0,4.07,4.06L32,34.74,47.58,50.32a2.87,2.87,0,0,0,4.07-4.06L36.07,30.68,46.4,20.34h8.24A2.36,2.36,0,0,0,57,18V15.2A2.36,2.36,0,0,0,54.64,12.84Zm-34.21,7.5H22.9L30.59,28l-1.24,1.24ZM32,26.61l-6.27-6.27H38.27ZM50.23,47.67A.87.87,0,0,1,49,48.91L33.41,33.33l1.24-1.24ZM31.29,32.62h0L15,48.91a.87.87,0,0,1-1.23-1.24L41.1,20.34h2.47ZM55,18a.36.36,0,0,1-.36.36H9.36A.36.36,0,0,1,9,18V15.2a.35.35,0,0,1,.36-.36H54.64a.35.35,0,0,1,.36.36Z"/>
</g>
</svg>