<?xml version="1.0" ?>
<!-- Uploaded to: SVG Repo, www.svgrepo.com, Generator: SVG Repo Mixer Tools -->
<svg width="800px" height="800px" viewBox="0 0 64 64" xmlns="http://www.w3.org/2000/svg">
<defs>
<style>.cls-1{fill:#e29375;}.cls-2{fill:#f6f9f9;}.cls-10,.cls-2,.cls-9{fill-opacity:1;}.cls-3{fill:#756e78;}.cls-4{fill:#665e66;}.cls-5{fill:#f6e266;}.cls-6{fill:#eaafa5;}.cls-7{fill:#f1cbc6;}.cls-8{fill:#e7aa90;}.cls-11,.cls-9{fill:#cb5769;}.cls-10{fill:#d57080;}.cls-12{fill:#f4dd45;}</style>
</defs>
<g data-name="Winter Avatar" id="Winter_Avatar-49">
<path class="cls-1" d="M44.36,31.71s1,10.72,1.42,12.31c-2.39,2.39-9.58,1.77-9.58,1.77H27.8s-7.19.62-9.58-1.77c.42-1.59,1.42-12.31,1.42-12.31Z" id="path43666-6"/>
<path class="cls-2" d="M15.56,30.31V24.44a16.44,16.44,0,0,1,32.88,0v5.87Z" id="path51134-7"/>
<path class="cls-3" d="M45.25,39.3h1.62a2.3,2.3,0,0,0,2.19-2.2l.56-4.43a2.75,2.75,0,0,0-2.88-2.87H17.26a2.75,2.75,0,0,0-2.88,2.87l.56,4.43a2.3,2.3,0,0,0,2.19,2.2H45.25Z" id="path50555-8"/>
<path class="cls-4" d="M17.39,29.79l-.34.74a3.1,3.1,0,0,0-.25.95l-.1,1.22h0a15.29,15.29,0,0,0,.92,6.6H46.38a15.29,15.29,0,0,0,.92-6.6l-.18-2.18a3.47,3.47,0,0,0-.16-.71l-.22,0H17.39Z" id="path62694"/>
<path class="cls-5" d="M21.2,48.67a5.54,5.54,0,0,0-5.55,5.55v.32A1.47,1.47,0,0,0,17.12,56H46.88a1.47,1.47,0,0,0,1.47-1.46v-.32a5.54,5.54,0,0,0-5.55-5.55Z" id="path43326-9"/>
<path class="cls-6" d="M27.8,45.79l.64,2.83c.3,2,1.59,3.56,3.56,3.56s3.26-1.61,3.56-3.56l.64-2.83-4.88-5.36Z" id="path22987-26-9"/>
<path class="cls-7" d="M19.64,31.71l-.1,1.23a12.5,12.5,0,1,0,24.92,0l-.18-2.19-7.36-9.93L22.43,25.63Z" id="path99362-0-2"/>
<path class="cls-6" d="M39.66,24.52a12,12,0,0,1,.53,2.64l.29,3.59.18,2.19A12.5,12.5,0,0,1,30.1,46.32a13.17,13.17,0,0,0,1.9.15A12.51,12.51,0,0,0,44.46,32.94l-.18-2.19Z" id="path101009-9-7"/>
<path class="cls-1" d="M33.08,26.3s5.2,6.22,11.2,4.45L44,27.16a11.82,11.82,0,0,0-4.87-8.64l-5.84,1.12Z" id="path113433-6-0"/>
<path class="cls-8" d="M32,16.23A11.93,11.93,0,0,0,20,27.16l-.38,4.55A23.37,23.37,0,0,0,39.11,18.52,12.09,12.09,0,0,0,32,16.23Z" id="path22989-64-8-3"/>
<path class="cls-4" d="M32,16.23a13.17,13.17,0,0,0-1.9.14,12.13,12.13,0,0,1,5.21,2.15,11.76,11.76,0,0,1,2.47,2.41,17.37,17.37,0,0,0,1.33-2.41A12.09,12.09,0,0,0,32,16.23Z" id="path186167-6"/>
<path class="cls-9" d="M44.22,24.75a12.22,12.22,0,0,0-24.44,0Z" id="path48437-6"/>
<path class="cls-9" d="M32,12.53a11.49,11.49,0,0,0-2.05.18,12.21,12.21,0,0,1,10.16,12h4.11A12.22,12.22,0,0,0,32,12.53Z" id="path50698"/>
<path class="cls-10" d="M32,22.35a31.51,31.51,0,0,0-12.4,2.48A1.73,1.73,0,0,0,21.08,28,27.74,27.74,0,0,1,32,25.82,27.74,27.74,0,0,1,42.92,28a1.73,1.73,0,0,0,1.48-3.13A31.51,31.51,0,0,0,32,22.35Z" id="path46986-2"/>
<path class="cls-11" d="M41.71,23.83A2,2,0,0,1,42.06,26a1.93,1.93,0,0,1-1.49,1.09,19.1,19.1,0,0,1,2.35.87,1.73,1.73,0,0,0,1.48-3.13A21.69,21.69,0,0,0,41.71,23.83Z" id="path49422"/>
<path class="cls-12" d="M39,48.67a5.54,5.54,0,0,1,5.55,5.55v.32A1.46,1.46,0,0,1,43,56h3.84a1.46,1.46,0,0,0,1.47-1.46v-.32a5.54,5.54,0,0,0-5.55-5.55Z" id="path74150"/>
<path d="M28.86,35.18V34a1,1,0,0,0-2,0v1.23a1,1,0,0,0,2,0Z"/>
<path d="M36.14,33a1,1,0,0,0-1,1v1.23a1,1,0,0,0,2,0V34A1,1,0,0,0,36.14,33Z"/>
<path d="M35,39.55a5.85,5.85,0,0,1-3,.79,5.6,5.6,0,0,1-3-.8,1,1,0,0,0-1.39.25,1,1,0,0,0,.24,1.39,7.93,7.93,0,0,0,8.26,0A1,1,0,0,0,35,39.55Z"/>
<path d="M13.94,37.22a3.29,3.29,0,0,0,3.19,3.08h.62c-.2,1.7-.38,3-.5,3.46a1,1,0,0,0,.26,1c1.83,1.84,5.73,2.15,8.21,2.15.51,0,.94,0,1.3,0l.18.83h-6a6.55,6.55,0,0,0-6.55,6.55v.32A2.47,2.47,0,0,0,17.12,57H46.88a2.47,2.47,0,0,0,2.47-2.46v-.32a6.55,6.55,0,0,0-6.55-6.55h-6l.18-.83c.36,0,.8,0,1.3,0,2.48,0,6.38-.31,8.21-2.15a1,1,0,0,0,.26-1c-.12-.44-.3-1.76-.5-3.46h.62a3.29,3.29,0,0,0,3.19-3.08l.56-4.42a3.34,3.34,0,0,0-.85-2.65c-.1-.11-.22-.2-.33-.3V24.44a17.44,17.44,0,0,0-34.88,0v5.41c-.11.1-.23.19-.33.3a3.34,3.34,0,0,0-.85,2.65Zm3.19,1.08A1.35,1.35,0,0,1,15.93,37l-.56-4.42a1.37,1.37,0,0,1,.36-1.08,2.11,2.11,0,0,1,1.53-.67h1.45l-.06.82h0c-.19,2-.43,4.45-.68,6.68ZM32,45.47A11.5,11.5,0,0,1,20.54,33l0-.41a24.11,24.11,0,0,0,12.4-5c1.4,1.41,4.86,4.43,9.1,4.43A8.47,8.47,0,0,0,43.38,32L43.46,33A11.5,11.5,0,0,1,32,45.47Zm2.87,1.68-.3,1.32c-.19,1.25-1,2.71-2.57,2.71s-2.38-1.46-2.59-2.78l-.28-1.25a13,13,0,0,0,5.74,0Zm-14-18.08a2.9,2.9,0,0,0,.65-.21,26.76,26.76,0,0,1,9.17-2,22.26,22.26,0,0,1-9.94,3.73Zm22.28,0,.07.9c-3.3.55-6.32-1.49-8-3a25.55,25.55,0,0,1,7.27,1.86A2.45,2.45,0,0,0,43.14,29.06ZM44,25.73a.75.75,0,0,1,.38.42.73.73,0,0,1,0,.56.71.71,0,0,1-.41.37.68.68,0,0,1-.56,0A28.69,28.69,0,0,0,32,24.82a28.69,28.69,0,0,0-11.35,2.23.68.68,0,0,1-.56,0,.71.71,0,0,1-.41-.37.73.73,0,0,1,0-.56.77.77,0,0,1,.37-.42,31.32,31.32,0,0,1,24,0ZM32,21.35a33.57,33.57,0,0,0-11.1,1.89,11.2,11.2,0,0,1,22.2,0A33.57,33.57,0,0,0,32,21.35ZM19.82,39.77a13.61,13.61,0,0,0,2.25,3.34A13.21,13.21,0,0,0,24,44.8a10.28,10.28,0,0,1-4.66-1.17C19.46,42.76,19.64,41.34,19.82,39.77ZM47.35,54.22v.32a.47.47,0,0,1-.47.46H17.12a.47.47,0,0,1-.47-.46v-.32a4.55,4.55,0,0,1,4.55-4.55h6.45a4.45,4.45,0,0,0,8.7,0H42.8A4.55,4.55,0,0,1,47.35,54.22ZM40,44.8a13.21,13.21,0,0,0,1.9-1.69,13.61,13.61,0,0,0,2.25-3.34c.18,1.57.36,3,.51,3.86A10.28,10.28,0,0,1,40,44.8Zm8-7.83a1.35,1.35,0,0,1-1.2,1.33H46c-.25-2.23-.49-4.71-.68-6.68h0l-.06-.82h1.45a2.11,2.11,0,0,1,1.53.67,1.37,1.37,0,0,1,.36,1.08ZM16.56,24.44a15.44,15.44,0,1,1,30.88,0v4.43a4.05,4.05,0,0,0-.7-.07H45.12v-.15a2.79,2.79,0,0,0,1-1.08,2.71,2.71,0,0,0,.1-2.09,2.65,2.65,0,0,0-1-1.29,13.2,13.2,0,0,0-26.38,0,2.65,2.65,0,0,0-1,1.29,2.71,2.71,0,0,0,.1,2.09,2.79,2.79,0,0,0,1,1.08v.15H17.26a4.05,4.05,0,0,0-.7.07Z"/>
</g>
</svg>