<?xml version="1.0" ?>
<!-- Uploaded to: SVG Repo, www.svgrepo.com, Generator: SVG Repo Mixer Tools -->
<svg width="800px" height="800px" viewBox="0 0 64 64" xmlns="http://www.w3.org/2000/svg">
<defs>
<style>.cls-1{fill:#e29375;}.cls-2{fill:#756e78;}.cls-2,.cls-3{fill-opacity:0.99;}.cls-3,.cls-7{fill:#665e66;}.cls-4{fill:#eaafa5;}.cls-5{fill:#f1cbc6;}.cls-6{fill:#e7aa90;}.cls-8{fill:#b1e4f9;}.cls-9{fill:#75cef9;}.cls-10{fill:#f6e266;}.cls-11{fill:#f4dd45;}</style>
</defs>
<g data-name="Winter Avatar" id="Winter_Avatar-44">
<path class="cls-1" d="M46,36.52c.28,2.47-1.19,11.32-1,12L32,52,19,48.53c.16-.69-1.31-9.54-1-12l14-2.46Z" id="path44475-0-5-6"/>
<path class="cls-2" d="M21.23,48.08a5.53,5.53,0,0,0-5.54,5.54v.81a1.46,1.46,0,0,0,1.46,1.46h29.7a1.46,1.46,0,0,0,1.46-1.46v-.81a5.53,5.53,0,0,0-5.54-5.54Z" id="path44461-8-3-2"/>
<path class="cls-3" d="M26.64,43.46v4.62A10.85,10.85,0,0,0,32,49.36a10.85,10.85,0,0,0,5.36-1.28V43.46L31.51,38Z" id="path78235-2"/>
<path class="cls-4" d="M45.13,26H18.87c-.7.14-1.88,2.63-1.88,2.63a4.6,4.6,0,0,0,2.83,8.22H44.18A4.6,4.6,0,0,0,47,28.68S45.83,26.19,45.13,26Z" id="path71411-27-2-6"/>
<path class="cls-5" d="M45.13,27.79l.19,2.32a13.36,13.36,0,1,1-26.64,0l.11-1.31.08-1,8-8.31L39.79,21Z" id="path118751-8-2"/>
<path class="cls-4" d="M26.85,19.48l-.37.39L36.13,21l5.33,6.78.19,2.32A13.37,13.37,0,0,1,30.17,44.44a13.83,13.83,0,0,0,1.83.13A13.37,13.37,0,0,0,45.32,30.11l-.19-2.32L39.79,21Z" id="path131872-9-9"/>
<path class="cls-1" d="M32.7,22.72c.58.65,6.35,6.87,12.43,5.07a4.58,4.58,0,0,1,1.89.89l-.24-2.95a14.61,14.61,0,0,0-6.71-11.14l-3.44.32Z" id="path18028-7-3"/>
<path class="cls-6" d="M32,12.24A14.73,14.73,0,0,0,17.23,25.73L17,28.67a4.66,4.66,0,0,1,1.88-.88c.32,0,.63-.06.94-.09.65-.07,1.34-.18,2-.28A26.91,26.91,0,0,0,40.07,14.59a13.88,13.88,0,0,0-1.86-1A15.09,15.09,0,0,0,32,12.24Z" id="path71397-29-3-1"/>
<path class="cls-7" d="M32,12.25a13.56,13.56,0,0,0-2,.16,12.75,12.75,0,0,1,8.21,4.87A17.56,17.56,0,0,0,39.6,14.7,12.91,12.91,0,0,0,32,12.25Z" id="path186167-2-7"/>
<path class="cls-8" d="M17.54,22.68C18.48,14.35,24.67,8.11,32,8.11s13.52,6.24,14.46,14.57l-7.72-2.92-12.32.37Z" id="path15698-7-8"/>
<path class="cls-9" d="M32,8.11a12.61,12.61,0,0,0-2.14.19c5.87,1,10.66,6,12,12.66l4.56,1.72C45.52,14.35,39.33,8.11,32,8.11Z" id="path8791-4"/>
<path class="cls-10" d="M32,17.36c-10.34,0-15.59,6.47-15.59,6.47a2.14,2.14,0,0,0,3.37,2.63S23.35,21.64,32,21.64s12.22,4.82,12.22,4.82a2.14,2.14,0,0,0,3.37-2.63S42.34,17.36,32,17.36Z" id="path14243-9-5"/>
<path class="cls-11" d="M43.67,20.59a2.33,2.33,0,0,1-2.28,3.48,10.68,10.68,0,0,1,2.83,2.39,2.14,2.14,0,0,0,3.37-2.63A16.74,16.74,0,0,0,43.67,20.59Z" id="path8916-0"/>
<path class="cls-3" d="M37.54,48.08a5.52,5.52,0,0,1,5.53,5.54v.81a1.46,1.46,0,0,1-1.45,1.46h5.23a1.46,1.46,0,0,0,1.46-1.46v-.81a5.53,5.53,0,0,0-5.54-5.54Z" id="path84664"/>
<path d="M28.58,32.53V31.21a1,1,0,0,0-2,0v1.32a1,1,0,0,0,2,0Z"/>
<path d="M36.42,30.21a1,1,0,0,0-1,1v1.32a1,1,0,0,0,2,0V31.21A1,1,0,0,0,36.42,30.21Z"/>
<path d="M35.22,37.24A6.15,6.15,0,0,1,32,38.1a6.23,6.23,0,0,1-3.22-.86,1,1,0,0,0-1.39.24,1,1,0,0,0,.24,1.4,8.44,8.44,0,0,0,8.74,0,1,1,0,0,0-1.15-1.64Z"/>
<path d="M49.77,32.29a5.59,5.59,0,0,0-2.28-4.48,3.9,3.9,0,0,0,.35-.19,3.15,3.15,0,0,0,.53-4.42,13.17,13.17,0,0,0-1-1C46.25,13.56,39.7,7.11,32,7.11S17.75,13.57,16.61,22.18a10.91,10.91,0,0,0-1,1,3.14,3.14,0,0,0,.54,4.4,2.8,2.8,0,0,0,.32.2A5.56,5.56,0,0,0,17,37.08a73,73,0,0,0,.71,7.84c.14,1.15.3,2.41.36,3a6.51,6.51,0,0,0-3.35,5.67v.81a2.46,2.46,0,0,0,2.46,2.46h29.7a2.46,2.46,0,0,0,2.46-2.46v-.81A6.53,6.53,0,0,0,46,48c.05-.67.21-1.9.35-3a72.74,72.74,0,0,0,.7-7.84A5.58,5.58,0,0,0,49.77,32.29ZM44.31,30.2A12.51,12.51,0,0,1,41,39.63a12.3,12.3,0,0,1-18.06,0,12.51,12.51,0,0,1-3.28-9.43l.12-1.52A26.47,26.47,0,0,0,32.54,24c1.49,1.5,5.55,5.11,10.29,5.11A9.43,9.43,0,0,0,44.22,29ZM27.64,47.47V44.91c.49.15,1,.28,1.48.38V48A10,10,0,0,1,27.64,47.47Zm4.36.89c-.31,0-.59,0-.88,0V45.53c.3,0,.58,0,.88,0s.58,0,.88,0v2.78C32.59,48.33,32.31,48.36,32,48.36Zm2.88-3.07c.5-.1,1-.23,1.48-.38v2.56a10,10,0,0,1-1.48.52ZM17.18,24.47a13.73,13.73,0,0,1,2-1.86,5.6,5.6,0,0,0,.62,2.32,7.32,7.32,0,0,0-.84.92,1.14,1.14,0,0,1-1.6.19A1.13,1.13,0,0,1,17.18,24.47Zm29.62,0A1.13,1.13,0,0,1,45,25.87a7.81,7.81,0,0,0-.86-.94,5.6,5.6,0,0,0,.62-2.32A13.45,13.45,0,0,1,46.8,24.45ZM31,22.67a24.3,24.3,0,0,1-9.9,3.84C22.19,25.39,25.28,22.94,31,22.67Zm3.29.1c6.35.69,9,4.13,9.18,4.31h0c-4,.32-7.73-2.78-9.25-4.26Zm8-1.84a2.62,2.62,0,0,1,.32,2.7,16,16,0,0,0-3.91-1.94,4.19,4.19,0,0,0,.19-2.23A20.41,20.41,0,0,1,42.23,20.93Zm-5.68-2.09a2.58,2.58,0,0,1,.17,2.3,20.65,20.65,0,0,0-3.27-.45V18.42A22.31,22.31,0,0,1,36.55,18.84Zm-5.1,1.81a21.5,21.5,0,0,0-4.17.49,2.59,2.59,0,0,1,.17-2.3,22.3,22.3,0,0,1,4-.46Zm-6.09,1a16,16,0,0,0-3.91,1.94,2.62,2.62,0,0,1,.32-2.7,21.55,21.55,0,0,1,3.39-1.47A4.22,4.22,0,0,0,25.36,21.69ZM32,9.11c6,0,11.26,4.64,13,11.13a22.72,22.72,0,0,0-13-3.88,22.72,22.72,0,0,0-13,3.88C20.74,13.75,26,9.11,32,9.11ZM17.75,29.36l-.05.69a14.21,14.21,0,0,0,.66,5.51,3.57,3.57,0,0,1-2.13-3.27A3.62,3.62,0,0,1,17.75,29.36Zm1.92,15.31c-.28-2.22-.63-5.08-.69-6.87l.32,0a14.09,14.09,0,0,0,6.34,6.25v3H21.23a6.48,6.48,0,0,0-1.26.13C19.91,46.62,19.81,45.82,19.67,44.67Zm-3,9.76v-.81a4.54,4.54,0,0,1,4.54-4.54h5.16a11.77,11.77,0,0,0,3.7,1.14h0l.87.1v4.57H17.15A.47.47,0,0,1,16.69,54.43Zm30.62-.81v.81a.47.47,0,0,1-.46.46H33V50.32l.87-.1h0a11.77,11.77,0,0,0,3.7-1.14h5.16A4.54,4.54,0,0,1,47.31,53.62Zm-3-8.95c-.14,1.15-.24,1.95-.3,2.54a6.57,6.57,0,0,0-1.26-.13H38.36v-3a14.09,14.09,0,0,0,6.34-6.25c.1,0,.21,0,.31,0C45,39.59,44.6,42.45,44.33,44.67Zm1.31-9.1a14.29,14.29,0,0,0,.66-5.52l0-.68a3.58,3.58,0,0,1-.61,6.2Z"/>
</g>
</svg>