<?xml version="1.0" ?>
<!-- Uploaded to: SVG Repo, www.svgrepo.com, Generator: SVG Repo Mixer Tools -->
<svg width="800px" height="800px" viewBox="0 0 64 64" xmlns="http://www.w3.org/2000/svg">
<defs>
<style>.cls-1{fill:#f6f9f9;}.cls-2{fill:#d57080;}.cls-3{fill:#eaafa5;}.cls-4{fill:#f1cbc6;}.cls-5{fill:#665e66;}.cls-6{fill:#544f57;}.cls-7{fill:#756e78;}.cls-8{fill:#f6e266;}.cls-9{fill:#f4dd45;}.cls-10{fill:#cb5769;}</style>
</defs>
<g data-name="Winter Avatar" id="Winter_Avatar-46">
<path class="cls-1" d="M41.25,46.15H20.41a5.92,5.92,0,0,0-5.93,5.93v2.38A1.56,1.56,0,0,0,16.05,56H31.39L41,54.14l4-4.74Z" id="rect17652-6-9-6"/>
<path class="cls-2" d="M41.37,46.11S38.1,54.21,31.5,56H48a1.56,1.56,0,0,0,1.57-1.56V52a5.92,5.92,0,0,0-5.93-5.93Z" id="path51842-3"/>
<path class="cls-3" d="M27.57,43.73l.68,3c.32,2.08,1.7,3.8,3.81,3.8s3.49-1.72,3.8-3.8l.68-3L31.33,38Z" id="path22987-26-8-3"/>
<path class="cls-3" d="M44.23,36.75a4.59,4.59,0,0,0,1-9.09H18.93a4.59,4.59,0,0,0,.95,9.09Z" id="path114197-5-6"/>
<path class="cls-4" d="M18.85,28.67,18.74,30a13.36,13.36,0,1,0,26.64,0l-.2-2.33L37.32,17l-15.5,5.14Z" id="path99362-0-7"/>
<path class="cls-3" d="M40.24,21a12.57,12.57,0,0,1,.57,2.83l.31,3.84.2,2.33A13.38,13.38,0,0,1,30,44.29a13.57,13.57,0,0,0,2,.15A13.37,13.37,0,0,0,45.38,30l-.2-2.33Z" id="path101009-9-5"/>
<path class="cls-5" d="M33.21,22.88s5.56,6.66,12,4.77l-.31-3.84a12.69,12.69,0,0,0-5.21-9.24l-6.24,1.2Z" id="path113433-6-3"/>
<path class="cls-6" d="M32.06,12.12a13.56,13.56,0,0,0-2,.16A12.75,12.75,0,0,1,40.81,23.81l.31,3.84,0,.17a8.45,8.45,0,0,0,4-.17l-.31-3.84A12.77,12.77,0,0,0,32.06,12.12Z" id="path101011-3-5"/>
<path class="cls-7" d="M32.06,12.12A12.75,12.75,0,0,0,19.25,23.81l-.4,4.86a25,25,0,0,0,20.81-14.1A12.94,12.94,0,0,0,32.06,12.12Z" id="path22989-64-8-6"/>
<path class="cls-5" d="M32.06,12.12a12.36,12.36,0,0,0-2,.16,12.75,12.75,0,0,1,8.21,4.87,18.86,18.86,0,0,0,1.42-2.58A12.94,12.94,0,0,0,32.06,12.12Z" id="path186167-2"/>
<path class="cls-8" d="M17.6,22.55C18.54,14.22,24.73,8,32.06,8s13.52,6.24,14.45,14.57l-7.72-2.92L26.48,20Z" id="path15698-7"/>
<path class="cls-9" d="M32.06,8a12.61,12.61,0,0,0-2.14.18c5.86,1,10.66,6,12,12.67l4.55,1.72C45.58,14.22,39.39,8,32.06,8Z" id="path8791"/>
<path class="cls-2" d="M32.06,17.23c-10.35,0-15.6,6.47-15.6,6.47a2.14,2.14,0,1,0,3.37,2.63s3.58-4.83,12.23-4.83,12.22,4.83,12.22,4.83a2.14,2.14,0,1,0,3.37-2.63S42.4,17.23,32.06,17.23Z" id="path14243-9"/>
<path class="cls-10" d="M43.72,20.46a2.33,2.33,0,0,1-2.28,3.48,10.64,10.64,0,0,1,2.84,2.39,2.14,2.14,0,1,0,3.37-2.63A17,17,0,0,0,43.72,20.46Z" id="path8916"/>
<path class="cls-10" d="M46.8,52v2.38A1.56,1.56,0,0,1,45.24,56H48a1.56,1.56,0,0,0,1.57-1.56V52a5.92,5.92,0,0,0-5.93-5.93l-2.23,0A5.92,5.92,0,0,1,46.8,52Z" id="path17680"/>
<path d="M16.16,57H48a2.57,2.57,0,0,0,2.57-2.56V52a6.94,6.94,0,0,0-6.93-6.93H37.25l.16-.71a14,14,0,0,0,7.34-6.7,5.56,5.56,0,0,0,2.8-10,2.21,2.21,0,0,0,.34-.18,3.14,3.14,0,0,0,.53-4.42,12,12,0,0,0-1-1C46.3,13.43,39.76,7,32.06,7S17.81,13.43,16.67,22.05a10.91,10.91,0,0,0-1,1,3.14,3.14,0,0,0,.54,4.4,2.14,2.14,0,0,0,.32.2,5.56,5.56,0,0,0,2.82,10,14,14,0,0,0,2.2,3.16A14.16,14.16,0,0,0,26.7,44.4l.16.71H20.53A6.94,6.94,0,0,0,13.6,52v2.38A2.56,2.56,0,0,0,16.16,57ZM48.52,52v2.38A.57.57,0,0,1,48,55H35.77A21.2,21.2,0,0,0,42,47.11h1.58A4.93,4.93,0,0,1,48.52,52ZM45.7,35.43a14.6,14.6,0,0,0,.66-5.51l0-.69a3.58,3.58,0,0,1-.61,6.2ZM17.24,24.33a15.18,15.18,0,0,1,2-1.86,5.64,5.64,0,0,0,.62,2.33,9.64,9.64,0,0,0-.85.91,1.12,1.12,0,0,1-1.59.2A1.14,1.14,0,0,1,17.24,24.33Zm29.62,0a1.12,1.12,0,0,1-.2,1.59,1.1,1.1,0,0,1-.83.23,1.14,1.14,0,0,1-.75-.4,7,7,0,0,0-.86-.94,5.51,5.51,0,0,0,.63-2.33A13.78,13.78,0,0,1,46.86,24.32ZM42.29,20.8a2.64,2.64,0,0,1,.32,2.7,16,16,0,0,0-3.92-1.95,4.19,4.19,0,0,0,.2-2.23A20.77,20.77,0,0,1,42.29,20.8ZM36.6,18.71a2.55,2.55,0,0,1,.17,2.3,21.69,21.69,0,0,0-3.26-.46V18.29A20.58,20.58,0,0,1,36.6,18.71Zm-5.09,1.81a21.31,21.31,0,0,0-4.17.49,2.58,2.58,0,0,1,.17-2.3,22.19,22.19,0,0,1,4-.46Zm-6.09,1a16.61,16.61,0,0,0-3.92,1.94,2.63,2.63,0,0,1,.33-2.69,19.5,19.5,0,0,1,3.39-1.47A4.17,4.17,0,0,0,25.42,21.55Zm6.7,1a23.68,23.68,0,0,1-12.16,5C20.86,26.91,23.72,22.48,32.12,22.51Zm2.8.19c5.92.84,8.44,4.07,8.57,4.25h0c-4,.36-7.46-2.61-8.87-4A3.47,3.47,0,0,0,34.92,22.7ZM32.06,9c6,0,11.26,4.64,13,11.13a22.66,22.66,0,0,0-13-3.88,22.72,22.72,0,0,0-13,3.88C20.79,13.62,26,9,32.06,9ZM16.28,32.16a3.6,3.6,0,0,1,1.53-2.93l-.06.69a14.6,14.6,0,0,0,.66,5.51A3.59,3.59,0,0,1,16.28,32.16Zm3.47-2.09,0-.49a25.53,25.53,0,0,0,13.33-5.32c1.46,1.49,5.17,4.75,9.7,4.75a9.33,9.33,0,0,0,1.47-.13l.09,1.19a12.51,12.51,0,0,1-3.28,9.43A12.33,12.33,0,0,1,23,39.5,12.5,12.5,0,0,1,19.75,30.07ZM32.06,45.44a14.35,14.35,0,0,0,3.15-.35l-.34,1.5c-.21,1.37-1.07,3-2.81,3s-2.61-1.59-2.83-3l-.32-1.44A14.28,14.28,0,0,0,32.06,45.44ZM15.6,52a4.93,4.93,0,0,1,4.93-4.93h6.78c.5,2.66,2.37,4.44,4.75,4.44s4.28-1.81,4.74-4.44h3c-1.21,2.26-4,6.64-8.43,7.87H16.16a.56.56,0,0,1-.56-.56Z"/>
<path d="M28.64,32.4V31.07a1,1,0,0,0-2,0V32.4a1,1,0,0,0,2,0Z"/>
<path d="M36.48,33.4a1,1,0,0,0,1-1V31.07a1,1,0,0,0-2,0V32.4A1,1,0,0,0,36.48,33.4Z"/>
<path d="M36.43,38.74a1,1,0,0,0-1.15-1.63,6.48,6.48,0,0,1-6.45,0,1,1,0,0,0-1.38.24,1,1,0,0,0,.24,1.39,8.38,8.38,0,0,0,8.74,0Z"/>
</g>
</svg>