<?xml version="1.0" ?>
<!-- Uploaded to: SVG Repo, www.svgrepo.com, Generator: SVG Repo Mixer Tools -->
<svg width="800px" height="800px" viewBox="0 0 64 64" xmlns="http://www.w3.org/2000/svg">
<defs>
<style>.cls-1{fill:#756e78;}.cls-2{fill:#665e66;}.cls-3{fill:#dae4ea;}.cls-3,.cls-6,.cls-7,.cls-8,.cls-9{fill-opacity:0.99;}.cls-4{fill:#eaafa5;}.cls-5{fill:#f1cbc6;}.cls-6{fill:#d57080;}.cls-7{fill:#f6e266;}.cls-8{fill:#cb5769;}.cls-9{fill:#f6f9f9;}</style>
</defs>
<g data-name="Winter Avatar" id="Winter_Avatar-41">
<path class="cls-1" d="M43.29,45.49c0-3-3.42-4.27-3.42-4.27H24.12s-3.41,1.26-3.41,4.27l-.07,4.3,2.56,1.86,9.5,1.2,8.81-1.44Z" id="path37315-2-9-3-0"/>
<path class="cls-2" d="M38.91,49.2a4.34,4.34,0,0,0,1-3.71h3.38a5.79,5.79,0,0,1,5.8,5.8v3.18A1.53,1.53,0,0,1,47.56,56H16.44a1.53,1.53,0,0,1-1.53-1.53V51.29a5.79,5.79,0,0,1,5.8-5.8h3.38a4.34,4.34,0,0,0,1,3.71s1,1.37,6.94,1.37S38.91,49.2,38.91,49.2Z" id="path37815-7-81-6-6"/>
<path class="cls-3" d="M44.73,41.66l-5.7.11H25l-5.7-.11-2.78-6.78,3.8-10.13,26,0Z" id="path117970-7"/>
<path class="cls-4" d="M27.49,43l.68,3c.32,2.1,1.71,3.83,3.83,3.83S35.51,48.1,35.83,46l.68-3L31.27,37.2Z" id="path22987-26-8-8"/>
<path class="cls-5" d="M18.72,27.83l-.11,1.32a13.44,13.44,0,1,0,26.78,0L45.2,26.8,37.29,16.12,21.71,21.28Z" id="path99362-0-9"/>
<path class="cls-4" d="M40.23,20.09a12.75,12.75,0,0,1,.57,2.85l.32,3.86.19,2.35A13.44,13.44,0,0,1,30,43.53a13.7,13.7,0,0,0,2,.16A13.43,13.43,0,0,0,45.39,29.15L45.2,26.8Z" id="path101009-9-2"/>
<path class="cls-2" d="M33.16,22s5.59,6.7,12,4.8l-.32-3.86a12.71,12.71,0,0,0-5.24-9.29l-6.27,1.2Z" id="path113433-6-6"/>
<path class="cls-1" d="M32,11.18A12.84,12.84,0,0,0,19.12,22.94l-.4,4.89A25.12,25.12,0,0,0,39.64,13.65,12.91,12.91,0,0,0,32,11.18Z" id="path22989-64-8-64"/>
<path class="cls-6" d="M44.71,23.91A58.64,58.64,0,0,1,32,25.15a58.64,58.64,0,0,1-12.71-1.24l-1.88-1.18.52-12.22,4.94-1,22.44.92,1.25,8.81Z" id="path179402-9"/>
<path class="cls-7" d="M34.68,19.46A2.68,2.68,0,1,1,32,16.78,2.68,2.68,0,0,1,34.68,19.46Z" id="path116826-2"/>
<path class="cls-8" d="M22.87,9.48l-4.94,1-.07,1.71a1.37,1.37,0,0,1,.36,0h22.1A1.66,1.66,0,0,1,42,13.84V24.41c1.72-.26,2.73-.5,2.73-.5L45.86,21V14.24l-.45-3.15a5.49,5.49,0,0,0-.39-.71Z" id="path137938"/>
<path class="cls-9" d="M21,12.18a1.66,1.66,0,0,0-1.66,1.66V41.39a1.94,1.94,0,1,1-3.87,0V13.2A5.19,5.19,0,0,1,20.61,8H43.39a5.2,5.2,0,0,1,5.2,5.2V41.39a1.94,1.94,0,0,1-3.88,0V13.84a1.66,1.66,0,0,0-1.66-1.66Z" id="path179778-5"/>
<path d="M28.61,31.8V30.49a1,1,0,1,0-2,0V31.8a1,1,0,1,0,2,0Z"/>
<path d="M36.39,29.49a1,1,0,0,0-1,1V31.8a1,1,0,1,0,2,0V30.49A1,1,0,0,0,36.39,29.49Z"/>
<path d="M35.19,36.48a6.4,6.4,0,0,1-6.39,0,1,1,0,0,0-1.14,1.64,8.33,8.33,0,0,0,8.68,0,1,1,0,1,0-1.15-1.63Z"/>
<path d="M50.09,51.29a6.78,6.78,0,0,0-5.93-6.71,4.87,4.87,0,0,0-.81-1.89H44a2.93,2.93,0,0,0,5.56-1.29V13.2A6.2,6.2,0,0,0,43.39,7H20.61a6.2,6.2,0,0,0-6.19,6.2V41.39A2.93,2.93,0,0,0,20,42.68h.67a4.87,4.87,0,0,0-.81,1.89,6.79,6.79,0,0,0-5.93,6.71v3.18A2.53,2.53,0,0,0,16.44,57H47.56a2.53,2.53,0,0,0,2.53-2.53ZM32,42.77a12.35,12.35,0,0,1-11.71-8.56V28.65a26.22,26.22,0,0,0,8.5-2.58c1,.05,2.08.08,3.21.08,1.57,0,3-.06,4.34-.14a12,12,0,0,0,6.46,2.13c.3,0,.61,0,.91-.05v6A12.33,12.33,0,0,1,32,42.77Zm3.13,1.6-.34,1.53c-.21,1.35-1.06,2.93-2.79,2.93s-2.58-1.58-2.8-3l-.33-1.46a14.2,14.2,0,0,0,3.13.4A14.2,14.2,0,0,0,35.13,44.37Zm8.58-18.29a8.26,8.26,0,0,1-3.55-.4c1.53-.19,2.73-.39,3.55-.54Zm0-3a61.72,61.72,0,0,1-11.71,1,62,62,0,0,1-11.71-1V13.84a.65.65,0,0,1,.66-.66h22.1a.65.65,0,0,1,.66.66Zm-23.42,2c.9.17,2.27.39,4,.59a22.61,22.61,0,0,1-4,.9Zm0,13.52a13.43,13.43,0,0,0,1.78,2.05l-1.78,0Zm23.42,0v2.06l-1.81,0A14.44,14.44,0,0,0,43.71,38.62ZM17.35,42.33a.93.93,0,0,1-.93-.94V13.2A4.2,4.2,0,0,1,20.61,9H43.39a4.2,4.2,0,0,1,4.19,4.2V41.39a.94.94,0,1,1-1.87,0V13.84a2.66,2.66,0,0,0-2.66-2.66H21a2.66,2.66,0,0,0-2.66,2.66V41.39A.94.94,0,0,1,17.35,42.33ZM48.09,54.47a.53.53,0,0,1-.53.53H16.44a.53.53,0,0,1-.53-.53V51.29a4.8,4.8,0,0,1,4.8-4.8H23a4.93,4.93,0,0,0,1.36,3.42,1,1,0,0,0,1.42,0,1,1,0,0,0,0-1.41,3.38,3.38,0,0,1-.73-2.79,1,1,0,0,0-.19-.85,1,1,0,0,0-.79-.37H21.9a3.93,3.93,0,0,1,1.53-1.75l1.37,0a14.6,14.6,0,0,0,1.86.92l.57,2.52c.43,2.77,2.34,4.63,4.77,4.63s4.34-1.86,4.75-4.56l.59-2.6a13.68,13.68,0,0,0,1.84-.91l1.39,0a3.93,3.93,0,0,1,1.53,1.75H39.91a1,1,0,0,0-1,1.21,3.4,3.4,0,0,1-.73,2.8,1,1,0,0,0,0,1.41,1,1,0,0,0,1.42,0A4.93,4.93,0,0,0,41,46.49h2.31a4.8,4.8,0,0,1,4.8,4.8Z"/>
<path d="M32,15.78a3.68,3.68,0,1,0,3.68,3.68A3.68,3.68,0,0,0,32,15.78Zm0,5.36a1.68,1.68,0,1,1,1.68-1.68A1.68,1.68,0,0,1,32,21.14Z"/>
</g>
</svg>