<?xml version="1.0" ?>
<!-- Uploaded to: SVG Repo, www.svgrepo.com, Generator: SVG Repo Mixer Tools -->
<svg width="800px" height="800px" viewBox="0 0 64 64" xmlns="http://www.w3.org/2000/svg">
<defs>
<style>.cls-1{fill:#756e78;}.cls-2{fill:#665e66;}.cls-3{fill:#eaafa5;}.cls-4{fill:#f1cbc6;}.cls-5{fill:#544f57;}.cls-6{fill:#f4dd45;}.cls-7{fill:#f6e266;}.cls-8{fill:#ecc32e;}</style>
</defs>
<g data-name="Winter Avatar" id="Winter_Avatar-18">
<path class="cls-1" d="M42.8,48.06c0-2.88-3.27-4.09-3.27-4.09H24.47s-3.27,1.21-3.27,4.09l-.07,4.11L23.58,54,32.66,53l8.44.7Z" id="path33105"/>
<path class="cls-2" d="M38.61,51.61a4.16,4.16,0,0,0,1-3.55H42.8a5.54,5.54,0,0,1,5.55,5.55v1A1.47,1.47,0,0,1,46.88,56H17.12a1.47,1.47,0,0,1-1.47-1.47v-1a5.54,5.54,0,0,1,5.55-5.55h3.24a4.16,4.16,0,0,0,.95,3.55s.95,1.31,6.64,1.31S38.61,51.61,38.61,51.61Z" id="path33107"/>
<path class="cls-3" d="M27.8,45.86l.64,2.82c.3,2,1.59,3.56,3.56,3.56s3.26-1.61,3.56-3.56l.64-2.82-4.88-5.37Z" id="path33109"/>
<path class="cls-3" d="M43.39,39.33a4.3,4.3,0,0,0,.89-8.5H19.72a4.3,4.3,0,0,0,.89,8.5Z" id="path33111"/>
<path class="cls-4" d="M19.64,31.78,19.54,33a12.5,12.5,0,1,0,24.92,0l-.18-2.18-7.36-9.94-14.5,4.81Z" id="path33113"/>
<path class="cls-3" d="M39.66,24.58a12.09,12.09,0,0,1,.53,2.65l.29,3.59L40.66,33A12.5,12.5,0,0,1,30.1,46.38a11.88,11.88,0,0,0,1.9.15A12.5,12.5,0,0,0,44.46,33l-.18-2.18Z" id="path33115"/>
<path class="cls-2" d="M33.08,26.36s5.2,6.23,11.2,4.46L44,27.23a11.84,11.84,0,0,0-4.87-8.65L33.27,19.7Z" id="path33117"/>
<path class="cls-5" d="M32,16.29a11.88,11.88,0,0,0-1.9.15A11.93,11.93,0,0,1,40.19,27.23l.29,3.59,0,.16a7.88,7.88,0,0,0,3.78-.16L44,27.23A11.94,11.94,0,0,0,32,16.29Z" id="path33119"/>
<path class="cls-1" d="M32,16.29A11.94,11.94,0,0,0,20,27.23l-.38,4.55a23.39,23.39,0,0,0,19.47-13.2A12.09,12.09,0,0,0,32,16.29Z" id="path33121"/>
<path class="cls-6" d="M21.65,19.47l-3.91-6a1.1,1.1,0,0,1,.32-1.58l6.53-3.77a1.08,1.08,0,0,1,1.53.51L29.36,15l-3.28,2.73Z" id="path4530"/>
<path class="cls-7" d="M21,19.86l9.08-5.24a1.68,1.68,0,0,1,1.68,2.91l-9.08,5.24A1.68,1.68,0,1,1,21,19.86Z" id="path4532"/>
<path class="cls-8" d="M29.36,15,26.12,8.63a1.07,1.07,0,0,0-1.53-.51l-2,1.17a1.08,1.08,0,0,1,1.53.52l3.24,6.38Z" id="path4534"/>
<path class="cls-6" d="M30.84,14.39a1.64,1.64,0,0,0-.79.23l-2,1.15a1.68,1.68,0,0,1,1.7,2.9l2-1.14a1.67,1.67,0,0,0,.61-2.3A1.69,1.69,0,0,0,30.84,14.39Z" id="path4536"/>
<path d="M35,39.63a5.88,5.88,0,0,1-5.92,0,1,1,0,0,0-1.39.25,1,1,0,0,0,.24,1.39,7.86,7.86,0,0,0,8.22,0,1,1,0,0,0,.24-1.38A1,1,0,0,0,35,39.63Z"/>
<path d="M27.87,38.67a3.62,3.62,0,0,0,3.46-2.62h1.41a3.64,3.64,0,1,0,0-2H31.33a3.61,3.61,0,1,0-3.46,4.62Zm8.34-5.24a1.62,1.62,0,1,1-1.62,1.62A1.62,1.62,0,0,1,36.21,33.43Zm-8.34,0a1.62,1.62,0,1,1-1.62,1.62A1.62,1.62,0,0,1,27.87,33.43Z"/>
<path d="M20.42,47.17a6.49,6.49,0,0,0-5.63,6.42v1A2.45,2.45,0,0,0,17.24,57H46.83a2.46,2.46,0,0,0,2.46-2.45v-1a6.49,6.49,0,0,0-5.64-6.42,5.42,5.42,0,0,0-2.38-3.35c.22-.2.44-.41.65-.63a13.26,13.26,0,0,0,2-2.88,5.25,5.25,0,0,0,1.27-10.15L45,27.25a12.88,12.88,0,0,0-11.5-11.71,2.8,2.8,0,0,0-.3-.82,2.64,2.64,0,0,0-3.41-1.09L27,8.28a2.09,2.09,0,0,0-1.25-1.17,2.07,2.07,0,0,0-1.7.17L17.58,11a2,2,0,0,0-1,1.28A2.22,2.22,0,0,0,16.93,14l3.32,5.09a2.69,2.69,0,0,0-.76,3.5,2.76,2.76,0,0,0,.62.7,12.67,12.67,0,0,0-1,3.94l-.24,2.91a5.25,5.25,0,0,0,1.27,10.15,13.26,13.26,0,0,0,2,2.88c.21.22.43.43.65.63A5.43,5.43,0,0,0,20.42,47.17ZM46.64,35.09A3.25,3.25,0,0,1,44.87,38a13.3,13.3,0,0,0,.55-5l0-.46A3.28,3.28,0,0,1,46.64,35.09ZM43,27.41l.23,2.7c-3.79.63-7.21-2.2-8.62-3.57a24.66,24.66,0,0,0,4.88-6.21A10.7,10.7,0,0,1,43,27.41Zm-21.83,0a10.7,10.7,0,0,1,.9-3.49,2.61,2.61,0,0,0,1.12-.34l9-5.21a2.6,2.6,0,0,0,.88-.83,11,11,0,0,1,4.77,1.57,22.12,22.12,0,0,1-17,11.6Zm10.3-11.69a.66.66,0,0,1-.25.92l-9,5.21a.69.69,0,0,1-.51.07.65.65,0,0,1-.4-.31.67.67,0,0,1,.24-.92l9-5.21A.67.67,0,0,1,31.42,15.72Zm-12.84-3L25.13,9,28,14.61l-6,3.48L18.6,12.92A.16.16,0,0,1,18.58,12.76ZM17.44,35.09a3.3,3.3,0,0,1,1.25-2.56l0,.46a13.31,13.31,0,0,0,.56,5A3.25,3.25,0,0,1,17.44,35.09Zm3.21-1.94,0-.41A24.08,24.08,0,0,0,33,27.84c1.4,1.42,4.83,4.38,9,4.38a8.19,8.19,0,0,0,1.29-.1l.09,1a11.43,11.43,0,1,1-22.78,0ZM34.88,47.21l-.29,1.3c-.19,1.24-1,2.69-2.55,2.69s-2.37-1.45-2.57-2.75l-.27-1.24a13.16,13.16,0,0,0,5.68,0ZM27,46.52l.52,2.3c.4,2.62,2.22,4.38,4.53,4.38a4.7,4.7,0,0,0,4.52-4.32l.53-2.36a13.4,13.4,0,0,0,2.53-1.36,4.22,4.22,0,0,1,1.93,1.92h-2a1,1,0,0,0-.78.37,1,1,0,0,0-.2.84,3.16,3.16,0,0,1-.68,2.61,1,1,0,1,0,1.42,1.41,4.72,4.72,0,0,0,1.31-3.23h2.14a4.52,4.52,0,0,1,4.52,4.51v1a.45.45,0,0,1-.46.45H17.24a.45.45,0,0,1-.45-.45v-1a4.51,4.51,0,0,1,4.51-4.51h2.15a4.68,4.68,0,0,0,1.31,3.23,1,1,0,0,0,1.41,0,1,1,0,0,0,0-1.41,3.14,3.14,0,0,1-.67-2.61,1,1,0,0,0-.2-.84,1,1,0,0,0-.78-.37h-2a4.27,4.27,0,0,1,1.93-1.92A12.85,12.85,0,0,0,27,46.52Z"/>
</g>
</svg>