<?xml version="1.0" ?>
<!-- Uploaded to: SVG Repo, www.svgrepo.com, Generator: SVG Repo Mixer Tools -->
<svg width="800px" height="800px" viewBox="0 0 64 64" xmlns="http://www.w3.org/2000/svg">
<defs>
<style>.cls-1{fill:#756e78;}.cls-2{fill:#665e66;}.cls-3{fill:#eaafa5;}.cls-4{fill:#f1cbc6;}.cls-5{fill:#544f57;}.cls-6{fill:#cb5769;}.cls-7{fill:#d57080;}</style>
</defs>
<g data-name="Winter Avatar" id="Winter_Avatar-9">
<path class="cls-1" d="M44.09,43c0-3.13-3.55-4.45-3.55-4.45H23.81s-3.68,1.37-3.68,4.61l-.08,4.65,2.76,2,10.25-1.06,9.18.41Z" id="path33105-8"/>
<path class="cls-2" d="M39.53,46.81a4.51,4.51,0,0,0,1-3.86h3.52a6,6,0,0,1,6,6v5.18a1.59,1.59,0,0,1-1.59,1.59l-33,.48a1.65,1.65,0,0,1-1.65-1.65V49.38a6.25,6.25,0,0,1,6.26-6.27h3.65a4.71,4.71,0,0,0,1.07,4s1.08,1.48,7.5,1.48S39.53,46.81,39.53,46.81Z" id="path33107-9"/>
<path class="cls-3" d="M26.86,38.39c.4,1.77.79,3.53,1.19,5.3.33,2.16,1.76,4,3.95,4s3.62-1.79,4-4c.33-1.49.67-3,1-4.45Z" id="path70902"/>
<path class="cls-4" d="M32,7.76A13.23,13.23,0,0,1,45.29,19.89l.53,6.4a13.87,13.87,0,1,1-27.64,0l.53-6.4A13.23,13.23,0,0,1,32,7.76Z" id="path70904"/>
<path class="cls-3" d="M40.49,17a13,13,0,0,1,.59,2.94l.33,4,.2,2.43A13.87,13.87,0,0,1,29.89,41.14,14.65,14.65,0,0,0,32,41.3a13.86,13.86,0,0,0,13.82-15l-.2-2.43Z" id="path70906"/>
<path class="cls-2" d="M39.89,10.3a13.15,13.15,0,0,1,5.4,9.59l.33,4c-6.65,2-12.42-4.94-12.42-4.94l-.7-4.37Z" id="path70908"/>
<path class="cls-5" d="M32,7.76a14.65,14.65,0,0,0-2.11.16,13.52,13.52,0,0,1,5.79,2.38,13.19,13.19,0,0,1,5.4,9.59l.33,4v.18a8.74,8.74,0,0,0,4.2-.18l-.33-4A13.24,13.24,0,0,0,32,7.76Z" id="path70910"/>
<path class="cls-1" d="M39.89,10.3A13.41,13.41,0,0,0,32,7.76,13.23,13.23,0,0,0,18.71,19.89l-.42,5.05A26,26,0,0,0,39.89,10.3Z" id="path70912"/>
<path class="cls-2" d="M32,7.76a14.41,14.41,0,0,0-2.1.16A13.23,13.23,0,0,1,38.42,13a18.92,18.92,0,0,0,1.47-2.68A13.41,13.41,0,0,0,32,7.76Z" id="path70914"/>
<path class="cls-6" d="M33.75,48.64l3.8,1.71a.9.9,0,0,0,1.27-.82V45.66a.9.9,0,0,0-.93-.91,1.05,1.05,0,0,0-.34.08l-3.8,1.72h-3.5l-3.8-1.72a1.05,1.05,0,0,0-.34-.08.9.9,0,0,0-.93.91v3.87a.9.9,0,0,0,1.27.82l3.8-1.71Z" id="path70916"/>
<path class="cls-7" d="M32,45.16a1.75,1.75,0,0,1,1.75,1.75v1.73a1.75,1.75,0,0,1-3.5,0V46.91A1.75,1.75,0,0,1,32,45.16Z" id="path70918"/>
<path d="M32,36.62a8.38,8.38,0,0,0,4.52-1.27,1,1,0,0,0-1.15-1.64,6.7,6.7,0,0,1-6.74,0,1,1,0,0,0-1.39.25,1,1,0,0,0,.24,1.39A8.38,8.38,0,0,0,32,36.62Z"/>
<path d="M44.86,42.12a6,6,0,0,0-2.74-3.82c.28-.26.56-.51.82-.8a14.92,14.92,0,0,0,3.88-11.29l-.53-6.4a14.35,14.35,0,0,0-28.58,0l-.53,6.4A14.92,14.92,0,0,0,21.06,37.5c.26.29.54.54.82.8a6,6,0,0,0-2.74,3.82,7.15,7.15,0,0,0-6.27,7.07v5a2.62,2.62,0,0,0,2.62,2.62h33a2.62,2.62,0,0,0,2.62-2.62v-5A7.15,7.15,0,0,0,44.86,42.12ZM42.79,42h-2.4a1,1,0,0,0-1,1,6.89,6.89,0,0,1-.21,1.26,1.91,1.91,0,0,0-1.32-.5h0a2,2,0,0,0-.72.17l-.25.11c0-.11.62-2.7.64-2.82a15,15,0,0,0,2.93-1.56A4.79,4.79,0,0,1,42.79,42ZM26.14,45.79l3.11,1.4V48l-3.08,1.39C26.17,49.13,26.15,46.25,26.14,45.79ZM29,43.47l-.35-1.56a14.41,14.41,0,0,0,6.66,0L35,43.54a4.59,4.59,0,0,1-.58,1.63l-.2.09a2.71,2.71,0,0,0-4.36,0l-.2-.09A4.88,4.88,0,0,1,29,43.47Zm3,5.92a.74.74,0,0,1-.75-.75V46.91a.75.75,0,0,1,1.5,0v1.73A.74.74,0,0,1,32,49.39Zm2.75-2.2,3.07-1.38v3.57L34.75,48ZM44.3,20l.25,3.11c-4.44.8-8.44-2.62-9.95-4.12a27.78,27.78,0,0,0,5.63-7.12A12.11,12.11,0,0,1,44.3,20ZM32,8.76a12.47,12.47,0,0,1,6.62,1.87A25.16,25.16,0,0,1,19.39,23.79L19.7,20A12.21,12.21,0,0,1,32,8.76ZM19.18,26.38l0-.56A28.17,28.17,0,0,0,25,24.58a3.45,3.45,0,0,0-.67.54A4,4,0,0,0,23.16,28a4,4,0,0,0,7.91,1h1.86a4,4,0,1,0,0-2H31.07a4,4,0,0,0-3.88-3,3.87,3.87,0,0,0-.49,0,26.53,26.53,0,0,0,6.37-3.73c1.47,1.52,5.35,5,10.1,5a9.3,9.3,0,0,0,1.55-.14l.1,1.29a12.86,12.86,0,1,1-25.64,0Zm6.57.15A2,2,0,1,1,25.16,28,2,2,0,0,1,25.75,26.53Zm9,1.43a2,2,0,1,1,2,2A2,2,0,0,1,34.79,28ZM26.47,41.21c.88,3.84.59,2.56.64,2.82l-.25-.11a2,2,0,0,0-.72-.17h0a1.91,1.91,0,0,0-1.32.5A6.86,6.86,0,0,1,24.61,43a1,1,0,0,0-1-1H21.22a4.75,4.75,0,0,1,2.33-2.38A14.63,14.63,0,0,0,26.47,41.21ZM14.87,54.14v-5A5.16,5.16,0,0,1,20,44h2.71a7.25,7.25,0,0,0,1.45,3.28v2.22a1.89,1.89,0,0,0,1.9,1.9,1.8,1.8,0,0,0,.78-.17L29.63,50A2.78,2.78,0,0,0,31,51.2v3.56H15.49A.62.62,0,0,1,14.87,54.14Zm34.26,0a.62.62,0,0,1-.62.62H33V51.2A2.78,2.78,0,0,0,34.37,50l2.77,1.24a1.8,1.8,0,0,0,.78.17,1.89,1.89,0,0,0,1.9-1.9V47.31A7.25,7.25,0,0,0,41.27,44H44a5.16,5.16,0,0,1,5.15,5.16Z"/>
</g>
</svg>