<?xml version="1.0" ?>
<!-- Uploaded to: SVG Repo, www.svgrepo.com, Generator: SVG Repo Mixer Tools -->
<svg width="800px" height="800px" viewBox="0 0 64 64" xmlns="http://www.w3.org/2000/svg">
<defs>
<style>.cls-1{fill:#f6e266;}.cls-2{fill:#e29375;}.cls-3{fill:#eaafa5;}.cls-4{fill:#f1cbc6;}.cls-5{fill:#f4dd45;}.cls-6{fill:#d57080;}.cls-7{fill:#eaaadd;}.cls-8{fill:#e490d0;}.cls-9{fill:#bc95e2;}.cls-10{fill:#ac80dd;}.cls-11{fill:#9d66d5;}</style>
</defs>
<g data-name="Winter Avatar" id="Winter_Avatar-16">
<path class="cls-1" d="M43.71,25.34c.75-1.55,2.26-5,2.07-7.54a9.54,9.54,0,0,1,5.38,5.27l.52-.1c.32-3.18.21-11.39-8.86-14.63a5.8,5.8,0,0,0-3,0C33.18,10.28,32,12,32,12s-1.18-1.76-7.81-3.74a5.8,5.8,0,0,0-3,0C12.12,11.58,12,19.78,12.32,23l.54.07a9.49,9.49,0,0,1,5.36-5.23c-.2,2.5,1.32,6,2.07,7.54Z" id="path76879-5"/>
<path class="cls-2" d="M19.07,29.73,20,36.49c-.18,1.67-.38,3.24-.52,4.12a1,1,0,0,0,.32.92c2.53,1.77,8.39,1.27,8.39,1.27h7.72s5.86.5,8.39-1.27a1,1,0,0,0,.32-.92c-.14-.88-.34-2.45-.52-4.12l.89-6.75L32.41,22Z" id="path120224-35"/>
<path class="cls-3" d="M43.3,27.46H20.7c-.61.13-1.63,2.27-1.63,2.27a4,4,0,0,0,2.44,7.07h21a4,4,0,0,0,2.45-7.06S43.91,27.59,43.3,27.46Z" id="path71411-27-62"/>
<path class="cls-4" d="M43.3,29l.17,2a11.51,11.51,0,1,1-22.94,0l.09-1.13L20.7,29l6.87-7.15,11.14,1.31Z" id="path118751-12"/>
<path class="cls-3" d="M27.57,21.82l-.32.33,8.31,1L40,27.57l.27,3.4a11.52,11.52,0,0,1-9.89,12.34,11.75,11.75,0,0,0,1.58.11A11.51,11.51,0,0,0,43.47,31l-.17-2-4.59-5.84Z" id="path131872-7"/>
<path class="cls-5" d="M41.73,17.8c.19,2.5-1.32,6-2.07,7.54h4.05a24.34,24.34,0,0,0,1.8-4.88,9.25,9.25,0,0,0,.27-2.66Z" id="path15518"/>
<path class="cls-5" d="M41.32,8.12a5.68,5.68,0,0,0-1.51.18l-.63.2a12.52,12.52,0,0,1,8.35,10.23,9.15,9.15,0,0,1,3.63,4.34l.52-.1c.32-3.18.21-11.39-8.86-14.63A5.15,5.15,0,0,0,41.32,8.12Z" id="path14447"/>
<path class="cls-6" d="M32,21a16.6,16.6,0,0,0-12.5,5.19,1.71,1.71,0,0,0,2.7,2.11s2.87-3.87,9.8-3.87,9.8,3.87,9.8,3.87a1.71,1.71,0,0,0,2.7-2.11A16.6,16.6,0,0,0,32,21Z" id="path14243-4-5-6-1"/>
<path class="cls-6" d="M14.63,25.34a2.39,2.39,0,0,1-2.4,2.4h0a2.39,2.39,0,0,1-2.4-2.4h0a2.4,2.4,0,0,1,2.4-2.4h0a2.4,2.4,0,0,1,2.4,2.4Z" id="path76767-1"/>
<path class="cls-6" d="M54.17,25.34a2.39,2.39,0,0,1-2.4,2.4h0a2.39,2.39,0,0,1-2.4-2.4h0a2.4,2.4,0,0,1,2.4-2.4h0a2.4,2.4,0,0,1,2.4,2.4Z" id="path76872-9"/>
<path class="cls-7" d="M20.75,45.62A5.09,5.09,0,0,0,17,50.55v4a1.35,1.35,0,0,0,1.35,1.35H45.7a1.35,1.35,0,0,0,1.35-1.35v-4a5.09,5.09,0,0,0-3.8-4.93Z" id="path14018"/>
<path class="cls-8" d="M39.41,45.62a5.08,5.08,0,0,1,3.79,4.93v4a1.35,1.35,0,0,1-1.34,1.35H45.7a1.35,1.35,0,0,0,1.35-1.35v-4a5.09,5.09,0,0,0-3.79-4.93Z" id="path14020"/>
<path class="cls-9" d="M39.42,47.45a28.41,28.41,0,0,0,3.24-1.19,1.36,1.36,0,0,0,.57-1.79l-1-3.28a1.4,1.4,0,0,0-1.89-.63c-.37.15-.82.33-1.33.5l-5.92,1.2q-.51,0-1,0a22.38,22.38,0,0,1-8.3-1.73,1.4,1.4,0,0,0-1.89.63c-.35,1.09-.69,2.19-1,3.28a1.36,1.36,0,0,0,.57,1.79A27.19,27.19,0,0,0,32,48.57q.53,0,1,0Z" id="path14022"/>
<path class="cls-10" d="M40.85,40.43a2,2,0,0,0-.55.13c-.37.15-.82.33-1.33.5l-.32.06a1.26,1.26,0,0,1,1.32.75l1,3.29A1.36,1.36,0,0,1,40.44,47c-.38.17-.84.36-1.37.56l.35-.06a28.41,28.41,0,0,0,3.24-1.19,1.36,1.36,0,0,0,.57-1.79l-1-3.28A1.26,1.26,0,0,0,40.85,40.43Z" id="path14024"/>
<path class="cls-10" d="M34.34,40.74h3.78A1.28,1.28,0,0,1,39.41,42v9.79a1.29,1.29,0,0,1-1.29,1.29H34.34a1.29,1.29,0,0,1-1.29-1.29V42A1.29,1.29,0,0,1,34.34,40.74Z" id="path14026"/>
<path class="cls-11" d="M36.34,40.74A1.29,1.29,0,0,1,37.64,42v9.79a1.3,1.3,0,0,1-1.3,1.29h1.78a1.29,1.29,0,0,0,1.29-1.29V42a1.28,1.28,0,0,0-1.29-1.29Z" id="path14028"/>
<path d="M29.19,33V31.9a1,1,0,0,0-2,0V33a1,1,0,0,0,2,0Z"/>
<path d="M35.81,30.9a1,1,0,0,0-1,1V33a1,1,0,0,0,2,0V31.9A1,1,0,0,0,35.81,30.9Z"/>
<path d="M34.7,35.79a5.29,5.29,0,0,1-2.7.72,5.2,5.2,0,0,1-2.7-.72,1,1,0,0,0-1.15,1.63,7.34,7.34,0,0,0,7.7,0,1,1,0,0,0-1.15-1.63Z"/>
<path d="M12.23,28.74a3.4,3.4,0,0,0,1.95-6.18,8.54,8.54,0,0,1,3.1-3.16,20.92,20.92,0,0,0,1.81,5.71,4.68,4.68,0,0,0-.38.42,2.72,2.72,0,0,0,0,3.27,4.92,4.92,0,0,0,.2,8.22c-.33,2.9-.48,3.69-.53,3.89a1,1,0,0,0,.26,1,5,5,0,0,0,1.6,1l-.4,1.26a3.43,3.43,0,0,0-.12.76A6.11,6.11,0,0,0,16,50.55v4a2.35,2.35,0,0,0,2.35,2.35H45.7a2.35,2.35,0,0,0,2.35-2.35v-4a6.11,6.11,0,0,0-3.74-5.62,3.43,3.43,0,0,0-.12-.76l-.4-1.26a5,5,0,0,0,1.6-1,1,1,0,0,0,.26-1c-.06-.24-.22-1.09-.53-3.89a4.92,4.92,0,0,0,.2-8.22,2.64,2.64,0,0,0,.52-1.27,2.71,2.71,0,0,0-.57-2s-.15-.18-.36-.4a20.92,20.92,0,0,0,1.81-5.71,8.54,8.54,0,0,1,3.1,3.16,3.41,3.41,0,1,0,2.93-.46c.19-4-.7-11.52-9.6-14.7a6.67,6.67,0,0,0-3.63-.05C35.15,8.64,33,9.88,32,10.67c-1-.79-3.15-2-7.52-3.33a6.77,6.77,0,0,0-3.63.06c-8.9,3.18-9.79,10.74-9.6,14.7a3.39,3.39,0,0,0,1,6.64Zm31.48-2a.65.65,0,0,1,.14.52.7.7,0,0,1-.26.48.72.72,0,0,1-1-.11c-.13-.17-3.25-4.27-10.6-4.27s-10.47,4.1-10.59,4.25a.71.71,0,0,1-1.13-.86A15.76,15.76,0,0,1,32,22,15.75,15.75,0,0,1,43.71,26.76Zm-1.24,4.29a10.47,10.47,0,0,1-3.65,8.83,2,2,0,0,0-.7-.14H34.34a2.27,2.27,0,0,0-2.14,1.54H32a20.76,20.76,0,0,1-6.49-1.12,10.48,10.48,0,0,1-4-9.12l.1-1.27A2.77,2.77,0,0,0,23,28.85c.11-.14,2.71-3.47,9-3.47s8.89,3.33,9,3.48a2.64,2.64,0,0,0,1.36.91ZM38.12,41.74a.29.29,0,0,1,.29.29v9.79a.29.29,0,0,1-.29.29H34.34a.29.29,0,0,1-.29-.29V42a.29.29,0,0,1,.29-.29Zm2.21-.12.35-.14a.73.73,0,0,1,.55,0l1.05,3.29c.06.19.11.51,0,.56-.45.2-1.09.46-1.85.73V42A2,2,0,0,0,40.33,41.62Zm-8.28,6a26.11,26.11,0,0,1-10.31-2.23c-.13-.05-.08-.37,0-.56l.69-2.18h0l.34-1.07a.62.62,0,0,1,.56,0c.37.16.83.33,1.36.51l0,0a22.81,22.81,0,0,0,7.34,1.28ZM19.56,30.63l0,.25A12.71,12.71,0,0,0,20,35.37a3,3,0,0,1-.41-4.74Zm.85,10.14c.09-.5.22-1.41.4-3l.13,0a13.17,13.17,0,0,0,1.21,1.83l-.19.07a2,2,0,0,0-1.1,1.21l0,.11A3.29,3.29,0,0,1,20.41,40.77Zm25.64,9.78v4a.35.35,0,0,1-.35.35H18.3a.35.35,0,0,1-.35-.35v-4A4.1,4.1,0,0,1,20.4,46.8a2,2,0,0,0,.53.37,28.06,28.06,0,0,0,11.12,2.4v2.25a2.3,2.3,0,0,0,2.29,2.29h3.78a2.3,2.3,0,0,0,2.29-2.29V48.15a28,28,0,0,0,2.66-1,2,2,0,0,0,.53-.37A4.1,4.1,0,0,1,46.05,50.55Zm-2.46-9.78a3.29,3.29,0,0,1-.42.22l0-.11A2,2,0,0,0,42,39.67l-.19-.07a13.17,13.17,0,0,0,1.21-1.83l.13,0C43.37,39.34,43.5,40.24,43.59,40.77Zm.44-5.4a12.71,12.71,0,0,0,.44-4.49l0-.25A3,3,0,0,1,44,35.37Zm9.14-10a1.4,1.4,0,1,1-2.8,0A1.38,1.38,0,0,1,51.79,24,1.4,1.4,0,0,1,53.17,25.34Zm-31.65-16a4.71,4.71,0,0,1,2.39,0c5.95,1.77,7.25,3.34,7.26,3.34h0A1,1,0,0,0,32,13a1,1,0,0,0,.84-.4s1.3-1.59,7.28-3.37a4.82,4.82,0,0,1,2.39,0,11.75,11.75,0,0,1,8.26,11.06,11.06,11.06,0,0,0-4.57-3.47,1,1,0,0,0-1.39,1,14.3,14.3,0,0,1-1.43,5.83A18.24,18.24,0,0,0,32,20a18.23,18.23,0,0,0-11.35,3.76,14.3,14.3,0,0,1-1.43-5.83,1,1,0,0,0-1.39-1,11.06,11.06,0,0,0-4.57,3.47A11.75,11.75,0,0,1,21.52,9.29ZM12.23,23.94a1.4,1.4,0,1,1-1.4,1.4A1.4,1.4,0,0,1,12.23,23.94Z"/>
</g>
</svg>