<?xml version="1.0" ?>
<!-- Uploaded to: SVG Repo, www.svgrepo.com, Generator: SVG Repo Mixer Tools -->
<svg width="800px" height="800px" viewBox="0 0 64 64" xmlns="http://www.w3.org/2000/svg">
<defs>
<style>.cls-1{fill:#f6e266;}.cls-2{fill:#d57080;}.cls-3,.cls-7{fill:#f6f9f9;}.cls-4{fill:#cb5769;}.cls-5{fill:#eaafa5;}.cls-6{fill:#f1cbc6;}.cls-7{fill-opacity:0.99;}.cls-8{fill:#dae4ea;}.cls-9{fill:#e7ecf1;}</style>
</defs>
<g data-name="Winter Avatar" id="Winter_Avatar-42">
<path class="cls-1" d="M27.28,56c-2.66-3.31-2.49-8-2.49-8h17s.17,4.7-2.49,8Z" id="path44002-2-5"/>
<path class="cls-2" d="M24.79,48H22.45a5.56,5.56,0,0,0-5.57,5.58v1A1.47,1.47,0,0,0,18.35,56h8.93Zm14.54,8h8.93a1.47,1.47,0,0,0,1.47-1.47v-1A5.57,5.57,0,0,0,44.15,48H41.82Z" id="rect17652-5-6"/>
<path class="cls-3" d="M27.28,56c-2.66-3.31-2.49-8-2.49-8h17s.17,4.7-2.49,8Z" id="path167436-9"/>
<path class="cls-4" d="M41.82,48l0,.09a5.56,5.56,0,0,1,4.6,5.49v1A1.47,1.47,0,0,1,44.92,56h3.34a1.47,1.47,0,0,0,1.47-1.47v-1A5.57,5.57,0,0,0,44.15,48Z" id="path169664-3"/>
<path class="cls-5" d="M29.11,45.79l.63,2.83c.3,2,1.59,3.56,3.56,3.56s3.27-1.61,3.57-3.56l.63-2.83-4.88-5.36Z" id="path22987-26-8-74"/>
<path class="cls-2" d="M16.63,31.92a3.65,3.65,0,0,0,3,6.67l-.4-6.94-.35-1.27L17,30.29Z" id="path31139-8-0"/>
<path class="cls-5" d="M44.7,39.27a4.3,4.3,0,0,0,.88-8.51H21a4.3,4.3,0,0,0,.89,8.51Z" id="path114197-5-5"/>
<path class="cls-6" d="M42.44,31l-.32-4.43.64.36-4.54-6.12L23.73,25.63l-.54,1.17,1.3-.22-.34,4.68-1.48,5.21,21,.12Z" id="path99362-0-25"/>
<path class="cls-7" d="M24.49,26.58l-1.3.22L21,31.71l-.1,1.23a12.5,12.5,0,1,0,24.91,0l-.18-2.19-2.82-3.81-.64-.36.58,8.08c-4,1.9-7,.61-9.4-1.5-2.44,2.11-5.41,3.4-9.4,1.5Z" id="path95765-0"/>
<path class="cls-8" d="M33.3,16.23a11.76,11.76,0,0,0-1.89.15,12.09,12.09,0,0,1,5.21,2.14,11.82,11.82,0,0,1,4.87,8.64l.3,3.59v.16a7.75,7.75,0,0,0,3.78-.16l-.29-3.59A11.94,11.94,0,0,0,33.3,16.23Z" id="path101011-3-4"/>
<path class="cls-3" d="M31.15,8c-8.33,0-15.88,6.11-16.81,14.39a16.69,16.69,0,0,0,2.29,9.53,3.69,3.69,0,0,1,1.65-.4,3.44,3.44,0,0,1,.91.12h0A4.35,4.35,0,0,1,21,30.76l.3-3.6,7.58-3.25,15.42-.57,2,0C46.33,15,41.76,8,31.15,8Z" id="path32062-4-3"/>
<path class="cls-9" d="M46.33,23.3C46.33,15,41.76,8,31.15,8a16.1,16.1,0,0,0-2.31.16C37.58,9.23,41.4,15.7,41.4,23.3Z" id="path168645-1"/>
<path class="cls-9" d="M19.66,23.63s-2.14.65-2.14,3.71a19.49,19.49,0,0,0,.53,4.2l.23,0a3.44,3.44,0,0,1,.91.12h0A4.35,4.35,0,0,1,21,30.76l.3-3.6,1.53-.65Z" id="path174279-4"/>
<path class="cls-2" d="M33.3,21.18a44.18,44.18,0,0,0-13.64,2.33,2.15,2.15,0,0,0,1.48,4A40.37,40.37,0,0,1,33.3,25.46a40.39,40.39,0,0,1,12.17,2.08,2.14,2.14,0,0,0,1.47-4A44.1,44.1,0,0,0,33.3,21.18Z" id="path31499-9-9"/>
<path class="cls-4" d="M42.86,22.34a2.36,2.36,0,0,1-1.3,4.11,37.77,37.77,0,0,1,3.91,1.09,2.14,2.14,0,0,0,1.47-4A39.14,39.14,0,0,0,42.86,22.34Z" id="path169199-2"/>
<path d="M29,29.1a1,1,0,0,0-1,1V31a1,1,0,1,0,2,0V30.1A1,1,0,0,0,29,29.1Z"/>
<path d="M37.57,32a1,1,0,0,0,1-1V30.1a1,1,0,0,0-2,0V31A1,1,0,0,0,37.57,32Z"/>
<path d="M22.45,47a6.58,6.58,0,0,0-6.57,6.58v1A2.48,2.48,0,0,0,18.35,57H48.26a2.48,2.48,0,0,0,2.47-2.47v-1A6.59,6.59,0,0,0,44.15,47H38.27l.13-.58A13.63,13.63,0,0,0,43.28,43a13.21,13.21,0,0,0,2-2.83A5.29,5.29,0,0,0,50,35a5.21,5.21,0,0,0-3.4-5l-.12-1.36a3.14,3.14,0,0,0,.82-6.07C47,13,40.89,7,31.15,7c-9,0-16.84,6.71-17.8,15.28a17.07,17.07,0,0,0,2,9.34,4.59,4.59,0,0,0-1.69,3.56,4.65,4.65,0,0,0,4.65,4.65,4.41,4.41,0,0,0,1.2-.18,5.15,5.15,0,0,0,1.87.56,13.21,13.21,0,0,0,2,2.83,13.55,13.55,0,0,0,4.88,3.37l.13.58ZM33.3,53.16A4.71,4.71,0,0,0,37.82,49h3a12.31,12.31,0,0,1-2,6h-11a12.2,12.2,0,0,1-2-6h3C29.28,51.49,31.06,53.16,33.3,53.16ZM17.88,54.53v-1A4.58,4.58,0,0,1,22.45,49h1.37a15.06,15.06,0,0,0,1.62,6H18.35A.47.47,0,0,1,17.88,54.53Zm30.85-1v1a.47.47,0,0,1-.47.47H41.17a15.06,15.06,0,0,0,1.62-6h1.36A4.58,4.58,0,0,1,48.73,53.57ZM48,35a3.3,3.3,0,0,1-1.76,2.9,13.44,13.44,0,0,0,.58-5.13l0-.3A3.27,3.27,0,0,1,48,35Zm-.72-9a1.14,1.14,0,0,1-1.47.68A40.92,40.92,0,0,0,33.3,24.46,41.08,41.08,0,0,0,20.79,26.6a1.1,1.1,0,0,1-.87,0,1.07,1.07,0,0,1-.59-.64A1.15,1.15,0,0,1,20,24.45,43.59,43.59,0,0,1,33.3,22.18a43.61,43.61,0,0,1,13.3,2.27A1.15,1.15,0,0,1,47.28,25.92ZM41.66,34c-2.74,1.09-5.14.58-7.7-1.63a1,1,0,0,0-1.31,0c-2.56,2.21-5,2.72-7.7,1.63l.48-6.64a37.51,37.51,0,0,1,7.87-.93,37.53,37.53,0,0,1,7.88.93Zm-23,.94a3.27,3.27,0,0,1,1.2-2.53l0,.3a13.44,13.44,0,0,0,.58,5.13A3.3,3.3,0,0,1,18.61,35ZM15.34,22.5C16.19,14.93,23.13,9,31.15,9c8.42,0,13.61,4.81,14.13,12.93a44.94,44.94,0,0,0-12-1.75,44.91,44.91,0,0,0-13.2,2.13A2.67,2.67,0,0,1,20,20.73a1,1,0,0,0-.76-1.18,1,1,0,0,0-1.19.76,4.71,4.71,0,0,0,.26,2.88,3.11,3.11,0,0,0,1.83,5.45L20,30a5.06,5.06,0,0,0-1.13.59,4.11,4.11,0,0,0-.6-.08,4.61,4.61,0,0,0-1.18.17A15.1,15.1,0,0,1,15.34,22.5Zm.29,12.68a2.65,2.65,0,0,1,1.43-2.35A5.47,5.47,0,0,0,16.61,35a5.23,5.23,0,0,0,.76,2.69A2.65,2.65,0,0,1,15.63,35.18Zm6.15-2.27.38-4.65,1.23-.36-.48,6.68a1,1,0,0,0,.56,1,9.56,9.56,0,0,0,4.15,1,9.22,9.22,0,0,0,5.68-2.13,8.77,8.77,0,0,0,9.84,1.11,1,1,0,0,0,.56-1l-.48-6.68,1.22.36.39,4.65a11.56,11.56,0,1,1-23,0ZM33.3,47.42a13.26,13.26,0,0,0,2.89-.32l-.29,1.33c-.2,1.26-1,2.73-2.6,2.73s-2.39-1.47-2.6-2.8l-.28-1.26A13.24,13.24,0,0,0,33.3,47.42Z"/>
<path d="M35.59,40.09a1,1,0,0,0-1.14-1.65,2.2,2.2,0,0,1-1.15.3,2.24,2.24,0,0,1-1.14-.3A1,1,0,0,0,31,40.09a4.34,4.34,0,0,0,4.57,0Z"/>
</g>
</svg>