<?xml version="1.0" ?>
<!-- Uploaded to: SVG Repo, www.svgrepo.com, Generator: SVG Repo Mixer Tools -->
<svg width="800px" height="800px" viewBox="0 0 64 64" xmlns="http://www.w3.org/2000/svg">
<defs>
<style>.cls-1{fill:#f6e266;}.cls-2{fill:#d57080;}.cls-3{fill:#f6f9f9;}.cls-4{fill:#eaafa5;}.cls-5{fill:#f1cbc6;}.cls-6{fill:#665e66;}.cls-7{fill:#544f57;}.cls-8{fill:#756e78;}.cls-9{fill:#e7ecf1;}.cls-10{fill:#cb5769;}</style>
</defs>
<g data-name="Winter Avatar" id="Winter_Avatar-50">
<path class="cls-1" d="M27.28,56c-2.66-3.31-2.49-8-2.49-8h17s.17,4.7-2.49,8Z" id="path44002-2"/>
<path class="cls-2" d="M24.79,48H22.45a5.56,5.56,0,0,0-5.57,5.58v1A1.47,1.47,0,0,0,18.35,56h8.93Zm14.54,8h8.93a1.47,1.47,0,0,0,1.47-1.47v-1A5.57,5.57,0,0,0,44.15,48H41.82Z" id="rect17652-5"/>
<path class="cls-3" d="M27.28,56c-2.66-3.31-2.49-8-2.49-8h17s.17,4.7-2.49,8Z" id="path167436"/>
<path class="cls-4" d="M29.11,45.79l.63,2.83c.3,2,1.59,3.56,3.56,3.56s3.27-1.61,3.57-3.56l.63-2.83-4.88-5.36Z" id="path22987-26"/>
<path class="cls-2" d="M16.63,31.92a3.65,3.65,0,0,0,3,6.67,3.9,3.9,0,0,0,1.66-1.37l1.9-9.76H20.77l-1.93,2.91L17,30.29Z" id="path31139-8"/>
<path class="cls-4" d="M44.68,39.23a4.29,4.29,0,0,0,.89-8.49h-14a4.29,4.29,0,0,0,.89,8.49Z" id="path114197"/>
<path class="cls-5" d="M20.89,31.59l-.11,1.23A12.62,12.62,0,0,0,33.3,46.42,12.48,12.48,0,0,0,45.74,32.91l-.17-2.18-7.35-9.92-14.48,4.8Z" id="path99362"/>
<path class="cls-4" d="M41,24.5a12.21,12.21,0,0,1,.53,2.65l.29,3.58L42,32.91A12.47,12.47,0,0,1,31.41,46.27a11.85,11.85,0,0,0,1.89.15A12.48,12.48,0,0,0,45.74,32.91l-.17-2.18Z" id="path101009"/>
<path class="cls-6" d="M34.38,26.28s5.2,6.22,11.19,4.45l-.3-3.58a11.84,11.84,0,0,0-4.86-8.63l-5.83,1.11Z" id="path113433"/>
<path class="cls-7" d="M33.3,16.23a13.14,13.14,0,0,0-1.89.14,12,12,0,0,1,5.2,2.15,11.82,11.82,0,0,1,4.87,8.63l.29,3.58,0,.16a7.88,7.88,0,0,0,3.78-.16l-.3-3.58A11.93,11.93,0,0,0,33.3,16.23Z" id="path101011"/>
<path class="cls-8" d="M33.3,16.23a11.93,11.93,0,0,0-12,10.92l-.45,4.44A23.57,23.57,0,0,0,40.41,18.52,12,12,0,0,0,33.3,16.23Z" id="path22989-64"/>
<path class="cls-6" d="M33.3,16.23a11.85,11.85,0,0,0-1.89.15,12,12,0,0,1,5.21,2.14,11.76,11.76,0,0,1,2.47,2.41,16.72,16.72,0,0,0,1.33-2.41A12.1,12.1,0,0,0,33.3,16.23Z" id="path101013"/>
<path class="cls-3" d="M31.15,8c-8.33,0-15.88,6.11-16.81,14.39a16.56,16.56,0,0,0,2.27,9.49,3.88,3.88,0,0,1,1.67-.41,3.76,3.76,0,0,1,2.53,1l.08-.89.44-4.31v-.12h0c.51-6.17,17.2-4.74,17.2-4.74l1,1.12,4.83-.18,2,0C46.33,15,41.76,8,31.15,8Z" id="path32062-4"/>
<path class="cls-9" d="M46.33,23.3C46.33,15,41.76,8,31.15,8a16.1,16.1,0,0,0-2.31.16C37.58,9.23,41.4,15.7,41.4,23.3Z" id="path168645"/>
<path class="cls-2" d="M33.3,21.18a44.07,44.07,0,0,0-13.63,2.33,2.14,2.14,0,0,0,1.47,4A40.37,40.37,0,0,1,33.3,25.46a40.39,40.39,0,0,1,12.17,2.08,2.14,2.14,0,0,0,1.47-4A44.1,44.1,0,0,0,33.3,21.18Z" id="path31499-9"/>
<path class="cls-10" d="M42.86,22.34a2.36,2.36,0,0,1-1.3,4.11,37.77,37.77,0,0,1,3.91,1.09,2.15,2.15,0,0,0,1.48-4A39.91,39.91,0,0,0,42.86,22.34Z" id="path169199"/>
<path class="cls-10" d="M41.82,48l0,.09a5.56,5.56,0,0,1,4.6,5.49v1A1.47,1.47,0,0,1,44.92,56h3.34a1.47,1.47,0,0,0,1.47-1.47v-1A5.57,5.57,0,0,0,44.15,48Z" id="path169664"/>
<path d="M30.15,35.08V33.84a1,1,0,0,0-2,0v1.24a1,1,0,0,0,2,0Z"/>
<path d="M37.46,32.84a1,1,0,0,0-1,1v1.24a1,1,0,0,0,2,0V33.84A1,1,0,0,0,37.46,32.84Z"/>
<path d="M36.3,39.47a6,6,0,0,1-6,0,1,1,0,0,0-1.15,1.63,7.93,7.93,0,0,0,8.29,0,1,1,0,0,0-1.15-1.63Z"/>
<path d="M13.63,35.18A4.66,4.66,0,0,0,20,39.52a4,4,0,0,0,.83-.49,13.38,13.38,0,0,0,7.42,7.38l.13.58H22.46a6.59,6.59,0,0,0-6.58,6.58v1A2.48,2.48,0,0,0,18.35,57H48.26a2.48,2.48,0,0,0,2.47-2.47v-1A6.59,6.59,0,0,0,44.15,47H38.27l.13-.58A13.55,13.55,0,0,0,43.28,43a13.21,13.21,0,0,0,2-2.83A5.28,5.28,0,0,0,50,35a5.21,5.21,0,0,0-3.4-5l-.12-1.37a3.13,3.13,0,0,0,.82-6.06C47,13,40.89,7,31.15,7c-9,0-16.84,6.71-17.8,15.28a17.07,17.07,0,0,0,2,9.34A4.59,4.59,0,0,0,13.63,35.18ZM20,36.67c.1.6-.8,1-.8,1a2.8,2.8,0,0,1-.95.17,2.66,2.66,0,0,1,0-5.31,1.94,1.94,0,0,1,1.5.5A13.36,13.36,0,0,0,20,36.54.56.56,0,0,0,20,36.67Zm24.42-8.41.13,1.58c-3.52.59-6.72-1.76-8.33-3.23A41.74,41.74,0,0,1,44.45,28.26Zm-22.29,0a40.66,40.66,0,0,1,10.15-1.78,22.35,22.35,0,0,1-10.33,4ZM37.82,49h3a12.31,12.31,0,0,1-2,6h-11a12.31,12.31,0,0,1-2-6h3c.49,2.5,2.27,4.17,4.51,4.17A4.71,4.71,0,0,0,37.82,49ZM17.88,54.53v-1A4.58,4.58,0,0,1,22.46,49h1.36a15.06,15.06,0,0,0,1.62,6H18.35A.47.47,0,0,1,17.88,54.53Zm30.85-1v1a.47.47,0,0,1-.47.47H41.17a15.06,15.06,0,0,0,1.62-6h1.36A4.58,4.58,0,0,1,48.73,53.57ZM35.9,48.43c-.2,1.26-1,2.73-2.6,2.73s-2.39-1.47-2.6-2.8l-.28-1.26a13.17,13.17,0,0,0,5.77,0Zm5.91-6.74a11.56,11.56,0,0,1-17,0,11.76,11.76,0,0,1-3-9.2,24.15,24.15,0,0,0,12.46-5C35.69,28.93,39.17,32,43.42,32a8.56,8.56,0,0,0,1.32-.1l.09,1.06A11.43,11.43,0,0,1,41.81,41.69ZM48,35a3.3,3.3,0,0,1-1.76,2.9,13.44,13.44,0,0,0,.58-5.13l0-.3A3.27,3.27,0,0,1,48,35Zm-.72-9a1.07,1.07,0,0,1-.59.64,1.12,1.12,0,0,1-.88,0A40.92,40.92,0,0,0,33.3,24.46,41.08,41.08,0,0,0,20.79,26.6a1.13,1.13,0,0,1-1.46-.68A1.15,1.15,0,0,1,20,24.45,43.59,43.59,0,0,1,33.3,22.18a43.61,43.61,0,0,1,13.3,2.27A1.15,1.15,0,0,1,47.28,25.92ZM15.34,22.5C16.19,14.93,23.13,9,31.15,9c8.42,0,13.61,4.81,14.13,12.93a44.94,44.94,0,0,0-12-1.75,44.91,44.91,0,0,0-13.2,2.13A2.76,2.76,0,0,1,20,20.73a1,1,0,0,0-.76-1.18,1,1,0,0,0-1.19.76,4.71,4.71,0,0,0,.26,2.88,3.14,3.14,0,0,0,1.83,5.46l-.19,2.23a3.3,3.3,0,0,0-1.66-.36,4.61,4.61,0,0,0-1.18.17A15.1,15.1,0,0,1,15.34,22.5Z"/>
</g>
</svg>