<?xml version="1.0" ?>
<!-- Uploaded to: SVG Repo, www.svgrepo.com, Generator: SVG Repo Mixer Tools -->
<svg width="800px" height="800px" viewBox="0 0 64 64" xmlns="http://www.w3.org/2000/svg">
<defs>
<style>.cls-1{fill:#756e78;}.cls-2{fill:#665e66;}.cls-3{fill:#cb5769;}.cls-4{fill:#e29375;}.cls-5{fill:#eaafa5;}.cls-6{fill:#f1cbc6;}.cls-7{fill:#e7aa90;}.cls-8{fill:#d57080;}</style>
</defs>
<g data-name="Winter Avatar" id="Winter_Avatar-29">
<path class="cls-1" d="M42.77,47.77c0-2.86-3.26-4.07-3.26-4.07h-15s-3.26,1.21-3.26,4.07l-.07,4.11,2.44,1.77,9.06-.93,8.41.7Z" id="path37315-2-9-3-0-0-84-1"/>
<path class="cls-2" d="M38.59,51.32a4.16,4.16,0,0,0,.95-3.55h3.23a5.52,5.52,0,0,1,5.53,5.54v1a1.45,1.45,0,0,1-1.46,1.45H17.16a1.45,1.45,0,0,1-1.46-1.45v-1a5.52,5.52,0,0,1,5.53-5.54h3.23a4.16,4.16,0,0,0,.95,3.55s.95,1.31,6.62,1.31S38.59,51.32,38.59,51.32Z" id="path37815-7-81-6-6-4-8-0"/>
<path class="cls-3" d="M25.17,13.41a3.13,3.13,0,1,1,5.53-2h0a2.83,2.83,0,0,1,0,.41l-.6,1.52Z" id="path8601-1"/>
<path class="cls-4" d="M16.8,29.88l1,8c-.21,2-.44,3.8-.61,4.84a1.17,1.17,0,0,0,.38,1.08c3,2.09,9.86,1.5,9.86,1.5h9.08s6.89.59,9.86-1.5a1.19,1.19,0,0,0,.38-1.08c-.17-1-.4-2.88-.61-4.84l1-7.94L32.48,20.82Z" id="path120224-3"/>
<path class="cls-5" d="M45.29,27.22H18.71c-.71.15-1.91,2.66-1.91,2.66a4.66,4.66,0,0,0,2.87,8.32H44.33a4.66,4.66,0,0,0,2.88-8.31S46,27.37,45.29,27.22Z" id="path71411-27-65"/>
<path class="cls-5" d="M27.46,45.25l.68,3.06c.33,2.11,1.72,3.85,3.86,3.85s3.53-1.74,3.86-3.85l.68-3.06-4-4.54Z" id="path71393-26-63"/>
<path class="cls-6" d="M45.29,29l.19,2.34a13.53,13.53,0,1,1-27,0L18.63,30l.08-1,8.08-8.41,13.1,1.55Z" id="path118751-94"/>
<path class="cls-5" d="M26.79,20.58l-.38.4,9.77,1.15L41.58,29l.19,2.34A13.51,13.51,0,0,1,30.15,45.84,12.49,12.49,0,0,0,32,46,13.52,13.52,0,0,0,45.48,31.33L45.29,29l-5.4-6.86Z" id="path131872-8"/>
<path class="cls-4" d="M32.71,23.86c.59.66,6.42,7,12.58,5.13a4.72,4.72,0,0,1,1.92.9l-.25-3a14.79,14.79,0,0,0-6.79-11.27L36.69,16Z" id="path18028-1"/>
<path class="cls-7" d="M32,13.25a14.9,14.9,0,0,0-15,13.65l-.25,3A4.67,4.67,0,0,1,18.71,29c.32,0,.64-.06.95-.09.66-.07,1.36-.19,2-.29a27.24,27.24,0,0,0,18.54-13,13.22,13.22,0,0,0-1.89-1A15.08,15.08,0,0,0,32,13.25Z" id="path71397-29-2"/>
<path class="cls-8" d="M32.12,11.73a15,15,0,0,0-13.19,7.78,2.44,2.44,0,0,0,2,3.59,49.19,49.19,0,0,0,21-2.77,2.32,2.32,0,0,0,1.12-3.85A15,15,0,0,0,32.12,11.73Z" id="path8577-6"/>
<path class="cls-3" d="M32.12,11.73a15.63,15.63,0,0,0-4,.52c4.49-1,9.58,2,12.22,4.7a2.32,2.32,0,0,1-1.13,3.85,51.76,51.76,0,0,1-7.31,2A52.55,52.55,0,0,0,42,20.33a2.32,2.32,0,0,0,1.12-3.85A15,15,0,0,0,32.12,11.73Z" id="path119548"/>
<path d="M28,33.29a1,1,0,0,0,1-1v-.57a1,1,0,0,0-2,0v.57A1,1,0,0,0,28,33.29Z"/>
<path d="M36,33.29a1,1,0,0,0,1-1v-.57a1,1,0,0,0-2,0v.57A1,1,0,0,0,36,33.29Z"/>
<path d="M40.39,31.88l-1.62-.22a1,1,0,0,0-.79.23,1,1,0,0,0-.35.76,1.63,1.63,0,0,1-3.25,0,1,1,0,0,0-1-1H30.62a1,1,0,0,0-1,1,1.63,1.63,0,0,1-3.25,0,1,1,0,0,0-.35-.76,1,1,0,0,0-.79-.23l-1.62.22A1,1,0,0,0,22.75,33a1,1,0,0,0,1.13.86l.66-.09a3.63,3.63,0,0,0,6.94-.12h1a3.63,3.63,0,0,0,6.94.12l.66.09A1,1,0,0,0,41.25,33,1,1,0,0,0,40.39,31.88Z"/>
<path d="M35.27,38.55a6.52,6.52,0,0,1-6.54,0,1,1,0,0,0-1.39.25,1,1,0,0,0,.24,1.39,8.5,8.5,0,0,0,8.84,0,1,1,0,0,0-1.15-1.64Z"/>
<path d="M48.17,29.42,48,26.82a15.78,15.78,0,0,0-3.24-8.33,3.22,3.22,0,0,0-.87-2.7,16.11,16.11,0,0,0-11.73-5.06c-.16,0-.32,0-.48,0a4.12,4.12,0,0,0-8.2.63A4.17,4.17,0,0,0,23.8,13a15.74,15.74,0,0,0-5.74,6,3.32,3.32,0,0,0-.39,2,15.74,15.74,0,0,0-1.62,5.76l-.21,2.59a5.61,5.61,0,0,0,.93,9c-.39,3.38-.57,4.41-.65,4.7a1,1,0,0,0,.26,1,8.23,8.23,0,0,0,4.25,1.91,4.39,4.39,0,0,0-.3.93,6.51,6.51,0,0,0-5.63,6.44v1a2.46,2.46,0,0,0,2.46,2.45H46.84a2.46,2.46,0,0,0,2.46-2.45v-1a6.51,6.51,0,0,0-5.63-6.44,4.39,4.39,0,0,0-.3-.93A8.23,8.23,0,0,0,47.62,44a1,1,0,0,0,.26-1c-.08-.29-.26-1.32-.65-4.7a5.61,5.61,0,0,0,.94-8.95Zm-2.11-1.23c-.18-.06-.37-.13-.57-.18A1,1,0,0,0,45,28h0c-4.92,1.45-9.45-2.8-10.72-4.13.25-.21.5-.4.74-.62a53.14,53.14,0,0,0,7.3-2,3.9,3.9,0,0,0,1.33-.81A13.77,13.77,0,0,1,46,27Zm-1.57,3.23a12.53,12.53,0,1,1-25,0l.13-1.53A27.23,27.23,0,0,0,32.7,25.12c1.1,1.21,5.15,5.22,10.2,5.22a9.58,9.58,0,0,0,1.49-.13ZM35.21,46.6l-.34,1.55c-.22,1.39-1.09,3-2.87,3s-2.65-1.62-2.88-3.07l-.33-1.49a14.11,14.11,0,0,0,6.42,0ZM18.89,23.25a3.58,3.58,0,0,0,2,.84,42.1,42.1,0,0,0,4.21.21,48.87,48.87,0,0,0,5.81-.36A25.7,25.7,0,0,1,18.63,28h-.12a4.58,4.58,0,0,0-.56.17l.1-1.2A13.56,13.56,0,0,1,18.89,23.25ZM25.44,11.4a2.13,2.13,0,0,1,2.13-2.12,2.11,2.11,0,0,1,2,1.67,15.92,15.92,0,0,0-4,1.18A2.24,2.24,0,0,1,25.44,11.4ZM19.81,20a14.09,14.09,0,0,1,22.58-2.82,1.22,1.22,0,0,1,.35,1.16,1.63,1.63,0,0,1-1.07,1.07,48.42,48.42,0,0,1-20.6,2.71,1.62,1.62,0,0,1-1.29-.81A1.36,1.36,0,0,1,19.81,20ZM17.58,30.55l-.06.7a14.36,14.36,0,0,0,.65,5.62,3.65,3.65,0,0,1-.59-6.32Zm1.12,8.54c.14,0,.28.07.42.08a14.88,14.88,0,0,0,2.19,3.12,15.05,15.05,0,0,0,2.25,2c-2-.12-4.16-.47-5.38-1.32C18.29,42.37,18.45,41.26,18.7,39.09Zm22.87,7.68h-2a1,1,0,0,0-.77.38,1,1,0,0,0-.21.83,3.12,3.12,0,0,1-.68,2.63,1,1,0,0,0,0,1.41,1,1,0,0,0,1.42,0,4.72,4.72,0,0,0,1.31-3.25h2.16a4.54,4.54,0,0,1,4.53,4.54v1a.45.45,0,0,1-.46.45H17.16a.45.45,0,0,1-.46-.45v-1a4.54,4.54,0,0,1,4.53-4.54h2.16A4.72,4.72,0,0,0,24.7,52a1,1,0,0,0,1.42,0,1,1,0,0,0,0-1.41A3.1,3.1,0,0,1,25.44,48a1,1,0,0,0-.2-.84,1,1,0,0,0-.78-.38h-2a3.06,3.06,0,0,1,.32-.54c.87.08,1.72.11,2.45.11.57,0,1.07,0,1.47,0l.49,2.16c.43,2.81,2.37,4.7,4.84,4.7s4.41-1.89,4.83-4.64l.5-2.22c.4,0,.9,0,1.47,0,.73,0,1.58,0,2.45-.11A3.06,3.06,0,0,1,41.57,46.77ZM45.82,43c-1.23.85-3.39,1.2-5.38,1.32a15.05,15.05,0,0,0,2.25-2,14.88,14.88,0,0,0,2.19-3.12c.14,0,.28-.06.42-.08C45.55,41.26,45.71,42.37,45.82,43Zm0-6.08a14.36,14.36,0,0,0,.65-5.62l-.06-.7a3.65,3.65,0,0,1-.59,6.32Z"/>
</g>
</svg>