<?xml version="1.0" ?>
<!-- Uploaded to: SVG Repo, www.svgrepo.com, Generator: SVG Repo Mixer Tools -->
<svg width="800px" height="800px" viewBox="0 0 64 64" xmlns="http://www.w3.org/2000/svg">
<defs>
<style>.cls-1{fill:#e29375;}.cls-2{fill:#eaafa5;}.cls-3{fill:#b1e4f9;}.cls-4{fill:#f1cbc6;}.cls-5{fill:#e7aa90;}.cls-6{fill:#d57080;}.cls-7{fill:#cb5769;}.cls-8{fill:#f6e266;}.cls-9{fill:#f4dd45;}.cls-10{fill:#75cef9;}</style>
</defs>
<g data-name="Winter Avatar" id="Winter_Avatar-28">
<path class="cls-1" d="M18.25,32.1l.93,7.19c-.2,1.78-.4,3.44-.56,4.38a1.08,1.08,0,0,0,.35,1C21.66,46.54,27.89,46,27.89,46h8.22s6.23.53,8.92-1.36a1.08,1.08,0,0,0,.35-1c-.16-.94-.36-2.6-.56-4.38l.94-7.18L32.44,23.9Z" id="path120224-91"/>
<path class="cls-2" d="M44,29.69H20c-.64.13-1.72,2.41-1.72,2.41a4.2,4.2,0,0,0,2.59,7.52H43.16a4.21,4.21,0,0,0,2.6-7.51S44.67,29.82,44,29.69Z" id="path71411-27-77"/>
<path class="cls-3" d="M21.06,48.82a5.09,5.09,0,0,0-5.1,5.1v.74A1.35,1.35,0,0,0,17.31,56H46.66A1.35,1.35,0,0,0,48,54.66v-.74a5.09,5.09,0,0,0-5.1-5.1Z" id="path44461-8-3-2-9-3"/>
<path class="cls-2" d="M27.89,46l.62,2.76c.29,1.91,1.56,3.49,3.49,3.49s3.2-1.58,3.49-3.49L36.11,46l-3.64-4.12Z" id="path71393-26-1"/>
<path class="cls-4" d="M44,31.3l.17,2.11a12.24,12.24,0,1,1-24.4,0l.1-1.19L20,31.3l7.32-7.62,11.85,1.4Z" id="path118751-15"/>
<path class="cls-2" d="M27.29,23.68l-.35.36,8.84,1,4.89,6.22.17,2.11A12.23,12.23,0,0,1,30.32,46.54a11.66,11.66,0,0,0,1.68.12A12.24,12.24,0,0,0,44.2,33.41L44,31.3l-4.89-6.22Z" id="path131872-97"/>
<path class="cls-1" d="M32.64,26.65c.53.59,5.81,6.29,11.39,4.65a4.18,4.18,0,0,1,1.73.81l-.22-2.71a13.41,13.41,0,0,0-6.15-10.2l-3.15.29Z" id="path18028-76"/>
<path class="cls-5" d="M32,17.05A13.49,13.49,0,0,0,18.47,29.4l-.22,2.7A4.12,4.12,0,0,1,20,31.3l.86-.09c.6-.06,1.23-.17,1.79-.26A24.65,24.65,0,0,0,39.39,19.2a12.12,12.12,0,0,0-1.7-.92A13.63,13.63,0,0,0,32,17.05Z" id="path71397-29-7"/>
<path class="cls-6" d="M44.77,20.26c0-.17,0-.33-.06-.5-.33-2.21.57-4.48,1.25-6.88l.63-2.21a2.1,2.1,0,0,0-2.73-2.54l-6.44,2.32a14,14,0,0,0-10.84,0L20.14,8.13a2.1,2.1,0,0,0-2.73,2.54L18,12.88c.68,2.4,1.58,4.67,1.25,6.88,0,.16-.05.33-.06.49Z" id="path23600-9"/>
<path class="cls-7" d="M44.45,8a2.16,2.16,0,0,0-.59.13L43,8.45a2.07,2.07,0,0,1,.73,2.22l-.62,2.21c-.68,2.4-1.58,4.67-1.25,6.88l.06.5h2.9a4.26,4.26,0,0,0-.06-.5c-.33-2.21.57-4.48,1.25-6.88l.63-2.21A2.11,2.11,0,0,0,44.45,8Z" id="path123064"/>
<path class="cls-8" d="M32,18c-8.39,0-13,2.33-13,2.33a2,2,0,1,0,1.85,3.54S24.31,22,32,22s11.15,1.87,11.15,1.87A2,2,0,1,0,45,20.37S40.39,18,32,18Z" id="path21501-5"/>
<path class="cls-9" d="M41.93,19.28a2.32,2.32,0,0,1-1.11,3.8,12.73,12.73,0,0,1,2.33.83A2,2,0,1,0,45,20.37,18.87,18.87,0,0,0,41.93,19.28Z" id="path123504"/>
<path class="cls-10" d="M39,48.82a5.08,5.08,0,0,1,5.09,5.1v.74A1.34,1.34,0,0,1,42.78,56h3.88A1.35,1.35,0,0,0,48,54.66v-.74a5.09,5.09,0,0,0-5.1-5.1Z" id="path150647"/>
<path d="M29,35.61V34.4a1,1,0,0,0-2,0v1.21a1,1,0,0,0,2,0Z"/>
<path d="M36.05,33.4a1,1,0,0,0-1,1v1.21a1,1,0,0,0,2,0V34.4A1,1,0,0,0,36.05,33.4Z"/>
<path d="M34.9,39.87a5.54,5.54,0,0,1-2.9.77,5.73,5.73,0,0,1-2.91-.77A1,1,0,1,0,28,41.5a7.76,7.76,0,0,0,8.1,0,1,1,0,1,0-1.15-1.63Z"/>
<path d="M13.54,14.76a1,1,0,0,0,.46-.12,9.9,9.9,0,0,1,3.26-.88c.07.22.13.45.2.68.12.4.24.8.35,1.2a14.64,14.64,0,0,0-4.41,1.94A1,1,0,0,0,13.13,19a1,1,0,0,0,.83.44,1,1,0,0,0,.56-.17,12.81,12.81,0,0,1,3.72-1.65,6.57,6.57,0,0,1,.06,2v0a3,3,0,0,0-1,3.88,3.05,3.05,0,0,0,1.34,1.3,14.39,14.39,0,0,0-1.13,4.5l-.19,2.31a5.17,5.17,0,0,0,.83,8.2c-.34,3-.51,3.92-.57,4.18a1,1,0,0,0,.25,1c1.8,1.8,5.63,2.11,8.06,2.11l1.25,0,.17.76H21.43A6.45,6.45,0,0,0,15,54.25v.32A2.43,2.43,0,0,0,17.42,57H46.58A2.43,2.43,0,0,0,49,54.57v-.32a6.45,6.45,0,0,0-6.44-6.43H36.73l.17-.76,1.25,0c2.43,0,6.26-.31,8.06-2.11a1,1,0,0,0,.25-1c-.07-.26-.23-1.17-.57-4.18a5.17,5.17,0,0,0,.84-8.19l-.19-2.32a14.52,14.52,0,0,0-1.13-4.51,3,3,0,0,0,.29-5.17v0a6.5,6.5,0,0,1,.06-2,12.52,12.52,0,0,1,3.72,1.64,1,1,0,0,0,.56.17,1,1,0,0,0,.83-.44,1,1,0,0,0-.27-1.39,14.64,14.64,0,0,0-4.41-1.94c.11-.4.23-.8.35-1.2l.2-.68a9.9,9.9,0,0,1,3.26.88,1,1,0,0,0,.46.12,1,1,0,0,0,.46-1.89,11.52,11.52,0,0,0-3.62-1l.25-.88a3.1,3.1,0,0,0-4-3.75L37.44,9.38a15,15,0,0,0-10.88,0L20.48,7.19a3.1,3.1,0,0,0-4,3.75l.25.88a11.52,11.52,0,0,0-3.62,1,1,1,0,0,0,.46,1.89Zm31,6.49A1,1,0,0,1,45,22.6a1,1,0,0,1-.59.49,1.07,1.07,0,0,1-.74-.06C43.48,23,39.85,21,32,21c-8.6,0-11.25,2-12,2.09A1,1,0,0,1,19,22.6a1,1,0,0,1,.41-1.34C19.5,21.24,23.94,19,32,19S44.5,21.24,44.53,21.25ZM43.2,33.5a11.24,11.24,0,1,1-22.4,0l.1-1.3a25,25,0,0,0,11.72-4.28c1.08,1.16,4.72,4.69,9.25,4.69a8.89,8.89,0,0,0,1.25-.1ZM34.78,47.36l-.28,1.26c-.19,1.22-1,2.64-2.5,2.64s-2.31-1.42-2.51-2.71l-.27-1.19a13,13,0,0,0,5.56,0ZM21.32,24.8S24.72,23,32,23c1.12,0,2.12.05,3,.12A22.25,22.25,0,0,1,19.89,30.3l-.12,0a2.72,2.72,0,0,0-.38.11l.08-.95A12.21,12.21,0,0,1,20.71,25,3.47,3.47,0,0,0,21.32,24.8Zm22.91,5.52a1,1,0,0,0-.49,0h0c-4.31,1.27-8.3-2.38-9.52-3.65a23,23,0,0,0,3.24-3.27,19.18,19.18,0,0,1,5.23,1.38,2.82,2.82,0,0,0,.61.23,12.32,12.32,0,0,1,1.24,4.45l.08.95C44.49,30.4,44.36,30.34,44.23,30.32ZM18.84,32.91l0,.42a13.28,13.28,0,0,0,.52,4.91,3.2,3.2,0,0,1-.48-5.33ZM20,40.55l.25.05a13.43,13.43,0,0,0,2,2.79A13,13,0,0,0,24.06,45a10,10,0,0,1-4.46-1.12C19.69,43.34,19.83,42.36,20,40.55Zm27,13.7v.32a.43.43,0,0,1-.43.43H17.42a.43.43,0,0,1-.43-.43v-.32a4.44,4.44,0,0,1,4.44-4.43h6.3a4.37,4.37,0,0,0,8.54,0h6.3A4.44,4.44,0,0,1,47,54.25ZM44.4,43.88A9.93,9.93,0,0,1,39.93,45a13.19,13.19,0,0,0,1.81-1.62,13.43,13.43,0,0,0,2-2.79l.25-.05C44.16,42.33,44.3,43.32,44.4,43.88Zm.27-5.64a13.29,13.29,0,0,0,.53-4.91l0-.42a3.2,3.2,0,0,1-.49,5.33ZM18.38,10.4A1.09,1.09,0,0,1,19.8,9.07l6.44,2.32a1,1,0,0,0,.73,0,13.06,13.06,0,0,1,10.07,0,1,1,0,0,0,.72,0L44.2,9.07a1.09,1.09,0,0,1,1.42,1.33l-.35,1.24a29.75,29.75,0,0,0-4.84.22,1,1,0,1,0,.29,2,30.37,30.37,0,0,1,4-.22,2.17,2.17,0,0,0-.07.24c-.14.45-.27.9-.4,1.35a20,20,0,0,0-3.69-.3,1,1,0,0,0-1,1,1,1,0,0,0,1,1,21.93,21.93,0,0,1,3.2.27,9.51,9.51,0,0,0-.13,1.6A36.39,36.39,0,0,0,32,17a36.49,36.49,0,0,0-11.67,1.73,9.51,9.51,0,0,0-.13-1.6,20.36,20.36,0,0,1,3.2-.27,1,1,0,0,0,1-1,1,1,0,0,0-1-1,20,20,0,0,0-3.69.3c-.13-.46-.26-.91-.4-1.35a2.17,2.17,0,0,0-.07-.24,30.37,30.37,0,0,1,4,.22,1,1,0,1,0,.29-2,29.75,29.75,0,0,0-4.84-.22Z"/>
<path d="M30.22,16.35A2.77,2.77,0,0,0,32,15.71a2.78,2.78,0,0,0,4.56-2.14,1,1,0,0,0-2,0,.78.78,0,1,1-1.56,0,1,1,0,0,0-2,0,.78.78,0,0,1-1.56,0,1,1,0,0,0-2,0A2.78,2.78,0,0,0,30.22,16.35Z"/>
</g>
</svg>