<?xml version="1.0" ?>
<!DOCTYPE svg  PUBLIC '-//W3C//DTD SVG 1.1//EN'  'http://www.w3.org/Graphics/SVG/1.1/DTD/svg11.dtd'>
<!-- Uploaded to: SVG Repo, www.svgrepo.com, Generator: SVG Repo Mixer Tools -->
<svg fill="#000000" width="800px" height="800px" viewBox="0 0 64 64" enable-background="new 0 0 64 64" version="1.1" xml:space="preserve" xmlns="http://www.w3.org/2000/svg" xmlns:xlink="http://www.w3.org/1999/xlink">
<g id="Layer_1"/>
<g id="Layer_2"/>
<g id="Layer_4"/>
<g id="Layer_5">
<path d="M45,32h-3v-9.978c0-5.556-4.486-10.076-10-10.076c-5.514,0-10,4.52-10,10.076V32h-3c-0.552,0-1,0.448-1,1v18   c0,0.552,0.448,1,1,1h26c0.553,0,1-0.448,1-1V33C46,32.448,45.553,32,45,32z M24,22.022c0-4.453,3.589-8.076,8-8.076   s8,3.623,8,8.076V32H24V22.022z M44,50H20V34h24V50z"/>
<g>
<circle cx="32.008" cy="42.008" r="0.977"/>
</g>
<g>
<circle cx="41.008" cy="37.008" r="0.977"/>
</g>
<g>
<circle cx="41.008" cy="47.008" r="0.977"/>
</g>
<g>
<path d="M34.979,45c-0.259,0-0.518-0.1-0.714-0.299c-0.387-0.394-0.381-1.027,0.013-1.414c0.404-0.397,0.603-0.79,0.606-1.202    c0.006-0.742-0.605-1.371-0.611-1.377c-0.386-0.392-0.387-1.023,0.002-1.412c0.385-0.389,1.012-0.396,1.405-0.01    c0.123,0.121,1.204,1.228,1.204,2.788c0,0.953-0.417,1.865-1.204,2.639C35.485,44.905,35.232,45,34.979,45z"/>
</g>
<g>
<path d="M37.979,47c-0.211,0-0.424-0.066-0.604-0.204c-0.439-0.334-0.524-0.961-0.19-1.401c2.552-3.355,0.025-6.755,0-6.789    c-0.334-0.44-0.249-1.067,0.19-1.401s1.068-0.249,1.401,0.19c1.212,1.593,2.771,5.568,0,9.211C38.579,46.864,38.28,47,37.979,47z"/>
</g>
<path d="M29.493,37.13c-0.313-0.178-0.698-0.173-1.007,0.013L23.723,40H23c-0.552,0-1,0.448-1,1v3c0,0.552,0.448,1,1,1h0.612   c0.011,0.004,0.019,0.013,0.03,0.017l5,1.917C28.758,46.978,28.879,47,29,47c0.2,0,0.397-0.06,0.566-0.176   C29.838,46.637,30,46.329,30,46v-8C30,37.64,29.806,37.307,29.493,37.13z M28,44.546l-3-1.15v-1.83l3-1.8V44.546z"/>
</g>
</svg>