<?xml version="1.0" ?>
<!DOCTYPE svg  PUBLIC '-//W3C//DTD SVG 1.1//EN'  'http://www.w3.org/Graphics/SVG/1.1/DTD/svg11.dtd'>
<!-- Uploaded to: SVG Repo, www.svgrepo.com, Generator: SVG Repo Mixer Tools -->
<svg fill="#000000" width="800px" height="800px" viewBox="0 0 64 64" enable-background="new 0 0 64 64" version="1.1" xml:space="preserve" xmlns="http://www.w3.org/2000/svg" xmlns:xlink="http://www.w3.org/1999/xlink">
<g id="Layer_1"/>
<g id="Layer_2"/>
<g id="Layer_4"/>
<g id="Layer_5">
<path d="M45,32h-3v-9.978c0-5.556-4.486-10.076-10-10.076c-5.514,0-10,4.52-10,10.076V32h-3c-0.552,0-1,0.448-1,1v18   c0,0.552,0.448,1,1,1h26c0.553,0,1-0.448,1-1V33C46,32.448,45.553,32,45,32z M24,22.022c0-4.453,3.589-8.076,8-8.076   s8,3.623,8,8.076V32H24V22.022z M44,50H20V34h24V50z"/>
<g>
<circle cx="30.008" cy="41.008" r="0.977"/>
</g>
<g>
<circle cx="34.008" cy="41.008" r="0.977"/>
</g>
<g>
<path d="M32,49c-3.86,0-7-3.14-7-7s3.14-7,7-7c3.859,0,7,3.14,7,7S35.859,49,32,49z M32,37c-2.757,0-5,2.243-5,5s2.243,5,5,5    s5-2.243,5-5S34.757,37,32,37z"/>
</g>
<g>
<path d="M32.078,46c-0.002,0-0.004,0-0.006,0c-1.555,0-2.655-1.123-2.775-1.245c-0.388-0.393-0.384-1.052,0.009-1.44    c0.392-0.386,1.021-0.396,1.409-0.009c0.309,0.301,1.402,1.182,2.585-0.004c0.39-0.392,1.022-0.396,1.415-0.006    c0.391,0.39,0.393,1.073,0.003,1.464C33.94,45.538,33.028,46,32.078,46z"/>
</g>
</g>
</svg>