<?xml version="1.0" ?><!-- Uploaded to: SVG Repo, www.svgrepo.com, Generator: SVG Repo Mixer Tools -->
<svg width="800px" height="800px" viewBox="0 0 64 64" data-name="Layer 1" id="Layer_1" xmlns="http://www.w3.org/2000/svg"><defs><style>
      .cls-1 {
        fill: #f76c5e;
      }

      .cls-2 {
        fill: #fd8266;
      }

      .cls-3 {
        fill: #fd5933;
      }

      .cls-4 {
        fill: #feac99;
      }
    </style></defs><path class="cls-3" d="M18,46c-5.52,0-10-6.27-10-14s4.48-14,10-14c0-5.52,6.27-10,14-10s14,4.48,14,10c5.52,0,10,6.27,10,14s-4.48,14-10,14c0,5.52-6.27,10-14,10s-14-4.48-14-10Z"/><path class="cls-2" d="M8.76,26.68c-.49,1.64-.76,3.44-.76,5.32s.27,3.68,.76,5.32c1,1.32,2.37,2.28,3.93,2.68-.11-.59-.18-1.21-.18-1.85,0-2.45,.97-4.65,2.49-6.15-1.52-1.5-2.49-3.7-2.49-6.15,0-.64,.07-1.26,.18-1.85-1.56,.4-2.93,1.36-3.93,2.68Z"/><path class="cls-2" d="M37.32,8.76c-1.64-.49-3.44-.76-5.32-.76s-3.68,.27-5.32,.76c-1.32,1-2.28,2.37-2.68,3.93,.59-.11,1.21-.18,1.85-.18,2.45,0,4.65,.97,6.15,2.49,1.5-1.52,3.7-2.49,6.15-2.49,.64,0,1.26,.07,1.85,.18-.4-1.56-1.36-2.93-2.68-3.93Z"/><path class="cls-2" d="M55.24,37.32c.49-1.64,.76-3.44,.76-5.32s-.27-3.68-.76-5.32c-1-1.32-2.37-2.28-3.93-2.68,.11,.59,.18,1.21,.18,1.85,0,2.45-.97,4.65-2.49,6.15,1.52,1.5,2.49,3.7,2.49,6.15,0,.64-.07,1.26-.18,1.85,1.56-.4,2.93-1.36,3.93-2.68Z"/><path class="cls-2" d="M37.32,55.24c-1.64,.49-3.44,.76-5.32,.76s-3.68-.27-5.32-.76c-1.32-1-2.28-2.37-2.68-3.93,.59,.11,1.21,.18,1.85,.18,2.45,0,4.65-.97,6.15-2.49,1.5,1.52,3.7,2.49,6.15,2.49,.64,0,1.26-.07,1.85-.18-.4,1.56-1.36,2.93-2.68,3.93Z"/><path class="cls-2" d="M32,27c-1.5-1.52-3.7-2.49-6.15-2.49-.64,0-1.25,.06-1.85,.18,.84-3.26,4.1-5.69,8-5.69s7.16,2.43,8,5.69c-.59-.12-1.21-.18-1.85-.18-2.45,0-4.66,.96-6.15,2.49Z"/><path class="cls-2" d="M27.67,34.5c-.57,2.06-.3,4.45,.92,6.57,.32,.55,.68,1.05,1.08,1.51-3.24,.9-6.98-.71-8.93-4.08s-1.47-7.42,.93-9.78c.19,.57,.45,1.14,.76,1.69,1.23,2.12,3.16,3.55,5.23,4.08Z"/><path class="cls-2" d="M36.33,34.5c2.07-.53,4.01-1.96,5.23-4.08,.32-.55,.57-1.12,.76-1.69,2.4,2.36,2.88,6.4,.93,9.78-1.95,3.38-5.69,4.98-8.93,4.08,.4-.46,.76-.96,1.08-1.51,1.23-2.12,1.49-4.51,.92-6.57Z"/><circle class="cls-1" cx="32" cy="32" r="5"/><path class="cls-4" d="M51.71,43.49c-1.62,1.58-3.59,2.51-5.71,2.51,0,2.17-.97,4.18-2.62,5.82l.2,.26c1.63,2.2,4.49,3.1,6.94,2.18l2.64-.99,.99-2.63c.92-2.45,.02-5.31-2.18-6.95l-.26-.2Z"/><path class="cls-4" d="M51.82,20.62c-1.64-1.65-3.65-2.62-5.82-2.62,0-2.12-.93-4.09-2.51-5.71l.2-.26c1.64-2.2,4.5-3.1,6.95-2.18l2.63,.99,.99,2.64c.92,2.45,.02,5.31-2.18,6.94l-.26,.2Z"/><path class="cls-4" d="M20.62,12.18c-1.65,1.64-2.62,3.65-2.62,5.82-2.12,0-4.09,.93-5.71,2.51l-.26-.2c-2.2-1.64-3.1-4.5-2.18-6.95l.99-2.63,2.64-.99c2.45-.92,5.31-.02,6.94,2.18l.2,.26Z"/><path class="cls-4" d="M20.51,51.71c-1.58-1.62-2.51-3.59-2.51-5.71-2.17,0-4.18-.97-5.82-2.62l-.26,.2c-2.2,1.63-3.1,4.49-2.18,6.94l.99,2.64,2.63,.99c2.45,.92,5.31,.02,6.95-2.18l.2-.26Z"/></svg>