<?xml version="1.0" ?><!-- Uploaded to: SVG Repo, www.svgrepo.com, Generator: SVG Repo Mixer Tools -->
<svg width="800px" height="800px" viewBox="0 0 64 64" data-name="Layer 1" id="Layer_1" xmlns="http://www.w3.org/2000/svg"><defs><style>
      .cls-1 {
        fill: #fd8266;
      }

      .cls-2 {
        fill: #feac99;
      }

      .cls-3 {
        fill: #606c38;
      }
    </style></defs><path class="cls-3" d="M28.02,39.01c.49,2.21,.98,6.33,.98,13.99h6.03c0-7.68,.49-11.79,.98-14l-4.02-4-3.98,4.01Z"/><path class="cls-1" d="M32,35.83c.27-.34,.53-.67,.75-.98,2.54,.39,6.63,.67,8.44-1.14,.95-.95,2.02-3.22,3-5.76,4.66,2.08,9.81,5.05,9.81,5.05,0,0-12.13,7-16,7-2.18,0-4.45-2.23-6-4.17Z"/><path class="cls-2" d="M31.33,34.58s.01,0,.02,.01c.27,.05,.61,.12,1,.19h.01c2.49,.42,6.92,.84,8.83-1.07,2.74-2.74,6.37-16.27,6.37-16.27,0,0-5.75,1.54-10.51,3.37-2.54,.98-4.81,2.05-5.76,3-2.36,2.36-1.16,8.58-.79,10.2,.32,.23,.6,.42,.83,.57,0,0,.01,0,.02,.01h-.02Z"/><path class="cls-1" d="M37.05,20.81c-2.54,.98-4.81,2.05-5.76,3-2.36,2.36-1.16,8.58-.79,10.2-2.06-1.45-5.5-4.3-5.5-7.01,0-3.87,7-16,7-16,0,0,2.97,5.15,5.05,9.81Z"/><path class="cls-2" d="M31.33,34.58s.01,0,.02,.01c-.01-.01-.02-.01-.02-.01-.23-.15-.51-.34-.83-.57-2.06-1.45-5.5-4.3-5.5-7.01,0-1.35,.85-3.7,1.95-6.19-4.76-1.83-10.51-3.37-10.51-3.37,0,0,3.63,13.53,6.37,16.27,1.91,1.91,6.34,1.49,8.83,1.07h.01"/><path class="cls-1" d="M31.33,34.58s.01,0,.02,.01c.27,.05,.61,.12,1,.19h.01c.13,.02,.26,.04,.39,.07-1.51,2.07-4.18,5.15-6.75,5.15-3.87,0-16-7-16-7,0,0,5.15-2.97,9.81-5.05,.98,2.54,2.05,4.81,3,5.76,1.91,1.91,6.34,1.49,8.83,1.07h.01l-.32-.2Z"/></svg>