<?xml version="1.0" encoding="utf-8"?>
<!-- Uploaded to: SVG Repo, www.svgrepo.com, Generator: SVG Repo Mixer Tools -->
<!DOCTYPE svg PUBLIC "-//W3C//DTD SVG 1.1//EN" "http://www.w3.org/Graphics/SVG/1.1/DTD/svg11.dtd">
<svg fill="#000000" width="800px" height="800px" viewBox="0 0 1000 1000" version="1.1" xmlns="http://www.w3.org/2000/svg" xmlns:xlink="http://www.w3.org/1999/xlink"  enable-background="new 0 0 1000 1000" xml:space="preserve">

<g>
<g transform="translate(0.000000,512.000000) scale(0.100000,-0.100000)">
<path d="M1125.3,3347.7V1673.4l-243.9,243.9l-243.9,243.9l-121-122.9l-122.9-121l439.1-439.1c242-242,446.9-439.1,458.6-439.1s220.5,199,464.4,444.9l443,443l-117.1,117.1l-117.1,117.1l-253.7-253.7L1457,1653.9v1684V5020h-165.9h-165.9V3347.7z"/>
<path d="M3029.8,1837.3c-181.5-19.5-331.7-39-333.7-41c-2-3.9-72.2-162-156.1-351.2c-107.3-243.9-146.4-353.2-132.7-370.8c9.8-13.7,353.2-487.8,763-1051.8l743.5-1026.4L3662.1-1763c-140.5-417.6-253.7-770.8-253.7-784.4c0-27.3,897.6-1272.3,942.5-1305.5c21.5-17.5,2236.3-913.2,2289-926.9c27.3-7.8,322,199,310.3,218.6c-3.9,7.8-546.4,230.2-1204,495.6l-1196.2,483.9l-384.4,532.7c-212.7,292.7-386.4,544.4-386.4,558.1c0,56.6,376.6,1151.3,390.3,1135.7c7.8-7.8,214.6-292.7,458.6-630.3c243.9-337.6,450.8-620.5,456.6-630.3c13.6-13.7,275.1,160,275.1,181.5c0,5.8-583.5,811.8-1295.7,1793.3L2768.3,1142.6l37.1,83.9c19.5,46.8,54.6,124.9,76.1,173.7c42.9,99.5,56.6,105.4,281,111.2l154.2,5.8l788.4-1083c433.2-595.2,796.2-1094.7,804-1110.3c11.7-19.5,44.9-3.9,140.5,66.4c68.3,50.7,126.8,97.6,130.7,107.3c3.9,7.8-82,134.6-189.3,282.9L4797.8,45.9l78.1,173.7l80,173.7l99.5,11.7c54.6,7.8,142.5,13.7,195.1,15.6l95.6,3.9l193.2-267.3l195.1-269.3l80,58.5c44.9,33.2,105.4,78.1,134.7,103.4l52.7,42.9L5874.9,286l-128.8,193.2l72.2,167.8c39,91.7,78.1,173.7,85.9,181.5c5.8,5.9,95.6,17.6,199,25.4l187.4,13.7l121-187.3c66.3-103.4,128.8-187.3,136.6-187.3c19.5,0,255.6,171.7,255.6,185.4c0,5.8-39,62.4-87.8,128.8c-48.8,66.3-87.8,126.8-87.8,138.5c0,9.8,31.2,91.7,70.2,181.5l72.2,163.9l99.5,11.7c54.6,7.8,142.5,13.7,195.1,15.6l97.6,3.9l591.3-811.8l591.3-811.8l243.9-885.9c134.6-487.8,251.7-905.4,263.4-928.9c13.7-31.2,437.1-628.3,499.6-704.4c2-3.9,62.4,33.2,134.6,83.9c85.9,62.4,124.9,101.5,119,121c-5.8,15.6-111.2,165.9-232.2,333.7l-222.5,306.4l-249.8,907.4l-247.8,907.4l-665.4,917.1c-364.9,505.4-665.4,919.1-667.4,921c-5.8,11.7-761-76.1-772.7-87.8c-5.9-7.8-41-82-78.1-167.8c-41-93.7-82-160-105.4-169.8c-21.5-7.8-165.9-35.1-322-56.6c-156.1-21.5-302.5-44.9-323.9-48.8c-29.3-5.8-62.4-54.6-115.1-175.6c-41-93.7-82-171.7-87.8-175.6c-7.8-3.9-183.4-27.3-392.2-48.8c-208.8-23.4-384.4-48.8-392.2-54.6c-7.8-7.8-41-80-74.1-160c-35.1-80-68.3-152.2-76.1-160c-5.9-5.8-257.6,327.8-560,741.5c-495.6,684.9-552.2,755.2-604.9,759.1C3385,1872.4,3211.3,1858.8,3029.8,1837.3z"/>
</g>
</g>
</svg>