<?xml version="1.0" encoding="utf-8"?>
<!-- Uploaded to: SVG Repo, www.svgrepo.com, Generator: SVG Repo Mixer Tools -->
<!DOCTYPE svg PUBLIC "-//W3C//DTD SVG 1.1//EN" "http://www.w3.org/Graphics/SVG/1.1/DTD/svg11.dtd">
<svg fill="#000000" width="800px" height="800px" viewBox="0 0 1000 1000" version="1.1" xmlns="http://www.w3.org/2000/svg" xmlns:xlink="http://www.w3.org/1999/xlink"  enable-background="new 0 0 1000 1000" xml:space="preserve">

<g>
<g transform="translate(0.000000,511.000000) scale(0.100000,-0.100000)">
<path d="M3564.8,4853.1c-341.2-92.3-622.1-170.6-626.2-174.6c-16-16,78.3-317.1,98.3-317.1c12,0,166.6,40.1,343.2,88.3c176.6,46.2,323.1,84.3,327.1,82.3c2-2-188.7-341.2-427.5-752.6c-236.8-411.4-429.5-750.6-427.5-752.6c4-2,52.2-28.1,106.4-60.2c56.2-32.1,118.4-68.2,142.5-84.3c40.1-26.1,58.2,2,469.6,716.5c236.8,407.4,435.5,742.5,441.5,742.5s52.2-148.5,100.3-331.1c64.2-244.8,94.3-331.1,118.4-331.1c38.1,0,268.9,62.2,287,78.3c12,12-305.1,1234.2-325.1,1252.3C4186.9,5015.7,3903.9,4943.4,3564.8,4853.1z"/>
<path d="M4925.4,2886.4l-321.1-186.6l-10-1792.2l-10-1794.2l-256.9,447.5L4068.5,6.5h-395.4h-395.4l-198.7-343.2c-152.5-266.9-192.7-351.2-176.6-377.3c10-18.1,166.6-287,345.2-600.1l327.1-567.9l98.3-475.6l96.3-473.7l584-584l582-582v-397.3V-4790H5106h170.6v465.6v467.6l-594,594l-596,596l-94.3,457.6l-94.3,459.6l-305,523.8c-166.6,289-303,537.9-303,551.9c0,16.1,42.1,98.3,92.3,184.6l90.3,156.6l200.7-6l202.7-6l523.8-909.1l525.8-909.1l6,2334l6,2334l168.6,96.3l170.6,94.3l170.6-94.3l170.6-96.3V1086.2V-334.7h170.6H5959V12.5v345.2l170.6,96.3c94.3,54.2,178.6,94.3,186.6,90.3c8-4,84.3-44.1,170.6-92.3l154.5-86.3V14.5v-349.2h170.6h170.6v238.8v240.8l172.6,102.4l174.6,100.3l180.6-96.3l178.6-98.3l-2-226.8c-2-126.4-8-234.8-14-244.8c-6-8,72.2-16.1,170.6-16.1h182.6v176.6V16.5l164.6,90.3c90.3,50.2,172.6,88.3,182.6,84.3c10-2,90.3-46.2,176.6-96.3l158.6-92.3v-1027.5v-1029.6l-341.2-911.1l-343.2-909.1v-222.8c-2-120.4,0-327.1,0-455.6l2-236.8h170.6h170.6v425.5v423.4l341.2,911.1l341.2,909.1v1160v1158l-345.2,198.7l-345.2,198.7l-92.3-54.2c-50.2-30.1-128.4-74.3-176.6-98.3l-86.3-42.1l-337.2,166.6L7329.7,735l-168.6-96.3l-166.6-96.3l-72.2,38.1c-38.1,22.1-192.7,112.4-345.2,202.7l-272.9,162.5l-168.6-96.3L5969,751l-10,975.4l-10,973.3l-327.1,188.6c-178.6,104.4-337.1,188.6-351.2,186.6C5258.6,3075,5102,2990.7,4925.4,2886.4z"/>
<path d="M1903.1,1391.2c-236.8-407.4-435.5-734.5-441.5-726.5c-6,8-50.2,160.6-98.3,341.2c-46.2,178.6-90.3,325.1-96.3,325.1c-4,0-80.3-20.1-166.6-44.2c-144.5-38.1-158.5-46.2-146.5-84.3c8-22.1,84.3-301,168.6-620.1c86.3-317.1,160.6-582,166.6-588c8-10,1232.2,307.1,1254.3,325.1c4,2-12,78.3-36.1,166.6c-36.1,130.4-52.2,162.6-78.3,154.5c-170.6-50.2-650.2-172.6-654.2-168.6c-2,4,170.6,309.1,385.3,678.3c212.7,369.3,407.4,706.4,427.5,746.6l40.1,74.2l-138.5,82.3c-76.3,44.2-144.5,80.3-148.5,80.3C2334.5,2133.8,2137.9,1800.6,1903.1,1391.2z"/>
</g>
</g>
</svg>