<?xml version="1.0" ?><!-- Uploaded to: SVG Repo, www.svgrepo.com, Generator: SVG Repo Mixer Tools -->
<svg width="800px" height="800px" viewBox="0 0 64 64" data-name="Layer 1" id="Layer_1" xmlns="http://www.w3.org/2000/svg"><defs><style>
      .cls-1 {
        fill: #f76c5e;
      }

      .cls-2 {
        fill: #fd8266;
      }

      .cls-3 {
        fill: #fd5933;
      }

      .cls-4 {
        fill: #feac99;
      }

      .cls-5 {
        fill: #fed5cc;
      }

      .cls-6 {
        fill: #606c38;
      }
    </style></defs><rect class="cls-5" height="10" rx="5" ry="5" width="16" x="24" y="28"/><path class="cls-3" d="M24.93,30.56c-1.56-1.57-4.24-9.9-4.24-9.9,0,0,2.18,.7,4.52,1.6,.26-.99,.73-2.23,1.3-3.56-4.83-1.92-11.48-3.7-11.48-3.7,0,0,3.63,13.53,6.11,16.01,1.25,1.25,2.93,1.81,4.65,1.73l-.86-2.18Z"/><path class="cls-4" d="M16,31.97s2.05-1.05,4.34-2.07c.27,.47,.54,.85,.8,1.11,1.25,1.25,2.92,1.81,4.64,1.73h.01s-.01,0-.01,0c-.3,.16-.59,.38-.85,.64-.37,.37-.79,1.11-1.24,2.03-3.13-1.1-7.69-3.44-7.69-3.44Z"/><path class="cls-2" d="M22.28,38.76h.01c.44-1.16,.93-2.36,1.4-3.35-3.13-1.1-7.69-3.44-7.69-3.44,0,0,2.05-1.05,4.34-2.07-.53-.88-1.07-2.08-1.61-3.42-4.77,2.06-10.73,5.49-10.73,5.49,0,0,9.73,5.61,14.29,6.79h-.01Z"/><path class="cls-2" d="M39,23.65c0,3.51-3.13,6.35-7,6.35s-7-2.84-7-6.35,7-15.65,7-15.65c0,0,7,12.14,7,15.65Z"/><path class="cls-6" d="M28,40c.49,2.21,.98,8.34,.98,16h6.03c0-7.68,.49-13.8,.98-16.01l-4.02-3.99-3.98,4Z"/><path class="cls-3" d="M36,26c0,2.21-1.79,4-4,4s-4-1.79-4-4,4-10,4-10c0,0,4,7.79,4,10Z"/><path class="cls-4" d="M31.11,29.95c-.15,.22-.32,.44-.52,.64-1.57,1.56-4.1,1.56-5.66,0-1.56-1.57-4.24-9.9-4.24-9.9,0,0,2.18,.7,4.52,1.6-.13,.53-.21,.99-.21,1.36,0,3.24,2.66,5.9,6.11,6.3Z"/><path class="cls-1" d="M24.93,33.41c1.56-1.56,4.09-1.56,5.66,0s1.56,4.09,0,5.66-9.9,4.24-9.9,4.24c0,0,2.68-8.34,4.24-9.9Z"/><path class="cls-4" d="M32.89,29.95c.15,.22,.32,.44,.52,.64,1.57,1.56,4.1,1.56,5.66,0,1.56-1.57,4.24-9.9,4.24-9.9,0,0-2.18,.7-4.52,1.6,.13,.53,.21,.99,.21,1.36,0,3.24-2.66,5.9-6.11,6.3Z"/><path class="cls-3" d="M39.07,30.59c1.56-1.57,4.24-9.9,4.24-9.9,0,0-2.18,.7-4.52,1.6-.26-.99-.73-2.23-1.3-3.56,4.83-1.92,11.48-3.7,11.48-3.7,0,0-3.63,13.53-6.11,16.01-1.25,1.25-2.93,1.81-4.65,1.73l.86-2.18Z"/><path class="cls-4" d="M40.31,35.44c-.45-.92-.87-1.66-1.24-2.03-.26-.26-.55-.48-.85-.64h0c1.72,.08,3.39-.48,4.64-1.73,.26-.26,.53-.64,.8-1.11,2.29,1.02,4.34,2.07,4.34,2.07,0,0-4.56,2.34-7.69,3.44Z"/><path class="cls-2" d="M41.71,38.79c4.56-1.18,14.29-6.79,14.29-6.79,0,0-5.96-3.43-10.73-5.49-.54,1.34-1.08,2.54-1.61,3.42,2.29,1.02,4.34,2.07,4.34,2.07,0,0-4.56,2.34-7.69,3.44,.47,.99,.96,2.19,1.4,3.35h0Z"/><path class="cls-1" d="M33.41,39.07c-1.56-1.56-1.56-4.09,0-5.66s4.09-1.56,5.66,0,4.24,9.9,4.24,9.9c0,0-8.34-2.68-9.9-4.24Z"/></svg>