<?xml version="1.0" ?><!-- Uploaded to: SVG Repo, www.svgrepo.com, Generator: SVG Repo Mixer Tools -->
<svg width="800px" height="800px" viewBox="0 0 64 64" data-name="Layer 1" id="Layer_1" xmlns="http://www.w3.org/2000/svg"><defs><style>
      .cls-1 {
        fill: #f76c5e;
      }

      .cls-2 {
        fill: #fd8266;
      }

      .cls-3 {
        fill: #fd5933;
      }

      .cls-4 {
        fill: #feac99;
      }
    </style></defs><path class="cls-4" d="M44,44c0,2.64-1.9,6.03-4.19,9.15-.38-.81-1.28-1.32-2.28-1.1-.71,.17-1.3,.75-1.47,1.46-.05,.21-.07,.42-.06,.62,.14,2.07-.36,4.13-1.78,5.63-1.31,1.38-2.22,2.24-2.22,2.24,0,0-1.02-.96-2.46-2.49-2.07-2.21-2.82-5.23-2.55-8.25,.02-.25,.01-.52-.04-.79-.21-1.24-1.24-2.24-2.48-2.43-1.16-.18-2.2,.31-2.83,1.13-.99-1.84-1.64-3.63-1.64-5.17-2.64,0-6.03-1.9-9.15-4.19,.81-.38,1.32-1.28,1.1-2.28-.17-.71-.75-1.3-1.46-1.47-.21-.05-.42-.07-.62-.06-2.07,.14-4.13-.36-5.63-1.78-1.38-1.31-2.24-2.22-2.24-2.22,0,0,.96-1.02,2.49-2.46,2.21-2.07,5.23-2.82,8.25-2.55,.25,.02,.52,.01,.79-.04,1.24-.21,2.24-1.24,2.43-2.48,.18-1.16-.31-2.2-1.13-2.83,1.84-.99,3.63-1.64,5.17-1.64,0-2.64,1.9-6.03,4.19-9.15,.38,.81,1.28,1.32,2.28,1.1,.71-.17,1.3-.75,1.47-1.46,.05-.21,.07-.42,.06-.62-.14-2.07,.36-4.13,1.78-5.63,1.31-1.38,2.22-2.24,2.22-2.24,0,0,1.02,.96,2.46,2.49,2.07,2.21,2.82,5.23,2.55,8.25-.02,.25-.01,.52,.04,.79,.21,1.24,1.24,2.24,2.48,2.43,1.16,.18,2.2-.31,2.83-1.13,.99,1.84,1.64,3.63,1.64,5.17,2.64,0,6.03,1.9,9.15,4.19-.81,.38-1.32,1.28-1.1,2.28,.17,.71,.75,1.3,1.46,1.47,.21,.05,.42,.07,.62,.06,2.07-.14,4.13,.36,5.63,1.78,1.38,1.31,2.24,2.22,2.24,2.22,0,0-.96,1.02-2.49,2.46-2.21,2.07-5.23,2.82-8.25,2.55-.25-.02-.52-.01-.79,.04-1.24,.21-2.24,1.24-2.43,2.48-.18,1.16,.31,2.2,1.13,2.83-1.84,.99-3.63,1.64-5.17,1.64Z"/><path class="cls-2" d="M38.94,38.94c3.75-.65,11.06-6.94,11.06-6.94,0,0-7.32-6.29-11.06-6.94-.65-3.75-6.94-11.06-6.94-11.06,0,0-6.29,7.32-6.94,11.06-3.75,.65-11.06,6.94-11.06,6.94,0,0,7.32,6.29,11.06,6.94,.65,3.75,6.94,11.06,6.94,11.06,0,0,6.29-7.32,6.94-11.06Z"/><path class="cls-3" d="M36,28c0-2.21-4-6-4-6,0,0-4,3.79-4,6-2.21,0-6,4-6,4,0,0,3.79,4,6,4,0,2.21,4,6,4,6,0,0,4-3.79,4-6,2.21,0,6-4,6-4,0,0-3.79-4-6-4Z"/><circle class="cls-1" cx="32" cy="32" r="3"/></svg>