<?xml version="1.0" ?><!-- Uploaded to: SVG Repo, www.svgrepo.com, Generator: SVG Repo Mixer Tools -->
<svg width="800px" height="800px" viewBox="0 0 64 64" data-name="Layer 1" id="Layer_1" xmlns="http://www.w3.org/2000/svg"><defs><style>
      .cls-1 {
        fill: #fd8266;
      }

      .cls-2 {
        fill: #fd5933;
      }

      .cls-3 {
        fill: #feac99;
      }
    </style></defs><path class="cls-1" d="M42,14.69c0,5.14-4.48,9.31-10,9.31s-10-4.17-10-9.31S32,2,32,2c0,0,10,7.55,10,12.69Z"/><path class="cls-3" d="M39,17.65c0,3.51-3.13,6.35-7,6.35s-7-2.84-7-6.35,7-11.65,7-11.65c0,0,7,8.14,7,11.65Z"/><path class="cls-1" d="M36,20c0,2.21-1.79,4-4,4s-4-1.79-4-4,4-6,4-6c0,0,4,3.79,4,6Z"/><path class="cls-1" d="M14.69,22c5.14,0,9.31,4.48,9.31,10s-4.17,10-9.31,10S2,32,2,32c0,0,7.55-10,12.69-10Z"/><path class="cls-3" d="M17.65,25c3.51,0,6.35,3.13,6.35,7s-2.84,7-6.35,7-11.65-7-11.65-7c0,0,8.14-7,11.65-7Z"/><path class="cls-1" d="M20,28c2.21,0,4,1.79,4,4s-1.79,4-4,4-6-4-6-4c0,0,3.79-4,6-4Z"/><path class="cls-1" d="M22,49.31c0-5.14,4.48-9.31,10-9.31s10,4.17,10,9.31-10,12.69-10,12.69c0,0-10-7.55-10-12.69Z"/><path class="cls-3" d="M25,46.35c0-3.51,3.13-6.35,7-6.35s7,2.84,7,6.35-7,11.65-7,11.65c0,0-7-8.14-7-11.65Z"/><path class="cls-1" d="M28,44c0-2.21,1.79-4,4-4s4,1.79,4,4-4,6-4,6c0,0-4-3.79-4-6Z"/><path class="cls-1" d="M49.31,42c-5.14,0-9.31-4.48-9.31-10s4.17-10,9.31-10,12.69,10,12.69,10c0,0-7.55,10-12.69,10Z"/><path class="cls-3" d="M46.35,39c-3.51,0-6.35-3.13-6.35-7s2.84-7,6.35-7,11.65,7,11.65,7c0,0-8.14,7-11.65,7Z"/><path class="cls-1" d="M44,36c-2.21,0-4-1.79-4-4s1.79-4,4-4,6,4,6,4c0,0-3.79,4-6,4Z"/><circle class="cls-3" cx="32" cy="32" r="11"/><circle class="cls-2" cx="32" cy="32" r="5"/></svg>