<?xml version="1.0" ?>
<!-- Uploaded to: SVG Repo, www.svgrepo.com, Generator: SVG Repo Mixer Tools -->
<svg width="800px" height="800px" viewBox="0 0 512 512" version="1.1" xml:space="preserve" xmlns="http://www.w3.org/2000/svg" xmlns:xlink="http://www.w3.org/1999/xlink">
<style type="text/css">
	.st0{display:none;}
	.st1{fill:#FFE2D2;}
	.st2{fill:#FFDE83;}
	.st3{fill:#F57070;}
	.st4{fill:#DBDBEF;}
	.st5{fill:#BCE2FF;}
	.st6{fill:#48446D;}
	.st7{fill:#6E78FF;}
	.st8{fill:#FFBE83;}
	.st9{fill:#F5949E;}
	.st10{fill:#D0FF67;}
	.st11{fill:#C69C6D;}
	.st12{fill:#C5BDD3;}
	.st13{fill:#FFE2B8;}
	.st14{fill:#F54670;}
</style>
<g class="st0" id="Layer_1"/>
<g id="Layer_2">
<g>
<path class="st2" d="M134.27,146.76c1.72-1.32,3.96-1.77,6.05-1.22c2.78,0.73,5.65,1.1,8.54,1.1c18.47,0,33.49-15.03,33.49-33.5    c0-18.47-15.02-33.5-33.49-33.5c-9.31,0-17.96,3.74-24.36,10.52c-1.32,1.4-3.16,2.19-5.09,2.19c-1.93,0-3.77-0.79-5.09-2.19    c-6.4-6.78-15.05-10.52-24.36-10.52c-18.47,0-33.5,15.03-33.5,33.5c0,18.47,15.03,33.5,33.5,33.5c2.89,0,5.76-0.37,8.54-1.1    c3.73-0.98,7.56,1.25,8.54,4.99c0.99,3.74-1.25,7.56-4.98,8.55c-0.59,0.16-1.19,0.29-1.79,0.41c-0.17,0.04-0.33,0.09-0.5,0.12    c-0.17,0.04-0.33,0.06-0.5,0.09v12c0.17-0.02,0.33-0.05,0.5-0.06c0.17-0.02,0.33-0.03,0.5-0.03h0.01c3.86,0,7,3.14,7,7v253.75    h56.81v-12.2h-25.55c-3.86,0-7-3.13-7-7v-26.47c0-3.87,3.14-7,7-7h18.3V367.5h-18.3c-3.86,0-7-3.14-7-7v-18.59    c0-3.44,2.47-6.28,5.73-6.87c0.17-0.03,0.33-0.06,0.5-0.08c0.16-0.03,0.33-0.03,0.5-0.03v-7.27c-0.17-0.01-0.33-0.01-0.5-0.03    c-0.17-0.02-0.33-0.04-0.5-0.08c-0.03,0-0.06,0-0.09-0.01c-0.45-0.09-0.89-0.23-1.31-0.4c-0.43-0.18-0.83-0.39-1.21-0.65    c-0.39-0.25-0.74-0.54-1.07-0.87c-0.32-0.32-0.61-0.68-0.87-1.06c-0.25-0.38-0.47-0.78-0.64-1.21c-0.18-0.42-0.31-0.86-0.4-1.31    c-0.09-0.45-0.14-0.91-0.14-1.36c0-1.85,0.75-3.65,2.05-4.96c0.33-0.32,0.68-0.61,1.07-0.87c0.38-0.25,0.78-0.46,1.21-0.64    c0.42-0.17,0.86-0.31,1.31-0.4c0.03-0.01,0.06-0.01,0.09-0.01c0.17-0.04,0.33-0.06,0.5-0.08c0.17-0.02,0.33-0.01,0.5-0.02v-8.41    c-0.17,0-0.34,0-0.5-0.03c-0.17-0.02-0.33-0.05-0.5-0.08c-3.26-0.59-5.73-3.43-5.73-6.87v-146    C131.54,150.14,132.55,148.09,134.27,146.76z M113.21,117.95l-8.55,9.05c-2.24,2.38-7.12,6.35-14.7,6.35    c-11.14,0-20.21-9.06-20.21-20.21c0-11.14,9.07-20.21,20.21-20.21c7.58,0,12.46,3.98,14.7,6.35l8.55,9.06    C115.75,111.03,115.75,115.25,113.21,117.95z M125.61,117.95c-2.55-2.7-2.55-6.92,0-9.61l8.55-9.06c2.24-2.37,7.13-6.35,14.7-6.35    c11.14,0,20.21,9.07,20.21,20.21c0,11.15-9.07,20.21-20.21,20.21c-7.57,0-12.46-3.97-14.7-6.35L125.61,117.95z"/>
<path class="st4" d="M89.96,106.93c-3.42,0-6.21,2.79-6.21,6.21c0,3.43,2.79,6.21,6.21,6.21c2.21,0,3.67-1.06,4.51-1.95l4.02-4.26    l-4.01-4.25C93.63,107.99,92.17,106.93,89.96,106.93z"/>
<path class="st4" d="M148.86,119.35c3.42,0,6.21-2.78,6.21-6.21c0-3.42-2.79-6.21-6.21-6.21c-2.21,0-3.67,1.07-4.52,1.96    l-4.01,4.25l4.01,4.25C145.19,118.29,146.65,119.35,148.86,119.35z"/>
<path class="st4" d="M306.91,297.43c2.23,1.23,3.61,3.58,3.61,6.12v29c0,5.27,4.29,9.55,9.56,9.55s9.55-4.28,9.55-9.55v-29    c0-2.54,1.39-4.89,3.62-6.12c8.68-4.81,14.07-13.95,14.07-23.86c0-15.02-12.22-27.24-27.24-27.24    c-15.03,0-27.25,12.22-27.25,27.24C292.83,283.48,298.22,292.62,306.91,297.43z"/>
<path class="st3" d="M437.83,194.12c-10.88-12.59-26.08-21.42-43.59-24.2c-0.73-0.12-1.47-0.21-2.21-0.3    c-3.42-0.44-6.87-0.64-10.3-0.6c-7.66,0.11-15.19,1.44-22.32,3.87c-11.89,4.06-22.68,11.16-31.16,20.77    c-1.12,1.26-2.23,2.61-3.31,4.02c-1.3,1.7-3.32,2.71-5.46,2.74h-0.1c-0.13,0-0.26-0.01-0.4-0.02c-0.1-0.01-0.21-0.01-0.32-0.02    c-0.22-0.02-0.44-0.06-0.66-0.1c-0.03-0.01-0.06-0.01-0.09-0.02c-1.55-0.33-2.95-1.18-3.96-2.43c-1.13-1.38-2.31-2.73-3.51-4    c-6.99-7.47-15.42-13.3-24.64-17.23c-9.22-3.92-19.24-5.94-29.42-5.8c-3.57,0.05-7.09,0.35-10.46,0.89    c-35.46,5.61-61.8,36.95-61.29,72.91c0.33,23.58,9.98,49.21,28.68,76.16c1.98,2.86,1.53,6.69-0.91,9.04    c-0.12,0.11-0.24,0.23-0.37,0.34c-0.12,0.1-0.26,0.2-0.4,0.3c2.52,3.62,5.03,7.13,7.46,10.42c0.02,0.02,0.04,0.05,0.06,0.07    c0.11-0.12,0.22-0.25,0.34-0.37l0.07-0.07c0.1-0.09,0.2-0.18,0.31-0.26c2.8-2.39,7.01-2.21,9.59,0.48l0.25,0.27    c2.67,2.79,2.57,7.22-0.22,9.89c-0.28,0.27-0.57,0.49-0.88,0.7c-0.14,0.1-0.28,0.2-0.42,0.28c-0.15,0.09-0.3,0.15-0.46,0.23    c0.03,0.03,0.05,0.06,0.07,0.08c2.15,2.68,4.26,5.19,6.27,7.46c0.02,0.03,0.05,0.06,0.08,0.1c0.1-0.14,0.18-0.3,0.29-0.43    c0.1-0.13,0.22-0.25,0.34-0.37c0.08-0.08,0.14-0.17,0.22-0.24c2.79-2.67,7.23-2.57,9.9,0.22c8.43,8.82,17.86,17.88,28.02,26.93    c0.26,0.19,0.46,0.36,0.66,0.53c0.42,0.38,0.98,0.82,1.57,1.28c0.3,0.24,0.6,0.47,0.9,0.71c1.13,0.9,2.19,1.75,3.25,2.5    c0.73,0.52,1.53,1.03,2.38,1.58l0.39,0.25c1.01,0.65,2.19,1.4,3.39,2.07c0.86,0.5,1.75,0.98,2.78,1.49    c1.38,0.71,2.6,1.29,3.76,1.8c0.9,0.39,1.81,0.78,2.73,1.14c1.24,0.49,2.54,0.95,4.09,1.45c0.89,0.3,1.75,0.58,2.62,0.83    c1.25,0.35,2.68,0.69,4.45,1.07l0.74,0.17c0.56,0.13,1.11,0.25,1.66,0.35c1.47,0.27,3.06,0.49,5.04,0.7    c0.39,0.04,0.74,0.09,1.1,0.14c0.29,0.04,0.58,0.08,0.87,0.11c2.51,0.2,4.82,0.28,7.05,0.26h0.11c2.14-0.04,4.51-0.19,6.93-0.46    c0.31-0.03,0.6-0.08,0.88-0.13c0.37-0.06,0.74-0.12,1.11-0.17c1.37-0.19,3.21-0.46,4.97-0.84c0.5-0.1,0.98-0.23,1.47-0.35    c0.32-0.08,0.64-0.16,0.95-0.24c1.32-0.33,2.88-0.73,4.42-1.21c0.84-0.26,1.71-0.58,2.57-0.89c1.54-0.55,2.85-1.05,4.04-1.56    c0.94-0.39,1.86-0.82,2.72-1.23c1.19-0.56,2.38-1.17,3.65-1.86c0.85-0.47,1.83-1.01,2.77-1.58c0.97-0.59,1.98-1.25,3.31-2.17    c1-0.67,1.92-1.29,2.78-1.94c1.03-0.78,2.11-1.69,3.12-2.55l0.74-0.61c0.63-0.53,1.24-1.03,1.76-1.52    c0.07-0.07,0.15-0.14,0.23-0.2l0.41-0.35c56.47-53.2,84.83-101.53,84.24-143.62C455.28,223.02,448.71,206.7,437.83,194.12z     M343.63,307.43v25.12c0,12.99-10.56,23.55-23.55,23.55c-12.99,0-23.56-10.56-23.56-23.55v-25.12    c-11.01-7.67-17.69-20.28-17.69-33.86c0-22.74,18.5-41.24,41.25-41.24c22.74,0,41.24,18.5,41.24,41.24    C361.32,287.15,354.64,299.76,343.63,307.43z"/>
<path class="st6" d="M320.08,232.33c-22.75,0-41.25,18.5-41.25,41.24c0,13.58,6.68,26.19,17.69,33.86v25.12    c0,12.99,10.57,23.55,23.56,23.55c12.99,0,23.55-10.56,23.55-23.55v-25.12c11.01-7.67,17.69-20.28,17.69-33.86    C361.32,250.83,342.82,232.33,320.08,232.33z M333.25,297.43c-2.23,1.23-3.62,3.58-3.62,6.12v29c0,5.27-4.28,9.55-9.55,9.55    s-9.56-4.28-9.56-9.55v-29c0-2.54-1.38-4.89-3.61-6.12c-8.69-4.81-14.08-13.95-14.08-23.86c0-15.02,12.22-27.24,27.25-27.24    c15.02,0,27.24,12.22,27.24,27.24C347.32,283.48,341.93,292.62,333.25,297.43z"/>
<path class="st6" d="M229.49,350.87c-0.28,0.27-0.57,0.49-0.88,0.7c-0.14,0.1-0.28,0.2-0.42,0.28c-0.15,0.09-0.3,0.15-0.46,0.23    c-0.97,0.48-2.03,0.73-3.08,0.73c-1.84,0-3.68-0.72-5.06-2.16l-0.25-0.27c-2.53-2.65-2.57-6.75-0.19-9.45    c0.11-0.12,0.22-0.25,0.34-0.37l0.07-0.07c0.1-0.09,0.2-0.18,0.31-0.26c2.8-2.39,7.01-2.21,9.59,0.48l0.25,0.27    C232.38,343.77,232.28,348.2,229.49,350.87z"/>
<path class="st6" d="M469.53,240.58c0.65,46.18-29.19,98.01-88.7,154.06c-0.23,0.22-0.48,0.44-0.74,0.65l-0.03,0.03    c-0.77,0.7-1.51,1.32-2.23,1.92l-0.63,0.52c-1.13,0.97-2.39,2.03-3.73,3.04c-1.16,0.87-2.28,1.64-3.34,2.35    c-1.51,1.04-2.74,1.84-3.93,2.55c-1.17,0.72-2.34,1.37-3.32,1.9c-1.51,0.83-2.94,1.56-4.37,2.23c-1,0.48-2.11,1-3.28,1.48    c-1.4,0.6-2.97,1.21-4.75,1.84c-1.01,0.36-2.05,0.74-3.09,1.07c-1.92,0.6-3.74,1.06-5.28,1.44l-0.81,0.21    c-0.69,0.18-1.38,0.35-2.08,0.5c-2.17,0.45-4.31,0.77-5.94,1c-0.26,0.03-0.49,0.07-0.72,0.11c-0.55,0.09-1.09,0.18-1.65,0.24    c-2.84,0.31-5.65,0.5-8.33,0.54h-1.01c-2.35,0-4.79-0.1-7.4-0.31c-0.56-0.05-1.12-0.12-1.66-0.2c-0.23-0.03-0.46-0.06-0.69-0.08    c-2.29-0.25-4.21-0.51-6-0.84c-0.75-0.13-1.52-0.3-2.29-0.48l-0.63-0.14c-2-0.43-3.68-0.84-5.25-1.27c-1.1-0.32-2.14-0.66-3.18-1    c-1.78-0.58-3.38-1.15-4.86-1.73c-1.07-0.42-2.14-0.88-3.2-1.34c-1.44-0.63-2.91-1.33-4.51-2.14c-1.22-0.62-2.33-1.21-3.35-1.8    c-1.47-0.83-2.89-1.72-4.07-2.48l-0.37-0.24c-0.94-0.61-1.9-1.23-2.9-1.93c-1.4-1-2.67-2.01-3.9-3c-0.26-0.2-0.52-0.41-0.78-0.61    c-0.68-0.53-1.44-1.12-2.2-1.79c-0.28-0.22-0.52-0.42-0.75-0.63c-10.43-9.29-20.12-18.6-28.8-27.67    c-2.36-2.46-2.53-6.18-0.63-8.86c0.1-0.14,0.18-0.3,0.29-0.43c0.1-0.13,0.22-0.25,0.34-0.37c0.08-0.08,0.14-0.17,0.22-0.24    c2.79-2.67,7.23-2.57,9.9,0.22c8.43,8.82,17.86,17.88,28.02,26.93c0.26,0.19,0.46,0.36,0.66,0.53c0.42,0.38,0.98,0.82,1.57,1.28    c0.3,0.24,0.6,0.47,0.9,0.71c1.13,0.9,2.19,1.75,3.25,2.5c0.73,0.52,1.53,1.03,2.38,1.58l0.39,0.25c1.01,0.65,2.19,1.4,3.39,2.07    c0.86,0.5,1.75,0.98,2.78,1.49c1.38,0.71,2.6,1.29,3.76,1.8c0.9,0.39,1.81,0.78,2.73,1.14c1.24,0.49,2.54,0.95,4.09,1.45    c0.89,0.3,1.75,0.58,2.62,0.83c1.25,0.35,2.68,0.69,4.45,1.07l0.74,0.17c0.56,0.13,1.11,0.25,1.66,0.35    c1.47,0.27,3.06,0.49,5.04,0.7c0.39,0.04,0.74,0.09,1.1,0.14c0.29,0.04,0.58,0.08,0.87,0.11c2.51,0.2,4.82,0.28,7.05,0.26h0.11    c2.14-0.04,4.51-0.19,6.93-0.46c0.31-0.03,0.6-0.08,0.88-0.13c0.37-0.06,0.74-0.12,1.11-0.17c1.37-0.19,3.21-0.46,4.97-0.84    c0.5-0.1,0.98-0.23,1.47-0.35c0.32-0.08,0.64-0.16,0.95-0.24c1.32-0.33,2.88-0.73,4.42-1.21c0.84-0.26,1.71-0.58,2.57-0.89    c1.54-0.55,2.85-1.05,4.04-1.56c0.94-0.39,1.86-0.82,2.72-1.23c1.19-0.56,2.38-1.17,3.65-1.86c0.85-0.47,1.83-1.01,2.77-1.58    c0.97-0.59,1.98-1.25,3.31-2.17c1-0.67,1.92-1.29,2.78-1.94c1.03-0.78,2.11-1.69,3.12-2.55l0.74-0.61    c0.63-0.53,1.24-1.03,1.76-1.52c0.07-0.07,0.15-0.14,0.23-0.2l0.41-0.35c56.47-53.2,84.83-101.53,84.24-143.62    c-0.25-17.76-6.82-34.08-17.7-46.66c-10.88-12.59-26.08-21.42-43.59-24.2c-0.73-0.12-1.47-0.21-2.21-0.3    c-3.42-0.44-6.87-0.64-10.3-0.6c-7.66,0.11-15.19,1.44-22.32,3.87c-11.89,4.06-22.68,11.16-31.16,20.77    c-1.12,1.26-2.23,2.61-3.31,4.02c-1.3,1.7-3.32,2.71-5.46,2.74h-0.1c-0.13,0-0.26-0.01-0.4-0.02c-0.1-0.01-0.21-0.01-0.32-0.02    c-0.22-0.02-0.44-0.06-0.66-0.1c-0.03-0.01-0.06-0.01-0.09-0.02c-1.55-0.33-2.95-1.18-3.96-2.43c-1.13-1.38-2.31-2.73-3.51-4    c-6.99-7.47-15.42-13.3-24.64-17.23c-9.22-3.92-19.24-5.94-29.42-5.8c-3.57,0.05-7.09,0.35-10.46,0.89    c-35.46,5.61-61.8,36.95-61.29,72.91c0.33,23.58,9.98,49.21,28.68,76.16c1.98,2.86,1.53,6.69-0.91,9.04    c-0.12,0.11-0.24,0.23-0.37,0.34c-0.12,0.1-0.26,0.2-0.4,0.3c-0.03,0.02-0.05,0.04-0.08,0.06c-3.18,2.2-7.54,1.42-9.75-1.76    c-20.31-29.28-30.8-57.53-31.17-83.95c-0.3-20.99,7.01-41.36,20.59-57.36c13.44-15.83,32.08-26.33,52.48-29.56    c0.01,0,0.01-0.01,0.01-0.01c0.01,0,0.01,0,0.01,0c2.94-0.47,5.97-0.78,9.04-0.94c1.13-0.06,2.27-0.1,3.41-0.12    c0.41-0.01,0.82-0.01,1.22-0.01c23.19,0,45.55,9.4,61.84,25.98c16.07-17.32,38.66-27.41,62.3-27.75c1.2-0.01,2.4,0,3.61,0.03    c0.3,0.01,0.6,0.03,0.9,0.04c0.77,0.03,1.53,0.06,2.3,0.1v-42.61c0-18.16-14.78-32.94-32.94-32.94h-70.65    c-18.16,0-32.93,14.78-32.93,32.94v23.59c0,3.86-3.14,7-7,7c-3.87,0-7-3.14-7-7v-23.59c0-25.88,21.05-46.94,46.93-46.94h70.65    c25.88,0,46.94,21.06,46.94,46.94v44.68C441.06,166.14,468.96,200.27,469.53,240.58z"/>
<path class="st6" d="M148.86,92.93c-7.57,0-12.46,3.98-14.7,6.35l-8.55,9.06c-2.55,2.69-2.55,6.91,0,9.61l8.55,9.05    c2.24,2.38,7.13,6.35,14.7,6.35c11.14,0,20.21-9.06,20.21-20.21C169.07,102,160,92.93,148.86,92.93z M148.86,119.35    c-2.21,0-3.67-1.06-4.52-1.96l-4.01-4.25l4.01-4.25c0.85-0.89,2.31-1.96,4.52-1.96c3.42,0,6.21,2.79,6.21,6.21    C155.07,116.57,152.28,119.35,148.86,119.35z"/>
<path class="st6" d="M113.21,108.34l-8.55-9.06c-2.24-2.37-7.12-6.35-14.7-6.35c-11.14,0-20.21,9.07-20.21,20.21    c0,11.15,9.07,20.21,20.21,20.21c7.58,0,12.46-3.97,14.7-6.35l8.55-9.05C115.75,115.25,115.75,111.03,113.21,108.34z M94.47,117.4    c-0.84,0.89-2.3,1.95-4.51,1.95c-3.42,0-6.21-2.78-6.21-6.21c0-3.42,2.79-6.21,6.21-6.21c2.21,0,3.67,1.06,4.52,1.96l4.01,4.25    L94.47,117.4z"/>
<path class="st6" d="M145.54,320.68c0,0.45-0.04,0.91-0.13,1.36c-0.09,0.45-0.23,0.89-0.4,1.31c-0.18,0.43-0.4,0.83-0.65,1.21    s-0.55,0.74-0.87,1.06c-0.32,0.33-0.68,0.62-1.06,0.87c-0.38,0.26-0.79,0.47-1.21,0.65c-0.42,0.17-0.86,0.31-1.31,0.4    c-0.45,0.09-0.91,0.14-1.37,0.14c-0.09,0-0.18-0.01-0.27-0.02c-0.17-0.01-0.33-0.01-0.5-0.03c-0.17-0.02-0.33-0.04-0.5-0.08    c-0.03,0-0.06,0-0.09-0.01c-0.45-0.09-0.89-0.23-1.31-0.4c-0.43-0.18-0.83-0.39-1.21-0.65c-0.39-0.25-0.74-0.54-1.07-0.87    c-0.32-0.32-0.61-0.68-0.87-1.06c-0.25-0.38-0.47-0.78-0.64-1.21c-0.18-0.42-0.31-0.86-0.4-1.31c-0.09-0.45-0.14-0.91-0.14-1.36    c0-1.85,0.75-3.65,2.05-4.96c0.33-0.32,0.68-0.61,1.07-0.87c0.38-0.25,0.78-0.46,1.21-0.64c0.42-0.17,0.86-0.31,1.31-0.4    c0.03-0.01,0.06-0.01,0.09-0.01c0.17-0.04,0.33-0.06,0.5-0.08c0.17-0.02,0.33-0.01,0.5-0.02c0.55-0.02,1.1,0,1.64,0.11    c0.45,0.09,0.89,0.23,1.31,0.4c0.42,0.18,0.83,0.39,1.21,0.64c0.38,0.26,0.74,0.55,1.06,0.87    C144.8,317.03,145.54,318.83,145.54,320.68z"/>
<path class="st6" d="M178.09,413.16v26.2c0,3.86-3.14,7-7,7h-70.81c-3.87,0-7-3.14-7-7V178.61c0-3.52,2.6-6.43,5.99-6.91    c0.17-0.02,0.33-0.05,0.5-0.06c0.17-0.02,0.33-0.03,0.5-0.03h0.01c3.86,0,7,3.14,7,7v253.75h56.81v-12.2h-25.55    c-3.86,0-7-3.13-7-7v-26.47c0-3.87,3.14-7,7-7h18.3V367.5h-18.3c-3.86,0-7-3.14-7-7v-18.59c0-3.44,2.47-6.28,5.73-6.87    c0.17-0.03,0.33-0.06,0.5-0.08c0.16-0.03,0.33-0.03,0.5-0.03c0.09-0.01,0.18-0.02,0.27-0.02c3.87,0,7,3.13,7,7v11.59h18.3    c3.87,0,7,3.13,7,7v26.19c0,3.87-3.13,7-7,7h-18.3v12.47h25.55C174.95,406.16,178.09,409.3,178.09,413.16z"/>
<path class="st6" d="M196.35,113.14c0,26.19-21.3,47.5-47.49,47.5c-1.11,0-2.22-0.04-3.32-0.12v137.79c0,3.87-3.13,7-7,7    c-0.09,0-0.18-0.01-0.27-0.02c-0.17,0-0.34,0-0.5-0.03c-0.17-0.02-0.33-0.05-0.5-0.08c-3.26-0.59-5.73-3.43-5.73-6.87v-146    c0-2.17,1.01-4.22,2.73-5.55c1.72-1.32,3.96-1.77,6.05-1.22c2.78,0.73,5.65,1.1,8.54,1.1c18.47,0,33.49-15.03,33.49-33.5    c0-18.47-15.02-33.5-33.49-33.5c-9.31,0-17.96,3.74-24.36,10.52c-1.32,1.4-3.16,2.19-5.09,2.19c-1.93,0-3.77-0.79-5.09-2.19    c-6.4-6.78-15.05-10.52-24.36-10.52c-18.47,0-33.5,15.03-33.5,33.5c0,18.47,15.03,33.5,33.5,33.5c2.89,0,5.76-0.37,8.54-1.1    c3.73-0.98,7.56,1.25,8.54,4.99c0.99,3.74-1.25,7.56-4.98,8.55c-0.59,0.16-1.19,0.29-1.79,0.41c-0.17,0.04-0.33,0.09-0.5,0.12    c-0.17,0.04-0.33,0.06-0.5,0.09c-3.06,0.61-6.18,0.94-9.31,0.94c-26.19,0-47.5-21.31-47.5-47.5c0-26.19,21.31-47.5,47.5-47.5    c10.7,0,21.11,3.68,29.45,10.25c8.34-6.57,18.75-10.25,29.45-10.25C175.05,65.64,196.35,86.95,196.35,113.14z"/>
</g>
</g>
</svg>