<?xml version="1.0" ?>
<!DOCTYPE svg  PUBLIC '-//W3C//DTD SVG 1.1//EN'  'http://www.w3.org/Graphics/SVG/1.1/DTD/svg11.dtd'>
<!-- Uploaded to: SVG Repo, www.svgrepo.com, Generator: SVG Repo Mixer Tools -->
<svg width="800px" height="800px" viewBox="0 0 512 512" version="1.1" xml:space="preserve" xmlns="http://www.w3.org/2000/svg" xmlns:xlink="http://www.w3.org/1999/xlink">
<g id="email_x2C__mail__x2C__letter__x2C__internet__x2C__envelope__x2C__chat__x2C___tap__x2C_">
<g>
<path d="M393.515,210.586c-42.964,0-77.875,34.831-77.875,77.875    c0,42.949,34.911,77.794,77.875,77.794c43.043,0,77.875-34.845,77.875-77.794C471.39,245.417,436.558,210.586,393.515,210.586    L393.515,210.586z" style="fill-rule:evenodd;clip-rule:evenodd;fill:#F36360;"/>
<path d="M393.515,217.148c-19.711,0-37.507,7.959-50.391,20.842c-12.884,12.87-20.922,30.759-20.922,50.47    c0,19.712,8.038,37.506,20.922,50.39c12.884,12.871,30.68,20.83,50.391,20.83c19.697,0,37.6-7.959,50.47-20.83    c12.883-12.884,20.83-30.771,20.83-50.39c0-19.711-7.947-37.6-20.83-50.47C431.114,225.107,413.212,217.148,393.515,217.148    L393.515,217.148z M333.794,228.742c15.293-15.307,36.469-24.729,59.721-24.729c23.331,0,44.427,9.423,59.72,24.729    c15.306,15.212,24.716,36.388,24.716,59.719c0,23.252-9.41,44.427-24.716,59.64c-15.293,15.293-36.389,24.716-59.72,24.716    c-23.252,0-44.428-9.423-59.721-24.716c-15.213-15.306-24.729-36.388-24.729-59.64    C309.064,265.13,318.581,244.033,333.794,228.742L333.794,228.742z" style="fill:#4A374F;"/>
<path d="M435.001,199.433V70.996c0-9.503-3.887-18.154-10.195-24.462    L295.583,175.756l-25.235,25.234c-8.984,8.984-20.75,13.655-32.582,13.655c-11.752,0-23.518-4.671-32.581-13.655l-25.156-25.234    l-53.931,53.677l-75.292,74.839c6.228,6.229,14.96,10.208,24.462,10.208h223.694c-2.343-8.305-3.554-17.036-3.554-26.02    c0-27.139,10.98-51.681,28.788-69.409c17.716-17.808,42.259-28.775,69.317-28.775    C408.382,190.276,422.383,193.563,435.001,199.433L435.001,199.433z" style="fill-rule:evenodd;clip-rule:evenodd;fill:#B0DCC1;"/>
<path d="M126.098,229.433l53.931-53.677L50.806,46.534    c-6.309,6.308-10.195,14.959-10.195,24.462v208.826c0,9.503,3.886,18.142,10.195,24.45L126.098,229.433z" style="fill-rule:evenodd;clip-rule:evenodd;fill:#B0DCC1;"/>
<path d="M180.029,175.756l25.156,25.234    c9.063,8.984,20.829,13.655,32.581,13.655c11.832,0,23.598-4.671,32.582-13.655l25.235-25.234L424.806,46.534    c-6.229-6.216-15.04-10.195-24.464-10.195H75.269c-9.502,0-18.234,3.979-24.462,10.195L180.029,175.756z" style="fill-rule:evenodd;clip-rule:evenodd;fill:#B0DCC1;"/>
<path d="M300.945,321.043H75.269c-5.523,0-10.887-1.118-15.731-3.195c-5.005-2.075-9.596-5.19-13.39-8.904    l9.25-9.33c2.582,2.596,5.696,4.659,9.157,6.137c3.287,1.383,6.907,2.155,10.713,2.155h222.137    C298.271,312.405,299.469,316.717,300.945,321.043L300.945,321.043z" style="fill:#4A374F;"/>
<path d="M55.398,51.205c-2.595,2.595-4.672,5.71-6.136,9.077c-1.304,3.287-2.076,6.908-2.076,10.714    v208.826c0,3.794,0.771,7.427,2.076,10.715c0.599,1.384,1.292,2.676,2.063,3.966L175.45,171.177l9.25,9.25L50.726,313.523    l-4.579-4.58c-3.806-3.806-6.827-8.384-8.997-13.39c-1.983-4.938-3.101-10.208-3.101-15.731V70.996    c0-5.537,1.118-10.807,3.101-15.732c2.17-5.004,5.191-9.596,8.997-13.389L55.398,51.205z" style="fill:#4A374F;"/>
<path d="M300.254,171.177l36.734,37.081l-0.173,0.079l-0.094,0.094l-0.079,0.079l-0.173,0.093l-0.174,0.174    l-0.172,0.08l-0.174,0.093l-0.173,0.172l0,0l-0.174,0.08l-0.172,0.173l-0.173,0.093l-0.094,0.081l-0.173,0.173l-0.16,0.079l0,0    l-0.172,0.173l-0.174,0.094l-0.174,0.173l-0.187,0.079l-0.158,0.093l-0.093,0.08l-0.081,0.093l-0.173,0.08l-0.094,0.173    l-0.173,0.093l-0.864,0.692l-0.174,0.08l-0.08,0.173l-0.172,0.093l0,0l-0.173,0.174l-0.174,0.08l-0.174,0.172l-0.172,0.093    l-0.173,0.173l-0.094,0.08l0,0l-0.173,0.173l-0.174,0.094l-0.172,0.172l-0.173,0.08l-0.599,0.52l-0.174,0.173l-0.173,0.093    l-0.095,0.174h-0.079l-0.093,0.173l-0.173,0.08l-0.173,0.172l-0.173,0.093l-0.08,0.173l-0.173,0.08l0,0l-0.174,0.173l-0.173,0.172    l-0.079,0.094l-0.173,0.173l-0.187,0.08l-0.08,0.093l-0.094,0.08l-0.173,0.172l-0.079,0.093l-0.173,0.161l-0.174,0.094    l-0.174,0.172l-35.775-36.123L300.254,171.177z M428.425,196.665V70.996c0-3.806-0.771-7.427-2.156-10.714    c-1.383-3.367-3.46-6.482-6.042-9.077l9.237-9.33c3.806,3.793,6.828,8.385,8.997,13.389c1.983,4.925,3.114,10.195,3.114,15.732    v131.818l-0.267-0.093l-0.172-0.094l-0.174-0.08l-0.173-0.173l-0.173-0.079l-0.253-0.093l-0.094-0.08h-0.08l-0.172-0.173    l-0.267-0.093l-0.173-0.08l-0.174-0.094l-0.172-0.079l-0.081-0.093l-0.172-0.093l-0.175-0.08l-0.172-0.093l-0.266-0.08    l-0.173-0.081v-0.093l-0.175-0.08l-0.251-0.093l-0.174-0.08l-0.173-0.093l-0.267-0.081v-0.093l-0.173-0.081l-0.173-0.093    l-0.253-0.08l-0.173-0.093l-0.174-0.08l-0.173-0.093h-0.093l-0.173-0.081l-0.253-0.173l-0.174-0.094l-0.172-0.079l-0.173-0.093    h-0.093l-0.161-0.079l-0.173-0.094l-0.266-0.08l-0.173-0.093l-0.174-0.08h-0.079l-0.786-0.438l-0.253-0.08l0,0l-0.173-0.093    l-0.173-0.081l-0.266-0.093l-0.174-0.08l-0.253-0.093h-0.093l-0.079-0.08l-0.173-0.093l-0.268-0.081l-0.173-0.093l-0.252-0.081    l-0.174-0.092l0,0l-0.267-0.081l-0.172-0.093l-0.173-0.08l-0.254-0.093l-0.173-0.08l0,0l-0.266-0.093l-0.174-0.08l-0.253-0.093    l-0.173-0.08L428.425,196.665z" style="fill:#4A374F;"/>
<path d="M429.464,51.205L275.019,205.662c-5.017,5.004-10.899,8.811-17.116,11.486    c-6.401,2.688-13.309,4.073-20.137,4.073c-6.747,0-13.656-1.385-20.057-4.073c-6.216-2.675-12.099-6.482-17.117-11.486    L41.476,46.534l4.671-4.659c3.793-3.713,8.385-6.828,13.39-8.904c4.845-2.076,10.208-3.194,15.731-3.194h325.073    c5.537,0,10.809,1.118,15.732,3.194c5.004,2.077,9.597,5.191,13.39,8.904l4.672,4.659L429.464,51.205z M265.77,196.318    L414.943,47.052c-1.211-0.772-2.502-1.384-3.887-1.983c-3.288-1.385-6.907-2.156-10.715-2.156H75.269    c-3.806,0-7.426,0.771-10.713,2.156c-1.385,0.599-2.675,1.211-3.979,1.983l149.267,149.266c3.886,3.807,8.212,6.748,12.883,8.731    c4.832,1.997,9.942,3.035,15.04,3.035c5.178,0,10.289-1.039,15.12-3.035C257.557,203.066,261.882,200.125,265.77,196.318    L265.77,196.318z" style="fill:#4A374F;"/>
<path d="M391.092,473.597l7.001-17.462    c0.785-1.904-0.692-4.232-3.194-5.271l-68.544-27.75l0,0l-4.752-1.89c-2.502-1.038-5.191-0.267-5.963,1.637l-7.001,17.369    c-0.691,1.903,0.692,4.325,3.194,5.271l73.297,29.733C387.632,476.191,390.319,475.499,391.092,473.597L391.092,473.597z" style="fill-rule:evenodd;clip-rule:evenodd;fill:#D8A878;"/>
<path d="M386.075,468.499l4.844-12.192l-70.274-28.428l-4.832,12.178L386.075,468.499z M404.149,458.649    l-6.922,17.369c-1.21,3.021-3.713,5.005-6.734,5.79c-2.344,0.692-5.019,0.519-7.613-0.519l-73.47-29.642    c-2.596-1.037-4.75-2.941-6.042-5.11c-1.557-2.676-1.996-5.79-0.785-8.718l7.001-17.461c1.132-2.942,3.634-4.926,6.655-5.791    c2.342-0.612,5.098-0.519,7.692,0.52c22.732,7.254,50.656,20.483,73.469,29.732c2.596,1.025,4.672,2.85,5.964,5.005    C404.921,452.501,405.359,455.707,404.149,458.649L404.149,458.649z" style="fill:#4A374F;"/>
<path d="M390.319,449.053l11.926-21.959    c0.08-0.254,0.253-0.427,0.52-0.6c20.137-13.922,28.602-24.636,31.451-37.866c3.034-13.828-5.178-19.524-9.41-21.521    c-1.477-7.521-11.5-15.893-18.847-16.158c-0.944-6.828-10.022-14.348-16.078-14.774l11.153-27.75    c2.596-6.309-0.864-11.406-5.616-13.309c-4.752-1.903-10.715-0.613-13.311,5.709l-24.289,56.871    c-2.076-8.385-3.022-21.96-12.271-25.674c-6.576-2.595-15.825,1.811-14.348,11.154l-7.268,78.992L390.319,449.053z" style="fill-rule:evenodd;clip-rule:evenodd;fill:#D8A878;"/>
<path d="M387.378,440.748c3.021-5.615,6.39-13.042,9.942-18.14l0.6-0.613    c0.346-0.346,0.692-0.692,1.131-0.943l0.254-0.175c9.422-6.48,16.077-12.19,20.563-17.728c4.326-5.178,6.748-10.368,7.959-15.893    c1.118-4.938,0.348-8.132-1.037-10.207c-1.385-2.157-3.367-3.368-4.752-3.967c-1.903-0.959-3.195-2.688-3.634-4.672    c-0.426-2.25-2.422-4.845-5.018-7.094c-2.582-2.157-5.444-3.714-7.6-3.793c-3.194-0.094-5.79-2.517-6.309-5.617    c-0.254-1.73-1.731-3.807-3.714-5.631c-2.249-1.982-4.672-3.446-6.309-3.539c-3.633-0.253-6.309-3.367-6.056-7.001    c0-0.865,0.266-1.638,0.519-2.329l11.061-27.404c0.439-1.212,0.519-2.156,0.173-2.849c-0.347-0.771-1.038-1.384-1.81-1.823    l-0.691-0.253c-0.866-0.253-1.731-0.346-2.503-0.093l-0.173,0.093c-0.612,0.253-1.212,0.865-1.651,1.81l-24.462,57.404    c-1.465,3.368-5.271,4.925-8.639,3.448c-1.983-0.866-3.367-2.597-3.807-4.58c-0.346-1.385-0.692-3.113-1.038-4.924    c-1.291-6.482-2.929-14.348-7.348-16.157c-0.691-0.268-1.464-0.347-2.328-0.174c-0.692,0.08-1.29,0.347-1.903,0.772    c-0.427,0.347-0.771,0.771-0.945,1.211c-0.267,0.599-0.347,1.291-0.173,2.25c0.173,0.691,0.173,1.291,0.08,1.982l-6.828,73.814    L387.378,440.748z M407.517,431.165l-11.406,20.989c-1.558,2.862-5.099,4.245-8.212,2.942l-66.389-26.873    c-2.582-1.037-4.313-3.726-4.06-6.654l7.174-78.233c-0.346-3.021,0.093-5.869,1.038-8.292c1.211-2.941,3.114-5.27,5.443-6.907    c2.17-1.649,4.845-2.769,7.521-3.207c3.113-0.507,6.401-0.174,9.343,1.037c5.697,2.343,9.157,6.654,11.313,11.593l16.771-39.33    c1.982-4.845,5.442-7.865,9.25-9.423l0.426-0.093c3.898-1.465,8.212-1.198,12.018,0.266l0.094,0.08    c4.06,1.65,7.6,4.765,9.409,8.997c1.558,3.714,1.825,8.119-0.079,12.791l-8.651,21.428c2.169,1.132,4.246,2.689,6.148,4.326    c2.582,2.502,4.925,5.443,6.39,8.651c3.807,1.118,7.613,3.367,10.888,6.136c3.633,3.194,6.747,7.173,8.384,11.313    c2.423,1.558,5.191,3.807,7.441,7.174c3.021,4.673,4.831,11.233,2.941,20.138c-1.73,7.612-4.938,14.441-10.728,21.442    C424.806,417.764,417.538,424.151,407.517,431.165L407.517,431.165z" style="fill:#4A374F;"/>
</g>
</g>
<g id="Layer_1"/>
</svg>