<?xml version="1.0" ?>
<!DOCTYPE svg  PUBLIC '-//W3C//DTD SVG 1.1//EN'  'http://www.w3.org/Graphics/SVG/1.1/DTD/svg11.dtd'>
<!-- Uploaded to: SVG Repo, www.svgrepo.com, Generator: SVG Repo Mixer Tools -->
<svg width="800px" height="800px" viewBox="0 0 512 512" version="1.1" xml:space="preserve" xmlns="http://www.w3.org/2000/svg" xmlns:xlink="http://www.w3.org/1999/xlink">
<g id="email_x2C__mail__x2C__letter__x2C__internet__x2C__envelope__x2C__chat__x2C___tripadvisor__x2C_">
<g>
<path d="M396.162,265.432c-43.871,0-79.358,35.502-79.358,79.372    c0,43.79,35.487,79.386,79.358,79.386c43.872,0,79.386-35.596,79.386-79.386C475.548,300.934,440.034,265.432,396.162,265.432    L396.162,265.432z" style="fill-rule:evenodd;clip-rule:evenodd;fill:#FBCD64;"/>
<path d="M396.162,272.12c-20.077,0-38.228,8.112-51.359,21.243h-0.081    c-13.132,13.131-21.243,31.282-21.243,51.44c0,20.077,8.111,38.228,21.324,51.36c13.132,13.131,31.282,21.243,51.359,21.243    s38.228-8.112,51.359-21.243c13.131-13.133,21.325-31.283,21.325-51.36c0-20.158-8.112-38.31-21.244-51.44h-0.081    C434.39,280.232,416.239,272.12,396.162,272.12L396.162,272.12z M335.28,283.922L335.28,283.922    c15.601-15.587,37.087-25.191,60.882-25.191c23.713,0,45.281,9.604,60.883,25.191l0,0c15.601,15.601,25.178,37.087,25.178,60.882    c0,23.713-9.577,45.282-25.178,60.801c-15.602,15.573-37.17,25.26-60.883,25.26c-23.795,0-45.281-9.687-60.882-25.26    c-15.573-15.519-25.179-37.088-25.179-60.801C310.102,321.009,319.707,299.522,335.28,283.922L335.28,283.922z" style="fill:#4A374F;"/>
<path d="M430.782,318.813c-14.354,0-25.992,11.64-25.992,25.991    c0,3.012,0.624,5.915,1.601,8.627h-20.43c0.95-2.712,1.574-5.615,1.574-8.627c0-14.352-11.641-25.991-25.992-25.991    c-14.271,0-25.91,11.64-25.91,25.991c0,14.271,11.639,25.911,25.91,25.911h69.239c14.271,0,25.909-11.641,25.909-25.911    C456.691,330.452,445.053,318.813,430.782,318.813L430.782,318.813z M361.543,336.095c4.748,0,8.628,3.88,8.628,8.709    c0,4.747-3.88,8.627-8.628,8.627s-8.628-3.88-8.628-8.627C352.915,339.975,356.795,336.095,361.543,336.095L361.543,336.095z     M430.782,353.431c-4.83,0-8.71-3.88-8.71-8.627c0-4.829,3.88-8.709,8.71-8.709c4.774,0,8.627,3.88,8.627,8.709    C439.409,349.551,435.557,353.431,430.782,353.431L430.782,353.431z" style="fill-rule:evenodd;clip-rule:evenodd;fill:#FBCD64;"/>
<path d="M430.782,325.514c-5.372,0-10.12,2.197-13.647,5.643c-3.445,3.527-5.643,8.275-5.643,13.647    c0,1.14,0.081,2.198,0.352,3.174c0.19,1.059,0.543,2.117,0.896,3.256l3.148,8.899h-39.449l3.174-8.98    c0.435-1.058,0.706-2.116,0.868-3.175c0.271-0.976,0.353-2.034,0.353-3.174c0-5.372-2.196-10.12-5.644-13.647l0,0    c-3.526-3.445-8.274-5.643-13.646-5.643c-5.291,0-10.119,2.197-13.565,5.643c-3.527,3.527-5.644,8.275-5.644,13.647    c0,5.291,2.116,10.147,5.644,13.565c3.446,3.527,8.274,5.644,13.565,5.644h69.239c5.29,0,10.146-2.116,13.564-5.644    c3.528-3.418,5.644-8.274,5.644-13.565c0-5.372-2.115-10.12-5.644-13.647l0,0C440.929,327.711,436.072,325.514,430.782,325.514    L430.782,325.514z M407.693,321.715c5.915-5.887,14.107-9.577,23.089-9.577c8.898,0,17.093,3.69,23.006,9.577h0.082    c5.888,5.915,9.523,14.107,9.523,23.089c0,8.98-3.636,17.093-9.523,23.089c-5.914,5.887-14.108,9.523-23.088,9.523h-69.239    c-8.98,0-17.093-3.637-23.089-9.604c-5.888-5.916-9.495-14.028-9.495-23.009c0-8.981,3.607-17.174,9.495-23.089    c5.914-5.887,14.108-9.577,23.089-9.577s17.174,3.69,23.089,9.577l0,0c5.888,5.915,9.604,14.107,9.604,23.089l-0.108,1.954h4.069    l-0.081-1.954C398.116,335.741,401.806,327.63,407.693,321.715L407.693,321.715z M361.543,329.394    c4.233,0,8.112,1.763,10.824,4.584c2.822,2.714,4.505,6.594,4.505,10.826s-1.683,8.031-4.505,10.825    c-2.712,2.74-6.591,4.504-10.824,4.504c-4.151,0-8.003-1.764-10.824-4.504c-2.741-2.794-4.505-6.593-4.505-10.825    s1.764-8.112,4.505-10.826C353.54,331.156,357.311,329.394,361.543,329.394L361.543,329.394z M362.953,343.393    c-0.352-0.352-0.786-0.624-1.41-0.624c-0.515,0-0.978,0.272-1.329,0.624c-0.354,0.353-0.597,0.787-0.597,1.411    c0,0.543,0.243,0.976,0.597,1.33c0.271,0.352,0.814,0.624,1.329,0.624c0.543,0,1.059-0.272,1.41-0.624    c0.354-0.354,0.544-0.787,0.544-1.33C363.497,344.288,363.307,343.745,362.953,343.393L362.953,343.393z M430.782,360.133    c-4.233,0-8.086-1.764-10.907-4.504c-2.74-2.794-4.504-6.593-4.504-10.825s1.764-8.112,4.504-10.907    c2.821-2.74,6.674-4.503,10.907-4.503c4.15,0,8.03,1.763,10.743,4.503l0.108,0.081c2.713,2.714,4.477,6.594,4.477,10.826    s-1.764,8.031-4.477,10.825C438.813,358.369,434.933,360.133,430.782,360.133L430.782,360.133z M429.371,346.134    c0.353,0.352,0.895,0.624,1.411,0.624c0.542,0,1.058-0.272,1.328-0.543c0.354-0.436,0.624-0.868,0.624-1.411    c0-0.624-0.271-1.059-0.542-1.411h-0.082c-0.271-0.352-0.786-0.624-1.328-0.624c-0.517,0-1.059,0.272-1.411,0.624    c-0.354,0.353-0.516,0.896-0.516,1.411C428.855,345.347,429.018,345.779,429.371,346.134L429.371,346.134z" style="fill:#4A374F;"/>
<path d="M438.46,254.063V123.163c0-9.686-3.962-18.503-10.392-24.934    l-131.803,131.79l-25.639,25.646c-9.15,9.143-21.224,13.918-33.202,13.918c-11.979,0-24.052-4.775-33.223-13.918l-25.625-25.646    l-54.968,54.636L46.788,360.92c6.335,6.348,15.329,10.391,25.015,10.391h227.908c-2.306-8.438-3.527-17.336-3.527-26.507    c0-27.647,11.179-52.688,29.248-70.73c18.15-18.056,43.085-29.343,70.73-29.343C411.221,244.73,425.6,248.067,438.46,254.063    L438.46,254.063z" style="fill-rule:evenodd;clip-rule:evenodd;fill:#F36360;"/>
<path d="M123.61,284.654l54.968-54.636L46.788,98.229    c-6.349,6.43-10.31,15.248-10.31,24.934v212.824c0,9.713,3.961,18.503,10.31,24.934L123.61,284.654z" style="fill-rule:evenodd;clip-rule:evenodd;fill:#F36360;"/>
<path d="M51.55,102.991c-2.646,2.645-4.762,5.806-6.268,9.251c-1.397,3.337-2.116,7.04-2.116,10.92v212.824    c0,3.88,0.719,7.596,2.116,10.934c0.624,1.411,1.33,2.74,2.116,4.043l126.418-125.692l9.429,9.421L46.788,370.361l-4.762-4.666    c-3.784-3.88-6.959-8.547-9.075-13.675c-2.021-5.019-3.174-10.392-3.174-16.034V123.163c0-5.644,1.153-11.015,3.174-16.035    c2.116-5.114,5.291-9.78,9.075-13.646L51.55,102.991z" style="fill:#4A374F;"/>
<path d="M301.827,378.012H71.803c-5.643,0-11.097-1.139-16.035-3.255c-5.195-2.116-9.78-5.209-13.646-9.062    l9.428-9.523c2.631,2.632,5.806,4.748,9.333,6.268c3.351,1.411,7.04,2.198,10.92,2.198H298.11    C299.087,369.222,300.309,373.618,301.827,378.012L301.827,378.012z" style="fill:#4A374F;"/>
<path d="M301.014,225.271l37.44,37.774l-0.162,0.107v0.082l-0.082,0.081l-0.19,0.082l-0.162,0.189    l-0.189,0.082l-0.163,0.081l-0.19,0.189l0,0l-0.163,0.081l-0.189,0.189l-0.162,0.082l-0.191,0.082l-0.162,0.189l-0.108,0.082    h-0.081l-0.163,0.162l-0.108,0.108l-0.163,0.163l-0.189,0.082l-0.163,0.189h-0.081l-0.108,0.081l-0.163,0.082l-0.19,0.189    l-0.162,0.081l-0.787,0.706l-0.189,0.081l-0.163,0.19l-0.19,0.081l0,0l-0.163,0.189l-0.107,0.081l-0.163,0.163l-0.163,0.108    l-0.19,0.164l-0.081,0.081h-0.081l-0.189,0.189l-0.082,0.081l-0.189,0.189l-0.163,0.082l-0.624,0.516l-0.163,0.189l-0.189,0.163    l-0.163,0.108l0,0l-0.189,0.163l-0.081,0.082l-0.19,0.189l-0.163,0.081l-0.189,0.163l-0.081,0.095l-0.082,0.082l-0.082,0.108    l-0.189,0.162l-0.163,0.082l-0.189,0.189l-0.081,0.082l-0.081,0.081l-0.109,0.108l-0.163,0.163l-0.189,0.081l-0.081,0.189    l-0.163,0.082l-0.19,0.19l-36.464-36.831L301.014,225.271z M431.759,251.242v-128.08c-0.082-3.88-0.787-7.583-2.198-10.92    c-1.411-3.446-3.608-6.607-6.267-9.251l9.522-9.509c3.798,3.866,6.945,8.532,9.062,13.646c2.117,5.02,3.283,10.391,3.283,16.035    V257.51l-0.271-0.081l-0.189-0.109l-0.164-0.081l-0.271-0.163l-0.189-0.108l-0.163-0.081l-0.081-0.081h-0.109l-0.244-0.19    l-0.189-0.082l-0.162-0.081l-0.272-0.082l-0.081-0.109h-0.081l-0.19-0.163l-0.271-0.081l-0.162-0.109l-0.19-0.081l-0.162-0.081    l0,0l-0.272-0.164l-0.162-0.108l-0.189-0.081l-0.271-0.082l-0.163-0.081v-0.109l-0.19-0.081l-0.243-0.081l-0.189-0.082    l-0.272-0.108l-0.163-0.081l-0.081-0.082h-0.108l-0.244-0.109l-0.19-0.162l-0.162-0.082l-0.271-0.108h-0.081l-0.109-0.082    l-0.162-0.081l-0.271-0.081l-0.162-0.081l-0.272-0.109l-0.189-0.082l0,0l-0.787-0.434l-0.243-0.081l0,0l-0.19-0.109l-0.271-0.081    l-0.163-0.082l-0.271-0.082l-0.19-0.108h-0.081l-0.082-0.082l-0.271-0.082l-0.163-0.082l-0.271-0.108l-0.163-0.082l-0.189-0.081    l0,0l-0.271-0.082l-0.163-0.109l-0.271-0.081l-0.163-0.081l-0.271-0.083l0,0l-0.189-0.109l-0.244-0.081l-0.19-0.081l-0.271-0.082    L431.759,251.242z" style="fill:#4A374F;"/>
<path d="M428.068,98.229L270.627,255.665    c-9.15,9.143-21.224,13.918-33.202,13.918c-11.979,0-24.052-4.775-33.223-13.918L46.788,98.229    c6.335-6.335,15.329-10.391,25.015-10.391h331.223C412.739,87.838,421.72,91.894,428.068,98.229L428.068,98.229z" style="fill-rule:evenodd;clip-rule:evenodd;fill:#F36360;"/>
<path d="M432.816,102.991L275.402,260.412c-5.21,5.102-11.118,9.089-17.453,11.708    c-6.606,2.739-13.565,4.15-20.524,4.15c-6.959,0-13.918-1.411-20.444-4.15c-6.43-2.619-12.331-6.606-17.527-11.708L37.36,98.229    l4.762-4.747c3.866-3.799,8.451-6.974,13.646-9.076c4.938-2.116,10.392-3.27,16.035-3.27h331.223    c5.644,0,11.123,1.235,16.144,3.27c5.1,2.102,9.767,5.277,13.564,9.076l4.748,4.747L432.816,102.991z M265.872,250.889    L418.003,98.758c-1.221-0.705-2.632-1.41-4.043-2.021c-3.337-1.411-7.054-2.116-10.934-2.116H71.803    c-3.88,0-7.57,0.705-10.92,2.116c-1.411,0.611-2.727,1.316-4.056,2.021l152.137,152.131c3.88,3.989,8.37,6.892,13.131,8.9    c4.843,2.034,10.134,3.093,15.33,3.093c5.277,0,10.486-1.059,15.329-3.093C257.502,257.781,262.006,254.878,265.872,250.889    L265.872,250.889z" style="fill:#4A374F;"/>
</g>
</g>
<g id="Layer_1"/>
</svg>