<?xml version="1.0" ?>
<!DOCTYPE svg  PUBLIC '-//W3C//DTD SVG 1.1//EN'  'http://www.w3.org/Graphics/SVG/1.1/DTD/svg11.dtd'>
<!-- Uploaded to: SVG Repo, www.svgrepo.com, Generator: SVG Repo Mixer Tools -->
<svg width="800px" height="800px" viewBox="0 0 512 512" version="1.1" xml:space="preserve" xmlns="http://www.w3.org/2000/svg" xmlns:xlink="http://www.w3.org/1999/xlink">
<g id="email_x2C__mail__x2C__letter__x2C__internet__x2C__envelope__x2C__chat__x2C___profile__x2C_">
<g>
<path d="M396.162,265.388c-43.789,0-79.277,35.583-79.277,79.371    c0,43.872,35.488,79.373,79.277,79.373c43.872,0,79.358-35.501,79.358-79.373C475.521,300.971,440.034,265.388,396.162,265.388    L396.162,265.388z" style="fill-rule:evenodd;clip-rule:evenodd;fill:#F3EEDC;"/>
<path d="M396.162,272.17c-19.995,0-38.228,8.099-51.359,21.23c-13.131,13.117-21.243,31.269-21.243,51.358    c0,20.091,8.112,38.323,21.243,51.441c13.132,13.131,31.364,21.229,51.359,21.229c20.077,0,38.309-8.099,51.44-21.229    c13.132-13.118,21.244-31.351,21.244-51.441c0-20.09-8.112-38.241-21.244-51.358C434.471,280.269,416.239,272.17,396.162,272.17    L396.162,272.17z M335.361,283.891c15.52-15.505,37.088-25.205,60.801-25.205c23.794,0,45.363,9.7,60.855,25.205    c15.601,15.587,25.205,37.17,25.205,60.868c0,23.78-9.604,45.282-25.205,60.869c-15.492,15.602-37.062,25.191-60.855,25.191    c-23.713,0-45.281-9.59-60.801-25.191c-15.573-15.587-25.26-37.089-25.26-60.869C310.102,321.061,319.788,299.478,335.361,283.891    L335.361,283.891z" style="fill:#4A374F;"/>
<path d="M397.139,303.533c-2.469,0-4.585,0.963-6.186,2.551c-1.491,1.588-2.47,3.703-2.47,6.077    c0,2.469,0.896,4.585,2.47,6.172c1.601,1.588,3.717,2.552,6.186,2.552c2.36,0,4.559-0.964,6.077-2.552    c1.574-1.587,2.551-3.703,2.551-6.172c0-2.374-0.977-4.489-2.551-6.077C401.616,304.496,399.499,303.533,397.139,303.533    L397.139,303.533z M381.539,296.655c3.961-4.056,9.523-6.511,15.6-6.511c6.077,0,11.531,2.455,15.573,6.511    c3.962,3.961,6.431,9.429,6.431,15.506c0,6.172-2.469,11.626-6.431,15.601c-4.042,4.043-9.604,6.512-15.573,6.512    c-6.076,0-11.639-2.469-15.6-6.512c-4.043-3.975-6.512-9.523-6.512-15.601S377.496,300.616,381.539,296.655L381.539,296.655z" style="fill:#4A374F;"/>
<path d="M385.69,339.564h21.054c8.274,0,15.844,2.902,21.487,7.568c5.807,5.021,9.496,11.979,9.496,19.644    v24.58H354.68v-24.58c0-7.746,3.688-14.623,9.495-19.644C369.817,342.467,377.387,339.564,385.69,339.564L385.69,339.564z     M406.744,352.953H385.69c-5.048,0-9.605,1.668-12.889,4.408c-2.903,2.456-4.748,5.807-4.748,9.415v11.191h56.298v-11.191    c0-3.608-1.845-6.959-4.748-9.415C416.321,354.621,411.763,352.953,406.744,352.953L406.744,352.953z" style="fill:#4A374F;"/>
<path d="M438.433,254.114V123.207c0-9.7-3.962-18.599-10.392-24.934    L296.348,229.968l-25.64,25.72c-9.245,9.171-21.223,13.837-33.202,13.837c-12.074,0-24.052-4.666-33.222-13.837l-25.721-25.72    l-54.968,54.629L46.869,360.97c6.335,6.335,15.33,10.31,24.934,10.31h227.989c-2.387-8.369-3.608-17.269-3.608-26.521    c0-27.578,11.179-52.593,29.329-70.649c18.042-18.15,43.085-29.342,70.649-29.342    C411.302,244.768,425.572,248.119,438.433,254.114L438.433,254.114z" style="fill-rule:evenodd;clip-rule:evenodd;fill:#B0DCC1;"/>
<path d="M123.596,284.597l54.968-54.629L46.869,98.273    c-6.43,6.335-10.405,15.234-10.405,24.934v212.734c0,9.781,3.975,18.599,10.405,25.028L123.596,284.597z" style="fill-rule:evenodd;clip-rule:evenodd;fill:#B0DCC1;"/>
<path d="M51.536,103.034c-2.645,2.632-4.762,5.806-6.172,9.239c-1.398,3.35-2.198,7.054-2.198,10.934    v212.734c0,3.975,0.8,7.665,2.198,10.934c0.529,1.412,1.234,2.822,2.034,4.043l126.5-125.617l9.428,9.428L46.774,370.397    l-4.666-4.68c-3.88-3.866-6.959-8.532-9.157-13.646c-2.035-5.02-3.174-10.392-3.174-16.13V123.207    c0-5.644,1.139-11.111,3.174-16.035c2.198-5.196,5.277-9.781,9.157-13.661L51.536,103.034z" style="fill:#4A374F;"/>
<path d="M301.801,377.968H71.803c-5.643,0-11.015-1.139-16.035-3.174c-5.114-2.104-9.78-5.278-13.66-9.076    l9.428-9.509c2.645,2.645,5.82,4.761,9.333,6.253c3.351,1.33,7.054,2.116,10.934,2.116h226.389    C299.087,369.164,300.309,373.653,301.801,377.968L301.801,377.968z" style="fill:#4A374F;"/>
<path d="M301.096,225.301l37.44,37.794l-0.163,0.095l-0.081,0.081l-0.109,0.082l-0.163,0.096l-0.189,0.081    l-0.162,0.176l-0.189,0.096l-0.164,0.176l0,0l-0.189,0.081l-0.163,0.096l-0.081,0.176l-0.189,0.081l-0.164,0.177l-0.189,0.095l0,0    l-0.163,0.177l-0.189,0.081l-0.163,0.096l-0.189,0.176l-0.163,0.082l-0.108,0.095l-0.081,0.081l-0.081,0.095l-0.19,0.178    l-0.163,0.081l-0.868,0.623l-0.108,0.177l-0.163,0.082l-0.189,0.176l0,0l-0.163,0.095l-0.189,0.176l-0.163,0.082l-0.189,0.177    l-0.082,0.095l-0.163,0.081v0.095l-0.189,0.082l-0.163,0.176l-0.189,0.177l-0.163,0.095l-0.624,0.529l-0.19,0.177l-0.081,0.081    l-0.163,0.176l0,0l-0.189,0.095l-0.162,0.177l-0.19,0.177l-0.082,0.082l-0.189,0.176l-0.162,0.095l0,0l-0.19,0.162l-0.163,0.095    l-0.081,0.178l-0.189,0.176l-0.163,0.095l-0.108,0.082l-0.082,0.095l-0.081,0.081l-0.19,0.176l-0.162,0.178l-0.189,0.081    l-0.082,0.177l-36.546-36.818L301.096,225.301z M431.84,251.292l-0.081-128.085c0-3.88-0.814-7.584-2.117-10.934    c-1.519-3.433-3.607-6.607-6.267-9.239l9.441-9.523c3.853,3.88,6.945,8.465,9.144,13.661c2.035,4.924,3.174,10.391,3.174,16.035    v134.34l-0.162-0.096l-0.19-0.081l-0.271-0.176l-0.163-0.097l-0.189-0.08l-0.244-0.095v-0.082l-0.19-0.095l-0.162-0.081    l-0.19-0.095l-0.243-0.082l-0.19-0.096l-0.163-0.081v-0.081l-0.271-0.095l-0.189-0.081l-0.163-0.095l-0.271-0.177l-0.162-0.095    l0,0l-0.19-0.081l-0.271-0.095l-0.162-0.082l-0.189-0.082l-0.245-0.176l0,0l-0.19-0.095l-0.162-0.082l-0.271-0.095l-0.19-0.082    l-0.163-0.095l-0.082-0.082l-0.189-0.095l-0.162-0.082l-0.19-0.095l-0.271-0.081l-0.162-0.095l-0.19-0.081h-0.082l-0.162-0.095    l-0.189-0.082l-0.271-0.095l-0.163-0.082l-0.19-0.176l0,0l-0.868-0.353l-0.189-0.095h-0.081l-0.163-0.082l-0.19-0.095    l-0.244-0.082l-0.189-0.095l-0.163-0.081l-0.189-0.095h-0.082l-0.189-0.082l-0.244-0.095l-0.19-0.081l-0.271-0.095l-0.081-0.081    h-0.082l-0.189-0.095l-0.245-0.081l-0.189-0.095l-0.271-0.082l-0.164-0.095l0,0l-0.271-0.081l-0.163-0.095l-0.271-0.083    l-0.189-0.095L431.84,251.292z" style="fill:#4A374F;"/>
<path d="M428.041,98.273L270.708,255.688    c-9.245,9.171-21.223,13.837-33.202,13.837c-12.074,0-24.052-4.666-33.222-13.837L46.869,98.273    c6.335-6.349,15.33-10.392,24.934-10.392h331.305C412.821,87.881,421.693,91.924,428.041,98.273L428.041,98.273z" style="fill-rule:evenodd;clip-rule:evenodd;fill:#B0DCC1;"/>
<path d="M432.816,103.034L275.375,260.368c-5.101,5.195-11.091,9.156-17.438,11.802    c-6.512,2.727-13.566,4.138-20.43,4.138c-6.959,0-13.932-1.411-20.539-4.138c-6.335-2.646-12.236-6.606-17.431-11.802    L37.346,98.273l4.762-4.762c3.88-3.785,8.464-6.959,13.66-9.075c5.02-2.116,10.392-3.256,16.035-3.256h331.305    c5.643,0,11.096,1.14,16.034,3.256c5.209,2.116,9.794,5.195,13.674,9.075l4.748,4.762L432.816,103.034z M265.953,250.939    l152.05-152.138c-1.221-0.801-2.55-1.506-3.961-2.035c-3.337-1.397-7.054-2.198-10.934-2.198H71.803    c-3.88,0-7.583,0.801-10.934,2.198c-1.411,0.529-2.727,1.234-3.961,2.035l152.056,152.138c3.866,3.88,8.356,6.865,13.118,8.805    c4.938,2.117,10.133,3.094,15.424,3.094c5.196,0,10.391-0.977,15.329-3.094C257.583,257.805,262.073,254.819,265.953,250.939    L265.953,250.939z" style="fill:#4A374F;"/>
</g>
</g>
<g id="Layer_1"/>
</svg>