<?xml version="1.0" ?>
<!DOCTYPE svg  PUBLIC '-//W3C//DTD SVG 1.1//EN'  'http://www.w3.org/Graphics/SVG/1.1/DTD/svg11.dtd'>
<!-- Uploaded to: SVG Repo, www.svgrepo.com, Generator: SVG Repo Mixer Tools -->
<svg width="800px" height="800px" viewBox="0 0 512 512" version="1.1" xml:space="preserve" xmlns="http://www.w3.org/2000/svg" xmlns:xlink="http://www.w3.org/1999/xlink">
<g id="email_x2C__mail__x2C__letter__x2C__internet__x2C__envelope__x2C__chat__x2C___navigation__x2C_">
<g>
<path d="M452.196,250.31L452.196,250.31    c-31.045-31.038-81.4-31.038-112.525,0l0,0c-27.962,28.044-31.126,80.789-7.4,112.444l63.664,91.897l63.677-91.897    C483.336,331.099,480.24,278.354,452.196,250.31L452.196,250.31z M396.735,332.063c-14.559,0-26.292-11.72-26.292-26.197    c0-14.558,11.733-26.277,26.292-26.277c14.544,0,26.276,11.72,26.276,26.277C423.012,320.344,411.279,332.063,396.735,332.063    L396.735,332.063z" style="fill-rule:evenodd;clip-rule:evenodd;fill:#F36360;"/>
<path d="M447.525,255.063c-14.286-14.178-32.892-21.334-51.591-21.334    c-18.606,0-37.306,7.157-51.497,21.334c-12.792,12.792-19.937,31.317-21.172,50.369c-1.236,19.135,3.437,38.704,14.382,53.344    l58.287,84.144l58.299-84.144c10.933-14.64,15.698-34.209,14.367-53.344C467.366,286.38,460.222,267.855,447.525,255.063    L447.525,255.063z M395.935,220.325c22.135,0,44.188,8.467,61.028,25.313c15.17,15.169,23.549,36.775,25.043,58.912    c1.412,22.135-4.048,44.801-16.936,61.994l-69.136,99.923l-69.138-99.923c-12.792-17.193-18.347-39.859-16.84-61.994    c1.399-22.137,9.874-43.742,24.947-58.912C351.758,228.792,373.893,220.325,395.935,220.325L395.935,220.325z M396.735,338.853    c-9.085,0-17.383-3.706-23.291-9.71c-5.988-5.989-9.695-14.19-9.695-23.276c0-9.166,3.707-17.369,9.695-23.357    c5.908-5.921,14.206-9.615,23.291-9.615c9.071,0,17.369,3.694,23.275,9.615c6.003,5.988,9.697,14.191,9.697,23.357    c0,9.086-3.694,17.287-9.697,23.276C414.104,335.146,405.807,338.853,396.735,338.853L396.735,338.853z M382.884,319.719    c3.53,3.529,8.459,5.649,13.852,5.649c5.378,0,10.307-2.12,13.838-5.649c3.531-3.612,5.73-8.474,5.73-13.853    c0-5.458-2.199-10.32-5.73-13.852c-3.531-3.518-8.46-5.729-13.838-5.729c-5.393,0-10.321,2.212-13.852,5.729    c-3.531,3.531-5.731,8.394-5.731,13.852C377.152,311.245,379.353,316.106,382.884,319.719L382.884,319.719z" style="fill:#4A374F;"/>
<path d="M438.888,218.648V87.605c0-9.791-3.965-18.612-10.321-24.96    L296.636,194.488l-25.666,25.659c-9.161,9.263-21.247,13.934-33.239,13.934c-11.991,0-24.078-4.671-33.244-13.934l-25.749-25.659    l-54.946,54.681l-76.905,76.456c6.356,6.344,15.346,10.308,24.96,10.308h228.223c-2.295-8.447-3.518-17.354-3.518-26.535    c0-27.596,11.189-52.651,29.278-70.821c18.076-18.075,43.118-29.272,70.808-29.272    C411.728,209.305,426.095,212.652,438.888,218.648L438.888,218.648z" style="fill-rule:evenodd;clip-rule:evenodd;fill:#FBCD64;"/>
<path d="M123.793,249.169l54.946-54.681L46.888,62.645    c-6.437,6.349-10.402,15.169-10.402,24.96V300.57c0,9.805,3.966,18.619,10.402,25.055L123.793,249.169z" style="fill-rule:evenodd;clip-rule:evenodd;fill:#FBCD64;"/>
<path d="M51.655,67.315c-2.648,2.738-4.848,5.827-6.26,9.351c-1.413,3.354-2.214,7.055-2.214,10.939V300.57    c0,3.884,0.801,7.591,2.214,10.945c0.611,1.413,1.236,2.825,2.119,4.048l126.54-125.835l9.438,9.521L46.888,335.064l-4.767-4.767    c-3.871-3.871-6.967-8.557-9.071-13.676c-2.119-4.931-3.273-10.402-3.273-16.052V87.605c0-5.649,1.154-11.115,3.273-16.052    c2.104-5.208,5.283-9.792,9.071-13.668L51.655,67.315z" style="fill:#4A374F;"/>
<path d="M178.739,194.488l25.749,25.659    c9.166,9.263,21.252,13.934,33.244,13.934c11.992,0,24.078-4.671,33.239-13.934l25.666-25.659L428.566,62.645    c-6.438-6.437-15.345-10.409-25.041-10.409H71.849c-9.615,0-18.604,3.972-24.96,10.409L178.739,194.488z" style="fill-rule:evenodd;clip-rule:evenodd;fill:#FBCD64;"/>
<path d="M302.189,342.642H71.849c-5.554,0-11.027-1.142-16.051-3.178c-5.121-2.2-9.792-5.283-13.581-9.166    l9.438-9.438c2.553,2.648,5.731,4.766,9.343,6.179c3.354,1.398,7.062,2.199,10.851,2.199h226.634    C299.365,333.829,300.602,338.322,302.189,342.642L302.189,342.642z" style="fill:#4A374F;"/>
<path d="M301.402,189.816l37.48,37.829l-0.189,0.088l0,0l-0.163,0.089l-0.19,0.176l-0.162,0.088    l-0.177,0.089l-0.096,0.176l-0.177,0.089l0,0l-0.176,0.176l-0.177,0.088l-0.177,0.177l-0.176,0.088l-0.177,0.089l-0.082,0.088    l-0.095,0.088l-0.176,0.088l-0.177,0.177l-0.178,0.088l-0.176,0.177l-0.082,0.088l-0.095,0.088h-0.081l-0.177,0.177l-0.177,0.088    l-0.177,0.177l-0.801,0.618l-0.177,0.176l-0.176,0.089l-0.177,0.176l0,0l-0.178,0.089l-0.176,0.176l-0.082,0.088l-0.176,0.177    l-0.177,0.088l-0.095,0.089l-0.081,0.088l-0.178,0.088l-0.176,0.177l-0.082,0.088l-0.176,0.177l-0.721,0.523l-0.081,0.088    l-0.177,0.176l-0.177,0.177l0,0l-0.177,0.088l-0.176,0.177l-0.082,0.088l-0.176,0.177l-0.178,0.088l-0.095,0.183h-0.081    l-0.096,0.163l-0.176,0.095l-0.177,0.177l-0.177,0.081l-0.177,0.191l-0.081,0.081v0.081l-0.177,0.096l-0.176,0.176l-0.177,0.082    l-0.096,0.19l-0.177,0.163l-36.504-36.944L301.402,189.816z M432.275,215.83V87.605c-0.097-3.884-0.802-7.584-2.214-10.939    c-1.495-3.523-3.612-6.702-6.262-9.351l9.439-9.431c3.883,3.877,7.061,8.461,9.166,13.668c2.037,4.937,3.178,10.403,3.178,16.052    V222.09l-0.177-0.089l-0.177-0.176l-0.176-0.088l-0.258-0.089l-0.178-0.088l-0.176-0.177h-0.096l-0.176-0.088l-0.177-0.088    l-0.177-0.088l-0.258-0.177l-0.177-0.089l-0.095-0.088h-0.082l-0.176-0.088l-0.272-0.088l-0.176-0.177l-0.177-0.088l-0.176-0.089    h-0.082l-0.178-0.088l-0.176-0.088l-0.258-0.176l-0.189-0.089l-0.178-0.088h-0.081l-0.177-0.089l-0.177-0.088l-0.176-0.081    l-0.259-0.177l-0.177-0.088h-0.095l-0.081-0.088l-0.272-0.089l-0.177-0.095l-0.257-0.088l-0.177-0.088l-0.177-0.088l0,0    l-0.271-0.082l-0.177-0.177l-0.177-0.088l-0.258-0.088l-0.177-0.088l0,0l-0.883-0.354l-0.176-0.088h-0.096l-0.176-0.088    l-0.178-0.088l-0.176-0.089l-0.258-0.088l-0.176-0.088l-0.096-0.089h-0.178l-0.176-0.088l-0.177-0.088l-0.257-0.088l-0.178-0.089    l-0.176-0.088h-0.081l-0.177-0.088l-0.271-0.089l-0.177-0.088l-0.177-0.088l-0.271-0.088l0,0l-0.162-0.089l-0.272-0.088    l-0.177-0.088l-0.258-0.089L432.275,215.83z" style="fill:#4A374F;"/>
<path d="M428.566,62.645L270.97,220.147    c-9.161,9.263-21.247,13.934-33.239,13.934c-11.991,0-24.078-4.671-33.244-13.934L46.888,62.645    c6.356-6.437,15.346-10.409,24.96-10.409h331.677C413.222,52.235,422.129,56.208,428.566,62.645L428.566,62.645z" style="fill-rule:evenodd;clip-rule:evenodd;fill:#FBCD64;"/>
<path d="M433.239,67.315l-157.505,157.6c-5.2,5.201-11.195,9.079-17.538,11.733    c-6.531,2.729-13.498,4.142-20.465,4.142c-6.967,0-13.933-1.413-20.546-4.142c-6.355-2.654-12.344-6.532-17.465-11.733    L37.45,62.645l4.671-4.76c3.884-3.884,8.555-6.966,13.676-9.173c5.024-2.03,10.497-3.178,16.051-3.178h331.677    c5.636,0,11.108,1.147,16.052,3.178c5.2,2.207,9.872,5.29,13.662,9.173l4.766,4.76L433.239,67.315z M266.209,215.477    L418.518,63.174c-1.331-0.795-2.647-1.5-4.061-2.031c-3.354-1.412-7.062-2.207-10.932-2.207H71.849    c-3.789,0-7.496,0.795-10.851,2.207c-1.412,0.53-2.825,1.236-4.06,2.031L209.24,215.477c3.884,3.884,8.379,6.879,13.146,8.82    c4.849,2.023,10.05,3.083,15.346,3.083c5.202,0,10.498-1.06,15.346-3.083C257.844,222.267,262.339,219.361,266.209,215.477    L266.209,215.477z" style="fill:#4A374F;"/>
</g>
</g>
<g id="Layer_1"/>
</svg>