<?xml version="1.0" ?>
<!DOCTYPE svg  PUBLIC '-//W3C//DTD SVG 1.1//EN'  'http://www.w3.org/Graphics/SVG/1.1/DTD/svg11.dtd'>
<!-- Uploaded to: SVG Repo, www.svgrepo.com, Generator: SVG Repo Mixer Tools -->
<svg width="800px" height="800px" viewBox="0 0 512 512" version="1.1" xml:space="preserve" xmlns="http://www.w3.org/2000/svg" xmlns:xlink="http://www.w3.org/1999/xlink">
<g id="email_x2C__mail__x2C__letter__x2C__internet__x2C__envelope__x2C__chat__x2C___setting__x2C_">
<g>
<path d="M434.914,301.968c2.465,2.274,4.657,4.656,6.674,7.296c2.111,2.64,3.953,5.441,5.455,8.352    l19.6-2.815c3.167-0.446,6.158,0.434,8.434,2.192c2.381,1.761,3.965,4.399,4.397,7.472l2.641,18.463    c0.433,2.992-0.447,5.793-2.112,8c-1.665,2.193-4.128,3.776-7.119,4.224l-20.128,2.802l-0.704,2.815    c-0.528,2.192-1.313,4.399-2.193,6.687c-0.974,2.193-1.936,4.385-3.085,6.417l-1.408,2.462l12.141,15.553    c1.937,2.465,2.722,5.537,2.37,8.353c-0.352,2.896-1.842,5.711-4.306,7.647l-14.686,11.424c-2.368,1.854-5.185,2.545-8,2.192    c-2.721-0.256-5.359-1.665-7.2-4.033l-12.48-16.093c-3.167,1.055-6.416,1.758-9.678,2.286c-3.249,0.447-6.592,0.623-9.923,0.528    l-7.39,18.286c-1.137,2.896-3.424,5.104-6.064,6.241c-2.72,1.137-5.806,1.23-8.784,0.081l-17.23-6.944    c-2.722-1.137-4.833-3.249-5.888-5.793c-1.057-2.546-1.152-5.537-0.095-8.271l7.647-18.896c-2.465-2.193-4.657-4.657-6.674-7.296    c-2.111-2.641-3.872-5.361-5.455-8.257l-19.6,2.72c-3.167,0.434-6.159-0.434-8.446-2.191c-2.368-1.761-3.952-4.4-4.386-7.473    l-2.64-18.464c-0.433-2.99,0.434-5.806,2.111-7.998c1.665-2.193,4.129-3.778,7.12-4.225l20.128-2.802l0.704-2.734    c0.527-2.274,1.313-4.479,2.193-6.768c0.974-2.192,1.935-4.304,3.085-6.32c0.434-0.88,0.867-1.679,1.394-2.464l-12.127-15.647    c-1.937-2.463-2.721-5.456-2.369-8.352c0.352-2.897,1.841-5.631,4.305-7.553l14.673-11.52c2.382-1.867,5.198-2.544,8.014-2.22    c2.72,0.353,5.359,1.773,7.2,4.155l12.48,16c3.167-1.056,6.415-1.761,9.678-2.207c3.249-0.433,6.592-0.704,9.922-0.609    l7.391-18.286c1.137-2.896,3.424-5.116,6.064-6.253c2.72-1.138,5.807-1.219,8.784-0.081l17.23,7.038    c2.735,1.055,4.833,3.248,5.888,5.807c1.057,2.544,1.151,5.44,0.095,8.257L434.914,301.968z M432.979,316.031    c-2.288-2.91-5.009-5.63-8.095-8.095l-3.249-2.544l10.545-26.191l-16.961-6.863c-0.176-0.081-0.258-0.081-0.353,0    c-0.081,0-0.081,0.095-0.175,0.176l-10.463,25.854l-4.034-0.446c-3.871-0.353-7.742-0.271-11.438,0.271    c-3.856,0.528-7.553,1.488-11.071,2.896l-3.857,1.586l-17.407-22.241l-14.511,11.249c0,0.082-0.081,0.177-0.081,0.258    c0,0.094,0,0.27,0.081,0.27l17.136,21.969l-2.449,3.344c-1.056,1.503-2.03,3.167-2.991,4.832c-0.976,1.761-1.76,3.438-2.464,5.198    c-0.703,1.745-1.326,3.601-1.841,5.441c-0.528,1.841-0.88,3.775-1.149,5.632l-0.609,4.033l-27.952,3.965l2.545,18.192    c0,0.176,0.095,0.176,0.095,0.257c0.081,0.096,0.162,0.096,0.257,0.096l27.681-3.871l1.679,3.694    c1.583,3.52,3.601,6.849,5.888,9.841c2.369,2.992,5.009,5.712,8.081,8.094l3.263,2.546l-10.545,26.191l16.961,6.943    c0.176,0,0.258,0,0.352-0.081c0,0,0.082-0.096,0.176-0.177l10.463-25.853l4.034,0.446c3.871,0.354,7.742,0.272,11.424-0.271    c3.871-0.528,7.566-1.489,11.086-2.896l3.871-1.584l17.393,22.333l14.511-11.343c0-0.096,0.082-0.177,0.082-0.271    c0-0.082,0-0.163-0.082-0.258l-17.148-21.968l2.463-3.343c1.056-1.504,2.029-3.073,2.991-4.833    c0.961-1.678,1.76-3.438,2.464-5.197c0.703-1.746,1.313-3.602,1.841-5.441c0.527-1.855,0.879-3.695,1.149-5.536l0.609-4.129    l27.952-3.966l-2.545-18.191c0-0.082-0.095-0.177-0.095-0.258c-0.081,0-0.176-0.095-0.257,0l-27.695,3.857l-1.664-3.776    C437.283,322.353,435.267,319.023,432.979,316.031L432.979,316.031z" style="fill:#4A374F;"/>
<path d="M398.26,319.632h0.081c7.12,0.88,13.184,4.481,17.312,9.664c4.143,5.199,6.336,11.967,5.455,19.086    l0,0c-0.784,7.106-4.385,13.266-9.664,17.395c-5.184,4.128-11.952,6.238-18.99,5.453h-0.081    c-7.12-0.784-13.184-4.479-17.326-9.663c-4.128-5.199-6.239-11.966-5.44-19.086l0,0c0.785-7.12,4.385-13.266,9.664-17.394    C384.453,321.039,391.222,318.848,398.26,319.632L398.26,319.632z M407.044,336.158c-2.368-2.99-5.888-5.007-9.935-5.534    c-4.128-0.448-8,0.784-10.99,3.153c-2.979,2.381-5.091,5.9-5.523,9.935c-0.528,4.142,0.69,8.001,3.072,10.991    c2.369,2.991,5.89,5.103,9.935,5.536c4.129,0.447,8-0.785,10.979-3.072c2.991-2.369,5.103-5.888,5.55-10.017    C410.646,343.103,409.412,339.151,407.044,336.158L407.044,336.158z" style="fill:#4A374F;"/>
<path d="M369.605,342.48 M398.26,319.632 M421.107,348.382     M392.453,371.229 M375.046,361.566c-4.128-5.199-6.239-11.966-5.44-19.086c0.785-7.12,4.385-13.266,9.664-17.394    c5.184-4.048,11.952-6.239,19.071-5.455c7.12,0.88,13.184,4.481,17.312,9.664c4.143,5.199,6.336,11.967,5.455,19.086    c-0.784,7.106-4.385,13.266-9.664,17.395c-5.184,4.128-11.952,6.238-19.071,5.453C385.252,370.445,379.188,366.75,375.046,361.566    L375.046,361.566z M471.123,344.24l-2.545-18.191l-0.095-0.258c-0.081,0-0.176-0.095-0.257,0l-27.695,3.857l-1.664-3.776    c-1.584-3.52-3.601-6.849-5.888-9.841c-2.288-2.91-5.009-5.63-8.095-8.095l-3.249-2.544l10.545-26.191l-16.961-6.863    c-0.176-0.081-0.258-0.081-0.353,0l-0.175,0.176l-10.463,25.854l-4.034-0.446c-3.871-0.353-7.742-0.271-11.438,0.271    c-3.856,0.528-7.553,1.488-11.071,2.896l-3.857,1.586l-17.407-22.241l-14.511,11.249l-0.081,0.258c0,0.094,0,0.27,0.081,0.27    l17.136,21.969l-2.449,3.344c-1.056,1.503-2.03,3.167-2.991,4.832c-0.976,1.761-1.76,3.438-2.464,5.198    c-0.703,1.745-1.326,3.601-1.841,5.441c-0.528,1.841-0.88,3.775-1.149,5.632l-0.609,4.033l-27.952,3.965l2.545,18.192l0.095,0.257    c0.081,0.096,0.162,0.096,0.257,0.096l27.681-3.871l1.679,3.694c1.583,3.52,3.601,6.849,5.888,9.841    c2.369,2.992,5.009,5.712,8.081,8.094l3.263,2.546l-10.545,26.191l16.961,6.943c0.176,0,0.258,0,0.352-0.081l0.176-0.177    l10.463-25.853l4.034,0.446c3.871,0.354,7.742,0.272,11.424-0.271c3.871-0.528,7.566-1.489,11.086-2.896l3.871-1.584    l17.393,22.333l14.511-11.343l0.082-0.271c0-0.082,0-0.163-0.082-0.258l-17.148-21.968l2.463-3.343    c1.056-1.504,2.029-3.073,2.991-4.833c0.961-1.678,1.76-3.438,2.464-5.197c0.703-1.746,1.313-3.602,1.841-5.441    c0.527-1.855,0.879-3.695,1.149-5.536l0.609-4.129L471.123,344.24z" style="fill-rule:evenodd;clip-rule:evenodd;fill:#F3EEDC;"/>
<path d="M437.555,255.012V124.398c0-9.759-3.967-18.551-10.383-24.966    L295.768,230.938l-25.664,25.563c-9.15,9.15-21.184,13.901-33.149,13.901c-11.952,0-23.985-4.751-33.135-13.901l-25.583-25.563    L123.39,285.44l-76.653,76.126c6.43,6.32,15.309,10.367,24.973,10.367h227.4c-2.288-8.433-3.52-17.312-3.52-26.461    c0-27.6,11.154-52.561,29.184-70.576c18.11-18.043,43.07-29.197,70.575-29.197C410.389,245.7,424.709,249.03,437.555,255.012    L437.555,255.012z" style="fill-rule:evenodd;clip-rule:evenodd;fill:#7A707F;"/>
<path d="M123.39,285.44l54.847-54.502L46.737,99.432    c-6.321,6.416-10.274,15.207-10.274,24.966v212.288c0,9.666,3.953,18.545,10.274,24.88L123.39,285.44z" style="fill-rule:evenodd;clip-rule:evenodd;fill:#7A707F;"/>
<path d="M178.236,230.938l25.583,25.563    c9.15,9.15,21.183,13.901,33.135,13.901c11.966,0,23.999-4.751,33.149-13.901l25.664-25.563L427.172,99.432    c-6.321-6.328-15.295-10.281-24.879-10.281H71.71c-9.665,0-18.543,3.953-24.973,10.281L178.236,230.938z" style="fill-rule:evenodd;clip-rule:evenodd;fill:#7A707F;"/>
<path d="M301.222,378.607H71.71c-5.631,0-11.086-1.137-15.999-3.249c-5.185-2.11-9.759-5.184-13.63-9.054    l9.407-9.49c2.64,2.64,5.807,4.752,9.313,6.24c3.344,1.407,7.039,2.192,10.91,2.192h225.816    C298.488,369.823,299.72,374.303,301.222,378.607L301.222,378.607z" style="fill:#4A374F;"/>
<path d="M51.488,104.183c-2.64,2.633-4.751,5.8-6.24,9.226c-1.407,3.343-2.111,7.031-2.111,10.99v212.288    c0,3.872,0.704,7.554,2.111,10.897c0.623,1.407,1.313,2.721,2.112,4.047l126.14-125.443l9.407,9.414L46.737,370.973l-4.656-4.668    c-3.872-3.859-7.025-8.434-9.137-13.618c-2.017-4.928-3.167-10.382-3.167-16V124.398c0-5.712,1.15-11.073,3.167-16.087    c2.111-5.096,5.265-9.752,9.137-13.624L51.488,104.183z" style="fill:#4A374F;"/>
<path d="M300.423,226.188l37.359,37.704l-0.096,0.19h-0.081l-0.081,0.081l-0.176,0.081l-0.189,0.188    l-0.176,0.081l-0.176,0.082l-0.176,0.189l0,0l-0.176,0.081l-0.177,0.163l-0.162,0.107l-0.176,0.162l-0.176,0.082l-0.096,0.108    h-0.081l-0.176,0.162l-0.095,0.081l-0.176,0.188l-0.176,0.082l-0.176,0.189h-0.082l-0.094,0.081l-0.176,0.163l-0.177,0.107    l-0.176,0.081l-0.785,0.705l-0.176,0.08l-0.176,0.191l-0.177,0.08l0,0l-0.095,0.162l-0.176,0.081l-0.176,0.19l-0.177,0.081    l-0.176,0.189l-0.081,0.082h-0.095l-0.176,0.188l-0.082,0.081l-0.176,0.163l-0.176,0.108l-0.622,0.596l-0.176,0.081l-0.176,0.189    l-0.177,0.094l0,0l-0.176,0.176l-0.081,0.082l-0.176,0.176l-0.177,0.095l-0.176,0.176l-0.094,0.081v0.096l-0.163,0.081    l-0.175,0.176l-0.177,0.095l-0.176,0.176l-0.095,0.176h-0.081l-0.095,0.082l-0.177,0.176l-0.176,0.095l-0.081,0.175l-0.176,0.177    l-0.176,0.081l-36.398-36.736L300.423,226.188z M430.867,252.197V124.398c0-3.959-0.785-7.647-2.193-10.99    c-1.407-3.425-3.613-6.593-6.253-9.226l9.503-9.495c3.871,3.872,6.943,8.528,9.055,13.624c2.111,5.015,3.248,10.375,3.248,16.087    V258.45l-0.257-0.189l-0.176-0.081l-0.176-0.082l-0.176-0.081l-0.271-0.188l-0.176-0.081h-0.081l-0.095-0.082l-0.258-0.108    l-0.176-0.162l-0.176-0.081l-0.271-0.107l-0.082-0.082h-0.094l-0.176-0.163l-0.176-0.107l-0.258-0.081l-0.176-0.082l-0.176-0.081    l0,0l-0.271-0.189l-0.175-0.081l-0.176-0.081l-0.257-0.109l-0.177-0.081l0,0l-0.176-0.081l-0.257-0.19l-0.177-0.081l-0.189-0.081    l-0.257-0.081l-0.095-0.109h-0.081l-0.271-0.081l-0.176-0.081l-0.162-0.19l-0.271-0.081h-0.08l-0.096-0.081l-0.176-0.081    l-0.258-0.108l-0.176-0.082l-0.176-0.081l-0.271-0.081l0,0l-0.785-0.352l-0.271-0.189l0,0l-0.176-0.081l-0.258-0.081l-0.176-0.082    l-0.176-0.108l-0.271-0.081h-0.081l-0.094-0.081l-0.257-0.082l-0.176-0.108l-0.271-0.081l-0.176-0.081l-0.176-0.082l0,0    l-0.258-0.107l-0.176-0.081l-0.27-0.082l-0.177-0.082l-0.257-0.108l0,0l-0.176-0.081l-0.271-0.081l-0.176-0.081h-0.177    L430.867,252.197z" style="fill:#4A374F;"/>
<path d="M431.924,104.183L274.841,261.267c-5.185,5.088-11.072,9.055-17.406,11.694    c-6.593,2.721-13.536,4.129-20.48,4.129c-6.943,0-13.888-1.408-20.384-4.129c-6.416-2.64-12.304-6.606-17.502-11.694    L37.343,99.432l4.738-4.745c3.871-3.777,8.446-6.944,13.63-9.055c4.913-2.017,10.368-3.249,15.999-3.249h330.583    c5.55,0,10.991,1.231,16,3.249c5.103,2.111,9.759,5.278,13.536,9.055l4.75,4.745L431.924,104.183z M265.353,251.764L417.156,99.96    c-1.232-0.704-2.64-1.401-4.047-2.025c-3.33-1.4-7.025-2.104-10.816-2.104H71.71c-3.871,0-7.566,0.703-10.91,2.104    c-1.394,0.624-2.721,1.321-4.034,2.025L208.57,251.764c3.858,3.952,8.352,6.85,13.089,8.88c4.846,2.03,10.112,3.086,15.295,3.086    c5.279,0,10.463-1.056,15.296-3.086C257.002,258.613,261.48,255.716,265.353,251.764L265.353,251.764z" style="fill:#4A374F;"/>
</g>
</g>
<g id="Layer_1"/>
</svg>