<?xml version="1.0" ?>
<!DOCTYPE svg  PUBLIC '-//W3C//DTD SVG 1.1//EN'  'http://www.w3.org/Graphics/SVG/1.1/DTD/svg11.dtd'>
<!-- Uploaded to: SVG Repo, www.svgrepo.com, Generator: SVG Repo Mixer Tools -->
<svg width="800px" height="800px" viewBox="0 0 512 512" version="1.1" xml:space="preserve" xmlns="http://www.w3.org/2000/svg" xmlns:xlink="http://www.w3.org/1999/xlink">
<g id="email_x2C__mail__x2C__letter__x2C__internet__x2C__envelope__x2C__chat__x2C___search__x2C_">
<g>
<path d="M374.779,320.102c1.541-3.348,5.5-4.774,8.797-3.247c3.349,1.541,4.813,5.475,3.285,8.811    l-70.72,152.695c-1.528,3.335-5.462,4.8-8.798,3.233c-3.348-1.527-4.799-5.461-3.271-8.809L374.779,320.102z" style="fill:#4A374F;"/>
<path d="M437.237,201.608V71.536c0-9.675-3.921-18.441-10.299-24.813    L296.064,177.629l-25.5,25.506c-9.153,9.122-21.057,13.781-32.999,13.781c-11.929,0-23.857-4.66-32.973-13.781l-25.513-25.506    l-54.628,54.253l-76.284,75.831c6.327,6.328,15.214,10.3,24.813,10.3h226.458c-2.292-8.39-3.515-17.226-3.515-26.354    c0-27.41,11.102-52.26,29.104-70.256c17.95-17.951,42.788-29.09,70.249-29.09C410.273,192.314,424.469,195.656,437.237,201.608    L437.237,201.608z" style="fill-rule:evenodd;clip-rule:evenodd;fill:#FBCD64;"/>
<path d="M124.451,231.883l54.628-54.253L48.167,46.723    C41.84,53.095,37.868,61.86,37.868,71.536v211.404c0,9.664,3.972,18.436,10.299,24.801L124.451,231.883z" style="fill-rule:evenodd;clip-rule:evenodd;fill:#FBCD64;"/>
<path d="M395.276,212.811c-43.563,0-78.854,35.285-78.854,78.85    c0,43.579,35.291,78.856,78.854,78.856c43.566,0,78.843-35.277,78.843-78.856C474.119,248.095,438.843,212.811,395.276,212.811    L395.276,212.811z" style="fill-rule:evenodd;clip-rule:evenodd;fill:#7CCACB;"/>
<path d="M395.276,219.463c-19.975,0-38.04,8.065-51.089,21.121c-13.036,13.087-21.121,31.14-21.121,51.076    c0,19.949,8.085,38.002,21.121,51.052c13.049,13.088,31.114,21.158,51.089,21.158c19.937,0,38.002-8.07,51.052-21.158    c13.049-13.05,21.12-31.103,21.12-51.052c0-19.937-8.071-37.989-21.12-51.076C433.278,227.566,415.213,219.463,395.276,219.463    L395.276,219.463z M334.83,231.188c15.455-15.456,36.856-25.022,60.446-25.022c23.591,0,44.992,9.567,60.434,25.022    c15.494,15.506,25.067,36.882,25.067,60.472c0,23.629-9.573,45.005-25.067,60.485c-15.441,15.442-36.843,25.017-60.434,25.017    c-23.59,0-44.991-9.574-60.446-25.017c-15.52-15.48-25.093-36.856-25.093-60.485c0-23.59,9.573-44.965,25.067-60.44    L334.83,231.188z" style="fill:#4A374F;"/>
<path d="M179.079,177.629l25.513,25.506    c9.116,9.122,21.044,13.781,32.973,13.781c11.942,0,23.846-4.66,32.999-13.781l25.5-25.506L426.938,46.723    c-6.327-6.295-15.2-10.261-24.812-10.261H72.98c-9.599,0-18.486,3.965-24.813,10.261L179.079,177.629z" style="fill-rule:evenodd;clip-rule:evenodd;fill:#FBCD64;"/>
<path d="M301.525,324.685H72.98c-5.563,0-10.987-1.146-15.939-3.195c-5.08-2.126-9.714-5.22-13.534-9.052    l9.357-9.421c2.623,2.609,5.78,4.724,9.255,6.187c3.349,1.401,7.041,2.165,10.86,2.165h224.905    C298.776,315.926,299.997,320.382,301.525,324.685L301.525,324.685z" style="fill:#4A374F;"/>
<path d="M300.763,172.938l37.199,37.543l-0.179,0.14l-0.025,0.032l-0.102,0.07l-0.178,0.139l-0.179,0.103    l-0.165,0.139l-0.179,0.109l-0.179,0.139l0,0l-0.178,0.102l-0.128,0.14l-0.178,0.102l-0.178,0.141l-0.166,0.14l-0.14,0.07    l-0.038,0.038l-0.141,0.134l-0.179,0.109l-0.165,0.14l-0.178,0.14l-0.178,0.102l-0.063,0.07l-0.064,0.07l-0.178,0.14l-0.179,0.102    l-0.179,0.14l-0.789,0.624l-0.178,0.14l-0.179,0.139l-0.141,0.103v0.039l-0.165,0.102l-0.178,0.14l-0.14,0.14l-0.178,0.141    l-0.142,0.102l-0.101,0.108l-0.063,0.032l-0.18,0.14l-0.14,0.14l-0.166,0.141l-0.14,0.133l-0.661,0.521l-0.141,0.141l-0.179,0.146    l-0.141,0.134h-0.037l-0.128,0.14l-0.14,0.14l-0.178,0.14l-0.14,0.134l-0.179,0.146l-0.141,0.102l0,0l-0.178,0.139l-0.128,0.134    l-0.178,0.147l-0.14,0.132l-0.179,0.141l-0.063,0.102l-0.063,0.076l-0.14,0.102l-0.18,0.172l-0.14,0.141l-0.178,0.14l-0.14,0.14    l-36.259-36.608L300.763,172.938z M430.631,198.788l-0.038-127.252c0-3.864-0.765-7.549-2.152-10.86    c-1.426-3.444-3.553-6.608-6.2-9.255l9.396-9.396c3.832,3.832,6.962,8.459,9.089,13.572c2.051,4.939,3.159,10.337,3.159,15.939    V205.02l-0.205-0.14l-0.179-0.109l-0.204-0.102l-0.215-0.103l-0.203-0.108l-0.179-0.102l-0.063-0.038l-0.141-0.07l-0.203-0.139    l-0.217-0.103l-0.166-0.102l-0.217-0.108l-0.14-0.064l-0.063-0.038l-0.203-0.109l-0.218-0.102l-0.179-0.102l-0.203-0.108    l-0.178-0.103h-0.037l-0.204-0.102l-0.204-0.107l-0.217-0.102l-0.204-0.108l-0.178-0.102h-0.038l-0.166-0.102l-0.216-0.109    l-0.203-0.07l-0.217-0.102l-0.205-0.102l-0.063-0.038l-0.14-0.07l-0.215-0.102l-0.205-0.108l-0.217-0.102l-0.203-0.07l-0.141-0.07    l-0.063-0.038l-0.216-0.102l-0.166-0.108l-0.216-0.064l-0.203-0.108l-0.218-0.102l0,0l-0.864-0.383l-0.204-0.069l-0.039-0.033    l-0.178-0.076l-0.204-0.102l-0.204-0.07l-0.215-0.102l-0.204-0.07l-0.102-0.071l-0.116-0.038l-0.203-0.069l-0.204-0.103    l-0.216-0.07l-0.203-0.102l-0.178-0.07l-0.04-0.032l-0.242-0.076l-0.203-0.102l-0.216-0.071l-0.204-0.064l-0.203-0.108l0,0    l-0.218-0.07l-0.203-0.109l-0.242-0.069l-0.215-0.064L430.631,198.788z" style="fill:#4A374F;"/>
<path d="M426.938,46.723L270.564,203.135    c-9.128,9.122-21.057,13.781-32.999,13.781c-11.929,0-23.857-4.66-32.973-13.781L48.167,46.723    c6.327-6.295,15.214-10.261,24.813-10.261h329.147C411.738,36.462,420.611,40.427,426.938,46.723L426.938,46.723z" style="fill-rule:evenodd;clip-rule:evenodd;fill:#FBCD64;"/>
<path d="M431.637,51.421L275.262,207.839c-5.156,5.112-11.075,9.008-17.327,11.656    c-6.543,2.712-13.469,4.106-20.369,4.106c-6.925,0-13.838-1.394-20.344-4.106c-6.339-2.647-12.26-6.544-17.365-11.656    L38.771,46.762l4.736-4.737c3.82-3.826,8.416-6.926,13.534-9.045c4.952-2.056,10.375-3.202,15.939-3.202h329.147    c5.613,0,10.999,1.146,15.939,3.202c5.117,2.12,9.713,5.22,13.57,9.045l4.697,4.698L431.637,51.421z M265.828,198.437    L416.996,47.283c-1.299-0.77-2.624-1.464-4.011-2.024c-3.335-1.388-7.026-2.151-10.858-2.151H72.98    c-3.819,0-7.511,0.764-10.86,2.151c-1.35,0.561-2.711,1.255-3.959,2.024l151.117,151.124c3.87,3.896,8.326,6.823,13.024,8.803    c4.876,2.017,10.044,3.062,15.264,3.062c5.194,0,10.414-1.044,15.252-3.062C257.554,205.229,262.009,202.302,265.828,198.437    L265.828,198.437z" style="fill:#4A374F;"/>
<path d="M52.865,51.421c-2.61,2.647-4.761,5.811-6.187,9.255c-1.362,3.311-2.126,6.996-2.126,10.86v211.404    c0,3.857,0.764,7.512,2.126,10.848c0.585,1.399,1.286,2.749,2.088,4.01l125.616-124.897l9.357,9.434L48.129,317.109l-4.66-4.672    c-3.819-3.819-6.925-8.453-9.039-13.571c-2.062-4.939-3.208-10.324-3.208-15.927V71.536c0-5.602,1.146-11,3.208-15.939    c2.113-5.113,5.22-9.74,9.039-13.572L52.865,51.421z" style="fill:#4A374F;"/>
<path d="M345.065,274.854c-3.653,0-6.646-2.953-6.646-6.644c0-3.681,2.992-6.646,6.646-6.646h60.51    c3.693,0,6.685,2.966,6.685,6.646c0,3.69-2.991,6.644-6.685,6.644H345.065z" style="fill:#4A374F;"/>
<path d="M345.065,298.344c-3.653,0-6.646-2.991-6.646-6.684c0-3.642,2.992-6.646,6.646-6.646h82.089    c3.681,0,6.671,3.004,6.671,6.646c0,3.692-2.99,6.684-6.671,6.684H345.065z" style="fill:#4A374F;"/>
<path d="M345.065,321.77c-3.653,0-6.646-2.954-6.646-6.646s2.992-6.645,6.646-6.645h100.384    c3.692,0,6.646,2.952,6.646,6.645s-2.953,6.646-6.646,6.646H345.065z" style="fill:#4A374F;"/>
</g>
</g>
<g id="Layer_1"/>
</svg>