<?xml version="1.0" ?>
<!DOCTYPE svg  PUBLIC '-//W3C//DTD SVG 1.1//EN'  'http://www.w3.org/Graphics/SVG/1.1/DTD/svg11.dtd'>
<!-- Uploaded to: SVG Repo, www.svgrepo.com, Generator: SVG Repo Mixer Tools -->
<svg width="800px" height="800px" viewBox="0 0 512 512" version="1.1" xml:space="preserve" xmlns="http://www.w3.org/2000/svg" xmlns:xlink="http://www.w3.org/1999/xlink">
<g id="email_x2C__mail__x2C__letter__x2C__internet__x2C__envelope__x2C__chat__x2C___screw__x2C_">
<g>
<path d="M395.817,284.468c-16.016,0-30.974,6.151-42.315,17.505    c-11.354,11.437-17.52,26.395-17.52,42.329c0,12.574,3.971,24.457,11.178,34.483l83.141-83.139    C420.274,288.424,408.31,284.468,395.817,284.468L395.817,284.468z" style="fill-rule:evenodd;clip-rule:evenodd;fill:#F36360;"/>
<path d="M444.474,309.805l-83.14,83.153    c10.108,6.951,22.248,10.556,34.483,10.556c15.486,0,31.069-5.813,42.234-16.979c11.354-11.354,17.505-26.313,17.505-42.233    C455.557,331.715,451.602,319.751,444.474,309.805L444.474,309.805z" style="fill-rule:evenodd;clip-rule:evenodd;fill:#F36360;"/>
<path d="M437.97,254.022V123.269c0-9.675-3.97-18.563-10.297-24.904    L296.025,229.917l-25.596,25.69c-9.24,9.146-21.205,13.808-33.169,13.808c-12.059,0-24.023-4.661-33.176-13.808l-25.69-25.69    l-54.821,54.551L46.85,360.751c6.334,6.341,15.311,10.298,24.897,10.298h227.72c-2.29-8.454-3.523-17.344-3.523-26.488    c0-27.534,11.179-52.532,29.213-70.648c18.049-18.047,43.033-29.213,70.661-29.213C410.87,244.699,425.125,248.033,437.97,254.022    L437.97,254.022z" style="fill-rule:evenodd;clip-rule:evenodd;fill:#FBCD64;"/>
<path d="M123.574,284.468l54.821-54.551L46.85,98.365    c-6.422,6.341-10.386,15.229-10.386,24.904v212.498c0,9.769,3.963,18.562,10.386,24.984L123.574,284.468z" style="fill-rule:evenodd;clip-rule:evenodd;fill:#FBCD64;"/>
<path d="M178.395,229.917l25.69,25.69    c9.152,9.146,21.117,13.808,33.176,13.808c11.964,0,23.929-4.661,33.169-13.808l25.596-25.69L427.673,98.365    c-6.423-6.422-15.312-10.379-24.985-10.379H71.747c-9.586,0-18.563,3.957-24.897,10.379L178.395,229.917z" style="fill-rule:evenodd;clip-rule:evenodd;fill:#FBCD64;"/>
<path d="M301.581,377.729H71.747c-5.542,0-10.996-1.138-16.009-3.157c-5.108-2.113-9.769-5.283-13.637-9.16    l9.41-9.417c2.642,2.644,5.806,4.757,9.329,6.247c3.435,1.328,7.127,2.114,10.908,2.114h226.134    C298.762,368.936,299.995,373.42,301.581,377.729L301.581,377.729z" style="fill:#4A374F;"/>
<path d="M51.599,103.026c-2.724,2.737-4.837,5.813-6.246,9.336c-1.409,3.333-2.195,7.031-2.195,10.907    v212.498c0,3.874,0.786,7.56,2.195,10.907c0.528,1.409,1.233,2.818,2.025,4.051l126.35-125.564l9.417,9.499L46.85,370.168    l-4.749-4.757c-3.875-3.779-6.951-8.439-9.065-13.63c-2.113-4.932-3.258-10.393-3.258-16.015V123.269    c0-5.637,1.145-11.084,3.258-16.016c2.114-5.189,5.189-9.769,9.065-13.644L51.599,103.026z" style="fill:#4A374F;"/>
<path d="M300.795,225.242l37.396,37.75l-0.189,0.095h-0.081l-0.082,0.081l-0.19,0.176l-0.161,0.095    l-0.19,0.176l-0.162,0.082l-0.19,0.095l0,0l-0.081,0.176l-0.176,0.081l-0.176,0.176l-0.178,0.095l-0.176,0.082l-0.176,0.176l0,0    l-0.176,0.095l-0.177,0.176l-0.176,0.082l-0.177,0.177l-0.176,0.095v0.081l-0.081,0.095l-0.19,0.081l-0.162,0.095l-0.189,0.176    l-0.785,0.61l-0.177,0.176l-0.176,0.082l-0.177,0.176l0,0l-0.176,0.095l-0.162,0.176l-0.19,0.095l-0.081,0.178l-0.177,0.08    l-0.095,0.081l-0.081,0.095l-0.177,0.082l-0.176,0.176l-0.176,0.096l-0.095,0.176l-0.704,0.528l-0.081,0.177l-0.177,0.081    l-0.176,0.176l0,0l-0.177,0.096l-0.176,0.176l-0.081,0.081l-0.19,0.177l-0.163,0.095l-0.188,0.176l0,0l-0.163,0.176l-0.095,0.081    l-0.177,0.177l-0.176,0.095l-0.176,0.176l-0.081,0.081v0.095l-0.19,0.082L328.246,271l-0.189,0.095l-0.081,0.176l-0.176,0.176    l-36.517-36.787L300.795,225.242z M431.357,251.204l-0.081-127.935c0-3.876-0.785-7.574-2.113-10.907    c-1.49-3.523-3.604-6.599-6.247-9.336l9.417-9.417c3.875,3.875,7.046,8.455,9.16,13.644c2.005,4.932,3.156,10.379,3.156,16.016    V257.45l-0.176-0.081l-0.176-0.095l-0.258-0.177l-0.189-0.082l-0.163-0.094l-0.189-0.177h-0.081l-0.177-0.081l-0.176-0.095    l-0.176-0.082l-0.258-0.095l-0.189-0.176h-0.081l-0.081-0.082l-0.271-0.095l-0.177-0.081l-0.176-0.177l-0.257-0.094l-0.177-0.082    l0,0l-0.176-0.095l-0.177-0.082l-0.271-0.095l-0.163-0.176l-0.189-0.081h-0.081l-0.176-0.095l-0.176-0.081l-0.177-0.095    l-0.258-0.082l-0.188-0.176h-0.082l-0.177-0.095l-0.176-0.081l-0.176-0.095l-0.258-0.081l-0.19-0.095l-0.162-0.081l0,0    l-0.271-0.095l-0.177-0.082l-0.257-0.176l-0.19-0.095l-0.162-0.081l0,0l-0.895-0.352l-0.163-0.095h-0.095l-0.176-0.081    l-0.176-0.095l-0.177-0.081l-0.271-0.082l-0.163-0.095l-0.081-0.095h-0.19l-0.162-0.081l-0.271-0.095l-0.19-0.081l-0.162-0.095    l-0.176-0.082h-0.095l-0.163-0.095l-0.271-0.081l-0.176-0.081l-0.257-0.095l-0.19-0.081l0,0l-0.162-0.095l-0.271-0.081    l-0.176-0.095l-0.259-0.081L431.357,251.204z" style="fill:#4A374F;"/>
<path d="M432.333,103.026L275.104,260.269c-5.121,5.188-11.008,9.064-17.431,11.706    c-6.511,2.806-13.462,4.133-20.413,4.133c-6.958,0-13.902-1.327-20.507-4.133c-6.334-2.642-12.316-6.518-17.418-11.706    L37.433,98.365l4.668-4.756c3.868-3.861,8.529-6.951,13.637-9.051c5.014-2.114,10.467-3.266,16.009-3.266h330.94    c5.622,0,11.083,1.151,16.016,3.266c5.176,2.1,9.755,5.189,13.63,9.051l4.742,4.756L432.333,103.026z M265.68,250.852    L417.646,98.893c-1.328-0.785-2.655-1.489-4.065-2.018c-3.333-1.41-7.031-2.209-10.893-2.209H71.747    c-3.781,0-7.473,0.799-10.908,2.209c-1.32,0.529-2.73,1.233-3.957,2.018l151.958,151.959c3.868,3.875,8.354,6.869,13.021,8.793    c4.925,2.032,10.121,3.089,15.398,3.089c5.19,0,10.467-1.057,15.311-3.089C257.321,257.721,261.807,254.726,265.68,250.852    L265.68,250.852z" style="fill:#4A374F;"/>
<path d="M395.723,271.799c-9.499-0.095-19.172,1.585-28.237,5.271c-8.455,3.442-16.367,8.536-23.414,15.486    c-6.855,6.952-12.222,15.055-15.825,23.848c-3.604,8.713-5.556,18.13-5.556,27.898c0,20.148,8.185,38.454,21.381,51.65    c13.292,13.198,31.517,21.382,51.746,21.382c9.77,0,19.173-1.856,27.897-5.461c8.699-3.604,16.803-8.97,23.753-15.921    c6.952-6.95,12.235-15.053,15.921-23.765c3.523-8.713,5.461-18.13,5.461-27.886c0-21.3-8.09-38.549-20.501-50.865    C434.446,279.711,415.18,271.975,395.723,271.799L395.723,271.799z M362.553,264.671c10.65-4.321,22.086-6.341,33.265-6.165    c22.886,0.177,45.581,9.24,61.935,25.515c14.797,14.701,24.471,35.202,24.471,60.281c0,11.437-2.29,22.613-6.503,32.898    c-4.323,10.393-10.651,19.973-18.754,28.169l-0.081,0.081c-8.184,8.09-17.776,14.431-28.156,18.739    c-10.297,4.309-21.476,6.518-32.911,6.518c-23.942,0-45.485-9.688-61.149-25.338c-15.662-15.663-25.338-37.22-25.338-61.067    c0-11.529,2.276-22.614,6.505-33.006c4.308-10.379,10.649-19.878,18.738-28.156h0.095    C342.934,274.874,352.445,268.709,362.553,264.671L362.553,264.671z M329.303,344.302c0-8.889,1.667-17.52,5.014-25.433    c3.332-8.008,8.184-15.312,14.511-21.557c6.247-6.342,13.55-11.179,21.558-14.524c7.913-3.254,16.544-5.015,25.433-5.015    c6.87,0,13.645,1.152,20.067,3.171c6.503,2.114,12.655,5.285,18.291,9.24l6.342,4.662l-94.237,94.236l-4.579-6.422    c-3.957-5.638-7.128-11.788-9.229-18.306C330.359,357.933,329.303,351.158,329.303,344.302L329.303,344.302z M346.632,323.978    c-2.642,6.327-3.969,13.198-3.969,20.324c0,5.542,0.894,10.907,2.465,16.016c0.896,2.629,1.951,5.271,3.253,7.736l71.188-71.188    c-2.466-1.219-5.094-2.371-7.737-3.156c-5.107-1.681-10.473-2.563-16.015-2.563c-7.127,0-13.996,1.409-20.324,3.958    c-6.328,2.642-12.154,6.611-17.249,11.625C353.231,311.824,349.275,317.637,346.632,323.978L346.632,323.978z M442.794,391.278    c-6.152,6.165-13.455,10.826-21.382,13.996c-8.185,3.253-16.883,4.933-25.595,4.933c-6.774,0-13.55-1.057-20.148-3.09    c-6.422-1.924-12.587-4.837-18.129-8.712l-6.693-4.485l94.413-94.412l4.579,6.422c4.052,5.542,7.127,11.707,9.241,18.225    c2.113,6.422,3.17,13.197,3.17,20.147c0,8.793-1.68,17.411-5.013,25.419C453.985,377.646,449.053,385.031,442.794,391.278    L442.794,391.278z M416.494,392.863c6.246-2.547,11.964-6.246,16.814-10.988c5.096-5.108,8.971-10.921,11.6-17.249    c2.654-6.34,3.969-13.197,3.969-20.324c0-5.636-0.881-11.002-2.466-16.11c-0.881-2.642-1.938-5.189-3.266-7.654l-70.999,71.012    c2.385,1.139,4.932,2.114,7.398,2.818c5.271,1.668,10.73,2.467,16.272,2.467C402.851,396.834,409.977,395.506,416.494,392.863    L416.494,392.863z" style="fill:#4A374F;"/>
</g>
</g>
<g id="Layer_1"/>
</svg>