<?xml version="1.0" encoding="utf-8"?>
<!-- Uploaded to: SVG Repo, www.svgrepo.com, Generator: SVG Repo Mixer Tools -->
<!DOCTYPE svg PUBLIC "-//W3C//DTD SVG 1.1//EN" "http://www.w3.org/Graphics/SVG/1.1/DTD/svg11.dtd">
<svg fill="#000000" width="800px" height="800px" viewBox="0 0 1000 1000" version="1.1" xmlns="http://www.w3.org/2000/svg" xmlns:xlink="http://www.w3.org/1999/xlink"  enable-background="new 0 0 1000 1000" xml:space="preserve">

<g>
<g transform="translate(0.000000,511.000000) scale(0.100000,-0.100000)">
<path d="M1981.4,3311.7V1613.3L1734,1860.8l-247.4,247.4l-118.8-118.8L1249,1870.7l455.3-455.3l455.3-455.3l455.3,455.3l455.3,455.3l-118.8,118.8l-118.8,118.8l-247.4-247.4l-247.4-247.4l-4,1692.4l-5.9,1692.4l-172.2,5.9l-174.2,5.9V3311.7z"/>
<path d="M5710.6,3800.6l-334.5-194l-9.9-407.8l-9.9-405.8l-148.5,87.1c-81.1,47.5-158.3,87.1-172.2,89.1c-11.9,0-168.2-83.1-346.4-186.1l-322.6-186.1l-9.9-1769.6l-9.9-1767.6l-253.4,441.4L3838.1-59.2h-388h-390l-196-338.5l-194-336.5l253.4-439.4c469.1-813.5,427.6-714.6,530.5-1231.2l93-455.3l572-574l574-574v-391.9V-4790h168.3h168.2v459.2v461.2l-585.9,585.9l-585.9,585.9l-93,453.3l-95,453.3L3371-1272.6c-166.3,285-300.9,528.5-300.9,540.4c0,11.9,41.6,93,91,180.1l91.1,158.4l197.9-6l197.9-5.9l518.6-896.7l516.6-896.7l5.9,2302l5.9,2302l168.2,95l168.2,95l166.3-95l166.3-95l2-1399.4V-395.7h168.2h168.3v1906.1l2,1904.2l166.3,95c93,53.4,176.2,93,184.1,89.1c9.9-4,85.1-45.5,168.2-93l152.4-89.1V1510.4V-395.7h168.2h168.3V997.8v1395.5l170.2,100.9l172.2,101l170.3-97l170.2-97l4-1393.5l2-1393.5l170.2-6l170.2-5.9v168.3v170.2l75.2,45.5c39.6,25.8,112.8,69.3,162.3,97l91,51.5l172.2-99l172.2-99v-1017.4V-2098L8078-2994.7l-336.5-898.6v-447.3V-4790h168.2H8078v415.7v415.7l336.5,896.7l336.5,898.6v1146.1V128.8l-340.4,196c-259.3,150.4-346.4,192-370.2,176.2c-17.8-9.9-91-53.4-164.3-93l-134.6-75.2V1459v1128.3l-332.5,190c-184.1,104.9-342.4,192-352.3,192s-87.1-39.6-170.2-89.1c-85.1-49.5-158.3-89.1-164.3-89.1s-9.9,184.1-9.9,411.7l-2,409.7l-332.6,190l-334.5,192L5710.6,3800.6z"/>
</g>
</g>
</svg>