<?xml version="1.0" encoding="utf-8"?>
<!-- Uploaded to: SVG Repo, www.svgrepo.com, Generator: SVG Repo Mixer Tools -->
<!DOCTYPE svg PUBLIC "-//W3C//DTD SVG 1.1//EN" "http://www.w3.org/Graphics/SVG/1.1/DTD/svg11.dtd">
<svg fill="#000000" width="800px" height="800px" viewBox="0 0 1000 1000" version="1.1" xmlns="http://www.w3.org/2000/svg" xmlns:xlink="http://www.w3.org/1999/xlink"  enable-background="new 0 0 1000 1000" xml:space="preserve">

<g>
<g transform="translate(0.000000,511.000000) scale(0.100000,-0.100000)">
<path d="M8300.7,4894.8l-115.2-117.2l256.6-256.6l258.6-258.6H6967.1H5235.4v-171.8v-171.8h1731.7h1733.7l-258.6-258.6l-256.6-256.6l127.3-127.3l125.3-125.3l464.7,464.7l464.7,464.7l-464.7,464.7C8648.2,4801.9,8434,5010,8428,5010S8365.4,4957.5,8300.7,4894.8z"/>
<path d="M6567,3046c-113.2-159.6-222.3-309.1-240.5-333.4c-34.4-44.4-36.4-42.4-111.1,131.3c-42.4,97-78.8,177.8-80.8,179.8c-2,4-177.8,24.2-392,46.5c-256.6,28.3-398.1,36.4-412.2,22.2c-14.1-10.1-78.8-97-145.5-192c-66.7-95-127.3-171.8-133.4-173.8c-6,0-42.4,72.7-78.8,163.7c-38.4,88.9-78.8,169.7-90.9,175.8c-10.1,8.1-192,32.3-402.1,56.6l-381.9,40.4l-133.4-181.9c-74.8-101-628.4-860.8-1228.5-1689.2L1642.7-215.3l-258.6-937.6l-258.6-939.6L879-2436l-246.5-341.5l131.3-97c72.7-54.6,137.4-97,145.5-97c10.1,2,226.3,293,462.7,626.4c54.6,78.8,105.1,236.4,327.3,1038.6L1960-362.8L3085.5,1187c618.3,852.7,1139.6,1566,1157.8,1584.2c28.3,30.3,52.5,30.3,222.3,12.1l189.9-22.2l76.8-169.7c44.5-92.9,78.8-175.8,78.8-185.9s-282.9-406.1-626.4-881c-345.5-474.8-624.4-870.9-622.3-879c4-10.1,64.6-58.6,135.4-111.1c99-72.7,133.4-88.9,145.5-68.7c8.1,16.2,383.9,533.4,832.5,1149.7L5492,2736.8l179.8-6.1c99-4,192-14.2,210.1-24.3c30.3-16.2,175.8-335.4,165.7-367.8c-2-8.1-377.9-529.4-834.5-1157.8C4756.5,552.5,4384.7,35.2,4388.8,31.2c90.9-74.8,272.8-189.9,282.9-177.8c8.1,8.1,517.3,705.2,1129.5,1549.8c612.2,844.6,1125.5,1545.8,1137.6,1555.9c16.2,16.2,84.9,16.2,212.1,4l190-18.2l78.8-171.7c42.4-95,78.8-179.8,78.8-189.9c0-10.1-509.2-719.3-1131.5-1574.1c-622.3-854.7-1131.5-1564-1131.5-1574.1c0-10.1,60.6-62.6,133.4-115.2c105.1-74.8,137.4-88.9,151.6-66.7c8.1,16.2,383.9,533.4,832.5,1149.7l816.3,1121.4l119.2-4c284.9-12.1,274.8-6.1,367.8-206.1l80.8-179.8l-1378-1897.4c-759.7-1042.6-1378.1-1897.3-1376-1901.4c2-2,440.5,189.9,973.9,426.3l969.9,432.4l159.6-117.2l161.7-115.2l-18.2-190c-10.1-103-24.3-194-32.3-204.1c-8.1-8.1-266.7-127.3-575.9-264.7l-559.7-248.5l-341.5-311.2c-187.9-171.8-363.7-317.2-387.9-325.3c-26.3-10.1-400.1-70.7-834.5-139.4c-432.4-68.7-794.1-127.3-802.2-131.3c-24.2-16.2-541.5-731.5-539.5-749.7c0-20.2,232.4-187.9,260.7-187.9c10.1,0,119.2,141.4,244.5,313.2c123.3,171.8,228.3,313.2,232.4,313.2c18.2,0,1559.9,244.5,1594.3,252.6c22.3,6.1,204.1,159.6,402.1,341.5l363.7,331.4l626.4,278.8c345.5,153.6,632.4,284.9,638.5,295c14.2,20.2,88.9,782,78.8,792.1c-32.4,28.3-626.4,456.7-634.5,456.7c-4,0-214.2-90.9-464.7-204.1c-252.6-113.2-460.7-200-464.7-196c-4.1,4,402.1,569.8,901.2,1258.8c501.1,689,973.9,1341.7,1050.7,1448.8l141.4,196l-159.6,359.7l-157.6,359.7l-141.4,16.2c-76.8,10.1-163.7,22.2-196,30.3l-56.6,14.2l242.5,331.4l240.4,329.4l-36.4,84.9c-157.6,363.7-270.8,612.3-284.9,628.4c-18.2,18.2-579.9,88.9-727.4,90.9C6777.1,3332.9,6771.1,3324.8,6567,3046z"/>
</g>
</g>
</svg>