<?xml version="1.0" encoding="utf-8"?>
<!-- Uploaded to: SVG Repo, www.svgrepo.com, Generator: SVG Repo Mixer Tools -->
<!DOCTYPE svg PUBLIC "-//W3C//DTD SVG 1.1//EN" "http://www.w3.org/Graphics/SVG/1.1/DTD/svg11.dtd">
<svg fill="#000000" width="800px" height="800px" viewBox="0 0 1000 1000" version="1.1" xmlns="http://www.w3.org/2000/svg" xmlns:xlink="http://www.w3.org/1999/xlink"  enable-background="new 0 0 1000 1000" xml:space="preserve">

<g>
<g transform="translate(0.000000,511.000000) scale(0.100000,-0.100000)">
<path d="M1778.3,4690.8V4523h359.4H2499L1298.5,3322.5L100,2124l118.5-118.5l118.5-118.5l1194.6,1194.6l1194.6,1194.6v-351.5v-349.5h177.7h177.7V4217v641.7h-651.6h-651.6V4690.8z"/>
<path d="M3427,3259.3c-161.9-19.7-296.2-35.5-298.1-37.5c-25.7-29.6-306-700.9-298.1-716.7c4-13.8,108.6-161.9,229-329.7c122.4-165.9,217.2-308,211.3-312c-5.9-5.9-86.9-19.7-183.6-29.6c-94.8-9.9-175.7-21.7-177.7-23.7c-3.9-4-77-163.9-163.9-355.4l-156-351.5L3612.6-304.6c564.7-776,1030.7-1419.7,1036.6-1429.5c7.9-11.8-86.9,23.7-209.3,79c-620,278.4-708.8,315.9-732.5,302.1c-17.8-11.9-242.9-173.8-602.2-434.4c-9.9-7.9,69.1-754.3,82.9-774c5.9-7.9,286.3-140.2,625.9-290.3l616-274.5l353.4-323.8l355.4-325.8l789.8-124.4c434.4-69.1,795.7-130.3,805.6-136.3c7.9-5.9,112.6-142.2,229-306c118.5-161.9,223.1-296.2,231-296.2c9.9,0,75,41.5,144.1,92.8l124.4,90.8l-59.2,81c-33.6,45.4-154,211.3-268.6,369.2l-207.3,286.3l-793.8,126.4c-434.4,69.1-805.6,130.3-823.3,136.3c-17.8,5.9-183.6,150-369.2,317.9l-335.7,306L4051-2587.2c-335.7,148.1-556.8,258.6-562.7,276.4c-5.9,17.8-13.8,106.6-21.7,199.4l-11.9,167.8l154,110.6l154,110.6l947.8-420.6c519.3-233,947.8-420.6,949.7-416.6c2,2-586.4,817.5-1309.1,1810.6c-722.7,993.2-1326.9,1826.4-1342.7,1852.1c-29.6,41.5-25.7,57.3,43.4,221.1c84.9,197.5,61.2,183.6,345.5,207.3l128.3,11.8l809.5-1119.5c444.3-614.1,815.5-1121.5,821.4-1125.5c7.9-4,189.6,116.5,270.5,179.7c4,3.9-489.7,689.1-1095.8,1522.3c-606.2,835.2-1109.7,1528.3-1117.6,1540.1c-7.9,13.8,21.7,102.7,63.2,197.4l79,175.7l183.6,21.7c173.8,19.7,185.6,17.8,225.1-19.7c29.6-29.6,2102.8-2872.9,2201.6-3019c15.8-21.7,264.6,159.9,262.6,191.5c-2,11.8-359.4,515.3-797.7,1117.6c-436.4,602.2-797.7,1105.7-803.6,1119.5c-5.9,15.8,21.7,100.7,63.2,191.5c82.9,185.6,73.1,179.7,315.9,199.4l158,11.9l778-1074.1C6369,1063.7,6738.3,556.2,6762,528.6l41.5-51.3l132.3,98.7l132.3,98.7l-477.8,655.5c-260.6,361.3-541,746.4-620,855l-146.1,201.4l77,173.8l77,175.7l96.7,11.9c53.3,7.9,142.2,17.8,195.5,23.7l98.7,9.9l1127.4-1551.9L8623.9-324.4l252.7-918.1l250.8-918.1l246.8-341.6c136.2-187.6,254.7-345.5,264.6-351.5c25.7-13.8,274.5,173.8,260.6,197.5c-7.9,11.8-112.5,159.9-236.9,329.7l-223.1,308l-246.8,896.4c-136.3,493.6-254.7,916.2-266.6,939.9C8912.2-150.6,6548.7,3121.1,6529,3133c0,2-173.8-15.8-385-39.5l-385-41.5l-80.9-175.7l-81-175.7l-136.2,185.6c-73.1,102.7-136.3,189.6-140.2,191.5c-7.9,9.9-754.3-69.1-774-80.9c-7.9-5.9-45.4-82.9-82.9-169.8c-37.5-88.9-75-158-84.9-154c-7.9,2-116.5,142.2-238.9,310l-221.1,306l-98.7,2C3766.7,3292.9,3590.9,3279.1,3427,3259.3z"/>
</g>
</g>
</svg>