<?xml version="1.0" encoding="utf-8"?>
<!-- Uploaded to: SVG Repo, www.svgrepo.com, Generator: SVG Repo Mixer Tools -->
<!DOCTYPE svg PUBLIC "-//W3C//DTD SVG 1.1//EN" "http://www.w3.org/Graphics/SVG/1.1/DTD/svg11.dtd">
<svg fill="#000000" width="800px" height="800px" viewBox="0 0 1000 1000" version="1.1" xmlns="http://www.w3.org/2000/svg" xmlns:xlink="http://www.w3.org/1999/xlink"  enable-background="new 0 0 1000 1000" xml:space="preserve">

<g>
<g transform="translate(0.000000,511.000000) scale(0.100000,-0.100000)">
<path d="M8233.1,4896.8l-113.2-115.2l252.2-252.2l254.2-254.2H6922.4H5220.6v-168.8v-168.8h1701.9h1703.9l-254.2-254.2l-252.2-252.2l125.1-125.1l123.1-123.1l456.7,456.7l456.7,456.7l-456.7,456.7c-250.2,252.2-460.7,456.7-466.7,456.7S8296.7,4958.4,8233.1,4896.8z"/>
<path d="M6503.4,2875.2c-129.1-180.7-240.3-323.7-246.2-317.7s-43.7,83.4-85.4,172.8l-73.5,164.8l-387.2,39.7l-389.2,39.7L4660.5,2067c-363.4-500.4-665.3-909.5-671.2-909.5c-7.9,0-41.7,69.5-79.4,154.9c-35.7,83.4-71.5,158.9-79.4,166.8c-17.9,23.8-776.5,101.3-794.3,81.4C2960.6,1475.2,1697.6-292.2,1683.7-330c-9.9-27.8-129.1-450.8-264.1-939.3L1175.4-2157L941-2476.7c-127.1-174.7-228.4-329.6-222.4-343.5c6-13.9,63.5-61.6,129.1-109.2l121.1-83.4l105.3,143c59.6,79.4,174.8,240.3,260.1,355.5l152.9,210.5l248.2,901.6c135,496.5,258.2,925.4,272.1,953.2c13.9,29.8,289.9,417,611.6,859.9l585.8,808.2l148.9-11.9c258.2-19.9,244.3-11.9,325.7-198.6c39.7-91.3,71.5-172.8,71.5-180.7c0-6-41.7-69.5-91.4-141c-67.5-93.3-85.4-133-69.5-152.9c45.7-53.6,242.3-176.7,260.2-158.9c7.9,9.9,379.3,518.3,824.1,1130c442.8,611.6,812.2,1112.1,820.2,1112.1s95.3-7.9,194.6-15.9l180.7-15.9l83.4-180.7l81.4-178.7l-810.2-1114.1c-444.8-613.6-816.2-1126-824.1-1139.9c-21.9-33.8,236.3-214.5,270.1-188.7c11.9,11.9,520.3,705,1126,1541l1102.1,1521.2l109.2-9.9c59.6-6,148.9-15.9,198.6-21.8l89.4-9.9l77.5-176.7c41.7-97.3,69.5-186.7,61.6-200.6c-7.9-11.9-373.3-516.3-810.2-1118C6187.7,706.6,5689.2,21.5,5516.4-214.8l-311.8-430.9l125.1-91.4c69.5-49.6,133.1-91.3,143-91.3S5858-324,6304.8,295.6l812.2,1122l188.7-11.9c103.3-7.9,196.6-19.9,206.5-29.8s49.6-91.3,91.3-182.7l73.5-166.8L6378.3-758.9c-714.9-983-1326.6-1825-1358.3-1872.7l-59.6-83.4l105.3,45.7c57.6,25.8,490.5,218.4,963.1,429l855.9,383.3l117.2-85.4c212.5-156.9,198.6-129.1,174.7-345.6l-19.9-190.6l-567.9-252.2l-568-254.2l-331.6-305.8c-182.7-168.8-339.6-309.8-345.5-311.8c-7.9-4-379.3-63.6-826.1-135c-446.8-69.5-814.2-131.1-816.2-133.1c-23.8-23.8-512.3-703-520.3-720.9c-9.9-31.8,250.2-218.4,272.1-196.6c7.9,9.9,107.2,147,220.4,303.8c111.2,154.9,222.4,291.9,244.3,301.8c23.8,7.9,331.6,61.6,687.1,117.2c355.5,55.6,703,111.2,772.5,123.1l127.1,21.8l353.5,323.7l351.5,323.7l621.6,278c341.6,152.9,627.5,287.9,633.5,303.8c25.8,45.7,85.4,752.6,67.5,770.5c-49.6,47.7-597.8,436.9-615.6,436.9c-11.9,0-222.4-89.4-466.7-196.6C6205.5-1789.6,6003-1875,5999-1873c-2,4,460.7,647.4,1030.7,1431.8L8064.3,984.7l-154.9,347.5c-107.2,238.3-168.8,351.5-196.6,363.4c-21.8,7.9-109.2,21.8-192.6,27.8c-85.4,7.9-154.9,15.9-154.9,19.9c0,6,107.2,154.9,238.3,335.6l236.3,327.7L7681,2760c-89.4,194.6-160.9,355.5-162.8,355.5c-2,2-147,17.9-321.7,35.7c-174.8,17.9-349.5,37.7-387.2,41.7l-69.5,9.9L6503.4,2875.2z"/>
</g>
</g>
</svg>