<?xml version="1.0" encoding="utf-8"?>
<!-- Uploaded to: SVG Repo, www.svgrepo.com, Generator: SVG Repo Mixer Tools -->
<!DOCTYPE svg PUBLIC "-//W3C//DTD SVG 1.1//EN" "http://www.w3.org/Graphics/SVG/1.1/DTD/svg11.dtd">
<svg fill="#000000" width="800px" height="800px" viewBox="0 0 1000 1000" version="1.1" xmlns="http://www.w3.org/2000/svg" xmlns:xlink="http://www.w3.org/1999/xlink"  enable-background="new 0 0 1000 1000" xml:space="preserve">

<g>
<g transform="translate(0.000000,512.000000) scale(0.100000,-0.100000)">
<path d="M2309.8,4574L1865.7,4130l114.8-114.8l114.8-114.8l248.8,248.8l248.8,248.8V2746.1V1094.3l158.9,5.7l157,5.7l5.7,1636.5l3.8,1636.5l239.3-239.3l239.3-239.3l118.7,120.6l120.6,118.7L3196,4579.8L2755.8,5020L2309.8,4574z"/>
<path d="M1936.5,3379.6c-7.7-5.7-13.4-748.4-13.4-1649.9V91.3l-245,245l-243.1,243.1l-114.8-114.8l-114.8-114.8l446-446l444.1-444.1l444.1,444.1l446,446l-120.6,118.7l-118.7,120.6l-248.8-248.8L2248.5,91.3v1651.8V3393h-149.3C2016.9,3393,1942.3,3387.3,1936.5,3379.6z"/>
<path d="M4861.2,2541.3l-306.3-178l-5.7-1280.5l-5.7-1278.6l-648.9-459.4l-648.9-459.4l-1.9-800.1v-798.2l645-1033.6L4535.8-4780h185.7c103.4,0,187.6,3.8,187.6,9.6s-300.5,491.9-669.9,1081.4l-669.9,1071.9v664.2v666.1l470.9,335c258.4,183.7,478.5,338.8,488.1,340.7c9.6,3.8,17.2-308.2,17.2-769.5v-777.1h162.7h162.7V10.9v2166.7l164.6,91.9l162.7,91.9l160.8-91.9l160.8-91.9l1.9-1353.3V-530.8h162.7H5847v331.1v329.2l162.7,91.9c90,51.7,170.4,90,178,86.1c7.7-3.8,80.4-42.1,162.7-88l147.4-82.3v-335v-333.1h160.8c128.2,0,162.7,5.7,172.3,30.6c5.7,17.2,11.5,118.7,11.5,227.8v197.1l158.9,90c86.1,49.8,162.7,93.8,168.4,97.6c5.8,3.8,82.3-36.4,170.4-86.1l158.9-91.9l-3.8-231.6l-3.8-233.5h162.7h164.6v162.7v162.7l72.7,44c38.3,24.9,109.1,67,157,93.8l88,49.8l166.5-95.7l166.5-95.7V-1193v-983.8l-325.4-867.1l-325.4-869v-432.6V-4780h162.7h162.7v402v402l325.4,867.1l325.4,869v1108.2V-23.6L8469.2,164c-179.9,103.4-333.1,185.7-340.7,181.8c-7.7-3.8-82.3-44-164.6-90l-151.2-84.2l-319.6,158.9l-321.6,158.9l-155-90c-91.9-53.6-168.4-88-185.6-80.4c-26.8,9.6-442.2,246.9-591.5,338.8l-57.4,34.5l-162.7-93.8l-162.7-93.8L5847,1435l-9.6,928.3l-306.3,179.9c-168.4,97.6-319.7,178-335,178C5180.9,2721.2,5029.7,2638.9,4861.2,2541.3z"/>
</g>
</g>
</svg>