<?xml version="1.0" encoding="utf-8"?>
<!-- Uploaded to: SVG Repo, www.svgrepo.com, Generator: SVG Repo Mixer Tools -->
<!DOCTYPE svg PUBLIC "-//W3C//DTD SVG 1.1//EN" "http://www.w3.org/Graphics/SVG/1.1/DTD/svg11.dtd">
<svg fill="#000000" width="800px" height="800px" viewBox="0 0 1000 1000" version="1.1" xmlns="http://www.w3.org/2000/svg" xmlns:xlink="http://www.w3.org/1999/xlink"  enable-background="new 0 0 1000 1000" xml:space="preserve">

<g>
<g transform="translate(0.000000,511.000000) scale(0.100000,-0.100000)">
<path d="M1981.4,3311.7V1613.3L1734,1860.8l-247.4,247.4l-118.8-118.8L1249,1870.7l455.3-455.3l455.3-455.3l455.3,455.3l455.3,455.3l-118.8,118.8l-118.8,118.8l-247.4-247.4l-247.4-247.4l-4,1692.4l-5.9,1692.4l-172.2,5.9l-174.2,5.9V3311.7z"/>
<path d="M4683.3,2781.2l-316.7-182.1l-9.9-1769.6l-9.9-1769.6l-253.4,441.4L3838.1-59.2h-388h-390l-196-338.5l-194-336.5l126.7-221.7c69.3-122.7,223.7-387.9,340.4-593.8l213.8-370.1l97-471.1l99-469.1l572-574l574-574v-391.9V-4790h168.3h168.2v459.2v461.2l-585.9,585.9l-585.9,585.9l-93,453.3l-95,453.3L3371-1272.6c-166.3,285-300.9,528.5-300.9,540.4c0,11.9,41.6,93,91,180.1l91.1,158.4l197.9-6l197.9-5.9l518.6-896.7l516.6-896.7l5.9,2302l5.9,2302l166.3,95l168.2,93l168.3-93l168.2-95V1005.7V-395.7h168.2h168.3v342.4v340.5l168.2,95c93,53.4,176.2,93,184.1,89.1c7.9-3.9,83.1-43.5,168.2-91l152.4-85.1V-51.3v-344.4h168.2h166.3l5.9,239.5l5.9,241.5l168.2,95l166.3,95l178.1-95l176.2-95l-4-241.5l-3.9-239.5h168.2h170.2v174.2v172.2l162.3,89.1c89.1,49.5,170.2,87.1,180.1,83.1c9.9-2,89.1-45.5,174.2-95l156.4-91.1v-1017.4V-2098L8078-2994.7l-336.5-898.6v-447.3V-4790h168.2H8078v415.7v415.7l336.5,896.7l336.5,898.6v1146.1V128.8l-338.5,196l-338.5,194l-93-51.5c-49.5-29.7-128.7-73.3-176.2-97l-85.1-41.6L7387.1,493l-332.5,166.3l-160.3-91c-89.1-51.5-168.2-93-176.2-93c-7.9,0-87.1,43.5-174.2,95c-87.1,53.5-235.5,140.5-328.6,196l-170.2,100.9l-166.3-97l-166.3-95l-9.9,960l-9.9,962l-316.7,184.1c-174.2,102.9-330.6,186.1-346.4,186.1C5013.9,2965.3,4857.5,2882.1,4683.3,2781.2z"/>
</g>
</g>
</svg>