<?xml version="1.0" encoding="utf-8"?>
<!-- Uploaded to: SVG Repo, www.svgrepo.com, Generator: SVG Repo Mixer Tools -->
<!DOCTYPE svg PUBLIC "-//W3C//DTD SVG 1.1//EN" "http://www.w3.org/Graphics/SVG/1.1/DTD/svg11.dtd">
<svg fill="#000000" width="800px" height="800px" viewBox="0 0 1000 1000" version="1.1" xmlns="http://www.w3.org/2000/svg" xmlns:xlink="http://www.w3.org/1999/xlink"  enable-background="new 0 0 1000 1000" xml:space="preserve">

<g>
<g transform="translate(0.000000,511.000000) scale(0.100000,-0.100000)">
<path d="M4132.9,4590.3L4020,4475.5l251.4-251.4l253.4-253.4h-1372h-1370v-168.3V3634h1370h1372l-257.4-257.4l-257.4-257.4l108.9-108.9c59.4-59.4,116.8-108.9,128.7-108.9c9.9,0,223.7,201.9,471.2,451.4l449.4,449.4l-451.4,451.4c-247.5,247.5-453.4,449.4-459.3,449.4C4251.6,4703.1,4196.2,4651.7,4132.9,4590.3z"/>
<path d="M6859,4111.2l-334.6-192l-9.9-407.8l-9.9-407.8l-148.5,87.1c-81.2,47.5-162.4,87.1-178.2,85.1c-15.8,0-172.2-83.1-346.5-184.1l-316.8-184.1l-9.9-1768l-9.9-1768l-249.4,433.6L4996,238.7l-394,5.9l-394,4L4012.1-88l-194-336.6l340.5-590l340.5-588l97-475.1l99-475.2l572.2-574.1l574.1-574.1v-392v-390h168.3H6178v459.3v461.3l-586,586l-586,586l-93,453.4l-93.1,453.4l-300.9,520.7C4352.6-678,4218-432.5,4218-418.6c0,11.9,41.6,93,91.1,178.2L4398.1-86l200-5.9l200-5.9l516.7-894.9l516.7-892.9l5.9,2298.5l4,2300.5l168.3,95l168.3,95l168.3-95l168.3-95V1313.7V-88h168.3h168.3v1906.5v1904.6l164.3,95c91.1,51.5,170.3,93.1,178.2,93.1c9.9,0,87.1-41.6,172.2-91.1l158.4-91.1V1820.5V-88h168.3h168.3v237.6v235.6l172.2,103l172.2,101l140.6-75.2c237.6-126.7,217.8-93,209.9-364.3L8549.8-88H8720h170.3V86.3l2,172.2l160.4,93.1c134.6,75.2,170.3,87.1,203.9,71.3c21.8-11.9,99-55.4,174.2-99l132.7-77.2V-771v-1019.6l-336.6-896.9l-336.6-898.8v-447.4v-449.4h168.3h168.3v415.8v415.8l336.6,896.8l336.6,898.8v1148.3V440.6l-338.5,194l-340.5,194l-101-55.4c-55.4-31.7-132.6-75.2-170.3-95l-69.3-39.6L8559.7,801c-178.2,87.1-334.6,160.4-348.4,160.4c-13.9,0-93.1-39.6-176.2-89.1c-85.1-49.5-158.4-89.1-164.3-89.1c-5.9,0-9.9,706.8-9.9,1570v1568l-241.5,138.6c-132.6,77.2-283.1,162.3-332.6,192l-93,53.5L6859,4111.2z"/>
<path d="M549.4,3578.6L100,3129.2l461.3-461.3l459.3-459.3l118.8,118.8l118.8,118.8l-257.4,257.4l-257.4,257.4h1372h1370v168.3v168.3H2125.3H763.2l247.5,247.5l247.5,247.5l-118.8,118.8c-65.3,65.3-122.8,118.8-128.7,118.8C1004.8,4030,796.9,3828.1,549.4,3578.6z"/>
</g>
</g>
</svg>