<?xml version="1.0" encoding="utf-8"?>
<!-- Uploaded to: SVG Repo, www.svgrepo.com, Generator: SVG Repo Mixer Tools -->
<!DOCTYPE svg PUBLIC "-//W3C//DTD SVG 1.1//EN" "http://www.w3.org/Graphics/SVG/1.1/DTD/svg11.dtd">
<svg fill="#000000" width="800px" height="800px" viewBox="0 0 1000 1000" version="1.1" xmlns="http://www.w3.org/2000/svg" xmlns:xlink="http://www.w3.org/1999/xlink"  enable-background="new 0 0 1000 1000" xml:space="preserve">

<g>
<g transform="translate(0.000000,511.000000) scale(0.100000,-0.100000)">
<path d="M3287.1,4128.1c-165.4-20.2-302.6-36.3-304.6-38.3c-26.2-30.3-312.7-716.1-304.6-732.2c4-14.1,110.9-165.4,234-336.9c125.1-169.4,221.9-314.7,215.8-318.7c-6.1-6-88.8-20.2-187.6-30.3c-96.8-10.1-179.5-22.2-181.5-24.2c-4-4-78.7-167.4-167.4-363.1l-159.4-359.1L3476.7,487.1c576.9-792.7,1053-1450.4,1059-1460.4c8.1-12.1-88.8,24.2-213.8,80.7c-633.4,284.4-724.2,322.7-748.4,308.6c-18.2-12.1-248.1-177.5-615.2-443.8c-10.1-8.1,70.6-770.5,84.7-790.7c6.1-8.1,292.5-143.2,639.4-296.5l629.4-280.4l361.1-330.8l363.1-332.8l806.9-127.1c443.8-70.6,812.9-133.1,823-139.2c8.1-6,115-145.2,234-312.7c121-165.4,228-302.6,236-302.6c10.1,0,76.7,42.4,147.3,94.8l127.1,92.8l-60.5,82.7c-34.3,46.4-157.4,215.8-274.3,377.2l-211.8,292.5l-810.9,129.1c-443.8,70.6-823,133.1-841.2,139.2c-18.2,6-187.6,153.3-377.2,324.8l-342.9,312.7l-566.8,250.1c-342.9,151.3-568.8,264.3-574.9,282.4c-6.1,18.2-14.1,108.9-22.2,203.7l-12.1,171.5l157.3,112.9l157.3,113l968.2-429.7c530.5-238,968.2-429.6,970.3-425.6c2,2-599.1,835.1-1337.4,1849.8c-738.3,1014.6-1355.5,1865.9-1371.7,1892.1c-30.3,42.4-26.2,58.5,44.4,225.9c86.7,201.7,62.5,187.6,353,211.8l131.1,12.1l827-1143.7C4668.9,604.1,5046.1,87.7,5054.2,81.7c8.1-4,193.7,117,276.4,183.6c4,4-500.3,704-1119.5,1555.2c-619.3,853.3-1133.6,1561.3-1141.7,1573.4c-8.1,14.1,22.2,104.9,64.5,201.7l80.7,179.5l187.6,22.2c177.5,20.2,189.6,18.2,230-20.2c30.3-30.3,2148.3-2935,2249.1-3084.2c16.2-22.2,270.3,163.4,268.3,195.7c-2,12.1-367.1,526.5-814.9,1141.7c-445.8,615.2-814.9,1129.6-821,1143.7c-6,16.1,22.2,102.9,64.6,195.7c84.7,189.6,74.6,183.6,322.7,203.8l161.4,12.1L5857,2488.2c435.7-603.1,812.9-1121.6,837.1-1149.8l42.4-52.5l135.2,100.9l135.2,100.9l-488.2,669.7c-266.3,369.1-552.7,762.5-633.4,873.4L5736,3236.5l78.7,177.5l78.7,179.5l98.8,12.1c54.5,8.1,145.2,18.2,199.7,24.2l100.9,10.1l1151.8-1585.5L8596.3,466.9l258.2-938l256.2-938l252.1-349c139.2-191.6,260.2-353,270.3-359.1c26.2-14.1,280.4,177.5,266.3,201.7c-8.1,12.1-115,163.4-242.1,336.9l-227.9,314.7L9177.3-348c-139.2,504.3-260.2,936-272.3,960.2c-14.1,32.3-2428.7,3374.7-2448.9,3386.8c0,2-177.5-16.1-393.4-40.3l-393.3-42.4l-82.7-179.5l-82.7-179.5l-139.2,189.6c-74.6,104.9-139.2,193.7-143.2,195.7c-8.1,10.1-770.6-70.6-790.7-82.7c-8.1-6.1-46.4-84.7-84.7-173.5c-38.3-90.8-76.7-161.4-86.7-157.3c-8.1,2-119,145.2-244.1,316.7l-225.9,312.7l-100.9,2C3634.1,4162.4,3454.6,4148.3,3287.1,4128.1z"/>
<path d="M564,3583.5l-464-463.9l110.9-110.9c60.5-60.5,119-110.9,131.1-110.9c10.1,0,131.1,110.9,266.3,246.1l248.1,248.1V1661.1V-67.6h171.5h171.5v1724.7c0,948.1,6,1724.7,14.1,1724.7c8.1,0,127.1-110.9,262.2-246.1l248.1-248.1l121,121l121,121L1508,3587.5c-252.1,254.2-464,459.9-470,459.9C1031.9,4047.4,818.1,3839.7,564,3583.5z"/>
</g>
</g>
</svg>