<?xml version="1.0" encoding="utf-8"?>
<!-- Uploaded to: SVG Repo, www.svgrepo.com, Generator: SVG Repo Mixer Tools -->
<!DOCTYPE svg PUBLIC "-//W3C//DTD SVG 1.1//EN" "http://www.w3.org/Graphics/SVG/1.1/DTD/svg11.dtd">
<svg fill="#000000" width="800px" height="800px" viewBox="0 0 1000 1000" version="1.1" xmlns="http://www.w3.org/2000/svg" xmlns:xlink="http://www.w3.org/1999/xlink"  enable-background="new 0 0 1000 1000" xml:space="preserve">

<g>
<g transform="translate(0.000000,512.000000) scale(0.100000,-0.100000)">
<path d="M965.9,3336.9v-1685l-245.5,245.5l-245.5,245.5l-121.8-123.7l-123.7-121.8l441.9-441.9c243.5-243.5,449.7-441.9,461.5-441.9c11.8,0,221.9,200.3,467.4,447.8l445.8,445.8L1928.2,2025l-117.8,117.8l-255.3-255.3l-255.3-255.3v1694.9V5020h-166.9H965.9V3336.9z"/>
<path d="M3338.3,3077.7c-159.1-17.7-296.5-39.3-306.4-51.1c-9.8-9.8-39.3-72.7-68.7-137.5c-27.5-64.8-94.3-216-147.3-333.9l-96.2-218l233.7-322.1l233.7-324.1l-55-13.8c-29.5-7.9-115.9-19.6-190.5-29.5l-135.5-15.7l-155.2-349.6l-153.2-351.6l750.2-1033c412.4-569.5,872-1201.9,1021.2-1406.2c149.2-204.2,267.1-375.1,263.2-379c-3.9-3.9-208.2,80.5-451.7,190.5c-245.5,108-457.6,190.5-469.4,184.6c-19.6-11.8-577.4-412.4-601-432.1c-11.8-9.8,60.9-699.2,76.6-746.3c11.8-29.5,174.8-110,624.5-310.3C4391-3305.1,4281-3230.5,4842.7-3747l190.5-174.8l779.7-123.7c428.1-68.7,785.6-125.7,793.4-125.7c5.9,0,112-137.5,233.7-304.4c121.8-166.9,227.8-304.4,237.7-304.4c25.5,0,249.4,165,251.4,184.6c0,7.9-117.8,176.8-259.3,373.1l-261.2,359.4L6023-3741.1c-432.1,66.8-801.3,127.7-819,135.5c-19.6,7.9-182.6,149.3-367.2,316.2l-331.9,302.4l-555.8,247.5l-557.8,249.4l-17.7,192.5l-17.7,194.4l55,41.3c31.4,23.5,102.1,72.6,157.1,111.9l98.2,70.7l940.7-420.3c516.5-229.8,942.7-416.4,944.6-414.4c2,3.9-587.2,819-1309.9,1812.7C3519,92.5,2918,925.2,2906.3,948.8c-17.7,35.3-7.9,74.6,53,210.1c82.5,188.5,74.6,182.7,353.5,194.4l115.9,3.9l663.8-913.2c365.3-502.8,730.6-1003.6,811.1-1115.5l147.3-202.3l119.8,84.4c66.8,45.2,123.7,94.3,129.6,108c5.9,11.8-487,705-1091.9,1539.7c-838.6,1152.8-1099.8,1524-1090,1553.5c5.9,21.6,41.2,102.1,76.6,182.6l64.8,143.4l184.6,17.7c155.1,15.7,186.6,13.7,214.1-13.8c17.7-15.7,516.5-697.2,1107.7-1512.2c591.1-815,1080.2-1488.7,1088-1496.5c9.8-11.8,186.6,100.2,274.9,172.8c3.9,3.9-57,94.3-133.6,200.3l-139.4,194.4l80.5,176.8l80.5,176.8l196.4,23.6c108,13.8,204.2,17.7,212.1,7.9c7.9-7.9,68.7-98.2,135.5-196.4l119.8-182.6l127.7,92.3c70.7,51.1,127.7,98.2,127.7,108c0,9.8-39.3,70.7-88.4,137.5c-49.1,66.8-88.4,127.7-88.4,135.5c0,7.9,35.4,88.4,76.6,180.7l76.6,165l113.9,13.7c64.8,7.9,151.2,17.7,194.4,21.6l78.6,9.8l441.9-610.8c243.5-337.8,510.6-709,597-826.8L8491.7-479l243.5-879.8c133.6-483.1,251.4-901.4,261.2-928.9c11.8-35.4,355.4-526.3,506.7-722.7c13.8-19.6,278.9,182.7,267.1,202.3c-7.9,11.8-110,153.2-227.8,314.2c-117.8,159.1-221.9,310.3-231.7,333.9c-9.8,21.6-127.7,441.9-263.2,932.9c-212.1,767.9-255.3,903.4-310.3,982c-66.8,92.3-1274.6,1757.7-1278.5,1761.6c-2,2-174.8-15.7-388.9-37.3l-384.9-41.2l-78.6-176.8l-76.6-178.7l-365.3-60.9c-202.3-33.4-371.2-64.8-377.1-68.7c-3.9-5.9-35.4-74.6-70.7-155.1c-33.4-80.5-68.8-155.1-76.6-163c-7.9-9.8-424.2,544-923,1231.4L3809.7,3115l-90.3-2C3668.3,3111.1,3497.4,3095.4,3338.3,3077.7z"/>
</g>
</g>
</svg>