<?xml version="1.0" encoding="utf-8"?>
<!-- Uploaded to: SVG Repo, www.svgrepo.com, Generator: SVG Repo Mixer Tools -->
<!DOCTYPE svg PUBLIC "-//W3C//DTD SVG 1.1//EN" "http://www.w3.org/Graphics/SVG/1.1/DTD/svg11.dtd">
<svg fill="#000000" width="800px" height="800px" viewBox="0 0 1000 1000" version="1.1" xmlns="http://www.w3.org/2000/svg" xmlns:xlink="http://www.w3.org/1999/xlink"  enable-background="new 0 0 1000 1000" xml:space="preserve">

<g>
<g transform="translate(0.000000,511.000000) scale(0.100000,-0.100000)">
<path d="M1678.7,3732.7L445.4,2497.4v371.8V3239H272.7H100v-660.3v-660.3h660.3h660.3V2091v172.7H1061H699.4l1235.3,1235.3L3168,4732.4l-117.8,117.8c-65,63-121.9,115.8-126,115.8C2918.1,4966,2359.4,4411.4,1678.7,3732.7z"/>
<path d="M3239.2,3381.2c-166.6-20.3-304.8-36.6-306.8-38.6c-26.4-30.5-314.9-721.3-306.8-737.6c4.1-14.2,111.8-166.6,235.7-339.3c126-170.7,223.5-317,217.4-321c-6.1-6.1-89.4-20.3-189-30.5c-97.5-10.2-180.8-22.3-182.9-24.4c-4.1-4.1-79.2-168.6-168.6-365.7l-160.5-361.7L3430.1-286.2c581.1-798.5,1060.6-1460.9,1066.7-1471.1c8.1-12.2-89.4,24.4-215.4,81.3c-638,286.5-729.4,325.1-753.8,310.9c-18.3-12.2-249.9-178.8-619.7-447c-10.2-8.1,71.1-776.2,85.3-796.5c6.1-8.1,294.6-144.3,644.1-298.7l633.9-282.4l363.7-333.2l365.7-335.3l812.7-128c447-71.1,818.8-134.1,829-140.2c8.1-6.1,115.8-146.3,235.7-314.9c121.9-166.6,229.6-304.8,237.7-304.8c10.2,0,77.2,42.7,148.3,95.5l128,93.5l-61,83.3c-34.6,46.7-158.5,217.4-276.3,379.9l-213.3,294.6l-816.8,130.1c-447,71.1-829,134.1-847.2,140.2c-18.3,6.1-189,154.4-380,327.1l-345.4,314.9l-570.9,252c-345.4,152.4-573,266.2-579.1,284.5c-6.1,18.3-14.2,109.7-22.4,205.2l-12.2,172.7l158.5,113.8l158.5,113.8l975.3-432.8c534.4-239.8,975.3-432.8,977.3-428.7c2,2.1-603.4,841.2-1347.1,1863.2c-743.6,1022-1365.4,1879.4-1381.6,1905.8c-30.5,42.7-26.4,58.9,44.7,227.6c87.4,203.2,63,189,355.6,213.3l132.1,12.2l833-1152C4630.9-168.4,5012.9-690.5,5019-694.6c8.1-4.1,195.1,119.9,278.3,184.9c4.1,4.1-503.9,709.1-1127.7,1566.5c-623.8,859.5-1141.9,1572.6-1150,1584.8c-8.1,14.2,22.3,105.6,65,203.2l81.3,180.8l189,22.4c178.8,20.3,191,18.3,231.6-20.3c30.5-30.5,2163.9-2956.3,2265.5-3106.6c16.3-22.4,272.3,164.6,270.3,197.1c-2.1,12.2-369.8,530.3-820.9,1150c-449,619.7-820.8,1137.8-827,1152c-6.1,16.3,22.4,103.6,65,197.1c85.3,191,75.2,184.9,325.1,205.2l162.5,12.2l800.5-1105.3c438.9-607.5,818.8-1129.7,843.2-1158.1l42.7-52.8L6849.7,620l136.1,101.6l-491.7,674.6c-268.2,371.8-556.7,768-638,879.8l-150.3,207.2L5785,2662l79.2,180.8l99.6,12.2c54.9,8.1,146.3,18.3,201.2,24.4l101.6,10.2l1160.2-1597l1160.2-1599l260.1-944.8l258-944.8l254-351.5c140.2-193,262.1-355.6,272.2-361.7c26.4-14.2,282.4,178.8,268.2,203.2c-8.1,12.2-115.8,164.6-243.8,339.3l-229.6,317l-254,922.4c-140.2,508-262.1,942.8-274.3,967.2c-14.2,32.5-2446.3,3399.2-2466.6,3411.4c0,2-178.8-16.3-396.2-40.6l-396.2-42.7l-83.3-180.8l-83.3-180.8l-140.2,191c-75.2,105.6-140.2,195.1-144.2,197.1c-8.1,10.2-776.2-71.1-796.5-83.3c-8.1-6.1-46.7-85.3-85.3-174.7c-38.6-91.4-77.2-162.5-87.4-158.5c-8.1,2-119.9,146.3-245.8,319l-227.6,314.9l-101.6,2C3588.6,3415.8,3407.8,3401.5,3239.2,3381.2z"/>
</g>
</g>
</svg>