<?xml version="1.0" encoding="utf-8"?>
<!-- Uploaded to: SVG Repo, www.svgrepo.com, Generator: SVG Repo Mixer Tools -->
<!DOCTYPE svg PUBLIC "-//W3C//DTD SVG 1.1//EN" "http://www.w3.org/Graphics/SVG/1.1/DTD/svg11.dtd">
<svg fill="#000000" width="800px" height="800px" viewBox="0 0 1000 1000" version="1.1" xmlns="http://www.w3.org/2000/svg" xmlns:xlink="http://www.w3.org/1999/xlink"  enable-background="new 0 0 1000 1000" xml:space="preserve">

<g>
<g transform="translate(0.000000,511.000000) scale(0.100000,-0.100000)">
<path d="M1172,4557.2l-450.8-450.8l462.7-462.7l460.7-460.7l119.1,119.1l119.2,119.1l-258.1,258.1l-258.2,258.2h1713.7h1711.7v168.8v168.8H3090.2H1386.5l248.2,248.2l248.2,248.2l-119.2,119.1c-65.5,65.5-123.1,119.1-129.1,119.1C1628.7,5010,1420.2,4807.5,1172,4557.2z"/>
<path d="M2834.1,3157.3l-357.4-37.7L2323.7,2774c-83.4-190.6-152.9-355.4-152.9-367.4c0-11.9,103.3-162.8,230.4-337.6c127.1-174.7,228.4-319.7,224.4-323.7c-4-4-87.4-15.9-182.7-27.8c-97.3-9.9-182.7-27.8-192.6-35.7c-21.8-23.8-303.8-669.2-303.8-695c0-11.9,462.7-657.3,1026.6-1435.7c565.9-778.4,1024.7-1417.8,1020.7-1421.8c-2-4-184.7,73.5-403.1,170.8c-218.4,97.3-425,188.7-458.7,200.6c-61.6,21.8-71.5,15.9-373.3-202.6c-170.8-123.1-309.8-238.3-309.8-252.2c0-31.8,53.6-556,69.5-673.2l11.9-83.4l629.5-282l629.5-282l353.5-323.7c353.5-323.7,353.5-323.7,476.6-345.5c67.5-9.9,413-65.5,768.5-121.1c355.5-55.6,663.3-105.2,685.1-109.2c23.8-6,133-141,258.1-317.7c127.1-178.7,228.4-303.8,244.2-297.9c37.7,13.9,242.3,172.8,242.3,188.6c0,13.9-474.6,677.1-514.3,720.8c-7.9,7.9-323.7,63.5-699,123.1c-375.3,59.6-744.7,119.2-820.1,131.1l-135,21.9l-341.5,311.8L3968-2980.8l-546.1,244.3c-299.9,133-556,254.2-569.9,266.1c-11.9,13.9-27.8,105.2-35.7,204.5l-13.9,180.7l137,99.3c73.5,53.6,145,103.3,158.9,111.2c11.9,7.9,405.1-156.9,873.7-365.4c466.7-208.5,897.6-401.1,955.1-427c57.6-25.8,97.3-35.7,89.4-21.8c-7.9,13.9-615.6,851.9-1350.3,1862.7C2931.4,186.6,2329.7,1022.6,2329.7,1034.5c0,9.9,35.7,95.3,77.4,188.6l77.4,168.8l192.6,13.9c105.2,7.9,198.6,7.9,206.5-2c7.9-9.9,379.3-520.3,826.1-1133.9l810.2-1114l137,99.3l137,99.3l-47.7,63.5c-25.8,33.8-530.2,728.8-1123.9,1544.9L2546.1,2446.4l77.4,174.8c85.4,196.6,85.4,196.6,345.5,208.5l131.1,6l1096.2-1509.2c603.7-830,1108.1-1521.1,1122-1537c23.8-23.8,43.7-17.9,139,47.7c61.5,41.7,119.2,87.4,131.1,101.3c13.9,17.9-200.6,327.7-774.4,1118c-438.9,601.7-806.2,1112-820.1,1131.9c-19.9,31.8-9.9,67.5,53.6,216.4l75.5,178.7l160.9,13.9c89.4,6,174.8,15.9,192.6,21.8c23.8,6,252.2-293.9,851.9-1118c450.8-621.5,826.1-1129.9,834-1133.9c15.9-6,236.3,146.9,258.2,178.7c5.9,6-33.8,71.5-85.4,145l-97.3,133l77.5,176.7c83.4,196.6,69.5,186.7,323.7,208.5l148.9,11.9l603.7-832l603.7-830l258.1-933.3l258.2-931.3l256.2-353.4l258.2-353.5l117.1,81.4c63.5,45.7,125.1,93.3,135,105.3c9.9,13.9-67.5,137-218.4,343.5l-236.3,323.7L8565-1225.3L8306.9-290l-667.2,917.4c-367.4,504.4-673.2,925.4-683.1,933.3c-11.9,13.9-770.5-55.6-786.4-71.5c-4-4-41.7-83.4-83.4-178.7l-77.5-172.8l-667.2,919.4l-667.2,919.4l-383.3-41.7l-383.3-39.7l-79.4-162.8c-43.7-89.4-85.4-166.8-91.3-172.8c-6-6-117.2,135-248.2,315.7c-137,190.6-248.2,325.7-266.1,325.7C3207.4,3199,3032.7,3179.1,2834.1,3157.3z"/>
</g>
</g>
</svg>