<?xml version="1.0" encoding="utf-8"?>
<!-- Uploaded to: SVG Repo, www.svgrepo.com, Generator: SVG Repo Mixer Tools -->
<!DOCTYPE svg PUBLIC "-//W3C//DTD SVG 1.1//EN" "http://www.w3.org/Graphics/SVG/1.1/DTD/svg11.dtd">
<svg fill="#000000" width="800px" height="800px" viewBox="0 0 1000 1000" version="1.1" xmlns="http://www.w3.org/2000/svg" xmlns:xlink="http://www.w3.org/1999/xlink"  enable-background="new 0 0 1000 1000" xml:space="preserve">

<g>
<g transform="translate(0.000000,511.000000) scale(0.100000,-0.100000)">
<path d="M570.2,3493.1L100,3023l112.4-112.4c61.3-61.3,120.6-112.4,132.9-112.4c10.2,0,132.9,112.4,269.8,249.4l251.4,251.4v-885.1v-883.1h173.8h173.8v879c0,484.5,6.1,879,14.3,879c8.2,0,128.8-112.4,265.7-249.4l251.4-251.4l122.7,122.6l122.7,122.7l-464,464c-255.5,257.6-470.2,466.1-476.3,466.1C1044.4,3963.3,827.7,3752.8,570.2,3493.1z"/>
<path d="M2986.4,2982.1c-177.8-18.4-331.2-42.9-339.3-53.2c-22.5-26.6-314.8-688.9-314.8-713.4c0-12.3,478.3-682.8,1065-1488.2C3981.9-78.1,4458.2-738.3,4452.1-738.3c-6.1,0-216.7,92-468.1,204.4c-253.5,112.4-468.1,204.4-480.4,204.4c-16.3,0-564.2-386.4-639.8-449.7c-18.4-16.3,61.3-799.3,83.8-819.7c8.2-6.2,300.5-139,648-292.3l633.7-282.1l286.2-263.7c157.4-145.2,325-296.4,370-337.3l85.8-71.5l821.8-130.8c674.6-106.3,825.9-137,848.3-167.6c16.3-20.4,118.6-163.5,229-316.9c110.4-153.3,206.5-280.1,212.6-282.1c8.2,0,73.6,45,147.2,98.1l134.9,98.1l-265.7,368c-147.2,200.3-273.9,372-282.1,380.2c-6.1,8.2-388.4,75.6-848.3,149.2c-457.9,73.6-844.3,139-856.5,147.2c-14.3,8.2-175.8,153.3-361.8,323l-337.3,308.7l-576.5,255.5c-646,284.2-586.7,235.1-611.2,509L3213.3-953l161.5,116.5l163.5,118.6l795.2-355.7c437.5-194.2,881.1-390.4,985.3-437.4c104.3-47,181.9-73.6,175.8-59.3c-8.2,14.3-635.8,877-1392.1,1919.5c-756.4,1042.5-1375.7,1899.1-1375.7,1907.2c0,36.8,153.3,357.7,173.8,365.9c14.3,4.1,106.3,14.3,206.5,22.5l181.9,14.3l846.3-1167.2l846.3-1165.2l83.8,59.3c45,34.8,108.3,81.8,139,108.3l55.2,45l-204.4,282.1l-206.5,280.1l79.7,184c87.9,202.4,63.4,188.1,353.6,214.6l132.9,12.3l200.3-276c110.4-153.3,208.5-278,218.7-278c26.6,0,263.7,169.7,263.7,190.1c2,8.2-57.2,98.1-130.8,196.2c-73.6,100.2-132.9,194.2-132.9,208.5c0,16.4,32.7,104.3,73.6,194.2c81.8,186,59.3,173.8,359.8,204.4l134.9,14.3l130.8-196.2c69.5-108.3,137-198.3,147.2-198.3c38.8,0,276,192.2,259.6,212.6c-8.2,12.3-55.2,75.6-102.2,139l-85.8,118.6l77.7,175.8c49.1,114.5,89.9,181.9,118.6,192.2c22.5,8.2,114.5,20.4,204.4,28.6l165.6,14.3l621.4-854.5l621.4-854.5l267.8-960.8l265.7-962.8l263.7-361.8c161.5-222.8,271.9-355.7,286.2-347.5c18.4,10.2,226.9,159.4,255.5,181.9c4.1,4.1-104.3,157.4-239.2,343.4l-247.4,337.3L9147.6-65.8l-265.8,958.7L8195,1841.4c-378.2,519.2-695,952.6-703.2,962.8c-8.2,8.2-188.1-4.1-398.6-26.6c-210.5-22.5-390.4-40.9-398.6-40.9c-8.2,0-49-81.8-92-181.9c-57.2-134.9-89.9-186-122.7-192.2c-22.5-6.1-198.3-36.8-386.3-67.5l-343.4-55.2l-59.3-134.9c-116.5-261.7-65.4-233-470.2-271.9c-196.2-18.4-376.1-34.7-400.7-34.7c-32.7-2-59.3-38.8-118.6-179.9c-42.9-100.2-79.7-181.9-83.8-186c-2.1-2-265.7,353.6-584.6,793.1L3454.5,3023l-73.6-2C3342.1,3018.9,3164.3,3002.5,2986.4,2982.1z"/>
<path d="M866.6-394.9V-1280l-251.4,251.4c-137,137-259.6,249.4-269.8,249.4c-12.3,0-71.5-51.1-132.9-112.4L100-1004.1l476.3-476.3l474.3-474.3l470.2,470.2l470.2,470.2l-122.7,122.6L1745.6-769l-251.4-251.4c-137-137-257.6-249.4-265.7-249.4c-8.2,0-14.3,396.6-14.3,879v879h-173.8H866.6V-394.9z"/>
</g>
</g>
</svg>