<?xml version="1.0" encoding="utf-8"?>
<!-- Uploaded to: SVG Repo, www.svgrepo.com, Generator: SVG Repo Mixer Tools -->
<!DOCTYPE svg PUBLIC "-//W3C//DTD SVG 1.1//EN" "http://www.w3.org/Graphics/SVG/1.1/DTD/svg11.dtd">
<svg fill="#000000" width="800px" height="800px" viewBox="0 0 1000 1000" version="1.1" xmlns="http://www.w3.org/2000/svg" xmlns:xlink="http://www.w3.org/1999/xlink"  enable-background="new 0 0 1000 1000" xml:space="preserve">

<g>
<g transform="translate(0.000000,512.000000) scale(0.100000,-0.100000)">
<path d="M2309.8,4574L1865.7,4130l114.8-114.8l114.8-114.8l248.8,248.8l248.8,248.8V2746.1V1094.3l158.9,5.7l157,5.7l5.7,1636.5l3.8,1636.5l239.3-239.3l239.3-239.3l118.7,120.6l120.6,118.7L3196,4579.8L2755.8,5020L2309.8,4574z"/>
<path d="M5852.7,3528.9l-321.6-185.7l-9.6-396.2l-9.6-396.2l-151.2,86.1c-82.3,47.9-158.9,86.1-172.3,86.1c-11.5-1.9-158.9-82.3-327.3-179.9L4555,2363.3L4545.4,654l-9.6-1711.2l-68.9,114.8c-36.4,63.2-147.4,254.6-245,426.8L4042-205.4h-377.1h-377.1L3102.2-527c-101.5-176.1-183.8-327.3-183.8-333c0-7.6,147.4-268,325.4-578.1l327.3-564.6l95.7-465.1l95.7-465.1l553.2-555.1l555.1-555.1v-369.4V-4780h162.7h162.7v444.1v446l-572.3,574.2l-570.4,574.2l-82.3,411.5c-44,225.9-95.7,442.1-114.8,478.5c-19.1,36.4-155,275.6-302.4,532.1L3284-854.3l95.7,162.7l95.7,160.8H3663h189.5l503.4-874.7l505.3-874.7L4867-50.4l3.8,2228l162.7,91.9l162.7,91.9l157-91.9l158.9-93.8l5.7-1353.2l3.8-1353.2h162.7H5847v1843.2v1841.3l162.7,91.9l162.7,93.8l162.7-91.9l162.7-91.9V1312.5V-530.8h162.7h162.7v229.7v227.8l164.6,97.6l162.7,95.7l174.2-90l172.3-91.9l-7.7-233.5l-7.6-235.4h158.9h158.9V-370v158.9l158.9,91.9c86.1,51.7,166.5,91.9,176.1,91.9c11.5,0,90-40.2,178-91.9l157-91.9v-980v-980l-335-891.9l-335-892v-413.4V-4780H7962h162.7l1.9,158.9c0,86.1,1.9,268,5.8,405.8l5.7,248.8l327.3,869l329.2,867.1v1098.7V-33.1l-70.8,45.9c-40.2,24.9-187.6,112.9-329.2,193.3l-258.4,149.3l-95.7-55.5c-53.6-28.7-130.2-70.8-168.4-93.8l-70.8-38.3l-325.4,160.8l-323.5,162.7l-155.1-90c-84.2-49.8-158.9-90-164.6-90s-11.5,683.3-13.4,1515.9l-5.7,1517.8l-319.6,183.8l-319.7,185.7L5852.7,3528.9z"/>
<path d="M1936.5,3379.6c-7.7-5.7-13.4-748.4-13.4-1649.9V91.3l-245,245l-243.1,243.1l-114.8-114.8l-114.8-114.8l446-446l444.1-444.1l444.1,444.1l446,446l-120.6,118.7l-118.7,120.6l-248.8-248.8L2248.5,91.3v1651.8V3393h-149.3C2016.9,3393,1942.3,3387.3,1936.5,3379.6z"/>
</g>
</g>
</svg>