<?xml version="1.0" encoding="utf-8"?>
<!-- Uploaded to: SVG Repo, www.svgrepo.com, Generator: SVG Repo Mixer Tools -->
<!DOCTYPE svg PUBLIC "-//W3C//DTD SVG 1.1//EN" "http://www.w3.org/Graphics/SVG/1.1/DTD/svg11.dtd">
<svg fill="#000000" width="800px" height="800px" viewBox="0 0 1000 1000" version="1.1" xmlns="http://www.w3.org/2000/svg" xmlns:xlink="http://www.w3.org/1999/xlink"  enable-background="new 0 0 1000 1000" xml:space="preserve">

<g>
<g transform="translate(0.000000,511.000000) scale(0.100000,-0.100000)">
<path d="M4132.9,4590.3L4020,4475.5l251.4-251.4l253.4-253.4h-1372h-1370v-168.3V3634h1370h1372l-257.4-257.4l-257.4-257.4l108.9-108.9c59.4-59.4,116.8-108.9,128.7-108.9c9.9,0,223.7,201.9,471.2,451.4l449.4,449.4l-451.4,451.4c-247.5,247.5-453.4,449.4-459.3,449.4C4251.6,4703.1,4196.2,4651.7,4132.9,4590.3z"/>
<path d="M6861,4111.2l-336.6-196l-9.9-405.9l-9.9-405.9l-160.4,95l-160.4,95l-334.6-196l-334.6-194l-9.9-1762l-9.9-1762l-249.4,429.6L4998,238.7l-396,4l-394,5.9L4014.1-88l-192-336.6l344.5-599.9l344.5-597.9l93.1-465.3l93.1-465.3l572.1-574.1l572.2-574.1v-392v-390h168.3H6178v459.3v461.3l-584,584l-582.1,584l-93,451.4l-93,453.4l-302.9,526.6C4354.6-674,4218-428.5,4218-420.6c0,9.9,41.6,87.1,91.1,174.2l93,158.4h200l200-2l520.7-904.8l518.7-902.8V403v2300.5l75.2,45.5c39.6,25.7,118.8,71.3,172.2,101l99,55.4l164.3-95l162.4-97V1313.7V-88h168.3h168.3v1900.6v1900.6l87.1,55.4c47.5,29.7,126.7,77.2,174.2,103l91.1,47.5l164.3-99l166.3-99l4-1829.3c2-1007.7,4-1865,5.9-1904.6V-88h168.3h168.3v1401.7v1401.7l164.3,95l162.4,95l99-55.4c55.4-29.7,132.7-75.2,174.2-101l73.3-45.5V1307.8V-88H8722h168.3V977.2v1063.2l168.3,95l168.3,95l162.4-95l164.3-97l5.9-1916.4l4-1918.4l-336.6-898.8l-336.6-896.8v-445.4v-445.5h168.3h168.3v413.8v411.8l336.6,896.9l336.6,896.8V181.3v2043.1l-328.6,190.1c-180.2,104.9-338.6,190.1-350.4,190.1c-13.9-2-91.1-41.6-172.2-89.1l-148.5-87.1l-9.9,237.6l-9.9,239.6l-334.6,192l-336.6,194l-158.4-93.1l-160.4-95l-9.9,405.9l-9.9,405.9l-237.6,138.6c-130.7,75.2-281.1,162.3-336.6,194l-101,57.4L6861,4111.2z"/>
<path d="M549.4,3578.6L100,3129.2l461.3-461.3l459.3-459.3l118.8,118.8l118.8,118.8l-257.4,257.4l-257.4,257.4h1372h1370v168.3v168.3H2125.3H763.2l247.5,247.5l247.5,247.5l-118.8,118.8c-65.3,65.3-122.8,118.8-128.7,118.8C1004.8,4030,796.9,3828.1,549.4,3578.6z"/>
</g>
</g>
</svg>