<?xml version="1.0" encoding="utf-8"?>
<!-- Uploaded to: SVG Repo, www.svgrepo.com, Generator: SVG Repo Mixer Tools -->
<!DOCTYPE svg PUBLIC "-//W3C//DTD SVG 1.1//EN" "http://www.w3.org/Graphics/SVG/1.1/DTD/svg11.dtd">
<svg fill="#000000" width="800px" height="800px" viewBox="0 0 1000 1000" version="1.1" xmlns="http://www.w3.org/2000/svg" xmlns:xlink="http://www.w3.org/1999/xlink"  enable-background="new 0 0 1000 1000" xml:space="preserve">

<g>
<g transform="translate(0.000000,511.000000) scale(0.100000,-0.100000)">
<path d="M1981.4,3311.7V1613.3L1734,1860.8l-247.4,247.4l-118.8-118.8L1249,1870.7l455.3-455.3l455.3-455.3l455.3,455.3l455.3,455.3l-118.8,118.8l-118.8,118.8l-247.4-247.4l-247.4-247.4l-4,1692.4l-5.9,1692.4l-172.2,5.9l-174.2,5.9V3311.7z"/>
<path d="M4683.3,2781.2l-316.7-184.1l-5.9-1324.2l-5.9-1322.2l-671-475l-671-475l-2-827.4v-825.4l667.1-1068.9l669-1068.9h192c106.9,0,194,3.9,194,9.9c0,5.9-310.8,508.7-692.8,1118.3l-692.8,1108.5v686.8v688.8l486.9,346.4c267.2,190,494.8,350.3,504.7,352.3c9.9,4,17.8-318.7,17.8-795.7v-803.6h168.2h168.3V164.4v2240.7l170.2,95l168.2,95l166.3-95l166.3-95l2-1399.4V-395.7h168.2h168.3v342.4v340.5l168.2,95c93,53.4,176.2,93,184.1,89.1c7.9-3.9,83.1-43.5,168.2-91l152.4-85.1V-51.3v-344.4H6542c132.6,0,168.2,5.9,178.1,31.7c5.9,17.8,11.9,122.7,11.9,235.6V75.3l164.3,93c89.1,51.5,168.2,97,174.2,100.9c6,4,85.1-37.6,176.2-89.1l164.3-95l-4-239.5l-3.9-241.5h168.2h170.2v168.2v168.3l75.2,45.5c39.6,25.8,112.8,69.3,162.3,97l91,51.5l172.2-99l172.2-99v-1017.4V-2098L8078-2994.7l-336.5-898.6v-447.3V-4790h168.2H8078v415.7v415.7l336.5,896.7l336.5,898.6v1146.1V128.8l-336.5,194c-186.1,106.9-344.4,192-352.3,188c-7.9-4-85.1-45.5-170.3-93l-156.3-87.1L7405,495l-332.5,164.3l-160.3-93c-95-55.4-174.2-91-192-83.1c-27.7,9.9-457.3,255.3-611.6,350.4l-59.4,35.6l-168.2-97l-168.3-97l-9.9,962l-9.9,960l-316.7,186.1c-174.2,100.9-330.6,184.1-346.4,184.1C5013.9,2967.3,4857.5,2882.1,4683.3,2781.2z"/>
</g>
</g>
</svg>