<?xml version="1.0" encoding="utf-8"?>
<!-- Uploaded to: SVG Repo, www.svgrepo.com, Generator: SVG Repo Mixer Tools -->
<!DOCTYPE svg PUBLIC "-//W3C//DTD SVG 1.1//EN" "http://www.w3.org/Graphics/SVG/1.1/DTD/svg11.dtd">
<svg fill="#000000" width="800px" height="800px" viewBox="0 0 1000 1000" version="1.1" xmlns="http://www.w3.org/2000/svg" xmlns:xlink="http://www.w3.org/1999/xlink"  enable-background="new 0 0 1000 1000" xml:space="preserve">

<g>
<g transform="translate(0.000000,511.000000) scale(0.100000,-0.100000)">
<path d="M1981.4,3311.7V1613.3L1734,1860.8l-247.4,247.4l-118.8-118.8L1249,1870.7l455.3-455.3l455.3-455.3l455.3,455.3l455.3,455.3l-118.8,118.8l-118.8,118.8l-247.4-247.4l-247.4-247.4l-4,1692.4l-5.9,1692.4l-172.2,5.9l-174.2,5.9V3311.7z"/>
<path d="M5708.6,3802.6l-332.5-192l-9.9-409.7l-9.9-409.7l-156.4,89.1c-85.1,49.5-164.3,89.1-178.1,89.1c-11.9-2-164.3-85.1-338.5-186.1l-316.7-186.1l-9.9-1767.6l-9.9-1769.6l-71.3,118.8c-37.6,65.3-152.4,263.2-253.4,441.4L3836.1-59.2h-389.9h-389.9l-192-332.5c-104.9-182.1-190-338.5-190-344.4c0-7.9,152.4-277.1,336.5-597.8l338.5-583.9l99-481l99-481l572-574l574-574v-382v-380h168.3h168.2v459.2v461.2l-591.8,593.8L3848-2681.9l-85.1,425.6c-45.5,233.5-99,457.2-118.8,494.8c-19.8,37.6-160.3,285-312.7,550.3l-279.1,481l99,168.2l99,166.3h194h196l520.6-904.6l522.6-904.6l5.9,2306l4,2304l168.3,95l168.2,95l162.3-95l164.3-97l5.9-1399.4l4-1399.4h168.2h168.3v1906.1v1904.2l168.2,95l168.2,97l168.3-95l168.2-95V1510.4V-395.7h168.2h168.3v237.5V77.3l170.2,100.9l168.2,99l180.1-93l178.2-95l-7.9-241.5l-7.9-243.4h164.3h164.3v166.3v164.3l164.3,95c89.1,53.4,172.2,95,182.1,95c11.9,0,93-41.6,184.1-95l162.3-95v-1013.4v-1013.5l-346.4-922.4l-346.4-922.4v-427.5V-4790h168.2h168.3l2,164.3c0,89.1,2,277.1,6,419.6l5.9,257.3l338.5,898.7l340.4,896.6v1136.2V118.9l-73.2,47.5c-41.6,25.7-194,116.8-340.5,199.9L8070,520.7l-99-57.4c-55.4-29.7-134.6-73.2-174.2-97l-73.2-39.6L7387.1,493l-334.5,168.3l-160.3-93c-87.1-51.5-164.3-93-170.2-93s-11.9,706.7-13.9,1567.7l-5.9,1569.7l-330.6,190l-330.5,192L5708.6,3802.6z"/>
</g>
</g>
</svg>