<?xml version="1.0" encoding="utf-8"?>
<!-- Uploaded to: SVG Repo, www.svgrepo.com, Generator: SVG Repo Mixer Tools -->
<!DOCTYPE svg PUBLIC "-//W3C//DTD SVG 1.1//EN" "http://www.w3.org/Graphics/SVG/1.1/DTD/svg11.dtd">
<svg fill="#000000" width="800px" height="800px" viewBox="0 0 1000 1000" version="1.1" xmlns="http://www.w3.org/2000/svg" xmlns:xlink="http://www.w3.org/1999/xlink"  enable-background="new 0 0 1000 1000" xml:space="preserve">

<g>
<g transform="translate(0.000000,511.000000) scale(0.100000,-0.100000)">
<path d="M1666.8,3057.1l-1224-1226v369v367H271.4H100v-655.4v-655.3h655.4h655.3v171.4v171.4h-356.9H694.9l1226,1226l1224,1224l-116.9,116.9c-64.5,62.5-121,114.9-125,114.9C2896.8,4281,2342.3,3730.6,1666.8,3057.1z"/>
<path d="M3078.3,2788.9c-175.4-18.1-320.6-38.3-324.7-42.3c-2-4-76.6-167.4-161.3-363l-157.3-356.9l752.1-1034.5C3600.6,421.5,3955.5-66.4,3975.6-94.7c36.3-50.4,34.3-54.5-225.8-836.8c-143.2-431.5-262.1-796.5-262.1-810.6c0-14.1,217.8-322.6,483.9-687.6l484-665.4l276.3-110.9c153.2-62.5,691.6-278.3,1195.8-484l917.5-371l155.3,112.9c86.7,62.5,157.3,117,157.3,123c0,6-514.2,217.8-1143.3,471.9c-631.2,254.1-1191.7,481.9-1246.2,506.1c-94.8,40.3-123,74.6-500.1,590.8c-217.8,302.5-397.2,560.6-397.2,574.7c0,12.1,86.7,286.3,193.6,604.9C4221.6-606.9,4264-500,4284.2-522.2c18.1-20.2,367-500.1,945.7-1300.6c6-8.1,272.2,185.5,274.2,197.6c0,8.1-602.9,840.9-1338.9,1855.2L2826.3,2073l50.4,110.9c26.2,60.5,64.5,143.2,82.7,181.5l34.3,70.6l195.6,20.2l193.6,20.2L4213.6,1333c457.7-631.2,840.9-1145.3,848.9-1145.3c26.2,0,258.1,169.4,260.1,189.5c0,8.1-82.7,129.1-183.5,268.2c-98.8,137.1-187.5,264.2-193.6,280.3c-6,18.1,22.2,106.9,64.5,199.6c82.7,187.5,74.6,181.5,322.6,201.7L5494,1339l191.6-272.2c104.9-149.2,199.6-272.2,207.7-274.2c38.3-2,276.3,185.5,262.1,207.7c-8.1,14.1-66.5,104.9-131.1,201.6c-133.1,197.6-131.1,175.4-24.2,407.3c60.5,133.1,76.6,151.2,125,153.3c30.3,0,117,6,193.6,16.1l137.1,14.1l133.1-197.6c72.6-108.9,137.1-197.6,145.2-197.6c20.2,0,262.1,181.5,262.1,197.6c0,8.1-42.3,68.6-90.7,133.1c-50.4,66.6-90.7,127-90.7,137.1c0,10.1,32.3,94.8,72.6,187.5c82.7,187.5,72.6,181.5,320.6,201.6l161.3,12.1l564.6-780.4c310.5-429.5,584.8-808.6,611-844.9c32.3-44.4,129.1-367,306.5-1008.2l260.1-941.7l127-175.4c68.5-94.7,187.5-258.1,264.2-360.9l137.1-187.5l64.5,48.4c36.3,26.2,94.8,68.6,131.1,94.8c34.3,26.2,64.5,54.5,64.5,64.5c0,8-106.9,163.3-237.9,344.8l-237.9,328.7l-167.4,613C9164-201.5,9047,223.9,8994.6,407.4l-94.8,334.7l-681.6,937.7c-375,516.2-685.6,941.7-687.6,943.7c-12.1,14.1-784.4-76.6-796.5-92.7c-8.1-8.1-44.4-84.7-82.7-173.4c-42.4-100.8-82.7-163.3-108.9-173.4c-22.2-8.1-189.6-36.3-371-62.5l-330.7-48.4l-86.7-185.5c-62.5-133.1-96.8-187.5-123-187.5c-68.6,0-756.2-80.7-770.3-88.7c-8.1-6.1-46.4-82.7-84.7-171.4c-38.3-90.7-74.6-163.3-82.7-163.3c-6,0-266.2,348.8-574.7,774.3l-560.6,776.3l-80.7-2C3433.2,2825.2,3253.7,2809,3078.3,2788.9z"/>
</g>
</g>
</svg>