<?xml version="1.0" encoding="utf-8"?>
<!-- Uploaded to: SVG Repo, www.svgrepo.com, Generator: SVG Repo Mixer Tools -->
<!DOCTYPE svg PUBLIC "-//W3C//DTD SVG 1.1//EN" "http://www.w3.org/Graphics/SVG/1.1/DTD/svg11.dtd">
<svg fill="#000000" width="800px" height="800px" viewBox="0 0 1000 1000" version="1.1" xmlns="http://www.w3.org/2000/svg" xmlns:xlink="http://www.w3.org/1999/xlink"  enable-background="new 0 0 1000 1000" xml:space="preserve">

<g>
<g transform="translate(0.000000,512.000000) scale(0.100000,-0.100000)">
<path d="M965.8,3336.9v-1685l-245.5,245.5l-245.5,245.5l-121.8-123.7l-123.7-121.8l441.9-441.9c243.5-243.5,449.7-441.9,461.5-441.9c11.8,0,221.9,200.3,467.4,447.8l445.8,445.8L1928.1,2025l-117.8,117.8L1555,1887.5l-255.3-255.3v1694.9V5020h-166.9H965.8V3336.9z"/>
<path d="M3332.3,3075.7c-161-19.6-294.6-35.4-296.6-37.3c-25.5-29.5-304.4-697.2-296.6-712.9c3.9-13.7,108-161,227.8-328c121.8-165,216-306.4,210.1-310.3c-5.9-5.9-86.4-19.6-182.6-29.5c-94.3-9.8-174.8-21.6-176.8-23.6c-3.9-3.9-76.6-163-163-353.5l-155.1-349.6L3517-469.2C4078.6-1241,4542.1-1881.2,4548-1891.1c7.9-11.8-86.4,23.6-208.2,78.6c-616.7,276.9-705,314.2-728.6,300.5c-17.7-11.8-241.6-172.8-599-432.1c-9.8-7.9,68.7-750.2,82.5-769.9c5.9-7.9,284.8-139.5,622.6-288.7l612.7-273l351.6-322.1l353.5-324.1l785.6-123.7c432.1-68.7,791.5-129.6,801.3-135.5c7.9-5.9,112-141.4,227.8-304.4c117.8-161,222-294.6,229.8-294.6c9.8,0,74.6,41.2,143.4,92.3l123.7,90.3l-58.9,80.5c-33.4,45.2-153.2,210.1-267.1,367.2l-206.2,284.8l-789.5,125.7c-432.1,68.7-801.3,129.6-819,135.5c-17.7,5.9-182.6,149.3-367.3,316.2L4504.8-2983l-551.9,243.5c-333.9,147.3-553.8,257.3-559.7,275c-5.9,17.7-13.8,106-21.6,198.3l-11.8,166.9l153.2,110l153.2,110l942.7-418.3c516.5-231.8,942.7-418.3,944.6-414.4c2,2-583.3,813.1-1302.1,1800.9C3532.7,76.8,2931.7,905.6,2916,931.1c-29.5,41.2-25.5,57,43.2,220c84.4,196.4,60.9,182.6,343.7,206.2l127.7,11.8l805.2-1113.5c441.9-610.8,809.2-1113.5,817-1119.4c7.9-3.9,188.5,113.9,269.1,178.7c3.9,3.9-487.1,685.4-1090,1514.2c-602.9,830.7-1103.7,1520.1-1111.6,1531.9c-7.9,13.7,21.6,102.1,62.8,196.4l78.6,174.8l182.6,21.6c172.8,19.6,184.6,17.7,223.9-19.6c29.5-29.5,2091.6-2857.5,2189.8-3002.8c15.7-21.6,263.2,159.1,261.2,190.5c-2,11.8-357.4,512.6-793.4,1111.6c-434,599-793.4,1099.8-799.3,1113.5c-5.9,15.7,21.6,100.2,62.9,190.5c82.5,184.6,72.7,178.7,314.2,198.4l157.1,11.8L5834.4,1479c424.2-587.2,791.5-1091.9,815-1119.4l41.2-51.1l131.6,98.2l131.6,98.2l-475.3,652c-259.2,359.4-538.1,742.4-616.7,850.4l-145.3,200.3l76.6,172.8l76.6,174.8l96.2,11.8c53,7.9,141.4,17.7,194.4,23.6l98.2,9.8L7380,1056.8L8501.4-488.8l251.4-913.2l249.4-913.2l245.5-339.8c135.5-186.6,253.3-343.7,263.2-349.6c25.5-13.8,273,172.8,259.2,196.4c-7.9,11.8-111.9,159.1-235.7,327.9l-221.9,306.4L9067-1282.3c-135.5,491-253.4,911.3-265.1,934.9C8788.1-316,6437.3,2938.2,6417.7,2950c0,2-172.8-15.7-383-39.3l-383-41.2l-80.5-174.8l-80.5-174.8l-135.5,184.6c-72.7,102.1-135.5,188.5-139.4,190.5c-7.9,9.8-750.2-68.7-769.9-80.5c-7.9-5.9-45.2-82.5-82.5-168.9c-37.3-88.4-74.6-157.1-84.4-153.2c-7.9,2-115.9,141.4-237.6,308.3l-220,304.4l-98.2,2C3670.1,3109.1,3495.4,3095.4,3332.3,3075.7z"/>
</g>
</g>
</svg>