<?xml version="1.0" encoding="utf-8"?>
<!-- Uploaded to: SVG Repo, www.svgrepo.com, Generator: SVG Repo Mixer Tools -->
<!DOCTYPE svg PUBLIC "-//W3C//DTD SVG 1.1//EN" "http://www.w3.org/Graphics/SVG/1.1/DTD/svg11.dtd">
<svg fill="#000000" width="800px" height="800px" viewBox="0 0 1000 1000" version="1.1" xmlns="http://www.w3.org/2000/svg" xmlns:xlink="http://www.w3.org/1999/xlink"  enable-background="new 0 0 1000 1000" xml:space="preserve">

<g>
<g transform="translate(0.000000,511.000000) scale(0.100000,-0.100000)">
<path d="M6164,4895l-115-117l256.2-256.2l258.2-258.2H4822.5H3083.6v-171.5v-171.5h1738.9h1740.9l-262.2-262.3l-262.2-262.3l121-121l121-121l468,468l470,470l-457.9,457.9c-252.2,254.2-464,459.9-470,459.9S6228.5,4957.5,6164,4895z"/>
<path d="M6464.6,2054.7c-510.4-704-932-1274.9-938-1268.9c-6.1,6.1-48.4,84.7-92.8,175.5l-80.7,165.4l-371.2,60.5l-373.2,60.5l-84.7,183.6l-84.7,183.6l-359.1,34.3c-199.7,20.2-377.2,38.3-395.4,40.3c-22.2,2-256.2-304.6-724.2-946.1l-687.9-948.1l-262.2-944.1l-260.2-946.1l-240.1-330.8c-133.1-183.6-242.1-334.9-242.1-338.9c0-8,256.2-193.7,268.3-193.7c6.1,0,129.1,161.4,272.3,357.1l260.2,359.1l258.2,942.1L2587.3-358l611.2,843.2l613.3,843.2l125.1-8.1c276.4-14.1,268.3-10.1,359.1-211.8l78.7-179.5l-98.8-133.1c-115-151.3-119-135.2,70.6-270.3l102.9-74.6l135.2,203.7l135.2,203.8l125.1-14.1C5131.1,812,5125.1,814,5183.6,693c121-248.1,121-234-30.3-443.8c-72.6-102.9-133.1-193.7-133.1-201.7c0-14.1,264.3-207.8,272.3-197.7c2,4,514.4,710.1,1139.8,1569.4C7055.6,2278.6,7568,2982.6,7570,2984.6c0,0,88.8-8.1,195.7-18.2l195.7-18.2l82.7-183.6c50.4-108.9,76.7-189.6,66.6-203.8C7969.5,2377.4,5845.3-561.8,5851.3-565.8c92.8-80.7,268.3-191.6,280.4-179.5c8.1,8,385.3,524.5,837.2,1145.8l821,1129.7l98.9-2c54.5-2,145.2-10.1,203.7-16.1l104.9-14.1l78.7-179.5l76.7-179.5l-90.8-127.1c-50.4-70.6-667.7-921.9-1373.8-1892.2c-704-970.3-1278.9-1765.1-1276.9-1769.2c4-2,423.6,181.6,934,409.5c508.4,225.9,946.1,417.6,970.3,423.6c32.3,8.1,86.7-18.1,197.7-96.8l153.3-106.9l-12.1-141.2c-24.2-288.5,40.3-234-601.2-516.4L6686.4-2928l-349-320.8l-349-318.7l-810.9-129.1c-447.8-70.6-821-129.1-833.1-129.1c-20.2,0-127.1-143.2-498.3-657.6l-76.7-104.9l139.2-100.9l139.2-100.9l225.9,310.6c123.1,169.5,232,314.7,242.1,320.8c10.1,6,361.1,64.6,780.7,131.1c419.6,66.6,782.7,125.1,808.9,131.1c26.2,6.1,203.8,155.3,393.4,330.8c191.6,175.5,385.3,338.9,429.7,361.1c44.4,22.2,330.8,151.3,635.4,286.5c302.6,135.2,558.8,252.2,566.9,258.2c18.1,18.2,100.9,768.6,86.7,790.8c-10.1,16.1-546.7,413.5-609.2,449.9c-16.1,10.1-199.7-60.5-500.3-193.7c-260.2-117-468-201.7-459.9-189.6c8.1,14.1,480.1,665.7,1049,1448.4C8266,430.8,8732,1084.3,8732,1098.5c0,16.1-68.6,183.6-153.3,375.2l-155.3,347l-133.2,12.1c-161.4,16.1-244.1,30.3-244.1,44.4c0,4,104.9,153.3,232,328.8c127.1,173.5,232,324.8,232,332.9c0,16.1-302.6,702-314.7,716.1c-12.1,12.1-623.3,78.7-724.2,78.7h-80.7L6464.6,2054.7z"/>
</g>
</g>
</svg>