<?xml version="1.0" encoding="utf-8"?>
<!-- Uploaded to: SVG Repo, www.svgrepo.com, Generator: SVG Repo Mixer Tools -->
<!DOCTYPE svg PUBLIC "-//W3C//DTD SVG 1.1//EN" "http://www.w3.org/Graphics/SVG/1.1/DTD/svg11.dtd">
<svg fill="#000000" width="800px" height="800px" viewBox="0 0 1000 1000" version="1.1" xmlns="http://www.w3.org/2000/svg" xmlns:xlink="http://www.w3.org/1999/xlink"  enable-background="new 0 0 1000 1000" xml:space="preserve">

<g>
<g transform="translate(0.000000,511.000000) scale(0.100000,-0.100000)">
<path d="M1779.7,3822.1C1126.3,3168.8,585.9,2634.2,577.9,2634.2c-9.9,0-15.8,156.4-15.8,346.5v346.5H393.8H225.5v-643.4v-643.4H869h643.4v168.3v168.3H1162H809.6l1203.7,1203.7L3215,4782.3l-114.8,114.8c-63.4,61.4-118.8,112.9-122.7,112.9C2971.5,5010,2433,4475.5,1779.7,3822.1z"/>
<path d="M3290.2,3131.2c-160.4-17.8-298.9-39.6-308.8-51.5c-9.9-9.9-39.6-73.3-69.3-138.6c-27.7-65.3-95-217.8-148.5-336.6l-97-219.8l235.6-324.7l235.6-326.7l-55.4-13.9c-29.7-7.9-116.8-19.8-192-29.7l-136.6-15.8l-156.4-352.4l-154.4-354.4L3199.2-74.1c415.8-574.2,879-1211.6,1029.5-1417.5c150.5-205.9,269.2-378.1,265.3-382.1c-4-4-209.9,81.2-455.4,192c-247.5,108.9-461.3,192.1-473.2,186.1c-19.8-11.9-582.1-415.8-605.8-435.6c-11.9-9.9,61.4-704.8,77.2-752.3c11.9-29.7,176.2-110.9,629.6-312.8c685-306.9,574.1-231.6,1140.4-752.3l192-176.2l786-124.7c431.6-69.3,791.9-126.7,799.9-126.7c5.9,0,112.9-138.6,235.6-306.9c122.7-168.3,229.7-306.9,239.6-306.9c25.7,0,251.4,166.3,253.4,186.1c0,7.9-118.8,178.2-261.3,376.2l-263.3,362.3l-791.9,122.8c-435.6,67.3-807.8,128.7-825.6,136.6c-19.8,7.9-184.1,150.5-370.2,318.8l-334.6,304.9L3906-2733l-562.3,251.4l-17.8,194l-17.8,196l55.4,41.6c31.7,23.7,103,73.2,158.4,112.8l99,71.3l948.3-423.7c520.7-231.6,950.3-419.7,952.3-417.7c2,4-592,825.6-1320.5,1827.4C3472.4,121.9,2866.6,961.3,2854.7,985.1c-17.8,35.6-7.9,75.2,53.5,211.8c83.2,190.1,75.2,184.1,356.4,196l116.8,4l669.2-920.6C4418.7-30.6,4787-535.4,4868.2-648.3l148.5-203.9l120.8,85.1c67.3,45.5,124.7,95,130.7,108.9c5.9,11.9-491,710.8-1100.8,1552.2c-845.4,1162.1-1108.7,1536.3-1098.8,1566c5.9,21.8,41.6,102.9,77.2,184.1l65.3,144.5l186.1,17.8c156.4,15.8,188.1,13.9,215.8-13.9c17.8-15.8,520.7-702.8,1116.6-1524.4C5325.5,446.6,5818.5-232.5,5826.4-240.4c9.9-11.9,188.1,101,277.2,174.2c3.9,4-57.4,95-134.6,201.9l-140.5,196l81.2,178.2l81.2,178.2l198,23.8c108.9,13.9,205.9,17.8,213.8,7.9c7.9-7.9,69.3-99,136.6-198l120.8-184.1l128.7,93.1c71.3,51.5,128.7,99,128.7,108.9c0,9.9-39.6,71.3-89.1,138.6c-49.5,67.3-89.1,128.7-89.1,136.6s35.6,89.1,77.2,182.1l77.2,166.3l114.8,13.9c65.3,7.9,152.4,17.8,196,21.8l79.2,9.9L7729,593.1c245.5-340.5,514.7-714.7,601.9-833.5l154.4-213.8l245.5-886.9c134.6-487.1,253.4-908.7,263.3-936.4c11.9-35.7,358.3-530.6,510.8-728.6c13.9-19.8,281.1,184.1,269.2,203.9c-7.9,11.9-110.9,154.4-229.6,316.8c-118.8,160.4-223.7,312.8-233.6,336.6c-9.9,21.8-128.7,445.4-265.3,940.4c-213.8,774.1-257.4,910.7-312.8,989.9c-67.3,93-1284.9,1771.9-1288.9,1775.9c-2,2-176.2-15.8-392-37.6l-388-41.6l-79.2-178.2l-77.2-180.2l-368.2-61.4c-203.9-33.6-374.2-65.3-380.1-69.3c-4-5.9-35.6-75.2-71.3-156.4c-33.7-81.2-69.3-156.4-77.2-164.3c-7.9-9.9-427.6,548.4-930.5,1241.3l-914.7,1259.2l-91.1-2C3622.9,3164.8,3450.6,3149,3290.2,3131.2z"/>
</g>
</g>
</svg>