<?xml version="1.0" encoding="utf-8"?>
<!-- Uploaded to: SVG Repo, www.svgrepo.com, Generator: SVG Repo Mixer Tools -->
<!DOCTYPE svg PUBLIC "-//W3C//DTD SVG 1.1//EN" "http://www.w3.org/Graphics/SVG/1.1/DTD/svg11.dtd">
<svg fill="#000000" width="800px" height="800px" viewBox="0 0 1000 1000" version="1.1" xmlns="http://www.w3.org/2000/svg" xmlns:xlink="http://www.w3.org/1999/xlink"  enable-background="new 0 0 1000 1000" xml:space="preserve">

<g>
<g transform="translate(0.000000,511.000000) scale(0.100000,-0.100000)">
<path d="M3252.2,4545.3l-464.7-464.7l464.7-464.7l464.7-464.7l125.3,125.3l127.3,127.3l-256.6,256.6l-258.6,258.6h1733.7h1731.7v171.7v171.8H5187.9H3454.2l258.6,258.6l256.6,256.6l-117.2,117.2c-64.7,62.6-121.2,115.2-125.3,115.2C3720.9,5010,3506.8,4801.9,3252.2,4545.3z"/>
<path d="M2126.7,3294.5c-163.7-18.2-305.1-40.4-317.2-52.5c-16.2-16.2-179.8-375.8-297-648.6c-26.3-62.6-24.2-64.7,214.2-394l240.4-331.4l-74.8-14.2c-40.4-8.1-129.3-22.2-194-30.3l-119.2-16.2l-159.6-351.6c-86.9-194-157.6-357.7-157.6-365.7c0-6.1,472.8-662.8,1048.7-1454.9c577.9-794.1,1046.7-1446.8,1042.6-1450.8c-4-4.1-216.2,84.9-470.8,198l-462.7,206.1l-317.2-230.4l-315.2-228.3l2-80.8c0-109.1,68.7-713.3,78.8-723.4c6.1-4,293-131.3,636.5-284.9l626.4-276.8l363.7-333.4c200-181.9,381.9-335.4,404.1-341.5c22.2-6,390-64.7,818.4-131.3c428.4-68.7,784-129.3,790.1-137.4c8.1-8.1,111.1-147.5,228.3-311.2c119.2-165.7,224.3-299,234.4-299c18.2,0,262.7,177.8,262.7,192c0,20.2-531.4,741.6-553.7,749.6c-12.1,4-371.8,62.6-800.2,129.3c-428.4,66.7-796.1,125.3-818.3,131.3c-22.2,4-198,151.5-390,325.3l-347.5,317.2l-569.8,254.6L2181.2-2436l-12.1,101c-8.1,56.6-18.2,143.5-24.2,198l-10.1,95l161.7,119.2l161.6,117.2l963.8-428.4c529.4-236.4,965.9-426.3,969.9-424.3c2,4-612.2,858.8-1368,1899.4l-1374,1891.3l78.8,175.8c86.9,196,78.8,192,325.3,214.2l155.6,14.2L3042,388.8c456.7-630.4,834.5-1151.7,838.6-1153.8c2-4,64.7,34.4,139.4,86.9c92.9,66.7,129.3,105.1,121.2,127.3c-6.1,16.1-515.3,723.4-1131.6,1572c-616.3,846.7-1121.4,1551.8-1121.4,1561.9c0,12.1,34.4,97,78.8,192l78.8,169.7l187.9,18.2c129.3,12.1,198,12.1,212.2-4c14.1-10.1,521.3-707.2,1129.5-1545.8C4183.7,574.7,4692.9-124.4,4705-138.5c20.2-20.2,46.5-8.1,135.4,58.6c58.6,44.5,121.2,88.9,137.4,99c22.2,12.1,0,54.6-101,194c-72.7,99-137.4,189.9-145.5,204.1c-8.1,14.1,20.2,105.1,64.7,202.1l80.8,177.8l177.8,24.2c97,14.1,194,24.2,212.2,20.2c18.2-2,90.9-92.9,163.7-202.1l129.3-198l129.3,95c70.7,52.5,133.4,97,137.4,101c4,4-26.3,58.6-70.7,121.2c-42.5,60.6-86.9,123.3-97,139.4c-14.1,18.2,4,82.8,58.6,208.1l76.8,181.9l194,20.2c175.8,20.2,198,20.2,226.3-12.1c18.2-18.2,297-400.1,622.4-846.7l588-812.3l234.4-844.6c127.3-464.7,246.5-891.1,262.7-949.7c20.2-72.7,105.1-206.1,282.9-454.6c139.4-192,258.7-351.6,266.7-355.6c20.2-6.1,266.7,173.8,266.7,194c0,8.1-107.1,163.7-236.4,343.5l-238.4,327.3l-260.7,943.6L7744-215.3l-666.8,921.4c-367.8,505.2-683,933.5-701.2,951.7c-30.3,30.3-58.6,30.3-365.7-4c-183.9-20.2-357.7-36.4-385.9-36.4c-46.5-2-62.6-24.2-137.4-189.9l-84.9-185.9l-357.7-58.6c-196-32.3-367.8-62.6-379.9-66.7c-12.1-4-56.6-84.9-99-177.8c-42.4-95-82.8-165.7-92.9-161.7c-8.1,6.1-432.4,584-939.6,1283.1l-923.4,1273l-92.9-2C2466.1,3328.8,2290.3,3312.7,2126.7,3294.5z"/>
</g>
</g>
</svg>