<?xml version="1.0" encoding="utf-8"?>
<!-- Uploaded to: SVG Repo, www.svgrepo.com, Generator: SVG Repo Mixer Tools -->
<!DOCTYPE svg PUBLIC "-//W3C//DTD SVG 1.1//EN" "http://www.w3.org/Graphics/SVG/1.1/DTD/svg11.dtd">
<svg fill="#000000" width="800px" height="800px" viewBox="0 0 1000 1000" version="1.1" xmlns="http://www.w3.org/2000/svg" xmlns:xlink="http://www.w3.org/1999/xlink"  enable-background="new 0 0 1000 1000" xml:space="preserve">

<g>
<g transform="translate(0.000000,511.000000) scale(0.100000,-0.100000)">
<path d="M1676.8,3819.7L445,2585.8v371.4v369.4H272.5H100V2667v-659.6h659.5h659.6V2180v172.5h-359.2H698.7l1233.9,1233.9l1231.8,1231.8l-117.7,117.7c-64.9,62.9-121.8,115.7-125.8,115.7C2914.8,5051.5,2356.7,4497.5,1676.8,3819.7z"/>
<path d="M3294.2,3300.2l-365.3-38.6l-150.2-338.9c-81.2-184.7-152.2-351.1-156.3-369.4c-6.1-20.3,85.2-164.4,225.3-355.1c129.9-178.6,235.4-328.8,235.4-334.8c0-8.1-83.2-22.3-184.7-32.5c-101.5-12.2-190.8-28.4-200.9-38.6c-20.3-24.3-310.5-681.9-310.5-708.3c0-12.2,474.9-675.8,1057.3-1477.4c580.4-799.6,1053.3-1455.1,1049.2-1455.1c-6.1,0-215.1,91.3-466.8,202.9c-251.6,111.6-466.8,202.9-478.9,202.9c-18.3,0-570.3-389.6-633.2-446.5c-16.2-14.2,20.3-438.3,58.8-724.5l12.2-83.2l643.3-288.2l641.3-286.1l263.8-243.5c146.1-134,310.5-284.1,367.3-334.9l103.5-89.3l779.3-121.8c428.2-67,797.6-127.8,819.9-131.9c24.4-6.1,133.9-142.1,263.8-324.7c123.8-172.5,227.3-312.5,233.4-314.6c6.1,0,73,44.6,146.1,97.4l136,97.4l-263.8,365.3c-146.1,198.9-271.9,371.4-280.1,379.5c-10.2,10.1-389.6,75.1-844.2,148.1c-456.6,71-842.2,142.1-860.5,156.3c-18.3,12.2-178.6,158.3-357.2,320.6L4453-2970.6L3888.9-2721c-310.5,138-572.3,265.8-582.4,282.1c-8.1,18.3-22.3,111.6-30.4,207l-14.2,174.5l138,101.5c77.1,54.8,150.2,105.5,162.3,113.6c14.2,8.1,462.7-180.6,1000.5-420.1c535.7-239.5,970-424.1,961.9-409.9c-8.1,12.2-629.1,868.6-1380,1903.6c-750.9,1035-1365.8,1889.3-1365.8,1899.5c0,12.2,36.5,97.4,79.1,192.8l79.1,172.5l198.9,14.2c180.6,14.2,200.9,12.2,225.3-22.3c16.2-22.3,393.7-541.8,842.2-1158.8L5017.2-789l140,101.5c93.3,69,133.9,109.6,121.8,125.8c-10.1,12.2-527.6,722.5-1148.6,1578.9L3000,2575.7l79.1,176.6c87.3,198.9,75.1,190.8,343,217.1l138,14.2l1142.5-1574.8C5331.7,544.3,5853.3-164,5863.4-164c20.3,0,263.8,178.6,263.8,192.8c0,6.1-375.4,527.6-834.1,1158.8l-834.1,1148.6l24.4,75.1c14.2,40.6,48.7,123.8,79.1,184.7c58.8,121.8,46.7,117.7,353.1,148.1l95.4,10.1l838.1-1154.7c458.7-635.2,842.2-1154.7,850.3-1154.7c10.1,0,75.1,42.6,148.1,95.4c83.2,58.8,125.8,101.5,113.6,115.7c-8.1,12.2-54.8,75.1-101.5,140l-87.3,119.7l77.1,170.5c42.6,95.4,91.3,180.6,107.6,188.7c18.3,10.1,109.6,24.4,205,32.5l174.5,12.2l616.9-848.3l616.9-848.3l249.6-903.1c138-497.2,257.7-929.5,269.9-959.9c32.5-95.4,529.7-767.1,556.1-750.9c12.2,8.1,73.1,50.7,133.9,95.4c60.9,44.6,115.7,83.2,119.7,87.3c4,2-103.5,154.2-239.5,338.9l-243.5,336.9l-263.8,951.8l-263.8,953.8l-673.7,929.5c-371.4,511.4-683.9,941.6-698.1,955.8c-20.3,22.3-93.3,20.3-414-14.2c-215.1-24.4-393.7-42.6-395.7-42.6c-4,0-40.6-83.2-85.2-184.7c-69-164.4-81.2-178.6-105.5-146.1c-14.2,20.3-320.6,440.4-679.8,935.5l-651.4,897l-83.2-2c-44.6,0-223.2-16.2-395.7-34.5l-314.6-34.5l-81.2-166.4c-44.6-91.3-85.2-170.5-91.3-176.6c-6.1-6.1-119.7,140-253.7,322.7c-146.1,202.9-253.7,332.8-271.9,332.8C3675.8,3342.8,3497.2,3322.5,3294.2,3300.2z"/>
</g>
</g>
</svg>