<?xml version="1.0" encoding="utf-8"?>
<!-- Uploaded to: SVG Repo, www.svgrepo.com, Generator: SVG Repo Mixer Tools -->
<!DOCTYPE svg PUBLIC "-//W3C//DTD SVG 1.1//EN" "http://www.w3.org/Graphics/SVG/1.1/DTD/svg11.dtd">
<svg fill="#000000" width="800px" height="800px" viewBox="0 0 1000 1000" version="1.1" xmlns="http://www.w3.org/2000/svg" xmlns:xlink="http://www.w3.org/1999/xlink"  enable-background="new 0 0 1000 1000" xml:space="preserve">

<g>
<g transform="translate(0.000000,511.000000) scale(0.100000,-0.100000)">
<path d="M550.5,3490.5L100,3040l126.1-124.1l124.1-126.1L600.5,3040l250.3,250.3V1572.5V-143.3h170.2h170.2v1725.8v1727.8l260.3-260.3l260.3-260.3l120.1,120.1l120.1,120.1l-454.5,454.5c-250.3,252.3-464.5,456.5-476.5,456.5C1008.9,3940.9,798.7,3738.7,550.5,3490.5z"/>
<path d="M3127.1,3080c-174.2-18-318.3-38-322.3-42c-2-4-76.1-166.2-160.2-360.4l-156.2-354.4l746.8-1027.1C3645.6,729.6,3998,245.1,4018,217.1c36-50,34-54.1-224.2-830.8c-142.1-428.5-260.3-790.8-260.3-804.8c0-14,216.2-320.3,480.5-682.7l480.5-660.7l274.3-110.1c152.1-62.1,686.7-276.3,1187.2-480.5l910.9-368.4l154.2,112.1c86.1,62.1,156.2,116.1,156.2,122.1c0,6-510.5,216.2-1135.2,468.5c-626.6,252.2-1183.2,478.5-1237.3,502.5c-94.1,40-122.1,74.1-496.5,586.6c-216.2,300.3-394.4,556.6-394.4,570.6c0,12,86.1,284.3,192.2,600.6c156.2,466.5,198.2,572.6,218.2,550.6c18-20,364.4-496.5,939-1291.3c6-8,270.3,184.2,272.3,196.2c0,8-598.6,834.8-1329.4,1841.9L2876.8,2369.3l50.1,110.1c26,60.1,64.1,142.1,82.1,180.2l34,70.1l194.2,20l192.2,20l824.8-1135.2c454.5-626.6,834.9-1137.2,842.9-1137.2c26,0,256.3,168.2,258.3,188.2c0,8-82.1,128.1-182.2,266.3c-98.1,136.1-186.2,262.3-192.2,278.3c-6,18,22,106.1,64.1,198.2c82.1,186.2,74.1,180.2,320.3,200.2l160.2,12l190.2-270.3c104.1-148.1,198.2-270.3,206.2-272.3c38-2,274.3,184.2,260.3,206.2c-8,14-66.1,104.1-130.1,200.2c-132.1,196.2-130.1,174.2-24,404.4c60.1,132.1,76.1,150.2,124.1,152.2c30,0,116.1,6,192.2,16l136.1,14l132.1-196.2c72.1-108.1,136.1-196.2,144.2-196.2c20,0,260.3,180.2,260.3,196.2c0,8-42,68.1-90.1,132.1c-50.1,66.1-90.1,126.1-90.1,136.1s32,94.1,72.1,186.2c82.1,186.2,72.1,180.2,318.3,200.2l160.2,12l560.6-774.8c308.3-426.4,580.6-802.8,606.6-838.9c32.1-44,128.1-364.4,304.3-1001l258.3-935l126.1-174.2c68.1-94.1,186.2-256.3,262.3-358.4l136.1-186.2l64.1,48c36,26,94.1,68.1,130.1,94.1c34,26,64.1,54.1,64.1,64.1c0,8-106.1,162.2-236.2,342.3L9427.5-832l-166.2,608.6c-92.1,334.3-208.2,756.8-260.3,939L8907,1048l-676.7,931c-372.4,512.5-680.7,935-682.7,936.9c-12,14-778.8-76.1-790.8-92.1c-8-8-44.1-84.1-82.1-172.2c-42.1-100.1-82.1-162.2-108.1-172.2c-22-8-188.2-36-368.4-62.1l-328.3-48l-86.1-184.2c-62.1-132.1-96.1-186.2-122.1-186.2c-68.1,0-750.8-80.1-764.8-88.1c-8-6-46-82.1-84.1-170.2c-38-90.1-74.1-162.2-82.1-162.2c-6,0-264.3,346.3-570.6,768.8l-556.6,770.8l-80.1-2C3479.4,3116.1,3301.3,3100.1,3127.1,3080z"/>
</g>
</g>
</svg>