<?xml version="1.0" encoding="utf-8"?>
<!-- Uploaded to: SVG Repo, www.svgrepo.com, Generator: SVG Repo Mixer Tools -->
<!DOCTYPE svg PUBLIC "-//W3C//DTD SVG 1.1//EN" "http://www.w3.org/Graphics/SVG/1.1/DTD/svg11.dtd">
<svg fill="#000000" width="800px" height="800px" viewBox="0 0 1000 1000" version="1.1" xmlns="http://www.w3.org/2000/svg" xmlns:xlink="http://www.w3.org/1999/xlink"  enable-background="new 0 0 1000 1000" xml:space="preserve">

<g>
<g transform="translate(0.000000,512.000000) scale(0.100000,-0.100000)">
<path d="M2309.8,4574L1865.7,4130l114.8-114.8l114.8-114.8l248.8,248.8l248.8,248.8V2746.1V1094.3l158.9,5.7l157,5.7l5.7,1636.5l3.8,1636.5l239.3-239.3l239.3-239.3l118.7,120.6l120.6,118.7L3196,4579.8L2755.8,5020L2309.8,4574z"/>
<path d="M5854.6,3527l-323.5-187.6l-9.6-394.3l-9.6-392.4l-143.6,84.2c-78.5,45.9-153.1,84.2-166.5,86.1c-11.5,0-162.7-80.4-335-179.9l-312-179.9l-9.6-1711.2l-9.6-1709.3l-245,426.8l-246.9,424.9h-375.2h-377.1l-189.5-327.3l-187.6-325.4l245-424.9c453.6-786.7,413.4-691,513-1190.5l90-440.2l553.2-555.1l555.1-555.1v-379V-4780h162.7h162.7v444.1v446l-566.6,566.6l-566.6,566.6l-90,438.3l-91.9,438.3l-289,501.5c-160.8,275.6-290.9,511.1-290.9,522.5c0,11.5,40.2,90,88,174.2l88.1,153.1l191.4-5.7l191.4-5.7l501.5-867.1l499.6-867.1l5.7,2226l5.7,2226.1l162.7,91.9l162.7,91.9l160.8-91.9l160.8-91.9l1.9-1353.3V-530.8h162.7H5847v1843.2l1.9,1841.3l160.8,91.9c90,51.7,170.4,90,178,86.1c9.6-3.8,82.3-44,162.7-90l147.4-86.1V1312.5V-530.8h162.7h162.7V816.7v1349.4l164.6,97.6l166.5,97.6l164.6-93.8l164.6-93.8l3.8-1347.5l1.9-1347.5l164.6-5.8l164.6-5.7V-370v164.6l72.7,44c38.3,24.9,109.1,67,157,93.8l88,49.8l166.5-95.7l166.5-95.7V-1193v-983.8l-325.4-867.1l-325.4-869v-432.6V-4780h162.7h162.7v402v402l325.4,867.1l325.4,869v1108.2V-23.6l-329.2,189.5c-250.7,145.5-335,185.7-357.9,170.3c-17.2-9.6-88-51.7-158.9-90l-130.2-72.7v1089.1v1091l-321.6,183.7c-178,101.5-331.1,185.7-340.7,185.7c-9.6,0-84.2-38.3-164.6-86.1c-82.3-47.9-153.1-86.1-158.9-86.1s-9.6,178-9.6,398.1l-1.9,396.2l-321.6,183.8l-323.5,185.7L5854.6,3527z"/>
<path d="M1936.5,3379.6c-7.7-5.7-13.4-748.4-13.4-1649.9V91.3l-245,245l-243.1,243.1l-114.8-114.8l-114.8-114.8l446-446l444.1-444.1l444.1,444.1l446,446l-120.6,118.7l-118.7,120.6l-248.8-248.8L2248.5,91.3v1651.8V3393h-149.3C2016.9,3393,1942.3,3387.3,1936.5,3379.6z"/>
</g>
</g>
</svg>