<?xml version="1.0" encoding="utf-8"?>
<!-- Uploaded to: SVG Repo, www.svgrepo.com, Generator: SVG Repo Mixer Tools -->
<!DOCTYPE svg PUBLIC "-//W3C//DTD SVG 1.1//EN" "http://www.w3.org/Graphics/SVG/1.1/DTD/svg11.dtd">
<svg fill="#000000" width="800px" height="800px" viewBox="0 0 1000 1000" version="1.1" xmlns="http://www.w3.org/2000/svg" xmlns:xlink="http://www.w3.org/1999/xlink"  enable-background="new 0 0 1000 1000" xml:space="preserve">

<g>
<g transform="translate(0.000000,512.000000) scale(0.100000,-0.100000)">
<path d="M1031.7,3366.7V1711.5l-241.1,241.1l-241.1,241.1l-119.6-121.5l-121.5-119.6l434.1-434.1c239.2-239.2,441.8-434.1,453.3-434.1c11.6,0,218,196.8,459.1,439.8l437.9,437.9L1977,2078.1l-115.8,115.7L1610.5,1943l-250.8-250.8v1664.8V5020h-164h-164V3366.7z"/>
<path d="M3412.3,2950l-347.2-36.7l-142.8-322.2c-77.2-175.6-144.7-333.7-148.5-351.1c-5.8-19.3,81-156.3,214.1-337.6c123.5-169.8,223.8-312.5,223.8-318.3c0-7.7-79.1-21.2-175.6-30.9c-96.5-11.6-181.3-27-191-36.7c-19.3-23.1-295.2-648.2-295.2-673.3c0-11.6,451.4-642.4,1005.1-1404.4c551.7-760.1,1001.2-1383.2,997.4-1383.2c-5.8,0-204.5,86.8-443.7,192.9s-443.7,192.9-455.3,192.9c-17.4,0-542.1-370.4-601.9-424.4c-15.4-13.5,19.3-416.7,55.9-688.7l11.6-79.1l611.5-273.9l609.6-272L4591-3528c138.9-127.3,295.2-270.1,349.2-318.3l98.4-84.9l740.8-115.8c407.1-63.7,758.2-121.5,779.4-125.4c23.2-5.8,127.3-135,250.8-308.7c117.7-164,216.1-297.1,221.8-299c5.8,0,69.4,42.4,138.9,92.6l129.3,92.6l-250.8,347.2c-138.9,189.1-258.5,353.1-266.2,360.8c-9.6,9.6-370.4,71.4-802.5,140.8c-434.1,67.5-800.6,135-817.9,148.6c-17.4,11.6-169.8,150.5-339.5,304.8L4513.8-3011l-536.3,237.3c-295.2,131.2-544,252.7-553.7,268.2c-7.7,17.4-21.2,106.1-28.9,196.8l-13.5,165.9l131.2,96.5c73.3,52.1,142.8,100.3,154.3,108c13.5,7.7,439.8-171.7,951.1-399.3c509.3-227.6,922.1-403.2,914.4-389.7c-7.7,11.6-598,825.7-1311.8,1809.5C3506.8,66,2922.3,878.1,2922.3,887.8c0,11.6,34.7,92.6,75.2,183.3l75.2,164l189.1,13.5c171.7,13.5,191,11.6,214.1-21.2c15.4-21.2,374.2-515.1,800.6-1101.5l773.6-1062.9l133.1,96.5c88.7,65.6,127.3,104.2,115.8,119.6c-9.6,11.6-501.6,686.8-1091.9,1500.9L3132.5,2261.3l75.2,167.8c83,189.1,71.4,181.3,326,206.4l131.2,13.5l1086.1-1497C5349.1,330.3,5844.9-343,5854.5-343c19.3,0,250.8,169.8,250.8,183.3c0,5.8-356.9,501.6-792.9,1101.5l-792.9,1091.9l23.2,71.4c13.5,38.6,46.3,117.7,75.2,175.6c55.9,115.7,44.4,111.9,335.7,140.8l90.7,9.6L5841,1333.4c436-603.8,800.6-1097.7,808.3-1097.7c9.6,0,71.4,40.5,140.8,90.7c79.1,55.9,119.6,96.5,108,110c-7.7,11.6-52.1,71.4-96.5,133.1l-83,113.8l73.3,162c40.5,90.7,86.8,171.7,102.3,179.4c17.4,9.6,104.2,23.1,194.8,30.9l165.9,11.6l586.5-806.4L8428-545.5l237.3-858.5c131.2-472.6,245-883.5,256.6-912.5c30.8-90.7,503.5-729.2,528.6-713.8c11.6,7.7,69.4,48.2,127.3,90.7c57.9,42.4,110,79.1,113.8,82.9c3.8,1.9-98.4,146.6-227.7,322.2l-231.5,320.2l-250.8,904.8l-250.8,906.7l-640.5,883.5c-353,486.1-650.1,895.1-663.6,908.6c-19.3,21.2-88.7,19.3-393.6-13.5c-204.5-23.1-374.2-40.5-376.2-40.5c-3.8,0-38.6-79.1-81-175.6c-65.6-156.3-77.2-169.8-100.3-138.9c-13.5,19.3-304.8,418.6-646.3,889.3l-619.3,852.7l-79.1-1.9c-42.4,0-212.2-15.4-376.2-32.8l-299-32.8l-77.2-158.2c-42.4-86.8-81-162-86.8-167.8c-5.8-5.8-113.8,133.1-241.1,306.7c-138.9,192.9-241.1,316.4-258.5,316.4C3774.9,2990.5,3605.2,2971.3,3412.3,2950z"/>
</g>
</g>
</svg>