<?xml version="1.0" encoding="utf-8"?>
<!-- Uploaded to: SVG Repo, www.svgrepo.com, Generator: SVG Repo Mixer Tools -->
<!DOCTYPE svg PUBLIC "-//W3C//DTD SVG 1.1//EN" "http://www.w3.org/Graphics/SVG/1.1/DTD/svg11.dtd">
<svg fill="#000000" width="800px" height="800px" viewBox="0 0 1000 1000" version="1.1" xmlns="http://www.w3.org/2000/svg" xmlns:xlink="http://www.w3.org/1999/xlink"  enable-background="new 0 0 1000 1000" xml:space="preserve">

<g>
<g transform="translate(0.000000,511.000000) scale(0.100000,-0.100000)">
<path d="M1593.3,2696.1L426.7,1527.6v351.7v349.8H263.4H100v-624.6V979.8h624.6h624.6v163.4v163.4h-340.2H667l1168.5,1168.5l1166.6,1166.6l-111.5,111.5c-61.5,59.6-115.3,109.6-119.2,109.6C2765.7,3862.7,2237.2,3338,1593.3,2696.1z"/>
<path d="M3390.3,2671.1c-161.4-17.3-299.8-40.4-309.4-50c-7.7-9.6-36.5-69.2-65.3-132.6c-26.9-63.4-92.3-211.4-144.1-328.7l-96.1-215.3L3780.5,564.7c551.6-761.1,1001.3-1383.8,999.4-1387.6c-3.8-3.8-199.9,80.7-438.2,186.4c-238.3,107.6-444,194.1-455.5,194.1c-15.4,0-528.5-361.3-601.6-422.8c-7.7-7.7,1.9-176.8,23.1-374.8c23.1-198,40.4-367.1,40.4-374.8s274.8-136.4,611.2-286.4l609.3-272.9l230.6-211.4c126.8-117.2,282.5-259.5,347.9-317.1l117.3-103.8l774.5-123c424.7-67.3,778.4-130.7,786.1-140.3c63.4-94.2,411.3-565,422.8-572.7c9.6-3.8,73,32.7,144.1,82.6l126.8,92.2L7259.2-3110c-205.6,282.5-271,361.3-313.3,369c-28.8,5.8-384.4,63.4-789.9,126.8l-738,115.3l-78.8,67.3c-44.2,36.5-194.1,173-336.3,303.7l-259.5,238.3l-536.2,236.4c-392.1,174.9-540.1,247.9-551.6,276.8c-7.7,23-21.1,109.5-28.8,194.1l-13.5,155.7L3767-917.1l151.8,109.6l926.4-411.3c507.4-226.8,924.4-407.4,924.4-405.5c0,3.8-588.1,816.8-1306.9,1806.6c-1018.6,1401.1-1305,1808.5-1297.3,1837.4c7.7,23.1,42.3,101.9,76.9,178.7l63.4,140.3l149.9,11.5c80.7,7.7,167.2,13.5,190.3,13.5c32.7,0,205.6-224.9,836-1093.6l795.7-1095.5l76.9,57.7c44.2,30.8,103.8,75,132.6,99.9l53.8,42.3l-196,265.2l-194.1,267.2l73,163.4c46.1,103.8,88.4,169.1,113.4,178.7c21.1,7.7,107.6,21.1,192.2,28.8l153.8,13.5l190.3-261.4c103.8-144.1,196-261.4,205.6-261.4c25,0,246,161.4,246,180.7c1.9,7.7-53.8,92.3-123,186.4c-69.2,92.2-124.9,180.7-124.9,194.1c0,44.2,140.3,342.1,161.5,342.1c11.5,1.9,101.9,13.5,199.9,26.9l176.8,25l121.1-188.4c65.4-105.7,126.9-190.3,136.5-190.3c7.7,0,71.1,40.4,138.4,90.3l121.1,88.4l-94.2,134.5c-103.8,146.1-103.8,123-3.8,342.1c63.4,142.2,61.5,140.3,294,161.4l144.2,13.5l584.3-803.4l586.2-805.3l249.8-905.2l251.8-903.3l236.4-326.7c130.7-178.8,242.2-330.6,249.9-338.3c9.6-11.5,182.6,98,269.1,169.1c3.8,3.8-92.3,142.2-213.3,309.4s-226.8,315.2-234.5,328.6c-7.7,13.5-124.9,424.8-261.4,916.8l-246,889.8l-657.3,905.2c-361.3,497.8-663.1,905.2-668.8,905.2c-34.6,0-741.9-78.8-745.7-82.6c-1.9-1.9-36.5-78.8-75-171.1c-65.4-151.8-78.8-169.1-132.6-178.7c-32.7-5.8-197.9-34.6-365.2-63.4l-305.6-51.9l-69.2-159.5c-40.4-88.4-84.6-167.2-98-176.8c-15.4-7.7-149.9-25-297.9-36.5c-148-13.5-309.4-26.9-357.5-34.6l-90.3-9.6l-73-173c-67.3-153.8-76.9-167.2-99.9-136.5c-13.5,19.2-259.5,357.5-545.8,751.5l-522.8,715l-76.9-1.9C3719,2705.7,3551.8,2690.3,3390.3,2671.1z"/>
</g>
</g>
</svg>