<?xml version="1.0" encoding="utf-8"?>
<!-- Uploaded to: SVG Repo, www.svgrepo.com, Generator: SVG Repo Mixer Tools -->
<!DOCTYPE svg PUBLIC "-//W3C//DTD SVG 1.1//EN" "http://www.w3.org/Graphics/SVG/1.1/DTD/svg11.dtd">
<svg fill="#000000" width="800px" height="800px" viewBox="0 0 1000 1000" version="1.1" xmlns="http://www.w3.org/2000/svg" xmlns:xlink="http://www.w3.org/1999/xlink"  enable-background="new 0 0 1000 1000" xml:space="preserve">

<g>
<g transform="translate(0.000000,511.000000) scale(0.100000,-0.100000)">
<path d="M4128.9,4247.8L4010.1,4129l247.5-247.5L4505,3634l-1356.2-4l-1356.2-5.9l-5.9-162.3l-5.9-164.3h1372h1372l-257.4-257.4l-257.4-257.4l124.7-122.7l122.8-124.7l459.3,461.3l461.3,459.3l-455.4,455.4c-249.5,249.5-459.3,455.4-465.2,455.4C4251.6,4366.6,4194.2,4313.1,4128.9,4247.8z"/>
<path d="M559.3,3232.1L100,2772.8l455.4-455.4l455.4-455.4l122.7,124.7l124.7,122.7l-247.5,247.5l-247.5,247.5l1356.2,4l1356.2,5.9l5.9,164.3l5.9,162.3h-1372h-1372l257.4,257.4l257.4,257.4l-118.8,118.8l-118.8,118.8L559.3,3232.1z"/>
<path d="M5831.5,3424.2l-316.8-184.1l-9.9-1764l-9.9-1764l-249.4,431.6L4998,575.2l-396,4l-394,5.9l-194-338.5L3822-92l342.5-597.9l344.5-595.9l93-465.3l95-465.3l572.1-574.1l572.2-574.1v-392v-390h168.3H6178v459.3v461.3l-584,584l-582.1,584l-93,445.5c-49.5,245.5-102.9,467.2-116.8,494.9s-152.5,267.3-304.9,530.6C4342.7-321.6,4218-97.9,4218-88c0,7.9,41.6,87.1,91.1,176.2l93,162.3l200-5.9l200-5.9l514.7-892.9l514.7-894.9l9.9,2298.5l9.9,2298.5l166.3,95l164.3,95l166.3-93.1l166.3-95V1650.3V248.6h168.3h168.3v336.6v336.6l75.2,45.5c39.6,25.7,118.8,71.3,174.2,103l99,55.4l160.4-93l158.4-91.1l13.9-257.4c7.9-140.6,7.9-297,2-346.5l-13.9-89.1h180.2h180.2v243.5v241.5l166.3,93.1l166.3,95l174.2-97l176.2-97l-7.9-239.6l-7.9-239.6h170.3h170.3l5.9,172.2l5.9,172.2l162.3,93.1l160.4,93l170.3-99l170.3-99V-442.4v-1023.5l-336.6-896.9l-336.6-896.9v-443.5v-443.5h168.3h168.3v411.8v411.8l336.6,896.9l336.6,898.8V-377V775.2l-332.6,192c-184.1,104.9-338.6,192-346.5,192c-5.9,0-79.2-39.6-160.4-89.1c-83.1-49.5-160.4-89.1-170.3-89.1c-11.9,0-166.3,73.3-346.5,164.3l-328.6,162.3l-102.9-57.4c-57.4-31.7-134.6-75.2-172.2-97l-71.3-39.6l-295,174.2c-164.3,97-314.8,186.1-336.6,200c-35.6,21.8-59.4,13.9-207.9-73.3l-168.3-97l-9.9,964.2l-9.9,964.2l-316.8,184.1c-174.2,101-330.6,182.1-346.5,182.1C6162.1,3610.3,6005.7,3527.1,5831.5,3424.2z"/>
</g>
</g>
</svg>