<?xml version="1.0" encoding="utf-8"?>
<!-- Uploaded to: SVG Repo, www.svgrepo.com, Generator: SVG Repo Mixer Tools -->
<!DOCTYPE svg PUBLIC "-//W3C//DTD SVG 1.1//EN" "http://www.w3.org/Graphics/SVG/1.1/DTD/svg11.dtd">
<svg fill="#000000" width="800px" height="800px" viewBox="0 0 1000 1000" version="1.1" xmlns="http://www.w3.org/2000/svg" xmlns:xlink="http://www.w3.org/1999/xlink"  enable-background="new 0 0 1000 1000" xml:space="preserve">

<g>
<g transform="translate(0.000000,511.000000) scale(0.100000,-0.100000)">
<path d="M929.2,4549.3l-458.7-458.7l470.8-470.8l468.8-468.8l121.2,121.2l121.2,121.2l-262.7,262.7l-262.7,262.7H2871h1741.8v171.8v171.8H2871H1127.2l258.6,258.6l256.6,256.6l-117.2,117.2c-64.7,62.6-121.2,115.2-125.3,115.2C1394,5010,1181.8,4803.9,929.2,4549.3z"/>
<path d="M2911.4,3294.5c-163.7-18.2-301.1-38.4-309.2-44.5c-20.2-20.2-313.2-687-313.2-713.3c0-12.1,105.1-167.7,234.4-343.5c127.3-175.8,228.3-323.3,222.3-329.4c-6.1-6.1-88.9-20.2-187.9-30.3c-97-10.1-181.9-22.2-185.9-28.3c-4-4-78.8-167.7-165.7-363.7L2046.6,1086L3091.3-350.7c573.9-792.1,1052.7-1450.8,1064.9-1467c12.1-16.2,14.1-24.2,2-18.2c-111.1,66.7-947.7,418.3-965.9,406.1c-18.2-10.1-549.6-392-618.3-442.5c-14.1-12.1,74.8-780,92.9-798.1c8.1-8.1,291-137.4,626.4-286.9c335.4-149.5,632.5-288.9,660.7-309.2c26.3-22.2,196-173.8,375.8-339.5l325.3-301.1l802.2-127.3c440.5-70.7,808.3-127.3,816.3-129.3c8.1,0,117.2-141.4,242.5-313.2c125.3-171.8,234.4-313.2,242.5-313.2c8.1,0,74.8,42.4,145.5,92.9l129.3,95l-155.6,214.2c-86.9,117.2-210.1,286.9-274.8,377.8l-119.2,163.7l-810.3,127.3c-444.5,68.7-826.4,133.3-848.7,143.4c-22.2,8.1-192,155.6-377.9,325.3l-337.4,309.1l-565.8,250.6c-311.2,137.4-569.8,260.7-575.9,274.8c-4,14.2-14.2,105.1-22.2,204.1l-14.2,179.8l157.6,111.1c84.9,60.6,163.7,109.1,173.8,105.1c8.1-2,446.5-194,969.9-428.4c523.3-232.4,955.7-422.3,957.8-418.3c2,2-612.2,854.7-1368,1893.3c-753.7,1038.6-1372,1895.3-1372,1905.4c0,8.1,32.3,92.9,72.7,185.9c82.8,189.9,62.6,177.8,351.6,202.1l131.3,10.1l828.5-1143.7c454.6-628.4,832.5-1145.7,840.6-1149.7c6.1-6,60.6,28.3,121.2,72.7c60.6,44.5,121.2,88.9,135.4,97c20.2,12.1-286.9,446.5-1101.2,1570c-622.3,854.7-1135.6,1564-1143.7,1578.1c-8.1,12.1,20.2,103,62.6,202.1l78.8,177.8l189.9,22.2c105.1,10.1,196,18.2,204.1,14.1c10.1-4,521.3-705.2,1139.6-1557.9c618.3-852.7,1131.5-1555.9,1139.6-1566c18.2-20.2,284.9,171.7,274.8,200c-4,10.1-373.8,523.3-820.4,1137.6c-446.6,614.3-816.3,1131.6-822.4,1147.7c-16.2,40.4,133.4,365.7,173.8,377.8c18.2,6.1,109.1,14.1,204.1,22.2l171.8,10.1l798.1-1105.3c438.5-606.2,816.3-1125.5,838.6-1151.8l40.4-46.5L6496,546.5l135.4,101L6009,1500.2c-341.5,468.8-626.4,864.8-634.5,877c-8.1,12.1,20.2,103,62.6,202.1L5516,2757l198,24.2c109.1,14.1,200,24.2,202.1,20.2c4-2,523.3-717.3,1155.8-1590.2L8221.6-375l258.7-941.6l260.7-941.6l240.4-331.4c131.3-181.9,252.6-343.5,266.7-357.7c22.2-24.2,48.5-12.1,159.6,68.7c76.8,54.6,127.3,105.1,121.2,117.2c-8.1,12.1-113.1,159.6-234.4,325.3c-121.2,167.7-228.3,321.3-238.4,343.5c-10.1,22.2-127.3,440.5-260.7,929.5c-133.4,489-250.6,907.3-260.7,931.5c-12.1,28.3-2434.8,3378.5-2455,3394.6c0,2-177.8-16.2-394-40.4l-394-42.4l-82.8-181.9l-82.8-179.8l-127.3,169.7c-68.7,95-133.4,183.9-141.4,200c-14.1,22.2-80.8,20.2-402.1-14.1c-214.2-22.2-394-46.5-404.1-52.5c-10.1-6.1-48.5-82.9-86.9-171.8c-38.4-90.9-74.8-163.7-82.8-163.7c-6.1,0-119.2,145.5-248.5,323.3l-234.4,323.3l-95-2C3250.9,3328.8,3075.1,3312.7,2911.4,3294.5z"/>
</g>
</g>
</svg>