<?xml version="1.0" encoding="utf-8"?>
<!-- Uploaded to: SVG Repo, www.svgrepo.com, Generator: SVG Repo Mixer Tools -->
<!DOCTYPE svg PUBLIC "-//W3C//DTD SVG 1.1//EN" "http://www.w3.org/Graphics/SVG/1.1/DTD/svg11.dtd">
<svg fill="#000000" width="800px" height="800px" viewBox="0 0 1000 1000" version="1.1" xmlns="http://www.w3.org/2000/svg" xmlns:xlink="http://www.w3.org/1999/xlink"  enable-background="new 0 0 1000 1000" xml:space="preserve">

<g>
<g transform="translate(0.000000,511.000000) scale(0.100000,-0.100000)">
<path d="M1745.5,4080.5v-164.6h352.3h354.3l-1177-1177L100,1563.8l116.2-116.2l116.2-116.2l1171.2,1171.2L2674.7,3674v-344.6v-342.7H2849h174.2v629.2V4245h-638.8h-638.8V4080.5z"/>
<path d="M3358.1,2330.4c-162.6-17.4-303.9-40.7-311.7-50.3c-9.7-11.6-38.7-71.6-67.8-135.5c-27.1-63.9-92.9-212.9-145.2-331l-96.8-214.9L3749.1,206.8c555.6-764.7,1008.6-1393.8,1006.7-1397.7c-1.9-2-199.4,83.2-439.4,189.7c-240,106.5-447.2,193.6-460.7,193.6c-17.4,0-538.2-365.9-605.9-425.9c-11.6-11.6,56.1-753.1,69.7-768.5c1.9-1.9,276.8-125.8,611.7-274.9c364-160.7,631.1-292.3,667.9-325.2c87.1-81.3,534.3-489.8,592.4-540.1c42.6-38.7,143.3-60,793.7-162.6c410.4-63.9,762.7-120,784-125.8s125.8-129.7,242-292.3c112.3-154.9,212.9-290.4,224.6-300.1c11.6-9.7,67.8,17.4,149.1,77.4l129.7,92.9l-261.3,360.1c-205.2,280.7-272.9,362-315.5,369.8c-52.3,11.6-1521.6,243.9-1537.1,243.9c-5.8,0-160.7,139.4-346.5,307.8l-336.9,307.8L4177-2023.3c-385.2,170.4-544,249.7-553.7,276.8c-7.7,21.3-21.3,108.4-29,195.5l-13.6,156.8l131.6,94.9c71.6,52.3,143.3,102.6,156.8,110.3c13.5,9.7,383.3-145.2,954.4-400.7c511.1-226.5,929.2-410.4,929.2-406.5c0,3.9-592.4,822.8-1316.4,1819.7C3420,1219.3,3121.9,1645.1,3131.6,1674.2c5.8,21.3,40.7,100.7,75.5,178.1l63.9,141.3l187.8,17.4l189.7,17.4l98.7-135.5c54.2-73.6,416.2-573,805.3-1105.4l704.7-971.8l131.6,96.8c81.3,60,125.8,104.5,118.1,118.1c-7.7,13.6-94.9,135.5-195.5,273l-182,247.8l71.6,164.6c40.6,89,87.1,170.4,104.6,178.1c17.4,9.7,104.5,23.2,195.5,31l166.5,11.6l189.7-261.3C5961.9,530.1,6054.8,412,6062.5,412c21.3,0,251.7,170.4,251.7,185.8c0,7.7-56.1,91-125.8,183.9c-69.7,94.9-125.8,183.9-125.8,199.4c0,21.3,127.8,319.4,143.3,334.9c1.9,3.9,73.6,13.5,158.7,25.2c83.3,11.6,172.3,25.2,193.6,29c34.9,7.7,62-21.3,162.6-176.2c67.8-100.7,129.7-187.8,137.4-193.6c13.6-7.7,182,102.6,253.6,164.6c7.7,7.7-27.1,71.6-81.3,145.2c-104.6,145.2-104.6,120-3.9,344.6c34.8,73.6,73.6,131.6,94.9,137.4c19.4,5.8,104.5,17.4,191.6,23.2l156.8,13.6l582.7-803.4c321.4-439.5,588.5-815,596.3-832.4c5.8-17.4,122-431.7,257.5-917.6l245.8-886.6l238.1-329.1c131.6-180,245.8-334.9,251.7-344.6c7.7-7.7,61.9,21.3,120,65.8c58.1,42.6,116.2,85.2,131.7,94.9c21.3,11.6-7.7,63.9-135.5,240.1c-89.1,123.9-195.5,271-236.2,327.1c-65.8,92.9-94.9,185.9-321.4,1006.7l-249.7,904.1l-662.1,909.9c-363.9,499.5-671.8,909.9-687.2,909.9c-40.6,0-731.8-77.4-735.6-83.2c-3.9-1.9-36.8-77.4-77.4-168.4c-38.7-91-73.6-166.5-75.5-168.4c-1.9-1.9-162.6-31-358.1-63.9c-197.4-32.9-362-63.9-367.8-67.8c-7.7-3.9-42.6-77.4-79.4-166.5c-42.6-98.7-81.3-164.6-106.5-174.2c-21.3-7.7-160.7-25.2-309.7-36.8c-470.4-36.8-420.1-15.5-505.3-214.9c-67.8-156.8-77.4-170.4-100.7-139.4c-13.6,19.4-261.3,360.1-549.8,756.9L3813,2367.2l-81.3-1.9C3689.1,2363.3,3518.8,2347.9,3358.1,2330.4z"/>
</g>
</g>
</svg>