<?xml version="1.0" encoding="utf-8"?>
<!-- Uploaded to: SVG Repo, www.svgrepo.com, Generator: SVG Repo Mixer Tools -->
<!DOCTYPE svg PUBLIC "-//W3C//DTD SVG 1.1//EN" "http://www.w3.org/Graphics/SVG/1.1/DTD/svg11.dtd">
<svg fill="#000000" width="800px" height="800px" viewBox="0 0 1000 1000" version="1.1" xmlns="http://www.w3.org/2000/svg" xmlns:xlink="http://www.w3.org/1999/xlink"  enable-background="new 0 0 1000 1000" xml:space="preserve">

<g>
<g transform="translate(0.000000,511.000000) scale(0.100000,-0.100000)">
<path d="M1691,4557.7l-450.3-450.3l119-119l119-119l248,248l248,248l4-1696.2l5.9-1696.2h168.6h168.6l5.9,1696.2l4,1696.2l248-248l248-248l119,119l119,119l-450.3,450.3c-248,250-456.3,452.3-462.2,452.3C2147.3,5010,1939,4807.6,1691,4557.7z"/>
<path d="M5710.2,3821.7l-333.3-192.4l-9.9-410.6l-9.9-410.6l-156.7,89.3c-85.3,49.6-164.6,89.3-178.5,89.3c-11.9-2-164.7-85.3-339.2-186.5l-317.4-186.5L4355.3,842l-9.9-1773.5l-71.4,119c-37.7,65.5-152.7,263.8-253.9,442.4L3833.5-48.7h-390.8h-390.8L2859.5-382C2754.3-564.5,2669-721.2,2669-727.2c0-7.9,152.8-277.7,337.2-599.1l339.2-585.2l99.2-482.1l99.2-482.1l573.3-575.3l575.3-575.3v-382.9V-4790h168.6h168.6v460.2v462.2l-593.1,595.1l-591.2,595.1l-85.3,426.5c-45.6,234.1-99.2,458.2-119,495.9c-19.8,37.7-160.7,285.7-313.4,551.5l-279.7,482.1l99.2,168.6l99.2,166.7h194.4h196.4l521.7-906.6l523.7-906.6l5.9,2311.1l4,2309.2l168.6,95.2l168.6,95.2l162.7-95.2l164.6-97.2l6-1402.5l4-1402.5h168.6h168.6v1910.4v1908.4l168.6,95.2l168.6,97.2l168.6-95.2l168.6-95.2V1524.4V-385.9h168.6H6716v238.1V88.2l170.6,101.2l168.6,99.2l180.5-93.2l178.6-95.2l-7.9-242l-7.9-244h164.7h164.6v166.6v164.6l164.6,95.2c89.3,53.6,172.6,95.2,182.5,95.2c11.9,0,93.2-41.7,184.5-95.2L8422-54.7v-1015.7v-1015.7l-347.1-924.5L7727.7-3935v-428.5V-4790h168.6H8065l2,164.6c0,89.3,2,277.7,6,420.6l6,257.9l339.2,900.7l341.2,898.7v1138.7V129.8l-73.4,47.6c-41.6,25.8-194.4,117.1-341.2,200.4l-267.8,154.7l-99.2-57.5c-55.5-29.8-134.9-73.4-174.6-97.2l-73.4-39.7l-337.2,166.6l-335.3,168.6l-160.7-93.2c-87.3-51.6-164.6-93.2-170.6-93.2c-6,0-11.9,708.2-13.9,1571.2l-5.9,1573.2l-331.3,190.4l-331.3,192.4L5710.2,3821.7z"/>
</g>
</g>
</svg>