<?xml version="1.0" encoding="utf-8"?>
<!-- Uploaded to: SVG Repo, www.svgrepo.com, Generator: SVG Repo Mixer Tools -->
<svg width="800px" height="800px" viewBox="0 0 1024 1024" class="icon"  version="1.1" xmlns="http://www.w3.org/2000/svg"><path d="M706.2 414.4h12v6h-12zM655.9 569.8c3.4 0 6 2.6 6 6s-2.6 6-6 6h-0.1l-0.4-12h0.5z" fill="#D05C86" /><path d="M655.4 569.8l0.4 12c-3.4-0.1-5.9-2.6-5.9-6 0-3.2 2.4-5.8 5.5-6zM510.1 241.9h41.4c-12.3 3-25.9 5.5-41.2 7.4l-0.2-7.4z" fill="#D05C86" /><path d="M509.8 237.3l-1.4-36.6 0.2-26.4c0-0.1-0.6-5.3-0.6-13v-0.5c0.1-17.3 2.8-47.2 18.7-66.4 8.9-10.8 21.1-16.8 36.4-17.9 2.5-0.2 5-0.2 7.6-0.2 28.3 0 53.1 11.8 67.3 32.4 13.2 19.2 15.3 43.2 5.2 64.5-0.2 0.6-21.3 49.6-133.4 64.1z" fill="#FC86B7" /><path d="M510.3 249.3l0.1 1.7-2.4-0.2c0.1-0.4 0-0.7 0-1.1 0.9-0.1 1.6-0.2 2.3-0.4z" fill="#D05C86" /><path d="M731.8 253.9H508.2c0-1.2 0-2.3-0.1-3.1l2.4 0.2-0.1-1.7c15.3-1.9 28.9-4.4 41.2-7.4h180.3c23.2 0 42 18.9 42 42v94.4c0 23.2-18.9 42-42 42h-13.6v-6h-12v6H557.6v-12h174.2c16.6 0 30-13.5 30-30v-94.4c0-16.5-13.4-30-30-30zM508.4 200.7l1.4 36.6c-0.5 0.1-1.1 0.1-1.7 0.2l0.3-36.8zM508 161.3c0 7.7 0.6 12.9 0.6 13l-0.2 26.4-1-25.1c0.2-0.7 0.6-6.1 0.6-14.3z" fill="#D05C86" /><path d="M508 160.8c0-11.4-1-27.9-6-44.1 3.2-10.7 8.2-21.1 15.5-30 11-13.3 26.2-20.8 44.8-22.2 35.6-2.6 67.6 11.4 85.5 37.4 15.7 22.8 18 51.3 6.4 76.1-0.6 1.8-17.8 43.2-102.7 63.9h-41.4l-0.2-4.6c112.1-14.5 133.2-63.5 133.3-64.1 10.1-21.3 8-45.3-5.2-64.5-14.2-20.7-38.9-32.4-67.3-32.4-2.5 0-5 0-7.6 0.2-15.3 1.1-27.5 7.1-36.4 17.9-15.9 19.2-18.5 49.1-18.7 66.4zM508 249.7c0 0.4 0.1 0.7 0 1.1l-4.4-0.5h-0.4c1.7-0.2 3.3-0.4 4.8-0.6z" fill="#D05C86" /><path d="M508 247.7l-12-0.2 0.1-5.5H510l0.2 7.4c-0.7 0.1-1.4 0.2-2.3 0.4 0.1-1.1 0.1-1.8 0.1-2.1zM496 249.3c2.4 0.4 4.8 0.6 7.2 1h-0.5l-6.7 0.7v-1.7z" fill="#D05C86" /><path d="M496 249.3v-1.9l12 0.2v2c-1.6 0.2-3.1 0.4-4.8 0.6-2.4-0.3-4.8-0.5-7.2-0.9z" fill="#D05C86" /><path d="M498.6 370c6.7 61.7 23.7 132.2 64 174.4 24.9 26.1 56.3 38.6 93.2 37.4h0.1c3.4 0 6-2.6 6-6s-2.6-6-6-6h-0.5c-33.4 1.1-61.7-10.2-84.2-33.6-55-57.5-64-175.1-64.4-240.8 1.1-19 1.3-33.5 1.3-41.4h223.6c16.6 0 30 13.5 30 30v94.4c0 16.6-13.5 30-30 30H557.6v12h148.6V866c0 16.6-13.5 30-30 30H313.5c-16.6 0-30-13.5-30-30V420.4h155.1l35.2 7.2c-19.5 73.9-55.6 150.4-122.6 187-0.1 0.1-0.4 0.1-0.5 0.2-1.9 1-3.1 3-3.1 5.3 0 3.4 2.6 6 6 6 1.1 0 2-0.2 2.9-0.7 0.2-0.1 0.5-0.2 0.6-0.4 90.5-49.4 126.9-164.8 141.5-255z" fill="#FFBB97" /><path d="M496.4 200l1.6 37.6c-0.6-0.1-1.2-0.1-1.8-0.2l0.2-37.4z" fill="#D05C86" /><path d="M498 237.6l-1.6-37.6 0.2-25.1c-0.1-0.5-0.6-5.6-0.6-13.7v-0.2c0-11.3 1.1-27.9 6-44.2 5 16.2 6 32.7 6 44.1v0.5c0 8.2-0.5 13.6-0.6 14.3l1 25.1-0.2 36.9c0.6-0.1 1.2-0.1 1.7-0.2l0.2 4.6h-13.9v-4.6c0.6-0.1 1.2-0.1 1.8 0.1z" fill="#D05C86" /><path d="M496.6 174.9l-0.2 25.1-1-24.7c0-0.5 0.6-5.9 0.6-14.1 0 8 0.5 13.2 0.6 13.7z" fill="#D05C86" /><path d="M495.4 175.2l1 24.7-0.2 37.4c-111.9-14.7-135.1-63.8-135.4-64.4-9.8-21-7.8-45 5.4-64.3 14.2-20.7 38.9-32.4 67.1-32.4 2.5 0 5 0 7.7 0.2 15.1 1.1 27.4 7.1 36.4 17.9 16 19.1 18.6 49 18.6 66.5v0.2c0 8.3-0.6 13.8-0.6 14.2z" fill="#FC86B7" /><path d="M496 247.4v1.9s-0.1 0.1-0.1 0c0.1-0.9 0.1-1.5 0.1-1.9z" fill="#D05C86" /><path d="M508.2 253.9h-12.5c0.1-1.9 0.1-3.5 0.2-4.6 0 0.1 0.1 0 0.1 0v1.7l6.7-0.7h0.9l4.4 0.5c0.2 0.8 0.2 1.9 0.2 3.1z" fill="#D05C86" /><path d="M251.4 253.9h244.3c-0.5 7.8-1.1 21.7-1.1 39.8-2.2 34.1-7.7 83.4-20.9 133.9l-35.2-7.2v-12H251.4c-16.6 0-30-13.5-30-30V284c-0.1-16.6 13.4-30.1 30-30.1z" fill="#FFBB97" /><path d="M454.5 241.9h41.7l-0.1 5.5c0 0.4 0 1-0.1 1.9-15.3-1.9-29.2-4.4-41.5-7.4zM562.6 544.4c-40.4-42.2-57.3-112.7-64-174.4-14.5 90.2-50.9 205.5-141.6 255 1.6-1.1 2.5-2.9 2.5-4.9 0-3.4-2.6-6-6-6-0.8 0-1.7 0.1-2.4 0.5 67-36.6 103.2-113.1 122.6-187 13.2-50.6 18.7-99.8 20.9-133.9 0-18 0.6-31.9 1.1-39.8h12.5c0 7.9-0.2 22.5-1.3 41.4 0.4 65.7 9.4 183.3 64.4 240.8 22.5 23.4 50.8 34.7 84.2 33.6-3.1 0.2-5.5 2.8-5.5 6 0 3.4 2.5 5.9 5.9 6-37 1.3-68.5-11.2-93.3-37.3z" fill="#D05C86" /><path d="M353.5 614.1c3.4 0 6 2.6 6 6 0 2-1 3.8-2.5 4.9-0.1 0.1-0.4 0.2-0.6 0.4l-5.8-10.6c0.1-0.1 0.4-0.1 0.5-0.2 0.7-0.4 1.5-0.5 2.4-0.5zM502 116.7c-4.9 16.3-6 32.9-6 44.2 0-17.5-2.6-47.4-18.6-66.5-9-10.8-21.3-16.8-36.4-17.9-2.6-0.2-5.2-0.2-7.7-0.2-28.2 0-53 11.8-67.1 32.4-13.2 19.2-15.3 43.2-5.4 64.3 0.2 0.6 23.4 49.7 135.4 64.4v4.6h-41.7c-85.2-20.7-103.8-62.1-104.6-64-11.7-24.7-9.2-53.2 6.4-76 17.9-26.1 50-40 85.6-37.4 18.6 1.4 33.6 8.9 44.8 22.2 7.3 8.7 12.2 19.2 15.3 29.9z" fill="#D05C86" /><path d="M350.6 614.8l5.8 10.6c-0.8 0.5-1.8 0.7-2.9 0.7-3.4 0-6-2.6-6-6 0-2.3 1.2-4.3 3.1-5.3zM271.4 414.4h12v6h-12z" fill="#D05C86" /><path d="M283.4 866c0 16.6 13.5 30 30 30h362.7c16.6 0 30-13.5 30-30V420.4h12V866c0 23.2-18.9 42-42 42H313.5c-23.2 0-42-18.9-42-42V420.4h12V866zM209.3 378.3v-94.4c0-23.2 18.9-42 42-42h203.1c12.4 3 26.2 5.5 41.4 7.4-0.1 1.1-0.1 2.6-0.2 4.6H251.4c-16.6 0-30 13.5-30 30v94.4c0 16.6 13.5 30 30 30h187.1v12H283.4v-6h-12v6h-20.1c-23.1 0.1-42-18.8-42-42z" fill="#D05C86" /></svg>