<?xml version="1.0" encoding="utf-8"?>
<!-- Uploaded to: SVG Repo, www.svgrepo.com, Generator: SVG Repo Mixer Tools -->
<svg width="800px" height="800px" viewBox="0 0 1024 1024" class="icon"  version="1.1" xmlns="http://www.w3.org/2000/svg"><path d="M868.6 747v87H550.2v-87h243.5z" fill="#8FEFC6" /><path d="M774.3 531.8v195.8H550.2V531.8h139.5z" fill="#FFE085" /><path d="M721.1 244.2v82.1H550.2v-82.1zM550.2 345.7h120.2v166.7H550.2z" fill="#FF7B98" /><path d="M689.7 512.4h104v215.2H888v125.7H550.2V834h318.4v-87H550.2v-19.4h224.2V531.8H550.2v-19.4h120.2V345.7H550.2v-19.4h171v-82.1h-171v-10c15-2.6 28.2-5.6 39.8-9.4h150.5v120.9h-50.8v166.7z" fill="#EF4668" /><path d="M550.2 224.8H590c-11.6 3.8-24.8 6.8-39.8 9.4v-9.4z" fill="#EF4668" /><path d="M530.8 747v87h-66.4V244.2h66.4v483.4zM627.5 176.2c-4.8 12.6-25.5 34.2-110 42.6 8.9-31.1 29.5-84.5 58.5-94.1 3-1.1 6.1-1.6 9.4-1.6 9.4 0 19.4 4.6 29.7 13.5 0.3 0.1 19.7 20.8 12.4 39.6z" fill="#FFAEB2" /><path d="M550.2 234.2c-12.4 1.9-25.9 3.5-40.7 4.8l0.4 1.4-8.7-0.7-8.7 0.7 0.4-1.4c-17.7-1.5-33.7-3.5-47.9-6.1v-8h105.2v9.3z" fill="#EF4668" /><path d="M426.3 124.7c29.1 9.7 49.7 63 58.5 94.1-84.3-8.3-105.2-30-110-42.6-7.2-18.8 11.7-39.2 11.6-39.2 14.6-12.3 27.6-16.6 39.9-12.3z" fill="#FFAEB2" /><path d="M464.4 531.8V834h66.4V244.2h-66.4V531.8zM445 345.7V232.9c14.2 2.6 30.2 4.6 47.9 6.1l-0.4 1.4 8.7-0.7 8.7 0.7-0.4-1.4c14.7-1.2 28.2-2.9 40.7-4.8v619H445V345.7z" fill="#EF4668" /><path d="M445 747v87H126.5v-87h75.1z" fill="#8FEFC6" /><path d="M445 531.8v195.8H220.8V531.8h84.6z" fill="#FFE085" /><path d="M324.8 345.7H445v166.7H324.8zM445 244.2v82.1H274v-82.1z" fill="#FF7B98" /><path d="M445 224.8v8c-12.1-2.2-22.9-4.9-32.6-8H445zM484.8 218.8c-8.9-31.1-29.5-84.5-58.5-94.1-12.3-4.2-25.2 0-39.8 12.4 0.1 0-18.8 20.3-11.6 39.2 4.7 12.5 25.6 34.2 109.9 42.5z m142.7-42.6c7.2-18.8-12.1-39.6-12.3-39.7-10.4-8.9-20.3-13.5-29.7-13.5-3.3 0-6.4 0.5-9.4 1.6-29.1 9.7-49.7 63-58.5 94.1 84.4-8.2 105.2-29.9 109.9-42.5z m1-53.7c1.8 1.8 28.7 30 17.2 60.6-7 18.3-25.4 32.2-55.7 41.7H412.4c-30.3-9.6-48.7-23.5-55.7-41.7-11.6-30.6 15.4-58.8 16.5-60 20.6-17.6 40.2-23.1 59.2-16.8 37 12.4 59.1 68.5 68.8 100 9.7-31.5 31.8-87.6 68.8-100 18.9-6.3 38.6-0.9 58.5 16.2z" fill="#EF4668" /><path d="M445 531.8H220.8v195.8H445V747H126.6v87H445v19.2H107.3V727.6h94.3V512.4h103.8V345.7h-50.8V224.8h157.7c9.7 3.1 20.5 5.9 32.6 8v11.3H274v82.1h171v19.4H324.8v166.7H445v19.5z" fill="#EF4668" /></svg>